<svg width="4174pt" height="392pt"
 viewBox="0.00 0.00 4174.24 392.00" xmlns="http://www.w3.org/2000/svg" xmlns:xlink="http://www.w3.org/1999/xlink">
<g id="graph0" class="graph" transform="scale(1 1) rotate(0) translate(4 388)">
<title>project</title>
<polygon fill="#ffffff" stroke="transparent" points="-4,4 -4,-388 4170.2414,-388 4170.2414,4 -4,4"/>
<text text-anchor="middle" x="2083.1207" y="-8.2" font-family="Times,serif" font-size="14.00" fill="#000000">Method Calls for :service.auxiliary.AbstractService</text>
<!-- opList.get(i).getOpName().equals(opName)\n -->
<g id="node1" class="node">
<title>opList.get(i).getOpName().equals(opName)\n</title>
<polygon fill="none" stroke="#ff0000" points="1710.7251,-88.8 1448.5915,-88.8 1448.5915,-52.8 1710.7251,-52.8 1710.7251,-88.8"/>
<text text-anchor="middle" x="1579.6583" y="-66.6" font-family="Times,serif" font-size="14.00" fill="#ff0000">opList.get(i).getOpName().equals(opName)</text>
</g>
<!-- op.getOpName().equals(opName)\n -->
<g id="node2" class="node">
<title>op.getOpName().equals(opName)\n</title>
<polygon fill="none" stroke="#ff0000" points="1935.1302,-88.8 1728.1864,-88.8 1728.1864,-52.8 1935.1302,-52.8 1935.1302,-88.8"/>
<text text-anchor="middle" x="1831.6583" y="-66.6" font-family="Times,serif" font-size="14.00" fill="#ff0000">op.getOpName().equals(opName)</text>
</g>
<!-- customProperties.containsKey(RESPONSE_TIME)\n -->
<g id="node3" class="node">
<title>customProperties.containsKey(RESPONSE_TIME)\n</title>
<polygon fill="none" stroke="#ff0000" points="2260.3682,-88.8 1952.9484,-88.8 1952.9484,-52.8 2260.3682,-52.8 2260.3682,-88.8"/>
<text text-anchor="middle" x="2106.6583" y="-66.6" font-family="Times,serif" font-size="14.00" fill="#ff0000">customProperties.containsKey(RESPONSE_TIME)</text>
</g>
<!-- os != null\nis != null\n -->
<g id="node4" class="node">
<title>os != null\nis != null\n</title>
<polygon fill="none" stroke="#ff0000" points="2347.4396,-91.4019 2277.877,-91.4019 2277.877,-50.1981 2347.4396,-50.1981 2347.4396,-91.4019"/>
<text text-anchor="middle" x="2312.6583" y="-75" font-family="Times,serif" font-size="14.00" fill="#ff0000">os != null</text>
<text text-anchor="middle" x="2312.6583" y="-58.2" font-family="Times,serif" font-size="14.00" fill="#ff0000">is != null</text>
</g>
<!-- obj instanceof ServiceDescription\nregisterID == service.getRegisterID() &amp;&amp; endpoint.equals(service.getServiceEndpoint()) &amp;&amp; type.equals(service.getServiceType())\n!opList.get(i).equals(service.getOperationList().get(i))\n!service.getCustomProperties().containsKey(key)\n!service.getCustomProperties().get(key).equals(value)\n -->
<g id="node5" class="node">
<title>obj instanceof ServiceDescription\nregisterID == service.getRegisterID() &amp;&amp; endpoint.equals(service.getServiceEndpoint()) &amp;&amp; type.equals(service.getServiceType())\n!opList.get(i).equals(service.getOperationList().get(i))\n!service.getCustomProperties().containsKey(key)\n!service.getCustomProperties().get(key).equals(value)\n</title>
<polygon fill="none" stroke="#ff0000" points="3123.1992,-116.8 2366.1174,-116.8 2366.1174,-24.8 3123.1992,-24.8 3123.1992,-116.8"/>
<text text-anchor="middle" x="2744.6583" y="-100.2" font-family="Times,serif" font-size="14.00" fill="#ff0000">obj instanceof ServiceDescription</text>
<text text-anchor="middle" x="2744.6583" y="-83.4" font-family="Times,serif" font-size="14.00" fill="#ff0000">registerID == service.getRegisterID() &amp;&amp; endpoint.equals(service.getServiceEndpoint()) &amp;&amp; type.equals(service.getServiceType())</text>
<text text-anchor="middle" x="2744.6583" y="-66.6" font-family="Times,serif" font-size="14.00" fill="#ff0000">!opList.get(i).equals(service.getOperationList().get(i))</text>
<text text-anchor="middle" x="2744.6583" y="-49.8" font-family="Times,serif" font-size="14.00" fill="#ff0000">!service.getCustomProperties().containsKey(key)</text>
<text text-anchor="middle" x="2744.6583" y="-33" font-family="Times,serif" font-size="14.00" fill="#ff0000">!service.getCustomProperties().get(key).equals(value)</text>
</g>
<!-- parallel\nparallelTimes.containsKey(token)\n -->
<g id="node6" class="node">
<title>parallel\nparallelTimes.containsKey(token)\n</title>
<polygon fill="none" stroke="#ff0000" points="3829.0301,-91.4019 3622.2865,-91.4019 3622.2865,-50.1981 3829.0301,-50.1981 3829.0301,-91.4019"/>
<text text-anchor="middle" x="3725.6583" y="-75" font-family="Times,serif" font-size="14.00" fill="#ff0000">parallel</text>
<text text-anchor="middle" x="3725.6583" y="-58.2" font-family="Times,serif" font-size="14.00" fill="#ff0000">parallelTimes.containsKey(token)</text>
</g>
<!-- maxTime &lt; value\n -->
<g id="node7" class="node">
<title>maxTime &lt; value\n</title>
<polygon fill="none" stroke="#ff0000" points="3968.0264,-88.8 3853.2902,-88.8 3853.2902,-52.8 3968.0264,-52.8 3968.0264,-88.8"/>
<text text-anchor="middle" x="3910.6583" y="-66.6" font-family="Times,serif" font-size="14.00" fill="#ff0000">maxTime &lt; value</text>
</g>
<!-- DEBUG\nreply\nresponseTime ==  -->
<g id="node8" class="node">
<title>DEBUG\nreply\nresponseTime == </title>
<polygon fill="none" stroke="#ff0000" points="117.4753,-245.0014 -.1587,-245.0014 -.1587,-186.1986 117.4753,-186.1986 117.4753,-245.0014"/>
<text text-anchor="middle" x="58.6583" y="-228.2" font-family="Times,serif" font-size="14.00" fill="#ff0000">DEBUG</text>
<text text-anchor="middle" x="58.6583" y="-211.4" font-family="Times,serif" font-size="14.00" fill="#ff0000">reply</text>
<text text-anchor="middle" x="58.6583" y="-194.6" font-family="Times,serif" font-size="14.00" fill="#ff0000">responseTime == </text>
</g>
<!-- DEBUG\n!(result instanceof OperationAborted)\nthread instanceof ExecutionThread\nDEBUG\nresponse.getReturnType() != null\n -->
<g id="node9" class="node">
<title>DEBUG\n!(result instanceof OperationAborted)\nthread instanceof ExecutionThread\nDEBUG\nresponse.getReturnType() != null\n</title>
<polygon fill="none" stroke="#ff0000" points="362.6218,-261.6 134.6948,-261.6 134.6948,-169.6 362.6218,-169.6 362.6218,-261.6"/>
<text text-anchor="middle" x="248.6583" y="-245" font-family="Times,serif" font-size="14.00" fill="#ff0000">DEBUG</text>
<text text-anchor="middle" x="248.6583" y="-228.2" font-family="Times,serif" font-size="14.00" fill="#ff0000">!(result instanceof OperationAborted)</text>
<text text-anchor="middle" x="248.6583" y="-211.4" font-family="Times,serif" font-size="14.00" fill="#ff0000">thread instanceof ExecutionThread</text>
<text text-anchor="middle" x="248.6583" y="-194.6" font-family="Times,serif" font-size="14.00" fill="#ff0000">DEBUG</text>
<text text-anchor="middle" x="248.6583" y="-177.8" font-family="Times,serif" font-size="14.00" fill="#ff0000">response.getReturnType() != null</text>
</g>
<!-- !(result instanceof OperationAborted)\n -->
<g id="node10" class="node">
<title>!(result instanceof OperationAborted)\n</title>
<polygon fill="none" stroke="#ff0000" points="607.6218,-233.6 379.6948,-233.6 379.6948,-197.6 607.6218,-197.6 607.6218,-233.6"/>
<text text-anchor="middle" x="493.6583" y="-211.4" font-family="Times,serif" font-size="14.00" fill="#ff0000">!(result instanceof OperationAborted)</text>
</g>
<!-- description.getRegisterID() &gt; 0\n -->
<g id="node11" class="node">
<title>description.getRegisterID() &gt; 0\n</title>
<polygon fill="none" stroke="#ff0000" points="816.6054,-233.6 624.7112,-233.6 624.7112,-197.6 816.6054,-197.6 816.6054,-233.6"/>
<text text-anchor="middle" x="720.6583" y="-211.4" font-family="Times,serif" font-size="14.00" fill="#ff0000">description.getRegisterID() &gt; 0</text>
</g>
<!-- operation.getAnnotation(ServiceOperation.class) != null\n -->
<g id="node12" class="node">
<title>operation.getAnnotation(ServiceOperation.class) != null\n</title>
<polygon fill="none" stroke="#ff0000" points="1166.4494,-233.6 834.8672,-233.6 834.8672,-197.6 1166.4494,-197.6 1166.4494,-233.6"/>
<text text-anchor="middle" x="1000.6583" y="-211.4" font-family="Times,serif" font-size="14.00" fill="#ff0000">operation.getAnnotation(ServiceOperation.class) != null</text>
</g>
<!-- configuration.multipleThreads == false\n -->
<g id="node13" class="node">
<title>configuration.multipleThreads == false\n</title>
<polygon fill="none" stroke="#ff0000" points="1420.5493,-233.6 1184.7673,-233.6 1184.7673,-197.6 1420.5493,-197.6 1420.5493,-233.6"/>
<text text-anchor="middle" x="1302.6583" y="-211.4" font-family="Times,serif" font-size="14.00" fill="#ff0000">configuration.multipleThreads == false</text>
</g>
<!-- Class: [AbstractService] -->
<g id="node14" class="node">
<title>Class: [AbstractService]</title>
<ellipse fill="none" stroke="#000000" cx="2327.6583" cy="-366" rx="105.3045" ry="18"/>
<text text-anchor="middle" x="2327.6583" y="-361.8" font-family="Times,serif" font-size="14.00" fill="#000000">Class: [AbstractService]</text>
</g>
<!-- Class: [AbstractService]&#45;&gt;DEBUG\nreply\nresponseTime ==  -->
<g id="edge26" class="edge">
<title>Class: [AbstractService]&#45;&gt;DEBUG\nreply\nresponseTime == </title>
<path fill="none" stroke="#ff0000" d="M2222.3809,-365.0684C1821.7701,-361.4002 410.168,-347.3026 315.8981,-330 227.5243,-313.7795 205.6268,-302.5643 125.6583,-261.6 119.1832,-258.2831 112.5983,-254.4362 106.2107,-250.4073"/>
<polygon fill="#ff0000" stroke="#ff0000" points="107.9411,-247.3575 97.6513,-244.8334 104.1212,-253.2234 107.9411,-247.3575"/>
<text text-anchor="middle" x="352.0384" y="-300.6" font-family="Times,serif" font-size="14.00" fill="#ff0000">sendRequest</text>
</g>
<!-- Class: [AbstractService]&#45;&gt;DEBUG\n!(result instanceof OperationAborted)\nthread instanceof ExecutionThread\nDEBUG\nresponse.getReturnType() != null\n -->
<g id="edge27" class="edge">
<title>Class: [AbstractService]&#45;&gt;DEBUG\n!(result instanceof OperationAborted)\nthread instanceof ExecutionThread\nDEBUG\nresponse.getReturnType() != null\n</title>
<path fill="none" stroke="#ff0000" d="M2222.4215,-364.8664C1852.6773,-360.7536 630.9533,-346.0156 548.6807,-330 481.5574,-316.9335 409.8727,-290.1213 353.4107,-265.7372"/>
<polygon fill="#ff0000" stroke="#ff0000" points="354.6915,-262.4775 344.1259,-261.6902 351.8944,-268.8944 354.6915,-262.4775"/>
<text text-anchor="middle" x="581.1471" y="-300.6" font-family="Times,serif" font-size="14.00" fill="#ff0000">onMessage</text>
</g>
<!-- Class: [AbstractService]&#45;&gt;!(result instanceof OperationAborted)\n -->
<g id="edge28" class="edge">
<title>Class: [AbstractService]&#45;&gt;!(result instanceof OperationAborted)\n</title>
<path fill="none" stroke="#ff0000" d="M2222.5361,-364.7278C1881.5501,-360.4529 824.0318,-345.973 752.4479,-330 670.0773,-311.6201 581.7085,-266.3845 532.4924,-238.6183"/>
<polygon fill="#ff0000" stroke="#ff0000" points="534.1898,-235.5572 523.7685,-233.6474 530.7243,-241.6392 534.1898,-235.5572"/>
<text text-anchor="middle" x="762.7635" y="-300.6" font-family="Times,serif" font-size="14.00" fill="#ff0000">call</text>
</g>
<!-- Class: [AbstractService]&#45;&gt;description.getRegisterID() &gt; 0\n -->
<g id="edge29" class="edge">
<title>Class: [AbstractService]&#45;&gt;description.getRegisterID() &gt; 0\n</title>
<path fill="none" stroke="#ff0000" d="M2222.481,-365.4231C1895.1686,-363.3672 912.6745,-355.1253 849.0481,-330 803.2481,-311.9142 763.1695,-269.6451 740.4516,-241.8623"/>
<polygon fill="#ff0000" stroke="#ff0000" points="742.9467,-239.3779 733.9715,-233.7479 737.4769,-243.7461 742.9467,-239.3779"/>
<text text-anchor="middle" x="921.9634" y="-300.6" font-family="Times,serif" font-size="14.00" fill="#ff0000">updateServiceDescription</text>
</g>
<!-- Class: [AbstractService]&#45;&gt;operation.getAnnotation(ServiceOperation.class) != null\n -->
<g id="edge30" class="edge">
<title>Class: [AbstractService]&#45;&gt;operation.getAnnotation(ServiceOperation.class) != null\n</title>
<path fill="none" stroke="#ff0000" d="M2222.4666,-364.8723C1915.756,-361.3573 1042.5558,-349.644 1019.9583,-330 996.0433,-309.2107 994.2331,-270.7681 996.3908,-244.2213"/>
<polygon fill="#ff0000" stroke="#ff0000" points="999.9002,-244.3136 997.4611,-234.0033 992.9383,-243.5842 999.9002,-244.3136"/>
<text text-anchor="middle" x="1091.0083" y="-300.6" font-family="Times,serif" font-size="14.00" fill="#ff0000">createServiceDescription</text>
</g>
<!-- Class: [AbstractService]&#45;&gt;configuration.multipleThreads == false\n -->
<g id="edge31" class="edge">
<title>Class: [AbstractService]&#45;&gt;configuration.multipleThreads == false\n</title>
<path fill="none" stroke="#ff0000" d="M2222.5992,-364.6436C1941.4952,-360.7655 1192.1285,-348.6939 1174.0089,-330 1158.4187,-313.9157 1162.2133,-298.6427 1174.0089,-279.6 1185.6284,-260.8416 1204.5771,-247.4054 1224.403,-237.8531"/>
<polygon fill="#ff0000" stroke="#ff0000" points="1225.8707,-241.0307 1233.5507,-233.7323 1222.9956,-234.6484 1225.8707,-241.0307"/>
<text text-anchor="middle" x="1229.483" y="-300.6" font-family="Times,serif" font-size="14.00" fill="#ff0000">applyConfiguration</text>
</g>
<!-- Class: [Request] -->
<g id="node15" class="node">
<title>Class: [Request]</title>
<ellipse fill="none" stroke="#000000" cx="1513.6583" cy="-215.6" rx="74.6914" ry="18"/>
<text text-anchor="middle" x="1513.6583" y="-211.4" font-family="Times,serif" font-size="14.00" fill="#000000">Class: [Request]</text>
</g>
<!-- Class: [AbstractService]&#45;&gt;Class: [Request] -->
<g id="edge1" class="edge">
<title>Class: [AbstractService]&#45;&gt;Class: [Request]</title>
<path fill="none" stroke="#000000" d="M2222.8035,-364.2368C1963.9457,-359.6353 1314.2637,-346.4702 1298.3595,-330 1282.7996,-313.8864 1283.6352,-296.4806 1298.3595,-279.6 1317.7183,-257.4062 1401.6902,-270.8258 1429.6583,-261.6 1446.9187,-255.9064 1464.7544,-246.6879 1479.527,-237.993"/>
<polygon fill="#000000" stroke="#000000" points="1481.5554,-240.8564 1488.2967,-232.683 1477.9297,-234.8685 1481.5554,-240.8564"/>
<text text-anchor="middle" x="1334.8077" y="-317.4" font-family="Times,serif" font-size="14.00" fill="#000000">[call</text>
<text text-anchor="middle" x="1334.8077" y="-300.6" font-family="Times,serif" font-size="14.00" fill="#000000">&#45;&#45;&gt;</text>
<text text-anchor="middle" x="1334.8077" y="-283.8" font-family="Times,serif" font-size="14.00" fill="#000000">getOpName]</text>
</g>
<!-- Class: [AbstractService]&#45;&gt;Class: [Request] -->
<g id="edge2" class="edge">
<title>Class: [AbstractService]&#45;&gt;Class: [Request]</title>
<path fill="none" stroke="#000000" d="M2222.8632,-363.8505C1981.8973,-358.6594 1407.8981,-344.7716 1393.6849,-330 1378.1537,-313.8587 1381.9113,-298.6563 1393.6849,-279.6 1403.0817,-264.3907 1413.8211,-269.895 1429.6583,-261.6 1444.5195,-253.8162 1460.7148,-245.0224 1474.884,-237.2239"/>
<polygon fill="#000000" stroke="#000000" points="1476.8056,-240.161 1483.8682,-232.2635 1473.4222,-234.033 1476.8056,-240.161"/>
<text text-anchor="middle" x="1426.145" y="-317.4" font-family="Times,serif" font-size="14.00" fill="#000000">[call</text>
<text text-anchor="middle" x="1426.145" y="-300.6" font-family="Times,serif" font-size="14.00" fill="#000000">&#45;&#45;&gt;</text>
<text text-anchor="middle" x="1426.145" y="-283.8" font-family="Times,serif" font-size="14.00" fill="#000000">getParams]</text>
</g>
<!-- Class: [AbstractService]&#45;&gt;Class: [Request] -->
<g id="edge9" class="edge">
<title>Class: [AbstractService]&#45;&gt;Class: [Request]</title>
<path fill="none" stroke="#000000" d="M2222.3251,-365.3637C2000.7517,-363.506 1504.6679,-356.4052 1479.3595,-330 1456.4149,-306.0611 1475.522,-267.3873 1493.0957,-241.7303"/>
<polygon fill="#000000" stroke="#000000" points="1495.9628,-243.7381 1498.9338,-233.5683 1490.2693,-239.6657 1495.9628,-243.7381"/>
<text text-anchor="middle" x="1515.8077" y="-317.4" font-family="Times,serif" font-size="14.00" fill="#000000">[onMessage</text>
<text text-anchor="middle" x="1515.8077" y="-300.6" font-family="Times,serif" font-size="14.00" fill="#000000">&#45;&#45;&gt;</text>
<text text-anchor="middle" x="1515.8077" y="-283.8" font-family="Times,serif" font-size="14.00" fill="#000000">getOpName]</text>
</g>
<!-- Class: [AbstractService]&#45;&gt;Class: [Request] -->
<g id="edge10" class="edge">
<title>Class: [AbstractService]&#45;&gt;Class: [Request]</title>
<path fill="none" stroke="#000000" d="M2223.2974,-363.533C2024.7804,-358.4835 1610.0231,-346.0775 1583.0201,-330 1581.9284,-329.35 1549.9009,-276.1035 1529.7534,-242.4913"/>
<polygon fill="#000000" stroke="#000000" points="1532.5633,-240.371 1524.4214,-233.5916 1526.5585,-243.9687 1532.5633,-240.371"/>
<text text-anchor="middle" x="1617.4774" y="-317.4" font-family="Times,serif" font-size="14.00" fill="#000000">[onMessage</text>
<text text-anchor="middle" x="1617.4774" y="-300.6" font-family="Times,serif" font-size="14.00" fill="#000000">&#45;&#45;&gt;</text>
<text text-anchor="middle" x="1617.4774" y="-283.8" font-family="Times,serif" font-size="14.00" fill="#000000">getParams]</text>
</g>
<!-- Class: [ServiceDescription] -->
<g id="node16" class="node">
<title>Class: [ServiceDescription]</title>
<ellipse fill="none" stroke="#000000" cx="2106.6583" cy="-215.6" rx="117.4855" ry="18"/>
<text text-anchor="middle" x="2106.6583" y="-211.4" font-family="Times,serif" font-size="14.00" fill="#000000">Class: [ServiceDescription]</text>
</g>
<!-- Class: [AbstractService]&#45;&gt;Class: [ServiceDescription] -->
<g id="edge3" class="edge">
<title>Class: [AbstractService]&#45;&gt;Class: [ServiceDescription]</title>
<path fill="none" stroke="#000000" d="M2223.11,-364.0384C2041.2574,-360.1099 1684.1429,-349.8973 1665.2977,-330 1649.8943,-313.7367 1650.639,-296.5376 1665.2977,-279.6 1686.4432,-255.1672 1867.681,-235.3854 1991.2344,-224.5779"/>
<polygon fill="#000000" stroke="#000000" points="1991.8523,-228.0376 2001.513,-223.6878 1991.2483,-221.0637 1991.8523,-228.0376"/>
<text text-anchor="middle" x="1738.3386" y="-317.4" font-family="Times,serif" font-size="14.00" fill="#000000">[createServiceDescription</text>
<text text-anchor="middle" x="1738.3386" y="-300.6" font-family="Times,serif" font-size="14.00" fill="#000000">&#45;&#45;&gt;</text>
<text text-anchor="middle" x="1738.3386" y="-283.8" font-family="Times,serif" font-size="14.00" fill="#000000">setOperationList]</text>
</g>
<!-- Class: [AbstractService]&#45;&gt;Class: [ServiceDescription] -->
<g id="edge4" class="edge">
<title>Class: [AbstractService]&#45;&gt;Class: [ServiceDescription]</title>
<path fill="none" stroke="#000000" d="M2224.8332,-362.0528C2083.873,-356.1333 1846.4364,-344.1303 1833.2977,-330 1777.3289,-269.8072 1897.6831,-240.1887 1996.081,-226.4265"/>
<polygon fill="#000000" stroke="#000000" points="1996.694,-229.8755 2006.1333,-225.0641 1995.7538,-222.9389 1996.694,-229.8755"/>
<text text-anchor="middle" x="1906.3386" y="-317.4" font-family="Times,serif" font-size="14.00" fill="#000000">[createServiceDescription</text>
<text text-anchor="middle" x="1906.3386" y="-300.6" font-family="Times,serif" font-size="14.00" fill="#000000">&#45;&#45;&gt;</text>
<text text-anchor="middle" x="1906.3386" y="-283.8" font-family="Times,serif" font-size="14.00" fill="#000000">setServiceType]</text>
</g>
<!-- Class: [AbstractService]&#45;&gt;Class: [ServiceDescription] -->
<g id="edge14" class="edge">
<title>Class: [AbstractService]&#45;&gt;Class: [ServiceDescription]</title>
<path fill="none" stroke="#000000" d="M2225.7372,-361.4858C2135.6954,-356.4233 2016.3929,-346.6571 2001.4731,-330 1986.5279,-313.3146 1990.497,-299.1265 2001.4731,-279.6 2012.0947,-260.7041 2030.806,-246.736 2049.5315,-236.7566"/>
<polygon fill="#000000" stroke="#000000" points="2051.3131,-239.779 2058.6898,-232.174 2048.1806,-233.5189 2051.3131,-239.779"/>
<text text-anchor="middle" x="2043.2509" y="-317.4" font-family="Times,serif" font-size="14.00" fill="#000000">[register</text>
<text text-anchor="middle" x="2043.2509" y="-300.6" font-family="Times,serif" font-size="14.00" fill="#000000">&#45;&#45;&gt;</text>
<text text-anchor="middle" x="2043.2509" y="-283.8" font-family="Times,serif" font-size="14.00" fill="#000000">getRegisterID]</text>
</g>
<!-- Class: [AbstractService]&#45;&gt;Class: [ServiceDescription] -->
<g id="edge15" class="edge">
<title>Class: [AbstractService]&#45;&gt;Class: [ServiceDescription]</title>
<path fill="none" stroke="#000000" d="M2237.5019,-356.6885C2180.8644,-349.9109 2116.9017,-340.1717 2108.1477,-330 2087.9914,-306.5794 2091.7823,-269.3781 2097.8591,-243.7933"/>
<polygon fill="#000000" stroke="#000000" points="2101.2902,-244.5072 2100.4444,-233.9462 2094.5197,-242.7296 2101.2902,-244.5072"/>
<text text-anchor="middle" x="2154.9136" y="-317.4" font-family="Times,serif" font-size="14.00" fill="#000000">[register</text>
<text text-anchor="middle" x="2154.9136" y="-300.6" font-family="Times,serif" font-size="14.00" fill="#000000">&#45;&#45;&gt;</text>
<text text-anchor="middle" x="2154.9136" y="-283.8" font-family="Times,serif" font-size="14.00" fill="#000000">getServiceType]</text>
</g>
<!-- Class: [AbstractService]&#45;&gt;Class: [ServiceDescription] -->
<g id="edge16" class="edge">
<title>Class: [AbstractService]&#45;&gt;Class: [ServiceDescription]</title>
<path fill="none" stroke="#000000" d="M2261.6551,-351.9358C2248.0781,-346.7364 2234.6912,-339.648 2224.0285,-330 2205.7199,-313.4337 2216.6328,-298.4271 2200.6583,-279.6 2186.6268,-263.0628 2167.3288,-248.9335 2149.8678,-238.1907"/>
<polygon fill="#000000" stroke="#000000" points="2151.3266,-234.9863 2140.9418,-232.8868 2147.7507,-241.0041 2151.3266,-234.9863"/>
<text text-anchor="middle" x="2265.4732" y="-317.4" font-family="Times,serif" font-size="14.00" fill="#000000">[register</text>
<text text-anchor="middle" x="2265.4732" y="-300.6" font-family="Times,serif" font-size="14.00" fill="#000000">&#45;&#45;&gt;</text>
<text text-anchor="middle" x="2265.4732" y="-283.8" font-family="Times,serif" font-size="14.00" fill="#000000">setRegisterID]</text>
</g>
<!-- Class: [AbstractService]&#45;&gt;Class: [ServiceDescription] -->
<g id="edge23" class="edge">
<title>Class: [AbstractService]&#45;&gt;Class: [ServiceDescription]</title>
<path fill="none" stroke="#000000" d="M2327.913,-347.7108C2327.1836,-328.3527 2323.0448,-298.0961 2305.6583,-279.6 2288.7117,-261.5718 2233.3605,-244.5915 2185.3243,-232.6576"/>
<polygon fill="#000000" stroke="#000000" points="2186.0599,-229.2344 2175.5152,-230.2642 2184.4006,-236.0349 2186.0599,-229.2344"/>
<text text-anchor="middle" x="2368.2509" y="-317.4" font-family="Times,serif" font-size="14.00" fill="#000000">[unRegister</text>
<text text-anchor="middle" x="2368.2509" y="-300.6" font-family="Times,serif" font-size="14.00" fill="#000000">&#45;&#45;&gt;</text>
<text text-anchor="middle" x="2368.2509" y="-283.8" font-family="Times,serif" font-size="14.00" fill="#000000">getRegisterID]</text>
</g>
<!-- Class: [AbstractService]&#45;&gt;Class: [ServiceDescription] -->
<g id="edge24" class="edge">
<title>Class: [AbstractService]&#45;&gt;Class: [ServiceDescription]</title>
<path fill="none" stroke="#000000" d="M2386.9937,-351.0663C2396.7515,-345.9676 2405.6317,-339.1396 2411.6583,-330 2423.9893,-311.2996 2425.7777,-296.9897 2411.6583,-279.6 2387.669,-250.0545 2297.9361,-233.6542 2221.9626,-224.874"/>
<polygon fill="#000000" stroke="#000000" points="2222.1475,-221.3729 2211.8198,-223.737 2221.3676,-228.3293 2222.1475,-221.3729"/>
<text text-anchor="middle" x="2496.2937" y="-317.4" font-family="Times,serif" font-size="14.00" fill="#000000">[updateServiceDescription</text>
<text text-anchor="middle" x="2496.2937" y="-300.6" font-family="Times,serif" font-size="14.00" fill="#000000">&#45;&#45;&gt;</text>
<text text-anchor="middle" x="2496.2937" y="-283.8" font-family="Times,serif" font-size="14.00" fill="#000000">getRegisterID]</text>
</g>
<!-- Class: [AbstractMessage] -->
<g id="node17" class="node">
<title>Class: [AbstractMessage]</title>
<ellipse fill="none" stroke="#000000" cx="2722.6583" cy="-215.6" rx="109.9612" ry="18"/>
<text text-anchor="middle" x="2722.6583" y="-211.4" font-family="Times,serif" font-size="14.00" fill="#000000">Class: [AbstractMessage]</text>
</g>
<!-- Class: [AbstractService]&#45;&gt;Class: [AbstractMessage] -->
<g id="edge5" class="edge">
<title>Class: [AbstractService]&#45;&gt;Class: [AbstractMessage]</title>
<path fill="none" stroke="#000000" d="M2426.8594,-359.9471C2484.5129,-354.8253 2550.4389,-345.7165 2574.6583,-330 2596.8963,-315.5693 2587.2551,-297.7699 2606.5587,-279.6 2625.4025,-261.8629 2650.0897,-247.3605 2671.8523,-236.673"/>
<polygon fill="#000000" stroke="#000000" points="2673.4515,-239.7881 2680.9745,-232.3278 2670.4412,-233.4683 2673.4515,-239.7881"/>
<text text-anchor="middle" x="2643.2081" y="-317.4" font-family="Times,serif" font-size="14.00" fill="#000000">[onMessage</text>
<text text-anchor="middle" x="2643.2081" y="-300.6" font-family="Times,serif" font-size="14.00" fill="#000000">&#45;&#45;&gt;</text>
<text text-anchor="middle" x="2643.2081" y="-283.8" font-family="Times,serif" font-size="14.00" fill="#000000">getEndpoint]</text>
</g>
<!-- Class: [AbstractService]&#45;&gt;Class: [AbstractMessage] -->
<g id="edge6" class="edge">
<title>Class: [AbstractService]&#45;&gt;Class: [AbstractMessage]</title>
<path fill="none" stroke="#000000" d="M2429.0128,-361.0421C2525.8988,-355.4406 2660.0737,-345.0929 2679.6583,-330 2686.8237,-324.4779 2703.5256,-275.5425 2713.8778,-243.487"/>
<polygon fill="#000000" stroke="#000000" points="2717.2797,-244.3399 2716.9957,-233.7489 2710.6131,-242.2054 2717.2797,-244.3399"/>
<text text-anchor="middle" x="2736.4774" y="-317.4" font-family="Times,serif" font-size="14.00" fill="#000000">[onMessage</text>
<text text-anchor="middle" x="2736.4774" y="-300.6" font-family="Times,serif" font-size="14.00" fill="#000000">&#45;&#45;&gt;</text>
<text text-anchor="middle" x="2736.4774" y="-283.8" font-family="Times,serif" font-size="14.00" fill="#000000">getId]</text>
</g>
<!-- Class: [AbstractService]&#45;&gt;Class: [AbstractMessage] -->
<g id="edge7" class="edge">
<title>Class: [AbstractService]&#45;&gt;Class: [AbstractMessage]</title>
<path fill="none" stroke="#000000" d="M2429.2066,-361.1956C2556.4036,-354.6757 2759.2163,-342.4095 2770.6583,-330 2793.977,-304.7094 2769.5161,-266.4474 2747.8171,-241.2432"/>
<polygon fill="#000000" stroke="#000000" points="2750.2103,-238.669 2740.9332,-233.5519 2744.9944,-243.3375 2750.2103,-238.669"/>
<text text-anchor="middle" x="2814.4774" y="-317.4" font-family="Times,serif" font-size="14.00" fill="#000000">[onMessage</text>
<text text-anchor="middle" x="2814.4774" y="-300.6" font-family="Times,serif" font-size="14.00" fill="#000000">&#45;&#45;&gt;</text>
<text text-anchor="middle" x="2814.4774" y="-283.8" font-family="Times,serif" font-size="14.00" fill="#000000">getType]</text>
</g>
<!-- Class: [AbstractService]&#45;&gt;Class: [AbstractMessage] -->
<g id="edge17" class="edge">
<title>Class: [AbstractService]&#45;&gt;Class: [AbstractMessage]</title>
<path fill="none" stroke="#000000" d="M2430.9577,-362.5C2579.8177,-356.9456 2838.4926,-345.1703 2852.6583,-330 2867.9461,-313.628 2864.4934,-298.6181 2852.6583,-279.6 2839.3993,-258.2939 2816.734,-243.8745 2794.0063,-234.21"/>
<polygon fill="#000000" stroke="#000000" points="2795.2186,-230.9255 2784.6331,-230.4805 2792.6307,-237.4296 2795.2186,-230.9255"/>
<text text-anchor="middle" x="2901.3687" y="-317.4" font-family="Times,serif" font-size="14.00" fill="#000000">[sendRequest</text>
<text text-anchor="middle" x="2901.3687" y="-300.6" font-family="Times,serif" font-size="14.00" fill="#000000">&#45;&#45;&gt;</text>
<text text-anchor="middle" x="2901.3687" y="-283.8" font-family="Times,serif" font-size="14.00" fill="#000000">getId]</text>
</g>
<!-- Class: [ExecutionThread] -->
<g id="node18" class="node">
<title>Class: [ExecutionThread]</title>
<ellipse fill="none" stroke="#000000" cx="2981.6583" cy="-215.6" rx="109.9689" ry="18"/>
<text text-anchor="middle" x="2981.6583" y="-211.4" font-family="Times,serif" font-size="14.00" fill="#000000">Class: [ExecutionThread]</text>
</g>
<!-- Class: [AbstractService]&#45;&gt;Class: [ExecutionThread] -->
<g id="edge8" class="edge">
<title>Class: [AbstractService]&#45;&gt;Class: [ExecutionThread]</title>
<path fill="none" stroke="#000000" d="M2431.567,-362.9178C2601.6425,-357.4506 2922.6948,-345.1876 2942.6583,-330 2969.0784,-309.9005 2977.7384,-270.9538 2980.4992,-244.1303"/>
<polygon fill="#000000" stroke="#000000" points="2984.0159,-244.0648 2981.3354,-233.8147 2977.0388,-243.4992 2984.0159,-244.0648"/>
<text text-anchor="middle" x="3006.4774" y="-317.4" font-family="Times,serif" font-size="14.00" fill="#000000">[onMessage</text>
<text text-anchor="middle" x="3006.4774" y="-300.6" font-family="Times,serif" font-size="14.00" fill="#000000">&#45;&#45;&gt;</text>
<text text-anchor="middle" x="3006.4774" y="-283.8" font-family="Times,serif" font-size="14.00" fill="#000000">getToken]</text>
</g>
<!-- Class: [Response] -->
<g id="node19" class="node">
<title>Class: [Response]</title>
<ellipse fill="none" stroke="#000000" cx="3189.6583" cy="-215.6" rx="80.492" ry="18"/>
<text text-anchor="middle" x="3189.6583" y="-211.4" font-family="Times,serif" font-size="14.00" fill="#000000">Class: [Response]</text>
</g>
<!-- Class: [AbstractService]&#45;&gt;Class: [Response] -->
<g id="edge11" class="edge">
<title>Class: [AbstractService]&#45;&gt;Class: [Response]</title>
<path fill="none" stroke="#000000" d="M2431.8884,-363.3724C2624.4914,-358.1552 3018.9724,-345.6316 3044.6583,-330 3066.8046,-316.5225 3055.4914,-297.7283 3074.0243,-279.6 3080.1079,-273.6492 3117.9745,-253.1021 3148.7436,-236.8746"/>
<polygon fill="#000000" stroke="#000000" points="3150.3876,-239.9646 3157.6106,-232.2135 3147.1305,-233.7685 3150.3876,-239.9646"/>
<text text-anchor="middle" x="3114.4753" y="-317.4" font-family="Times,serif" font-size="14.00" fill="#000000">[onMessage</text>
<text text-anchor="middle" x="3114.4753" y="-300.6" font-family="Times,serif" font-size="14.00" fill="#000000">&#45;&#45;&gt;</text>
<text text-anchor="middle" x="3114.4753" y="-283.8" font-family="Times,serif" font-size="14.00" fill="#000000">getRequestID]</text>
</g>
<!-- Class: [AbstractService]&#45;&gt;Class: [Response] -->
<g id="edge12" class="edge">
<title>Class: [AbstractService]&#45;&gt;Class: [Response]</title>
<path fill="none" stroke="#000000" d="M2432.812,-364.6492C2649.4393,-361.4269 3127.6371,-351.868 3155.6583,-330 3169.247,-319.3952 3179.5343,-274.2512 3185.0715,-243.9439"/>
<polygon fill="#000000" stroke="#000000" points="3188.5487,-244.378 3186.8296,-233.9236 3181.654,-243.1683 3188.5487,-244.378"/>
<text text-anchor="middle" x="3220.976" y="-317.4" font-family="Times,serif" font-size="14.00" fill="#000000">[onMessage</text>
<text text-anchor="middle" x="3220.976" y="-300.6" font-family="Times,serif" font-size="14.00" fill="#000000">&#45;&#45;&gt;</text>
<text text-anchor="middle" x="3220.976" y="-283.8" font-family="Times,serif" font-size="14.00" fill="#000000">getReturnType]</text>
</g>
<!-- Class: [AbstractService]&#45;&gt;Class: [Response] -->
<g id="edge13" class="edge">
<title>Class: [AbstractService]&#45;&gt;Class: [Response]</title>
<path fill="none" stroke="#000000" d="M2432.2311,-363.8821C2674.2197,-358.7329 3253.334,-344.8833 3267.6583,-330 3283.1915,-313.8606 3277.2365,-299.8489 3267.6583,-279.6 3259.6439,-262.6571 3244.7026,-248.6967 3230.0249,-238.1856"/>
<polygon fill="#000000" stroke="#000000" points="3231.7122,-235.1014 3221.4678,-232.3989 3227.7909,-240.9 3231.7122,-235.1014"/>
<text text-anchor="middle" x="3323.3056" y="-317.4" font-family="Times,serif" font-size="14.00" fill="#000000">[onMessage</text>
<text text-anchor="middle" x="3323.3056" y="-300.6" font-family="Times,serif" font-size="14.00" fill="#000000">&#45;&#45;&gt;</text>
<text text-anchor="middle" x="3323.3056" y="-283.8" font-family="Times,serif" font-size="14.00" fill="#000000">getReturnValue]</text>
</g>
<!-- Interface: [ServiceProvider] -->
<g id="node20" class="node">
<title>Interface: [ServiceProvider]</title>
<ellipse fill="none" stroke="#000000" cx="3531.6583" cy="-215.6" rx="119.153" ry="18"/>
<text text-anchor="middle" x="3531.6583" y="-211.4" font-family="Times,serif" font-size="14.00" fill="#000000">Interface: [ServiceProvider]</text>
</g>
<!-- Class: [AbstractService]&#45;&gt;Interface: [ServiceProvider] -->
<g id="edge18" class="edge">
<title>Class: [AbstractService]&#45;&gt;Interface: [ServiceProvider]</title>
<path fill="none" stroke="#000000" d="M2432.7133,-364.992C2689.9122,-362.1741 3333.2304,-352.8698 3373.6583,-330 3396.8996,-316.8526 3386.5296,-297.481 3406.3609,-279.6 3426.5304,-261.414 3452.8141,-246.9528 3476.0967,-236.4113"/>
<polygon fill="#000000" stroke="#000000" points="3477.7722,-239.4985 3485.5255,-232.2779 3474.9616,-233.0874 3477.7722,-239.4985"/>
<text text-anchor="middle" x="3445.307" y="-317.4" font-family="Times,serif" font-size="14.00" fill="#000000">[sendRequest</text>
<text text-anchor="middle" x="3445.307" y="-300.6" font-family="Times,serif" font-size="14.00" fill="#000000">&#45;&#45;&gt;</text>
<text text-anchor="middle" x="3445.307" y="-283.8" font-family="Times,serif" font-size="14.00" fill="#000000">sendMessage]</text>
</g>
<!-- Class: [AbstractService]&#45;&gt;Interface: [ServiceProvider] -->
<g id="edge20" class="edge">
<title>Class: [AbstractService]&#45;&gt;Interface: [ServiceProvider]</title>
<path fill="none" stroke="#000000" d="M2432.5171,-364.2527C2713.6104,-359.3725 3464.2293,-344.9702 3485.6583,-330 3489.4354,-327.3614 3508.9419,-276.5176 3521.3096,-243.5087"/>
<polygon fill="#000000" stroke="#000000" points="3524.6744,-244.5028 3524.8934,-233.9103 3518.1166,-242.0543 3524.6744,-244.5028"/>
<text text-anchor="middle" x="3548.6457" y="-317.4" font-family="Times,serif" font-size="14.00" fill="#000000">[sendResponse</text>
<text text-anchor="middle" x="3548.6457" y="-300.6" font-family="Times,serif" font-size="14.00" fill="#000000">&#45;&#45;&gt;</text>
<text text-anchor="middle" x="3548.6457" y="-283.8" font-family="Times,serif" font-size="14.00" fill="#000000">sendMessage]</text>
</g>
<!-- Class: [AbstractService]&#45;&gt;Interface: [ServiceProvider] -->
<g id="edge21" class="edge">
<title>Class: [AbstractService]&#45;&gt;Interface: [ServiceProvider]</title>
<path fill="none" stroke="#000000" d="M2432.7607,-364.9424C2732.7033,-361.6758 3572.542,-350.697 3592.6583,-330 3617.9308,-303.9981 3587.2397,-265.4188 3561.0115,-240.3885"/>
<polygon fill="#000000" stroke="#000000" points="3563.1563,-237.6053 3553.433,-233.3974 3558.41,-242.7504 3563.1563,-237.6053"/>
<text text-anchor="middle" x="3642.4809" y="-317.4" font-family="Times,serif" font-size="14.00" fill="#000000">[startService</text>
<text text-anchor="middle" x="3642.4809" y="-300.6" font-family="Times,serif" font-size="14.00" fill="#000000">&#45;&#45;&gt;</text>
<text text-anchor="middle" x="3642.4809" y="-283.8" font-family="Times,serif" font-size="14.00" fill="#000000">startListening]</text>
</g>
<!-- Class: [AbstractService]&#45;&gt;Interface: [ServiceProvider] -->
<g id="edge22" class="edge">
<title>Class: [AbstractService]&#45;&gt;Interface: [ServiceProvider]</title>
<path fill="none" stroke="#000000" d="M2432.719,-365.1596C2748.0183,-362.3896 3665.8301,-352.4137 3687.6583,-330 3703.2865,-313.9526 3700.1346,-298.2038 3687.6583,-279.6 3672.1929,-256.5389 3646.772,-241.7807 3620.896,-232.3387"/>
<polygon fill="#000000" stroke="#000000" points="3621.9542,-229.0017 3611.3598,-229.095 3619.7,-235.6289 3621.9542,-229.0017"/>
<text text-anchor="middle" x="3738.098" y="-317.4" font-family="Times,serif" font-size="14.00" fill="#000000">[stopService</text>
<text text-anchor="middle" x="3738.098" y="-300.6" font-family="Times,serif" font-size="14.00" fill="#000000">&#45;&#45;&gt;</text>
<text text-anchor="middle" x="3738.098" y="-283.8" font-family="Times,serif" font-size="14.00" fill="#000000">stopListening]</text>
</g>
<!-- Class: [SimClock] -->
<g id="node21" class="node">
<title>Class: [SimClock]</title>
<ellipse fill="none" stroke="#000000" cx="3798.6583" cy="-215.6" rx="82.235" ry="18"/>
<text text-anchor="middle" x="3798.6583" y="-211.4" font-family="Times,serif" font-size="14.00" fill="#000000">Class: [SimClock]</text>
</g>
<!-- Class: [AbstractService]&#45;&gt;Class: [SimClock] -->
<g id="edge19" class="edge">
<title>Class: [AbstractService]&#45;&gt;Class: [SimClock]</title>
<path fill="none" stroke="#000000" d="M2432.8571,-365.206C2762.8897,-362.4846 3757.502,-352.4353 3782.6583,-330 3806.2049,-309.0003 3806.8532,-270.6059 3803.8545,-244.1275"/>
<polygon fill="#000000" stroke="#000000" points="3807.2836,-243.3703 3802.4578,-233.9383 3800.3484,-244.3211 3807.2836,-243.3703"/>
<text text-anchor="middle" x="3850.6969" y="-317.4" font-family="Times,serif" font-size="14.00" fill="#000000">[sendRequest</text>
<text text-anchor="middle" x="3850.6969" y="-300.6" font-family="Times,serif" font-size="14.00" fill="#000000">&#45;&#45;&gt;</text>
<text text-anchor="middle" x="3850.6969" y="-283.8" font-family="Times,serif" font-size="14.00" fill="#000000">getCurrentTime]</text>
</g>
<!-- Annotation: [ServiceOperation] -->
<g id="node22" class="node">
<title>Annotation: [ServiceOperation]</title>
<ellipse fill="none" stroke="#000000" cx="4032.6583" cy="-215.6" rx="133.6663" ry="18"/>
<text text-anchor="middle" x="4032.6583" y="-211.4" font-family="Times,serif" font-size="14.00" fill="#000000">Annotation: [ServiceOperation]</text>
</g>
<!-- Class: [AbstractService]&#45;&gt;Annotation: [ServiceOperation] -->
<g id="edge25" class="edge">
<title>Class: [AbstractService]&#45;&gt;Annotation: [ServiceOperation]</title>
<path fill="none" stroke="#000000" d="M2432.9528,-365.5599C2774.4645,-363.8747 3833.3395,-356.5268 3901.6583,-330 3948.2838,-311.8963 3989.4186,-269.3227 4012.6466,-241.5263"/>
<polygon fill="#000000" stroke="#000000" points="4015.3719,-243.7225 4018.9899,-233.7645 4009.9517,-239.2928 4015.3719,-243.7225"/>
<text text-anchor="middle" x="4047.3386" y="-317.4" font-family="Times,serif" font-size="14.00" fill="#000000">[createServiceDescription</text>
<text text-anchor="middle" x="4047.3386" y="-300.6" font-family="Times,serif" font-size="14.00" fill="#000000">&#45;&#45;&gt;</text>
<text text-anchor="middle" x="4047.3386" y="-283.8" font-family="Times,serif" font-size="14.00" fill="#000000">OperationCost]</text>
</g>
<!-- Class: [ServiceDescription]&#45;&gt;opList.get(i).getOpName().equals(opName)\n -->
<g id="edge32" class="edge">
<title>Class: [ServiceDescription]&#45;&gt;opList.get(i).getOpName().equals(opName)\n</title>
<path fill="none" stroke="#ff0000" d="M2041.9204,-200.5217C1964.7643,-182.2175 1832.1349,-149.6972 1719.6583,-116.8 1693.9761,-109.2884 1665.9107,-100.2365 1641.6962,-92.1566"/>
<polygon fill="#ff0000" stroke="#ff0000" points="1642.5171,-88.7404 1631.9232,-88.8788 1640.2912,-95.3771 1642.5171,-88.7404"/>
<text text-anchor="middle" x="1887.9746" y="-139" font-family="Times,serif" font-size="14.00" fill="#ff0000">containsOperation</text>
</g>
<!-- Class: [ServiceDescription]&#45;&gt;op.getOpName().equals(opName)\n -->
<g id="edge33" class="edge">
<title>Class: [ServiceDescription]&#45;&gt;op.getOpName().equals(opName)\n</title>
<path fill="none" stroke="#ff0000" d="M2073.76,-198.2776C2024.1648,-172.1634 1930.1993,-122.6863 1875.0529,-93.6492"/>
<polygon fill="#ff0000" stroke="#ff0000" points="1876.367,-90.3856 1865.8879,-88.8235 1873.1056,-96.5795 1876.367,-90.3856"/>
<text text-anchor="middle" x="2014.1997" y="-139" font-family="Times,serif" font-size="14.00" fill="#ff0000">getOperation</text>
</g>
<!-- Class: [ServiceDescription]&#45;&gt;customProperties.containsKey(RESPONSE_TIME)\n -->
<g id="edge34" class="edge">
<title>Class: [ServiceDescription]&#45;&gt;customProperties.containsKey(RESPONSE_TIME)\n</title>
<path fill="none" stroke="#ff0000" d="M2106.6583,-197.5538C2106.6583,-172.9495 2106.6583,-128.609 2106.6583,-99.4382"/>
<polygon fill="#ff0000" stroke="#ff0000" points="2110.1584,-99.0736 2106.6583,-89.0737 2103.1584,-99.0737 2110.1584,-99.0736"/>
<text text-anchor="middle" x="2156.8126" y="-139" font-family="Times,serif" font-size="14.00" fill="#ff0000">getResponseTime</text>
</g>
<!-- Class: [ServiceDescription]&#45;&gt;os != null\nis != null\n -->
<g id="edge35" class="edge">
<title>Class: [ServiceDescription]&#45;&gt;os != null\nis != null\n</title>
<path fill="none" stroke="#ff0000" d="M2141.2142,-198.2499C2175.4932,-180.2356 2228.6843,-150.0703 2269.6583,-116.8 2276.1028,-111.5672 2282.5076,-105.3912 2288.3292,-99.2921"/>
<polygon fill="#ff0000" stroke="#ff0000" points="2291.1402,-101.4069 2295.3504,-91.6845 2285.9962,-96.6594 2291.1402,-101.4069"/>
<text text-anchor="middle" x="2260.8182" y="-139" font-family="Times,serif" font-size="14.00" fill="#ff0000">clone</text>
</g>
<!-- Class: [ServiceDescription]&#45;&gt;obj instanceof ServiceDescription\nregisterID == service.getRegisterID() &amp;&amp; endpoint.equals(service.getServiceEndpoint()) &amp;&amp; type.equals(service.getServiceType())\n!opList.get(i).equals(service.getOperationList().get(i))\n!service.getCustomProperties().containsKey(key)\n!service.getCustomProperties().get(key).equals(value)\n -->
<g id="edge36" class="edge">
<title>Class: [ServiceDescription]&#45;&gt;obj instanceof ServiceDescription\nregisterID == service.getRegisterID() &amp;&amp; endpoint.equals(service.getServiceEndpoint()) &amp;&amp; type.equals(service.getServiceType())\n!opList.get(i).equals(service.getOperationList().get(i))\n!service.getCustomProperties().containsKey(key)\n!service.getCustomProperties().get(key).equals(value)\n</title>
<path fill="none" stroke="#ff0000" d="M2172.5325,-200.6492C2256.6921,-181.5484 2406.4541,-147.5586 2531.6452,-119.1453"/>
<polygon fill="#ff0000" stroke="#ff0000" points="2532.783,-122.4762 2541.7603,-116.8496 2531.2336,-115.6498 2532.783,-122.4762"/>
<text text-anchor="middle" x="2463.5405" y="-139" font-family="Times,serif" font-size="14.00" fill="#ff0000">equals</text>
</g>
<!-- Class: [SimClock]&#45;&gt;parallel\nparallelTimes.containsKey(token)\n -->
<g id="edge37" class="edge">
<title>Class: [SimClock]&#45;&gt;parallel\nparallelTimes.containsKey(token)\n</title>
<path fill="none" stroke="#ff0000" d="M3766.8583,-198.7989C3749.7602,-187.8652 3730.2662,-171.8652 3720.6821,-151.6 3713.3379,-136.0709 3714.141,-116.9517 3716.9857,-101.2104"/>
<polygon fill="#ff0000" stroke="#ff0000" points="3720.4093,-101.9373 3719.0848,-91.4256 3713.5651,-100.4689 3720.4093,-101.9373"/>
<text text-anchor="middle" x="3748.6464" y="-139" font-family="Times,serif" font-size="14.00" fill="#ff0000">increment</text>
</g>
<!-- Class: [SimClock]&#45;&gt;parallel\nparallelTimes.containsKey(token)\n -->
<g id="edge38" class="edge">
<title>Class: [SimClock]&#45;&gt;parallel\nparallelTimes.containsKey(token)\n</title>
<path fill="none" stroke="#ff0000" d="M3795.9058,-197.5043C3792.8418,-180.6069 3786.9163,-155.0276 3776.6583,-134.8 3770.2575,-122.1783 3761.1165,-109.6892 3752.3367,-99.1406"/>
<polygon fill="#ff0000" stroke="#ff0000" points="3754.921,-96.7778 3745.7446,-91.4821 3749.6157,-101.3445 3754.921,-96.7778"/>
<text text-anchor="middle" x="3828.3666" y="-139" font-family="Times,serif" font-size="14.00" fill="#ff0000">getCurrentTime</text>
</g>
<!-- Class: [SimClock]&#45;&gt;maxTime &lt; value\n -->
<g id="edge39" class="edge">
<title>Class: [SimClock]&#45;&gt;maxTime &lt; value\n</title>
<path fill="none" stroke="#ff0000" d="M3825.7261,-198.4059C3842.2179,-186.8178 3862.7269,-170.2728 3876.6583,-151.6 3888.4908,-135.7404 3897.0743,-115.149 3902.6569,-98.7228"/>
<polygon fill="#ff0000" stroke="#ff0000" points="3906.0177,-99.7044 3905.7473,-89.113 3899.3538,-97.5613 3906.0177,-99.7044"/>
<text text-anchor="middle" x="3918.145" y="-139" font-family="Times,serif" font-size="14.00" fill="#ff0000">endParallel</text>
</g>
</g>
</svg>
