<svg width="2262pt" height="336pt"
 viewBox="0.00 0.00 2261.90 336.00" xmlns="http://www.w3.org/2000/svg" xmlns:xlink="http://www.w3.org/1999/xlink">
<g id="graph0" class="graph" transform="scale(1 1) rotate(0) translate(4 332)">
<title>project</title>
<polygon fill="#ffffff" stroke="transparent" points="-4,4 -4,-332 2257.8961,-332 2257.8961,4 -4,4"/>
<text text-anchor="middle" x="1126.9481" y="-8.2" font-family="Times,serif" font-size="14.00" fill="#000000">Method Calls for :tas.services.assistance.AssistanceServiceCostProbe</text>
<!-- opList.get(i).getOpName().equals(opName)\n -->
<g id="node1" class="node">
<title>opList.get(i).getOpName().equals(opName)\n</title>
<polygon fill="none" stroke="#ff0000" points="262.1002,-88.8 -.0334,-88.8 -.0334,-52.8 262.1002,-52.8 262.1002,-88.8"/>
<text text-anchor="middle" x="131.0334" y="-66.6" font-family="Times,serif" font-size="14.00" fill="#ff0000">opList.get(i).getOpName().equals(opName)</text>
</g>
<!-- op.getOpName().equals(opName)\n -->
<g id="node2" class="node">
<title>op.getOpName().equals(opName)\n</title>
<polygon fill="none" stroke="#ff0000" points="486.5053,-88.8 279.5615,-88.8 279.5615,-52.8 486.5053,-52.8 486.5053,-88.8"/>
<text text-anchor="middle" x="383.0334" y="-66.6" font-family="Times,serif" font-size="14.00" fill="#ff0000">op.getOpName().equals(opName)</text>
</g>
<!-- customProperties.containsKey(RESPONSE_TIME)\n -->
<g id="node3" class="node">
<title>customProperties.containsKey(RESPONSE_TIME)\n</title>
<polygon fill="none" stroke="#ff0000" points="811.7433,-88.8 504.3235,-88.8 504.3235,-52.8 811.7433,-52.8 811.7433,-88.8"/>
<text text-anchor="middle" x="658.0334" y="-66.6" font-family="Times,serif" font-size="14.00" fill="#ff0000">customProperties.containsKey(RESPONSE_TIME)</text>
</g>
<!-- os != null\nis != null\n -->
<g id="node4" class="node">
<title>os != null\nis != null\n</title>
<polygon fill="none" stroke="#ff0000" points="898.8147,-91.4019 829.2521,-91.4019 829.2521,-50.1981 898.8147,-50.1981 898.8147,-91.4019"/>
<text text-anchor="middle" x="864.0334" y="-75" font-family="Times,serif" font-size="14.00" fill="#ff0000">os != null</text>
<text text-anchor="middle" x="864.0334" y="-58.2" font-family="Times,serif" font-size="14.00" fill="#ff0000">is != null</text>
</g>
<!-- obj instanceof ServiceDescription\nregisterID == service.getRegisterID() &amp;&amp; endpoint.equals(service.getServiceEndpoint()) &amp;&amp; type.equals(service.getServiceType())\n!opList.get(i).equals(service.getOperationList().get(i))\n!service.getCustomProperties().containsKey(key)\n!service.getCustomProperties().get(key).equals(value)\n -->
<g id="node5" class="node">
<title>obj instanceof ServiceDescription\nregisterID == service.getRegisterID() &amp;&amp; endpoint.equals(service.getServiceEndpoint()) &amp;&amp; type.equals(service.getServiceType())\n!opList.get(i).equals(service.getOperationList().get(i))\n!service.getCustomProperties().containsKey(key)\n!service.getCustomProperties().get(key).equals(value)\n</title>
<polygon fill="none" stroke="#ff0000" points="1674.5743,-116.8 917.4925,-116.8 917.4925,-24.8 1674.5743,-24.8 1674.5743,-116.8"/>
<text text-anchor="middle" x="1296.0334" y="-100.2" font-family="Times,serif" font-size="14.00" fill="#ff0000">obj instanceof ServiceDescription</text>
<text text-anchor="middle" x="1296.0334" y="-83.4" font-family="Times,serif" font-size="14.00" fill="#ff0000">registerID == service.getRegisterID() &amp;&amp; endpoint.equals(service.getServiceEndpoint()) &amp;&amp; type.equals(service.getServiceType())</text>
<text text-anchor="middle" x="1296.0334" y="-66.6" font-family="Times,serif" font-size="14.00" fill="#ff0000">!opList.get(i).equals(service.getOperationList().get(i))</text>
<text text-anchor="middle" x="1296.0334" y="-49.8" font-family="Times,serif" font-size="14.00" fill="#ff0000">!service.getCustomProperties().containsKey(key)</text>
<text text-anchor="middle" x="1296.0334" y="-33" font-family="Times,serif" font-size="14.00" fill="#ff0000">!service.getCustomProperties().get(key).equals(value)</text>
</g>
<!-- parallel\nparallelTimes.containsKey(token)\n -->
<g id="node6" class="node">
<title>parallel\nparallelTimes.containsKey(token)\n</title>
<polygon fill="none" stroke="#ff0000" points="1899.4052,-91.4019 1692.6616,-91.4019 1692.6616,-50.1981 1899.4052,-50.1981 1899.4052,-91.4019"/>
<text text-anchor="middle" x="1796.0334" y="-75" font-family="Times,serif" font-size="14.00" fill="#ff0000">parallel</text>
<text text-anchor="middle" x="1796.0334" y="-58.2" font-family="Times,serif" font-size="14.00" fill="#ff0000">parallelTimes.containsKey(token)</text>
</g>
<!-- maxTime &lt; value\n -->
<g id="node7" class="node">
<title>maxTime &lt; value\n</title>
<polygon fill="none" stroke="#ff0000" points="2032.4015,-88.8 1917.6653,-88.8 1917.6653,-52.8 2032.4015,-52.8 2032.4015,-88.8"/>
<text text-anchor="middle" x="1975.0334" y="-66.6" font-family="Times,serif" font-size="14.00" fill="#ff0000">maxTime &lt; value</text>
</g>
<!-- lock != null\n -->
<g id="node8" class="node">
<title>lock != null\n</title>
<polygon fill="none" stroke="#ff0000" points="2131.9762,-88.8 2050.0906,-88.8 2050.0906,-52.8 2131.9762,-52.8 2131.9762,-88.8"/>
<text text-anchor="middle" x="2091.0334" y="-66.6" font-family="Times,serif" font-size="14.00" fill="#ff0000">lock != null</text>
</g>
<!-- !file.exists()\nstrs.length == 3\n -->
<g id="node9" class="node">
<title>!file.exists()\nstrs.length == 3\n</title>
<polygon fill="none" stroke="#ff0000" points="2253.7592,-91.4019 2150.3076,-91.4019 2150.3076,-50.1981 2253.7592,-50.1981 2253.7592,-91.4019"/>
<text text-anchor="middle" x="2202.0334" y="-75" font-family="Times,serif" font-size="14.00" fill="#ff0000">!file.exists()</text>
<text text-anchor="middle" x="2202.0334" y="-58.2" font-family="Times,serif" font-size="14.00" fill="#ff0000">strs.length == 3</text>
</g>
<!-- file.exists() &amp;&amp; !file.isDirectory()\n -->
<g id="node10" class="node">
<title>file.exists() &amp;&amp; !file.isDirectory()\n</title>
<polygon fill="none" stroke="#ff0000" points="561.789,-205.6 354.2778,-205.6 354.2778,-169.6 561.789,-169.6 561.789,-205.6"/>
<text text-anchor="middle" x="458.0334" y="-183.4" font-family="Times,serif" font-size="14.00" fill="#ff0000">file.exists() &amp;&amp; !file.isDirectory()</text>
</g>
<!-- result instanceof TimeOutError\n -->
<g id="node11" class="node">
<title>result instanceof TimeOutError\n</title>
<polygon fill="none" stroke="#ff0000" points="770.7448,-205.6 579.322,-205.6 579.322,-169.6 770.7448,-169.6 770.7448,-205.6"/>
<text text-anchor="middle" x="675.0334" y="-183.4" font-family="Times,serif" font-size="14.00" fill="#ff0000">result instanceof TimeOutError</text>
</g>
<!-- Class: [AssistanceServiceCostProbe] -->
<g id="node12" class="node">
<title>Class: [AssistanceServiceCostProbe]</title>
<ellipse fill="none" stroke="#000000" cx="1051.0334" cy="-310" rx="153.9398" ry="18"/>
<text text-anchor="middle" x="1051.0334" y="-305.8" font-family="Times,serif" font-size="14.00" fill="#000000">Class: [AssistanceServiceCostProbe]</text>
</g>
<!-- Class: [AssistanceServiceCostProbe]&#45;&gt;file.exists() &amp;&amp; !file.isDirectory()\n -->
<g id="edge7" class="edge">
<title>Class: [AssistanceServiceCostProbe]&#45;&gt;file.exists() &amp;&amp; !file.isDirectory()\n</title>
<path fill="none" stroke="#ff0000" d="M914.4388,-301.5872C823.0448,-295.1263 711.4242,-285.3955 665.6084,-274 606.7441,-259.359 542.8584,-230.6571 501.7369,-210.3594"/>
<polygon fill="#ff0000" stroke="#ff0000" points="503.0658,-207.1111 492.555,-205.7797 499.9415,-213.3751 503.0658,-207.1111"/>
<text text-anchor="middle" x="679.2459" y="-244.6" font-family="Times,serif" font-size="14.00" fill="#ff0000">reset</text>
</g>
<!-- Class: [AssistanceServiceCostProbe]&#45;&gt;result instanceof TimeOutError\n -->
<g id="edge8" class="edge">
<title>Class: [AssistanceServiceCostProbe]&#45;&gt;result instanceof TimeOutError\n</title>
<path fill="none" stroke="#ff0000" d="M907.4115,-303.4491C841.9967,-298.3925 772.9607,-289.5128 744.8412,-274 720.2416,-260.429 701.0326,-234.3223 689.0455,-214.3431"/>
<polygon fill="#ff0000" stroke="#ff0000" points="692.0723,-212.5854 684.0528,-205.6616 686.0042,-216.0752 692.0723,-212.5854"/>
<text text-anchor="middle" x="790.1295" y="-244.6" font-family="Times,serif" font-size="14.00" fill="#ff0000">workflowEnded</text>
</g>
<!-- Class: [ServiceDescription] -->
<g id="node13" class="node">
<title>Class: [ServiceDescription]</title>
<ellipse fill="none" stroke="#000000" cx="906.0334" cy="-187.6" rx="117.4855" ry="18"/>
<text text-anchor="middle" x="906.0334" y="-183.4" font-family="Times,serif" font-size="14.00" fill="#000000">Class: [ServiceDescription]</text>
</g>
<!-- Class: [AssistanceServiceCostProbe]&#45;&gt;Class: [ServiceDescription] -->
<g id="edge1" class="edge">
<title>Class: [AssistanceServiceCostProbe]&#45;&gt;Class: [ServiceDescription]</title>
<path fill="none" stroke="#000000" d="M921.2965,-300.2399C887.9853,-294.9173 858.5078,-286.696 847.8636,-274 833.4724,-256.8346 836.9616,-243.168 847.8636,-223.6 850.4701,-218.9216 853.9633,-214.7743 857.9498,-211.1162"/>
<polygon fill="#000000" stroke="#000000" points="860.4353,-213.6136 866.1209,-204.6736 856.1012,-208.1168 860.4353,-213.6136"/>
<text text-anchor="middle" x="896.6183" y="-261.4" font-family="Times,serif" font-size="14.00" fill="#000000">[serviceCost</text>
<text text-anchor="middle" x="896.6183" y="-244.6" font-family="Times,serif" font-size="14.00" fill="#000000">&#45;&#45;&gt;</text>
<text text-anchor="middle" x="896.6183" y="-227.8" font-family="Times,serif" font-size="14.00" fill="#000000">getServiceName]</text>
</g>
<!-- Class: [AssistanceServiceCostProbe]&#45;&gt;Class: [ServiceDescription] -->
<g id="edge3" class="edge">
<title>Class: [AssistanceServiceCostProbe]&#45;&gt;Class: [ServiceDescription]</title>
<path fill="none" stroke="#000000" d="M995.9991,-293.0389C985.788,-288.0862 975.8451,-281.8302 967.8804,-274 950.3423,-256.7581 959.4331,-243.5378 945.0334,-223.6 942.3511,-219.886 939.2396,-216.2568 935.9668,-212.8194"/>
<polygon fill="#000000" stroke="#000000" points="938.2389,-210.1455 928.6485,-205.6427 933.3377,-215.1433 938.2389,-210.1455"/>
<text text-anchor="middle" x="1041.1099" y="-261.4" font-family="Times,serif" font-size="14.00" fill="#000000">[serviceOperationInvoked</text>
<text text-anchor="middle" x="1041.1099" y="-244.6" font-family="Times,serif" font-size="14.00" fill="#000000">&#45;&#45;&gt;</text>
<text text-anchor="middle" x="1041.1099" y="-227.8" font-family="Times,serif" font-size="14.00" fill="#000000">getServiceName]</text>
</g>
<!-- Class: [AssistanceServiceCostProbe]&#45;&gt;Class: [ServiceDescription] -->
<g id="edge5" class="edge">
<title>Class: [AssistanceServiceCostProbe]&#45;&gt;Class: [ServiceDescription]</title>
<path fill="none" stroke="#000000" d="M1095.4688,-292.6815C1102.8914,-287.7744 1109.6074,-281.6269 1114.0334,-274 1125.2766,-254.626 1128.4589,-240.7367 1114.0334,-223.6 1101.7677,-209.0291 1065.1729,-200.3556 1026.0271,-195.1928"/>
<polygon fill="#000000" stroke="#000000" points="1026.3877,-191.7107 1016.0331,-193.9543 1025.5268,-198.6576 1026.3877,-191.7107"/>
<text text-anchor="middle" x="1197.8918" y="-261.4" font-family="Times,serif" font-size="14.00" fill="#000000">[serviceOperationTimeout</text>
<text text-anchor="middle" x="1197.8918" y="-244.6" font-family="Times,serif" font-size="14.00" fill="#000000">&#45;&#45;&gt;</text>
<text text-anchor="middle" x="1197.8918" y="-227.8" font-family="Times,serif" font-size="14.00" fill="#000000">getServiceName]</text>
</g>
<!-- Class: [SimClock] -->
<g id="node14" class="node">
<title>Class: [SimClock]</title>
<ellipse fill="none" stroke="#000000" cx="1717.0334" cy="-187.6" rx="82.235" ry="18"/>
<text text-anchor="middle" x="1717.0334" y="-183.4" font-family="Times,serif" font-size="14.00" fill="#000000">Class: [SimClock]</text>
</g>
<!-- Class: [AssistanceServiceCostProbe]&#45;&gt;Class: [SimClock] -->
<g id="edge2" class="edge">
<title>Class: [AssistanceServiceCostProbe]&#45;&gt;Class: [SimClock]</title>
<path fill="none" stroke="#000000" d="M1145.0282,-295.7084C1185.4078,-289.3755 1233.0935,-281.6392 1276.0334,-274 1407.5514,-250.6025 1560.4174,-219.8532 1647.2425,-202.0529"/>
<polygon fill="#000000" stroke="#000000" points="1648.1478,-205.4401 1657.2397,-200.0007 1646.7401,-198.5831 1648.1478,-205.4401"/>
<text text-anchor="middle" x="1586.072" y="-261.4" font-family="Times,serif" font-size="14.00" fill="#000000">[serviceCost</text>
<text text-anchor="middle" x="1586.072" y="-244.6" font-family="Times,serif" font-size="14.00" fill="#000000">&#45;&#45;&gt;</text>
<text text-anchor="middle" x="1586.072" y="-227.8" font-family="Times,serif" font-size="14.00" fill="#000000">getCurrentTime]</text>
</g>
<!-- Class: [AssistanceServiceCostProbe]&#45;&gt;Class: [SimClock] -->
<g id="edge4" class="edge">
<title>Class: [AssistanceServiceCostProbe]&#45;&gt;Class: [SimClock]</title>
<path fill="none" stroke="#000000" d="M1202.1301,-306.5288C1362.698,-301.9193 1598.7229,-292.1576 1637.0334,-274 1664.2281,-261.1108 1686.6011,-234.4739 1700.7048,-214.1631"/>
<polygon fill="#000000" stroke="#000000" points="1703.7635,-215.8854 1706.4117,-205.6269 1697.9442,-211.9949 1703.7635,-215.8854"/>
<text text-anchor="middle" x="1767.1099" y="-261.4" font-family="Times,serif" font-size="14.00" fill="#000000">[serviceOperationInvoked</text>
<text text-anchor="middle" x="1767.1099" y="-244.6" font-family="Times,serif" font-size="14.00" fill="#000000">&#45;&#45;&gt;</text>
<text text-anchor="middle" x="1767.1099" y="-227.8" font-family="Times,serif" font-size="14.00" fill="#000000">getCurrentTime]</text>
</g>
<!-- Class: [Log] -->
<g id="node15" class="node">
<title>Class: [Log]</title>
<ellipse fill="none" stroke="#000000" cx="2091.0334" cy="-187.6" rx="59.0843" ry="18"/>
<text text-anchor="middle" x="2091.0334" y="-183.4" font-family="Times,serif" font-size="14.00" fill="#000000">Class: [Log]</text>
</g>
<!-- Class: [AssistanceServiceCostProbe]&#45;&gt;Class: [Log] -->
<g id="edge6" class="edge">
<title>Class: [AssistanceServiceCostProbe]&#45;&gt;Class: [Log]</title>
<path fill="none" stroke="#000000" d="M1204.6603,-308.322C1399.9418,-305.2682 1725.8899,-296.8353 1844.0334,-274 1918.2576,-259.6536 2000.352,-227.4515 2048.723,-206.6688"/>
<polygon fill="#000000" stroke="#000000" points="2050.1537,-209.8633 2057.9352,-202.6731 2047.3682,-203.4414 2050.1537,-209.8633"/>
<text text-anchor="middle" x="2054.403" y="-261.4" font-family="Times,serif" font-size="14.00" fill="#000000">[workflowStarted</text>
<text text-anchor="middle" x="2054.403" y="-244.6" font-family="Times,serif" font-size="14.00" fill="#000000">&#45;&#45;&gt;</text>
<text text-anchor="middle" x="2054.403" y="-227.8" font-family="Times,serif" font-size="14.00" fill="#000000">addLog]</text>
</g>
<!-- Class: [ServiceDescription]&#45;&gt;opList.get(i).getOpName().equals(opName)\n -->
<g id="edge9" class="edge">
<title>Class: [ServiceDescription]&#45;&gt;opList.get(i).getOpName().equals(opName)\n</title>
<path fill="none" stroke="#ff0000" d="M823.1267,-174.7601C808.7817,-172.8238 793.9943,-171.0072 780.0334,-169.6 553.744,-146.7906 491.7842,-171.5382 271.0334,-116.8 243.9598,-110.0867 214.5536,-100.7482 189.7122,-92.2381"/>
<polygon fill="#ff0000" stroke="#ff0000" points="190.6718,-88.8665 180.0771,-88.901 188.3809,-95.4811 190.6718,-88.8665"/>
<text text-anchor="middle" x="514.3497" y="-139" font-family="Times,serif" font-size="14.00" fill="#ff0000">containsOperation</text>
</g>
<!-- Class: [ServiceDescription]&#45;&gt;op.getOpName().equals(opName)\n -->
<g id="edge10" class="edge">
<title>Class: [ServiceDescription]&#45;&gt;op.getOpName().equals(opName)\n</title>
<path fill="none" stroke="#ff0000" d="M820.264,-175.2657C718.299,-160.1751 554.4618,-134.4602 495.0334,-116.8 473.4748,-110.3935 450.3732,-101.3071 430.7841,-92.8999"/>
<polygon fill="#ff0000" stroke="#ff0000" points="432.0376,-89.6283 421.4719,-88.842 429.2411,-96.0455 432.0376,-89.6283"/>
<text text-anchor="middle" x="703.5748" y="-139" font-family="Times,serif" font-size="14.00" fill="#ff0000">getOperation</text>
</g>
<!-- Class: [ServiceDescription]&#45;&gt;customProperties.containsKey(RESPONSE_TIME)\n -->
<g id="edge11" class="edge">
<title>Class: [ServiceDescription]&#45;&gt;customProperties.containsKey(RESPONSE_TIME)\n</title>
<path fill="none" stroke="#ff0000" d="M841.932,-172.4498C822.794,-166.9445 802.044,-159.9748 783.7248,-151.6 749.9575,-136.163 714.6599,-112.7312 690.0978,-95.0693"/>
<polygon fill="#ff0000" stroke="#ff0000" points="692.0224,-92.1412 681.8778,-89.0853 687.9025,-97.8004 692.0224,-92.1412"/>
<text text-anchor="middle" x="834.1877" y="-139" font-family="Times,serif" font-size="14.00" fill="#ff0000">getResponseTime</text>
</g>
<!-- Class: [ServiceDescription]&#45;&gt;os != null\nis != null\n -->
<g id="edge12" class="edge">
<title>Class: [ServiceDescription]&#45;&gt;os != null\nis != null\n</title>
<path fill="none" stroke="#ff0000" d="M899.5629,-169.606C893.0179,-151.4046 882.7796,-122.9323 874.9715,-101.2183"/>
<polygon fill="#ff0000" stroke="#ff0000" points="878.2544,-100.0042 871.577,-91.7784 871.6673,-102.3729 878.2544,-100.0042"/>
<text text-anchor="middle" x="908.1933" y="-139" font-family="Times,serif" font-size="14.00" fill="#ff0000">clone</text>
</g>
<!-- Class: [ServiceDescription]&#45;&gt;obj instanceof ServiceDescription\nregisterID == service.getRegisterID() &amp;&amp; endpoint.equals(service.getServiceEndpoint()) &amp;&amp; type.equals(service.getServiceType())\n!opList.get(i).equals(service.getOperationList().get(i))\n!service.getCustomProperties().containsKey(key)\n!service.getCustomProperties().get(key).equals(value)\n -->
<g id="edge13" class="edge">
<title>Class: [ServiceDescription]&#45;&gt;obj instanceof ServiceDescription\nregisterID == service.getRegisterID() &amp;&amp; endpoint.equals(service.getServiceEndpoint()) &amp;&amp; type.equals(service.getServiceType())\n!opList.get(i).equals(service.getOperationList().get(i))\n!service.getCustomProperties().containsKey(key)\n!service.getCustomProperties().get(key).equals(value)\n</title>
<path fill="none" stroke="#ff0000" d="M959.8518,-171.4821C1004.5793,-158.0868 1070.6659,-138.2947 1132.4353,-119.7955"/>
<polygon fill="#ff0000" stroke="#ff0000" points="1133.7324,-123.0607 1142.3079,-116.8388 1131.7241,-116.355 1133.7324,-123.0607"/>
<text text-anchor="middle" x="1095.9156" y="-139" font-family="Times,serif" font-size="14.00" fill="#ff0000">equals</text>
</g>
<!-- Class: [SimClock]&#45;&gt;parallel\nparallelTimes.containsKey(token)\n -->
<g id="edge14" class="edge">
<title>Class: [SimClock]&#45;&gt;parallel\nparallelTimes.containsKey(token)\n</title>
<path fill="none" stroke="#ff0000" d="M1713.7543,-169.6129C1712.6745,-158.9729 1712.8573,-145.5248 1718.0572,-134.8 1725.2024,-120.063 1737.5326,-107.5525 1750.3062,-97.6084"/>
<polygon fill="#ff0000" stroke="#ff0000" points="1752.7172,-100.1808 1758.7143,-91.4467 1748.5795,-94.5346 1752.7172,-100.1808"/>
<text text-anchor="middle" x="1747.0215" y="-139" font-family="Times,serif" font-size="14.00" fill="#ff0000">increment</text>
</g>
<!-- Class: [SimClock]&#45;&gt;parallel\nparallelTimes.containsKey(token)\n -->
<g id="edge15" class="edge">
<title>Class: [SimClock]&#45;&gt;parallel\nparallelTimes.containsKey(token)\n</title>
<path fill="none" stroke="#ff0000" d="M1752.031,-171.2007C1760.2359,-165.9418 1768.258,-159.4114 1774.0334,-151.6 1784.7396,-137.1197 1790.2358,-117.7355 1793.0574,-101.5831"/>
<polygon fill="#ff0000" stroke="#ff0000" points="1796.5449,-101.9253 1794.5531,-91.5193 1789.6209,-100.8961 1796.5449,-101.9253"/>
<text text-anchor="middle" x="1828.7417" y="-139" font-family="Times,serif" font-size="14.00" fill="#ff0000">getCurrentTime</text>
</g>
<!-- Class: [SimClock]&#45;&gt;maxTime &lt; value\n -->
<g id="edge16" class="edge">
<title>Class: [SimClock]&#45;&gt;maxTime &lt; value\n</title>
<path fill="none" stroke="#ff0000" d="M1789.1382,-178.7526C1817.5357,-173.4075 1849.8009,-164.9368 1877.0334,-151.6 1905.1052,-137.8522 1932.136,-114.556 1950.672,-96.5006"/>
<polygon fill="#ff0000" stroke="#ff0000" points="1953.4598,-98.6638 1958.0742,-89.1266 1948.5195,-93.7046 1953.4598,-98.6638"/>
<text text-anchor="middle" x="1935.5201" y="-139" font-family="Times,serif" font-size="14.00" fill="#ff0000">endParallel</text>
</g>
<!-- Class: [Log]&#45;&gt;lock != null\n -->
<g id="edge17" class="edge">
<title>Class: [Log]&#45;&gt;lock != null\n</title>
<path fill="none" stroke="#ff0000" d="M2091.0334,-169.35C2091.0334,-150.4929 2091.0334,-120.8112 2091.0334,-98.9461"/>
<polygon fill="#ff0000" stroke="#ff0000" points="2094.5335,-98.9218 2091.0334,-88.9218 2087.5335,-98.9219 2094.5335,-98.9218"/>
<text text-anchor="middle" x="2104.6309" y="-139" font-family="Times,serif" font-size="14.00" fill="#ff0000">clear</text>
</g>
<!-- Class: [Log]&#45;&gt;!file.exists()\nstrs.length == 3\n -->
<g id="edge18" class="edge">
<title>Class: [Log]&#45;&gt;!file.exists()\nstrs.length == 3\n</title>
<path fill="none" stroke="#ff0000" d="M2107.6512,-170.1139C2125.5044,-151.3279 2154.1449,-121.1908 2175.1991,-99.0364"/>
<polygon fill="#ff0000" stroke="#ff0000" points="2177.948,-101.2246 2182.2998,-91.5648 2172.8739,-96.4025 2177.948,-101.2246"/>
<text text-anchor="middle" x="2178.1344" y="-139" font-family="Times,serif" font-size="14.00" fill="#ff0000">readFromFile</text>
</g>
</g>
</svg>
