<svg width="1622pt" height="247pt"
 viewBox="0.00 0.00 1621.76 247.20" xmlns="http://www.w3.org/2000/svg" xmlns:xlink="http://www.w3.org/1999/xlink">
<g id="graph0" class="graph" transform="scale(1 1) rotate(0) translate(4 243.2)">
<title>project</title>
<polygon fill="#ffffff" stroke="transparent" points="-4,4 -4,-243.2 1617.7638,-243.2 1617.7638,4 -4,4"/>
<text text-anchor="middle" x="806.8819" y="-8.2" font-family="Times,serif" font-size="14.00" fill="#000000">Method Calls for :service.atomic.AtomicService</text>
<!-- operation.getAnnotation(ServiceOperation.class) != null\noperation.getName().equals(opName)\nsize == params.length\n!(flag = serviceProfiles.get(i).preInvokeOperation(opName, args))\nflag\n -->
<g id="node1" class="node">
<title>operation.getAnnotation(ServiceOperation.class) != null\noperation.getName().equals(opName)\nsize == params.length\n!(flag = serviceProfiles.get(i).preInvokeOperation(opName, args))\nflag\n</title>
<polygon fill="none" stroke="#ff0000" points="386.9076,-116.8 .0308,-116.8 .0308,-24.8 386.9076,-24.8 386.9076,-116.8"/>
<text text-anchor="middle" x="193.4692" y="-100.2" font-family="Times,serif" font-size="14.00" fill="#ff0000">operation.getAnnotation(ServiceOperation.class) != null</text>
<text text-anchor="middle" x="193.4692" y="-83.4" font-family="Times,serif" font-size="14.00" fill="#ff0000">operation.getName().equals(opName)</text>
<text text-anchor="middle" x="193.4692" y="-66.6" font-family="Times,serif" font-size="14.00" fill="#ff0000">size == params.length</text>
<text text-anchor="middle" x="193.4692" y="-49.8" font-family="Times,serif" font-size="14.00" fill="#ff0000">!(flag = serviceProfiles.get(i).preInvokeOperation(opName, args))</text>
<text text-anchor="middle" x="193.4692" y="-33" font-family="Times,serif" font-size="14.00" fill="#ff0000">flag</text>
</g>
<!-- annotation != null &amp;&amp; annotation instanceof AtomicServiceConfiguration\n -->
<g id="node2" class="node">
<title>annotation != null &amp;&amp; annotation instanceof AtomicServiceConfiguration\n</title>
<polygon fill="none" stroke="#ff0000" points="836.334,-88.8 404.6044,-88.8 404.6044,-52.8 836.334,-52.8 836.334,-88.8"/>
<text text-anchor="middle" x="620.4692" y="-66.6" font-family="Times,serif" font-size="14.00" fill="#ff0000">annotation != null &amp;&amp; annotation instanceof AtomicServiceConfiguration</text>
</g>
<!-- Class: [AtomicService] -->
<g id="node3" class="node">
<title>Class: [AtomicService]</title>
<ellipse fill="none" stroke="#000000" cx="1067.4692" cy="-221.2" rx="101.3144" ry="18"/>
<text text-anchor="middle" x="1067.4692" y="-217" font-family="Times,serif" font-size="14.00" fill="#000000">Class: [AtomicService]</text>
</g>
<!-- Class: [AtomicService]&#45;&gt;operation.getAnnotation(ServiceOperation.class) != null\noperation.getName().equals(opName)\nsize == params.length\n!(flag = serviceProfiles.get(i).preInvokeOperation(opName, args))\nflag\n -->
<g id="edge7" class="edge">
<title>Class: [AtomicService]&#45;&gt;operation.getAnnotation(ServiceOperation.class) != null\noperation.getName().equals(opName)\nsize == params.length\n!(flag = serviceProfiles.get(i).preInvokeOperation(opName, args))\nflag\n</title>
<path fill="none" stroke="#ff0000" d="M969.3369,-216.5579C847.939,-210.3721 648.3628,-198.6328 575.3864,-185.2 492.9752,-170.0306 403.0971,-143.624 331.245,-120.0011"/>
<polygon fill="#ff0000" stroke="#ff0000" points="332.2716,-116.6542 321.6783,-116.8373 330.0736,-123.3002 332.2716,-116.6542"/>
<text text-anchor="middle" x="622.5106" y="-155.8" font-family="Times,serif" font-size="14.00" fill="#ff0000">invokeOperation</text>
</g>
<!-- Class: [AtomicService]&#45;&gt;annotation != null &amp;&amp; annotation instanceof AtomicServiceConfiguration\n -->
<g id="edge8" class="edge">
<title>Class: [AtomicService]&#45;&gt;annotation != null &amp;&amp; annotation instanceof AtomicServiceConfiguration\n</title>
<path fill="none" stroke="#ff0000" d="M968.1408,-217.5315C885.9741,-213.1944 776.5538,-204.0283 736.8352,-185.2 695.0249,-165.3802 659.1994,-124.2862 638.7402,-97.1304"/>
<polygon fill="#ff0000" stroke="#ff0000" points="641.3935,-94.8306 632.6494,-88.848 635.7541,-98.9777 641.3935,-94.8306"/>
<text text-anchor="middle" x="788.7862" y="-155.8" font-family="Times,serif" font-size="14.00" fill="#ff0000">readConfiguration</text>
</g>
<!-- Class: [ServiceProfile] -->
<g id="node4" class="node">
<title>Class: [ServiceProfile]</title>
<ellipse fill="none" stroke="#000000" cx="952.4692" cy="-70.8" rx="98.9436" ry="18"/>
<text text-anchor="middle" x="952.4692" y="-66.6" font-family="Times,serif" font-size="14.00" fill="#000000">Class: [ServiceProfile]</text>
</g>
<!-- Class: [AtomicService]&#45;&gt;Class: [ServiceProfile] -->
<g id="edge1" class="edge">
<title>Class: [AtomicService]&#45;&gt;Class: [ServiceProfile]</title>
<path fill="none" stroke="#000000" d="M980.3747,-211.9475C924.6258,-205.1232 861.1723,-195.3038 852.6206,-185.2 838.1492,-168.1021 841.8737,-154.4536 852.6206,-134.8 862.9353,-115.937 881.4463,-101.8144 899.7517,-91.7033"/>
<polygon fill="#000000" stroke="#000000" points="901.4269,-94.7772 908.6847,-87.0587 898.1977,-88.5665 901.4269,-94.7772"/>
<text text-anchor="middle" x="914.8935" y="-172.6" font-family="Times,serif" font-size="14.00" fill="#000000">[invokeOperation</text>
<text text-anchor="middle" x="914.8935" y="-155.8" font-family="Times,serif" font-size="14.00" fill="#000000">&#45;&#45;&gt;</text>
<text text-anchor="middle" x="914.8935" y="-139" font-family="Times,serif" font-size="14.00" fill="#000000">postInvokeOperation]</text>
</g>
<!-- Class: [AtomicService]&#45;&gt;Class: [ServiceProfile] -->
<g id="edge2" class="edge">
<title>Class: [AtomicService]&#45;&gt;Class: [ServiceProfile]</title>
<path fill="none" stroke="#000000" d="M1021.0959,-205.1338C1011.1796,-199.9942 1001.4773,-193.4353 994.0806,-185.2 993.3167,-184.3495 974.5621,-132.3483 962.4948,-98.756"/>
<polygon fill="#000000" stroke="#000000" points="965.665,-97.228 958.9918,-88.9988 959.0767,-99.5933 965.665,-97.228"/>
<text text-anchor="middle" x="1053.1635" y="-172.6" font-family="Times,serif" font-size="14.00" fill="#000000">[invokeOperation</text>
<text text-anchor="middle" x="1053.1635" y="-155.8" font-family="Times,serif" font-size="14.00" fill="#000000">&#45;&#45;&gt;</text>
<text text-anchor="middle" x="1053.1635" y="-139" font-family="Times,serif" font-size="14.00" fill="#000000">preInvokeOperation]</text>
</g>
<!-- Class: [Param] -->
<g id="node5" class="node">
<title>Class: [Param]</title>
<ellipse fill="none" stroke="#000000" cx="1137.4692" cy="-70.8" rx="68.3092" ry="18"/>
<text text-anchor="middle" x="1137.4692" y="-66.6" font-family="Times,serif" font-size="14.00" fill="#000000">Class: [Param]</text>
</g>
<!-- Class: [AtomicService]&#45;&gt;Class: [Param] -->
<g id="edge3" class="edge">
<title>Class: [AtomicService]&#45;&gt;Class: [Param]</title>
<path fill="none" stroke="#000000" d="M1097.5751,-203.953C1104.39,-198.7397 1110.9418,-192.4431 1115.4692,-185.2 1131.8109,-159.0558 1136.4914,-123.4829 1137.6041,-98.9809"/>
<polygon fill="#000000" stroke="#000000" points="1141.1051,-98.9923 1137.8898,-88.8971 1134.1079,-98.7939 1141.1051,-98.9923"/>
<text text-anchor="middle" x="1183.8409" y="-172.6" font-family="Times,serif" font-size="14.00" fill="#000000">[invokeOperation</text>
<text text-anchor="middle" x="1183.8409" y="-155.8" font-family="Times,serif" font-size="14.00" fill="#000000">&#45;&#45;&gt;</text>
<text text-anchor="middle" x="1183.8409" y="-139" font-family="Times,serif" font-size="14.00" fill="#000000">getValue]</text>
</g>
<!-- Annotation: [AtomicServiceConfiguration] -->
<g id="node6" class="node">
<title>Annotation: [AtomicServiceConfiguration]</title>
<ellipse fill="none" stroke="#000000" cx="1401.4692" cy="-70.8" rx="178.2304" ry="18"/>
<text text-anchor="middle" x="1401.4692" y="-66.6" font-family="Times,serif" font-size="14.00" fill="#000000">Annotation: [AtomicServiceConfiguration]</text>
</g>
<!-- Class: [AtomicService]&#45;&gt;Annotation: [AtomicServiceConfiguration] -->
<g id="edge4" class="edge">
<title>Class: [AtomicService]&#45;&gt;Annotation: [AtomicServiceConfiguration]</title>
<path fill="none" stroke="#000000" d="M1150.7846,-210.7532C1186.7208,-204.8146 1223.6664,-196.3185 1237.4692,-185.2 1256.602,-169.788 1242.82,-152.19 1260.1746,-134.8 1279.5724,-115.3627 1305.9356,-101.2556 1330.6373,-91.3164"/>
<polygon fill="#000000" stroke="#000000" points="1331.931,-94.5688 1340.0051,-87.7088 1329.4153,-88.0365 1331.931,-94.5688"/>
<text text-anchor="middle" x="1314.1165" y="-172.6" font-family="Times,serif" font-size="14.00" fill="#000000">[readConfiguration</text>
<text text-anchor="middle" x="1314.1165" y="-155.8" font-family="Times,serif" font-size="14.00" fill="#000000">&#45;&#45;&gt;</text>
<text text-anchor="middle" x="1314.1165" y="-139" font-family="Times,serif" font-size="14.00" fill="#000000">MaxNoOfThreads]</text>
</g>
<!-- Class: [AtomicService]&#45;&gt;Annotation: [AtomicServiceConfiguration] -->
<g id="edge5" class="edge">
<title>Class: [AtomicService]&#45;&gt;Annotation: [AtomicServiceConfiguration]</title>
<path fill="none" stroke="#000000" d="M1162.6658,-214.9904C1244.5415,-208.8056 1351.8808,-198.3477 1367.4692,-185.2 1380.6454,-174.0868 1391.0563,-129.0953 1396.7307,-98.957"/>
<polygon fill="#000000" stroke="#000000" points="1400.1965,-99.4601 1398.537,-88.9961 1393.3088,-98.2111 1400.1965,-99.4601"/>
<text text-anchor="middle" x="1441.1165" y="-172.6" font-family="Times,serif" font-size="14.00" fill="#000000">[readConfiguration</text>
<text text-anchor="middle" x="1441.1165" y="-155.8" font-family="Times,serif" font-size="14.00" fill="#000000">&#45;&#45;&gt;</text>
<text text-anchor="middle" x="1441.1165" y="-139" font-family="Times,serif" font-size="14.00" fill="#000000">MaxQueueSize]</text>
</g>
<!-- Class: [AtomicService]&#45;&gt;Annotation: [AtomicServiceConfiguration] -->
<g id="edge6" class="edge">
<title>Class: [AtomicService]&#45;&gt;Annotation: [AtomicServiceConfiguration]</title>
<path fill="none" stroke="#000000" d="M1168.6709,-219.7797C1288.778,-217.0219 1475.6462,-208.9264 1497.4692,-185.2 1512.6333,-168.7133 1508.0388,-154.5495 1497.4692,-134.8 1487.9717,-117.0538 1471.1394,-103.3785 1454.1936,-93.3125"/>
<polygon fill="#000000" stroke="#000000" points="1455.7966,-90.1989 1445.3599,-88.3751 1452.3814,-96.3092 1455.7966,-90.1989"/>
<text text-anchor="middle" x="1560.1165" y="-172.6" font-family="Times,serif" font-size="14.00" fill="#000000">[readConfiguration</text>
<text text-anchor="middle" x="1560.1165" y="-155.8" font-family="Times,serif" font-size="14.00" fill="#000000">&#45;&#45;&gt;</text>
<text text-anchor="middle" x="1560.1165" y="-139" font-family="Times,serif" font-size="14.00" fill="#000000">MultipeThreads]</text>
</g>
</g>
</svg>
