<svg width="1613pt" height="247pt"
 viewBox="0.00 0.00 1612.76 247.20" xmlns="http://www.w3.org/2000/svg" xmlns:xlink="http://www.w3.org/1999/xlink">
<g id="graph0" class="graph" transform="scale(1 1) rotate(0) translate(4 243.2)">
<title>project</title>
<polygon fill="#ffffff" stroke="transparent" points="-4,4 -4,-243.2 1608.7638,-243.2 1608.7638,4 -4,4"/>
<text text-anchor="middle" x="802.3819" y="-8.2" font-family="Times,serif" font-size="14.00" fill="#000000">Method Calls for :service.atomic.AtomicService</text>
<!-- operation.getAnnotation(ServiceOperation.class) != null\noperation.getName().equals(opName)\nsize == params.length\n!(flag = serviceProfiles.get(i).preInvokeOperation(opName, args))\nflag\n -->
<g id="node1" class="node">
<title>operation.getAnnotation(ServiceOperation.class) != null\noperation.getName().equals(opName)\nsize == params.length\n!(flag = serviceProfiles.get(i).preInvokeOperation(opName, args))\nflag\n</title>
<polygon fill="none" stroke="#ff0000" points="386.9076,-116.8 .0308,-116.8 .0308,-24.8 386.9076,-24.8 386.9076,-116.8"/>
<text text-anchor="middle" x="193.4692" y="-100.2" font-family="Times,serif" font-size="14.00" fill="#ff0000">operation.getAnnotation(ServiceOperation.class) != null</text>
<text text-anchor="middle" x="193.4692" y="-83.4" font-family="Times,serif" font-size="14.00" fill="#ff0000">operation.getName().equals(opName)</text>
<text text-anchor="middle" x="193.4692" y="-66.6" font-family="Times,serif" font-size="14.00" fill="#ff0000">size == params.length</text>
<text text-anchor="middle" x="193.4692" y="-49.8" font-family="Times,serif" font-size="14.00" fill="#ff0000">!(flag = serviceProfiles.get(i).preInvokeOperation(opName, args))</text>
<text text-anchor="middle" x="193.4692" y="-33" font-family="Times,serif" font-size="14.00" fill="#ff0000">flag</text>
</g>
<!-- annotation != null &amp;&amp; annotation instanceof AtomicServiceConfiguration\n -->
<g id="node2" class="node">
<title>annotation != null &amp;&amp; annotation instanceof AtomicServiceConfiguration\n</title>
<polygon fill="none" stroke="#ff0000" points="836.334,-88.8 404.6044,-88.8 404.6044,-52.8 836.334,-52.8 836.334,-88.8"/>
<text text-anchor="middle" x="620.4692" y="-66.6" font-family="Times,serif" font-size="14.00" fill="#ff0000">annotation != null &amp;&amp; annotation instanceof AtomicServiceConfiguration</text>
</g>
<!-- Class: [AtomicService] -->
<g id="node3" class="node">
<title>Class: [AtomicService]</title>
<ellipse fill="none" stroke="#000000" cx="1062.4692" cy="-221.2" rx="101.3144" ry="18"/>
<text text-anchor="middle" x="1062.4692" y="-217" font-family="Times,serif" font-size="14.00" fill="#000000">Class: [AtomicService]</text>
</g>
<!-- Class: [AtomicService]&#45;&gt;operation.getAnnotation(ServiceOperation.class) != null\noperation.getName().equals(opName)\nsize == params.length\n!(flag = serviceProfiles.get(i).preInvokeOperation(opName, args))\nflag\n -->
<g id="edge7" class="edge">
<title>Class: [AtomicService]&#45;&gt;operation.getAnnotation(ServiceOperation.class) != null\noperation.getName().equals(opName)\nsize == params.length\n!(flag = serviceProfiles.get(i).preInvokeOperation(opName, args))\nflag\n</title>
<path fill="none" stroke="#ff0000" d="M964.4091,-216.527C843.6985,-210.3299 645.803,-198.6006 573.3864,-185.2 491.3854,-170.0259 401.9769,-143.619 330.5058,-119.9971"/>
<polygon fill="#ff0000" stroke="#ff0000" points="331.5833,-116.6671 320.9898,-116.8335 329.375,-123.3096 331.5833,-116.6671"/>
<text text-anchor="middle" x="620.5106" y="-155.8" font-family="Times,serif" font-size="14.00" fill="#ff0000">invokeOperation</text>
</g>
<!-- Class: [AtomicService]&#45;&gt;annotation != null &amp;&amp; annotation instanceof AtomicServiceConfiguration\n -->
<g id="edge8" class="edge">
<title>Class: [AtomicService]&#45;&gt;annotation != null &amp;&amp; annotation instanceof AtomicServiceConfiguration\n</title>
<path fill="none" stroke="#ff0000" d="M962.6324,-217.7251C880.4453,-213.5171 771.2798,-204.4316 731.8352,-185.2 691.144,-165.3606 657.0448,-124.272 637.6887,-97.1227"/>
<polygon fill="#ff0000" stroke="#ff0000" points="640.5144,-95.0556 631.9327,-88.8424 634.7667,-99.0512 640.5144,-95.0556"/>
<text text-anchor="middle" x="783.7862" y="-155.8" font-family="Times,serif" font-size="14.00" fill="#ff0000">readConfiguration</text>
</g>
<!-- Class: [ServiceProfile] -->
<g id="node4" class="node">
<title>Class: [ServiceProfile]</title>
<ellipse fill="none" stroke="#000000" cx="952.4692" cy="-70.8" rx="98.9436" ry="18"/>
<text text-anchor="middle" x="952.4692" y="-66.6" font-family="Times,serif" font-size="14.00" fill="#000000">Class: [ServiceProfile]</text>
</g>
<!-- Class: [AtomicService]&#45;&gt;Class: [ServiceProfile] -->
<g id="edge1" class="edge">
<title>Class: [AtomicService]&#45;&gt;Class: [ServiceProfile]</title>
<path fill="none" stroke="#000000" d="M975.3747,-211.9475C919.6258,-205.1232 856.1723,-195.3038 847.6206,-185.2 833.1492,-168.1021 836.6584,-154.3344 847.6206,-134.8 858.4773,-115.4535 877.8234,-101.2623 896.9668,-91.231"/>
<polygon fill="#000000" stroke="#000000" points="898.589,-94.3336 906.0124,-86.7741 895.4951,-88.0544 898.589,-94.3336"/>
<text text-anchor="middle" x="909.8935" y="-172.6" font-family="Times,serif" font-size="14.00" fill="#000000">[invokeOperation</text>
<text text-anchor="middle" x="909.8935" y="-155.8" font-family="Times,serif" font-size="14.00" fill="#000000">&#45;&#45;&gt;</text>
<text text-anchor="middle" x="909.8935" y="-139" font-family="Times,serif" font-size="14.00" fill="#000000">postInvokeOperation]</text>
</g>
<!-- Class: [AtomicService]&#45;&gt;Class: [ServiceProfile] -->
<g id="edge2" class="edge">
<title>Class: [AtomicService]&#45;&gt;Class: [ServiceProfile]</title>
<path fill="none" stroke="#000000" d="M1015.4793,-205.1427C1005.7068,-200.0233 996.222,-193.471 989.0806,-185.2 983.3258,-178.535 969.2272,-130.864 960.3002,-99.1992"/>
<polygon fill="#000000" stroke="#000000" points="963.5555,-97.8439 957.4906,-89.1567 956.8144,-99.7299 963.5555,-97.8439"/>
<text text-anchor="middle" x="1048.1635" y="-172.6" font-family="Times,serif" font-size="14.00" fill="#000000">[invokeOperation</text>
<text text-anchor="middle" x="1048.1635" y="-155.8" font-family="Times,serif" font-size="14.00" fill="#000000">&#45;&#45;&gt;</text>
<text text-anchor="middle" x="1048.1635" y="-139" font-family="Times,serif" font-size="14.00" fill="#000000">preInvokeOperation]</text>
</g>
<!-- Class: [Param] -->
<g id="node5" class="node">
<title>Class: [Param]</title>
<ellipse fill="none" stroke="#000000" cx="1137.4692" cy="-70.8" rx="68.3092" ry="18"/>
<text text-anchor="middle" x="1137.4692" y="-66.6" font-family="Times,serif" font-size="14.00" fill="#000000">Class: [Param]</text>
</g>
<!-- Class: [AtomicService]&#45;&gt;Class: [Param] -->
<g id="edge3" class="edge">
<title>Class: [AtomicService]&#45;&gt;Class: [Param]</title>
<path fill="none" stroke="#000000" d="M1092.3668,-203.8198C1099.1856,-198.609 1105.7915,-192.347 1110.4692,-185.2 1127.5052,-159.1711 1133.8261,-123.5762 1136.1523,-99.0375"/>
<polygon fill="#000000" stroke="#000000" points="1139.6518,-99.1799 1136.9443,-88.9369 1132.6732,-98.6326 1139.6518,-99.1799"/>
<text text-anchor="middle" x="1179.8409" y="-172.6" font-family="Times,serif" font-size="14.00" fill="#000000">[invokeOperation</text>
<text text-anchor="middle" x="1179.8409" y="-155.8" font-family="Times,serif" font-size="14.00" fill="#000000">&#45;&#45;&gt;</text>
<text text-anchor="middle" x="1179.8409" y="-139" font-family="Times,serif" font-size="14.00" fill="#000000">getValue]</text>
</g>
<!-- Class: [AtomicServiceConfiguration] -->
<g id="node6" class="node">
<title>Class: [AtomicServiceConfiguration]</title>
<ellipse fill="none" stroke="#000000" cx="1384.4692" cy="-70.8" rx="155.6711" ry="18"/>
<text text-anchor="middle" x="1384.4692" y="-66.6" font-family="Times,serif" font-size="14.00" fill="#000000">Class: [AtomicServiceConfiguration]</text>
</g>
<!-- Class: [AtomicService]&#45;&gt;Class: [AtomicServiceConfiguration] -->
<g id="edge4" class="edge">
<title>Class: [AtomicService]&#45;&gt;Class: [AtomicServiceConfiguration]</title>
<path fill="none" stroke="#000000" d="M1145.7846,-210.7532C1181.7208,-204.8146 1218.6664,-196.3185 1232.4692,-185.2 1251.602,-169.788 1238.121,-152.4853 1255.1746,-134.8 1273.3582,-115.9429 1298.2652,-101.8115 1321.3667,-91.6918"/>
<polygon fill="#000000" stroke="#000000" points="1322.9247,-94.8338 1330.7903,-87.7357 1320.215,-88.3795 1322.9247,-94.8338"/>
<text text-anchor="middle" x="1308.1165" y="-172.6" font-family="Times,serif" font-size="14.00" fill="#000000">[readConfiguration</text>
<text text-anchor="middle" x="1308.1165" y="-155.8" font-family="Times,serif" font-size="14.00" fill="#000000">&#45;&#45;&gt;</text>
<text text-anchor="middle" x="1308.1165" y="-139" font-family="Times,serif" font-size="14.00" fill="#000000">MaxNoOfThreads]</text>
</g>
<!-- Class: [AtomicService]&#45;&gt;Class: [AtomicServiceConfiguration] -->
<g id="edge5" class="edge">
<title>Class: [AtomicService]&#45;&gt;Class: [AtomicServiceConfiguration]</title>
<path fill="none" stroke="#000000" d="M1158.3712,-215.3106C1240.4121,-209.3649 1347.5738,-199.0798 1362.4692,-185.2 1374.7251,-173.7797 1380.3316,-129.2366 1382.7624,-99.2198"/>
<polygon fill="#000000" stroke="#000000" points="1386.2779,-99.1363 1383.5207,-88.9065 1379.2968,-98.6229 1386.2779,-99.1363"/>
<text text-anchor="middle" x="1431.1165" y="-172.6" font-family="Times,serif" font-size="14.00" fill="#000000">[readConfiguration</text>
<text text-anchor="middle" x="1431.1165" y="-155.8" font-family="Times,serif" font-size="14.00" fill="#000000">&#45;&#45;&gt;</text>
<text text-anchor="middle" x="1431.1165" y="-139" font-family="Times,serif" font-size="14.00" fill="#000000">MaxQueueSize]</text>
</g>
<!-- Class: [AtomicService]&#45;&gt;Class: [AtomicServiceConfiguration] -->
<g id="edge6" class="edge">
<title>Class: [AtomicService]&#45;&gt;Class: [AtomicServiceConfiguration]</title>
<path fill="none" stroke="#000000" d="M1163.7706,-219.6871C1282.7986,-216.8362 1466.9197,-208.6474 1488.4692,-185.2 1503.6268,-168.7074 1499.396,-154.3542 1488.4692,-134.8 1478.1599,-116.3508 1460.1094,-102.5653 1441.91,-92.609"/>
<polygon fill="#000000" stroke="#000000" points="1443.4906,-89.4862 1432.997,-88.0252 1440.2892,-95.7112 1443.4906,-89.4862"/>
<text text-anchor="middle" x="1551.1165" y="-172.6" font-family="Times,serif" font-size="14.00" fill="#000000">[readConfiguration</text>
<text text-anchor="middle" x="1551.1165" y="-155.8" font-family="Times,serif" font-size="14.00" fill="#000000">&#45;&#45;&gt;</text>
<text text-anchor="middle" x="1551.1165" y="-139" font-family="Times,serif" font-size="14.00" fill="#000000">MultipeThreads]</text>
</g>
</g>
</svg>
