<svg width="368pt" height="280pt"
 viewBox="0.00 0.00 368.09 280.00" xmlns="http://www.w3.org/2000/svg" xmlns:xlink="http://www.w3.org/1999/xlink">
<g id="graph0" class="graph" transform="scale(1 1) rotate(0) translate(4 276)">
<title>project</title>
<polygon fill="#ffffff" stroke="transparent" points="-4,4 -4,-276 364.092,-276 364.092,4 -4,4"/>
<text text-anchor="middle" x="180.046" y="-8.2" font-family="Times,serif" font-size="14.00" fill="#000000">Method Calls for :service.composite.CompositeServiceClient</text>
<!-- response.getReturnType() != null\n -->
<g id="node1" class="node">
<title>response.getReturnType() != null\n</title>
<polygon fill="none" stroke="#ff0000" points="239.8994,-60.8 36.6765,-60.8 36.6765,-24.8 239.8994,-24.8 239.8994,-60.8"/>
<text text-anchor="middle" x="138.288" y="-38.6" font-family="Times,serif" font-size="14.00" fill="#ff0000">response.getReturnType() != null</text>
</g>
<!-- Class: [CompositeServiceClient] -->
<g id="node2" class="node">
<title>Class: [CompositeServiceClient]</title>
<ellipse fill="none" stroke="#000000" cx="138.288" cy="-254" rx="137.79" ry="18"/>
<text text-anchor="middle" x="138.288" y="-249.8" font-family="Times,serif" font-size="14.00" fill="#000000">Class: [CompositeServiceClient]</text>
</g>
<!-- Class: [AbstractServiceClient] -->
<g id="node3" class="node">
<title>Class: [AbstractServiceClient]</title>
<ellipse fill="none" stroke="#000000" cx="138.288" cy="-131.6" rx="128.5175" ry="18"/>
<text text-anchor="middle" x="138.288" y="-127.4" font-family="Times,serif" font-size="14.00" fill="#000000">Class: [AbstractServiceClient]</text>
</g>
<!-- Class: [CompositeServiceClient]&#45;&gt;Class: [AbstractServiceClient] -->
<g id="edge1" class="edge">
<title>Class: [CompositeServiceClient]&#45;&gt;Class: [AbstractServiceClient]</title>
<path fill="none" stroke="#000000" d="M73.4638,-237.8894C64.5105,-232.9358 56.4555,-226.4613 50.7872,-218 38.3202,-199.3899 38.3202,-186.2101 50.7872,-167.6 54.7184,-161.7317 59.7977,-156.819 65.5284,-152.7066"/>
<polygon fill="#000000" stroke="#000000" points="67.6863,-155.4865 74.333,-147.2359 63.9919,-149.5408 67.6863,-155.4865"/>
<text text-anchor="middle" x="129.0384" y="-205.4" font-family="Times,serif" font-size="14.00" fill="#000000">[getQosRequirementNames</text>
<text text-anchor="middle" x="129.0384" y="-188.6" font-family="Times,serif" font-size="14.00" fill="#000000">&#45;&#45;&gt;</text>
<text text-anchor="middle" x="129.0384" y="-171.8" font-family="Times,serif" font-size="14.00" fill="#000000">sendRequest]</text>
</g>
<!-- Class: [CompositeServiceClient]&#45;&gt;Class: [AbstractServiceClient] -->
<g id="edge2" class="edge">
<title>Class: [CompositeServiceClient]&#45;&gt;Class: [AbstractServiceClient]</title>
<path fill="none" stroke="#000000" d="M186.5207,-237.076C194.4024,-232.1512 201.5338,-225.8962 206.288,-218 217.842,-198.8098 217.842,-186.7902 206.288,-167.6 203.1982,-162.4682 199.1043,-158.0296 194.453,-154.1988"/>
<polygon fill="#000000" stroke="#000000" points="196.3547,-151.2564 186.1775,-148.3107 192.2964,-156.96 196.3547,-151.2564"/>
<text text-anchor="middle" x="286.9935" y="-205.4" font-family="Times,serif" font-size="14.00" fill="#000000">[invokeCompositeService</text>
<text text-anchor="middle" x="286.9935" y="-188.6" font-family="Times,serif" font-size="14.00" fill="#000000">&#45;&#45;&gt;</text>
<text text-anchor="middle" x="286.9935" y="-171.8" font-family="Times,serif" font-size="14.00" fill="#000000">sendRequest]</text>
</g>
<!-- Class: [AbstractServiceClient]&#45;&gt;response.getReturnType() != null\n -->
<g id="edge3" class="edge">
<title>Class: [AbstractServiceClient]&#45;&gt;response.getReturnType() != null\n</title>
<path fill="none" stroke="#ff0000" d="M138.288,-113.2006C138.288,-101.0949 138.288,-85.0076 138.288,-71.2674"/>
<polygon fill="#ff0000" stroke="#ff0000" points="141.7881,-70.872 138.288,-60.872 134.7881,-70.8721 141.7881,-70.872"/>
<text text-anchor="middle" x="169.7768" y="-83" font-family="Times,serif" font-size="14.00" fill="#ff0000">onMessage</text>
</g>
</g>
</svg>
