<svg width="934pt" height="336pt"
 viewBox="0.00 0.00 934.07 336.00" xmlns="http://www.w3.org/2000/svg" xmlns:xlink="http://www.w3.org/1999/xlink">
<g id="graph0" class="graph" transform="scale(1 1) rotate(0) translate(4 332)">
<title>project</title>
<polygon fill="#ffffff" stroke="transparent" points="-4,4 -4,-332 930.0714,-332 930.0714,4 -4,4"/>
<text text-anchor="middle" x="463.0357" y="-8.2" font-family="Times,serif" font-size="14.00" fill="#000000">Method Calls for :application.view.controller.ConfigureController</text>
<!-- !(endPoint.contains(&quot;.#CLIENT#.&quot;) || destinationEndPoint.contains(&quot;.#CLIENT#.&quot;) || endPoint.endsWith(&quot;.registry&quot;) || destinationEndPoint.endsWith(&quot;.registry&quot;))\nmsg.getType().equals(&quot;response&quot;)\nmessageLoss &gt; 0\n100 / messageLoss == messageCount\nminDelay + maxDelay != 0\n -->
<g id="node1" class="node">
<title>!(endPoint.contains(&quot;.#CLIENT#.&quot;) || destinationEndPoint.contains(&quot;.#CLIENT#.&quot;) || endPoint.endsWith(&quot;.registry&quot;) || destinationEndPoint.endsWith(&quot;.registry&quot;))\nmsg.getType().equals(&quot;response&quot;)\nmessageLoss &gt; 0\n100 / messageLoss == messageCount\nminDelay + maxDelay != 0\n</title>
<polygon fill="none" stroke="#ff0000" points="926.1071,-116.8 -.0357,-116.8 -.0357,-24.8 926.1071,-24.8 926.1071,-116.8"/>
<text text-anchor="middle" x="463.0357" y="-100.2" font-family="Times,serif" font-size="14.00" fill="#ff0000">!(endPoint.contains(&quot;.#CLIENT#.&quot;) || destinationEndPoint.contains(&quot;.#CLIENT#.&quot;) || endPoint.endsWith(&quot;.registry&quot;) || destinationEndPoint.endsWith(&quot;.registry&quot;))</text>
<text text-anchor="middle" x="463.0357" y="-83.4" font-family="Times,serif" font-size="14.00" fill="#ff0000">msg.getType().equals(&quot;response&quot;)</text>
<text text-anchor="middle" x="463.0357" y="-66.6" font-family="Times,serif" font-size="14.00" fill="#ff0000">messageLoss &gt; 0</text>
<text text-anchor="middle" x="463.0357" y="-49.8" font-family="Times,serif" font-size="14.00" fill="#ff0000">100 / messageLoss == messageCount</text>
<text text-anchor="middle" x="463.0357" y="-33" font-family="Times,serif" font-size="14.00" fill="#ff0000">minDelay + maxDelay != 0</text>
</g>
<!-- Class: [ConfigureController] -->
<g id="node2" class="node">
<title>Class: [ConfigureController]</title>
<ellipse fill="none" stroke="#000000" cx="463.0357" cy="-310" rx="122.1658" ry="18"/>
<text text-anchor="middle" x="463.0357" y="-305.8" font-family="Times,serif" font-size="14.00" fill="#000000">Class: [ConfigureController]</text>
</g>
<!-- Class: [MessagingService] -->
<g id="node3" class="node">
<title>Class: [MessagingService]</title>
<ellipse fill="none" stroke="#000000" cx="463.0357" cy="-187.6" rx="114.0582" ry="18"/>
<text text-anchor="middle" x="463.0357" y="-183.4" font-family="Times,serif" font-size="14.00" fill="#000000">Class: [MessagingService]</text>
</g>
<!-- Class: [ConfigureController]&#45;&gt;Class: [MessagingService] -->
<g id="edge1" class="edge">
<title>Class: [ConfigureController]&#45;&gt;Class: [MessagingService]</title>
<path fill="none" stroke="#000000" d="M352.4201,-302.2191C281.932,-296.1024 201.827,-286.5239 190.8505,-274 176.0862,-257.1544 176.0862,-240.4456 190.8505,-223.6 201.6119,-211.3215 278.8193,-201.8741 348.2662,-195.7444"/>
<polygon fill="#000000" stroke="#000000" points="348.786,-199.2126 358.4473,-194.8642 348.1829,-192.2386 348.786,-199.2126"/>
<text text-anchor="middle" x="239.6283" y="-261.4" font-family="Times,serif" font-size="14.00" fill="#000000">[initialize</text>
<text text-anchor="middle" x="239.6283" y="-244.6" font-family="Times,serif" font-size="14.00" fill="#000000">&#45;&#45;&gt;</text>
<text text-anchor="middle" x="239.6283" y="-227.8" font-family="Times,serif" font-size="14.00" fill="#000000">getMessageLoss]</text>
</g>
<!-- Class: [ConfigureController]&#45;&gt;Class: [MessagingService] -->
<g id="edge2" class="edge">
<title>Class: [ConfigureController]&#45;&gt;Class: [MessagingService]</title>
<path fill="none" stroke="#000000" d="M371.5573,-297.9408C344.3625,-292.3646 319.5653,-284.5722 311.2067,-274 297.3143,-256.4284 297.3143,-241.1716 311.2067,-223.6 318.8453,-213.9384 340.2127,-206.5984 364.5925,-201.1498"/>
<polygon fill="#000000" stroke="#000000" points="365.3702,-204.5628 374.4354,-199.0789 363.929,-197.7128 365.3702,-204.5628"/>
<text text-anchor="middle" x="376.9502" y="-261.4" font-family="Times,serif" font-size="14.00" fill="#000000">[initialize</text>
<text text-anchor="middle" x="376.9502" y="-244.6" font-family="Times,serif" font-size="14.00" fill="#000000">&#45;&#45;&gt;</text>
<text text-anchor="middle" x="376.9502" y="-227.8" font-family="Times,serif" font-size="14.00" fill="#000000">getMessageMaxDelay]</text>
</g>
<!-- Class: [ConfigureController]&#45;&gt;Class: [MessagingService] -->
<g id="edge3" class="edge">
<title>Class: [ConfigureController]&#45;&gt;Class: [MessagingService]</title>
<path fill="none" stroke="#000000" d="M463.0357,-291.9395C463.0357,-271.8712 463.0357,-239.2113 463.0357,-215.7752"/>
<polygon fill="#000000" stroke="#000000" points="466.5358,-215.7346 463.0357,-205.7346 459.5358,-215.7347 466.5358,-215.7346"/>
<text text-anchor="middle" x="526.7882" y="-261.4" font-family="Times,serif" font-size="14.00" fill="#000000">[initialize</text>
<text text-anchor="middle" x="526.7882" y="-244.6" font-family="Times,serif" font-size="14.00" fill="#000000">&#45;&#45;&gt;</text>
<text text-anchor="middle" x="526.7882" y="-227.8" font-family="Times,serif" font-size="14.00" fill="#000000">getMessageMinDelay]</text>
</g>
<!-- Class: [ConfigureController]&#45;&gt;Class: [MessagingService] -->
<g id="edge4" class="edge">
<title>Class: [ConfigureController]&#45;&gt;Class: [MessagingService]</title>
<path fill="none" stroke="#000000" d="M541.9239,-296.1579C564.6278,-290.4772 585.1468,-283.0747 592.0357,-274 605.5798,-256.1586 605.5798,-241.4414 592.0357,-223.6 585.9645,-215.6025 569.3071,-208.9038 549.8974,-203.5377"/>
<polygon fill="#000000" stroke="#000000" points="550.7413,-200.1409 540.1822,-201.0107 548.9791,-206.9154 550.7413,-200.1409"/>
<text text-anchor="middle" x="653.3429" y="-261.4" font-family="Times,serif" font-size="14.00" fill="#000000">[initialize</text>
<text text-anchor="middle" x="653.3429" y="-244.6" font-family="Times,serif" font-size="14.00" fill="#000000">&#45;&#45;&gt;</text>
<text text-anchor="middle" x="653.3429" y="-227.8" font-family="Times,serif" font-size="14.00" fill="#000000">setMessageDelay]</text>
</g>
<!-- Class: [ConfigureController]&#45;&gt;Class: [MessagingService] -->
<g id="edge5" class="edge">
<title>Class: [ConfigureController]&#45;&gt;Class: [MessagingService]</title>
<path fill="none" stroke="#000000" d="M568.8823,-300.9331C631.1166,-294.4996 699.4745,-285.0622 709.0357,-274 723.6833,-257.0528 723.6833,-240.5472 709.0357,-223.6 699.7281,-212.8311 634.7007,-203.602 573.8451,-197.185"/>
<polygon fill="#000000" stroke="#000000" points="574.0376,-193.6864 563.7307,-196.1397 573.3179,-200.6493 574.0376,-193.6864"/>
<text text-anchor="middle" x="766.8506" y="-261.4" font-family="Times,serif" font-size="14.00" fill="#000000">[initialize</text>
<text text-anchor="middle" x="766.8506" y="-244.6" font-family="Times,serif" font-size="14.00" fill="#000000">&#45;&#45;&gt;</text>
<text text-anchor="middle" x="766.8506" y="-227.8" font-family="Times,serif" font-size="14.00" fill="#000000">setMessageLoss]</text>
</g>
<!-- Class: [MessagingService]&#45;&gt;!(endPoint.contains(&quot;.#CLIENT#.&quot;) || destinationEndPoint.contains(&quot;.#CLIENT#.&quot;) || endPoint.endsWith(&quot;.registry&quot;) || destinationEndPoint.endsWith(&quot;.registry&quot;))\nmsg.getType().equals(&quot;response&quot;)\nmessageLoss &gt; 0\n100 / messageLoss == messageCount\nminDelay + maxDelay != 0\n -->
<g id="edge6" class="edge">
<title>Class: [MessagingService]&#45;&gt;!(endPoint.contains(&quot;.#CLIENT#.&quot;) || destinationEndPoint.contains(&quot;.#CLIENT#.&quot;) || endPoint.endsWith(&quot;.registry&quot;) || destinationEndPoint.endsWith(&quot;.registry&quot;))\nmsg.getType().equals(&quot;response&quot;)\nmessageLoss &gt; 0\n100 / messageLoss == messageCount\nminDelay + maxDelay != 0\n</title>
<path fill="none" stroke="#ff0000" d="M463.0357,-169.35C463.0357,-157.8237 463.0357,-142.2532 463.0357,-126.8954"/>
<polygon fill="#ff0000" stroke="#ff0000" points="466.5358,-126.8786 463.0357,-116.8786 459.5358,-126.8786 466.5358,-126.8786"/>
<text text-anchor="middle" x="500.3541" y="-139" font-family="Times,serif" font-size="14.00" fill="#ff0000">sendMessage</text>
</g>
</g>
</svg>
