<svg width="1429pt" height="336pt"
 viewBox="0.00 0.00 1428.60 336.00" xmlns="http://www.w3.org/2000/svg" xmlns:xlink="http://www.w3.org/1999/xlink">
<g id="graph0" class="graph" transform="scale(1 1) rotate(0) translate(4 332)">
<title>project</title>
<polygon fill="#ffffff" stroke="transparent" points="-4,4 -4,-332 1424.6038,-332 1424.6038,4 -4,4"/>
<text text-anchor="middle" x="710.3019" y="-8.2" font-family="Times,serif" font-size="14.00" fill="#000000">Method Calls for :service.adaptation.effectors.ConfigurationEffector</text>
<!-- DEBUG\nreply\nresponseTime ==  -->
<g id="node1" class="node">
<title>DEBUG\nreply\nresponseTime == </title>
<polygon fill="none" stroke="#ff0000" points="117.4753,-100.2014 -.1587,-100.2014 -.1587,-41.3986 117.4753,-41.3986 117.4753,-100.2014"/>
<text text-anchor="middle" x="58.6583" y="-83.4" font-family="Times,serif" font-size="14.00" fill="#ff0000">DEBUG</text>
<text text-anchor="middle" x="58.6583" y="-66.6" font-family="Times,serif" font-size="14.00" fill="#ff0000">reply</text>
<text text-anchor="middle" x="58.6583" y="-49.8" font-family="Times,serif" font-size="14.00" fill="#ff0000">responseTime == </text>
</g>
<!-- DEBUG\n!(result instanceof OperationAborted)\nthread instanceof ExecutionThread\nDEBUG\nresponse.getReturnType() != null\n -->
<g id="node2" class="node">
<title>DEBUG\n!(result instanceof OperationAborted)\nthread instanceof ExecutionThread\nDEBUG\nresponse.getReturnType() != null\n</title>
<polygon fill="none" stroke="#ff0000" points="362.6218,-116.8 134.6948,-116.8 134.6948,-24.8 362.6218,-24.8 362.6218,-116.8"/>
<text text-anchor="middle" x="248.6583" y="-100.2" font-family="Times,serif" font-size="14.00" fill="#ff0000">DEBUG</text>
<text text-anchor="middle" x="248.6583" y="-83.4" font-family="Times,serif" font-size="14.00" fill="#ff0000">!(result instanceof OperationAborted)</text>
<text text-anchor="middle" x="248.6583" y="-66.6" font-family="Times,serif" font-size="14.00" fill="#ff0000">thread instanceof ExecutionThread</text>
<text text-anchor="middle" x="248.6583" y="-49.8" font-family="Times,serif" font-size="14.00" fill="#ff0000">DEBUG</text>
<text text-anchor="middle" x="248.6583" y="-33" font-family="Times,serif" font-size="14.00" fill="#ff0000">response.getReturnType() != null</text>
</g>
<!-- !(result instanceof OperationAborted)\n -->
<g id="node3" class="node">
<title>!(result instanceof OperationAborted)\n</title>
<polygon fill="none" stroke="#ff0000" points="607.6218,-88.8 379.6948,-88.8 379.6948,-52.8 607.6218,-52.8 607.6218,-88.8"/>
<text text-anchor="middle" x="493.6583" y="-66.6" font-family="Times,serif" font-size="14.00" fill="#ff0000">!(result instanceof OperationAborted)</text>
</g>
<!-- description.getRegisterID() &gt; 0\n -->
<g id="node4" class="node">
<title>description.getRegisterID() &gt; 0\n</title>
<polygon fill="none" stroke="#ff0000" points="816.6054,-88.8 624.7112,-88.8 624.7112,-52.8 816.6054,-52.8 816.6054,-88.8"/>
<text text-anchor="middle" x="720.6583" y="-66.6" font-family="Times,serif" font-size="14.00" fill="#ff0000">description.getRegisterID() &gt; 0</text>
</g>
<!-- operation.getAnnotation(ServiceOperation.class) != null\n -->
<g id="node5" class="node">
<title>operation.getAnnotation(ServiceOperation.class) != null\n</title>
<polygon fill="none" stroke="#ff0000" points="1166.4494,-88.8 834.8672,-88.8 834.8672,-52.8 1166.4494,-52.8 1166.4494,-88.8"/>
<text text-anchor="middle" x="1000.6583" y="-66.6" font-family="Times,serif" font-size="14.00" fill="#ff0000">operation.getAnnotation(ServiceOperation.class) != null</text>
</g>
<!-- configuration.multipleThreads == false\n -->
<g id="node6" class="node">
<title>configuration.multipleThreads == false\n</title>
<polygon fill="none" stroke="#ff0000" points="1420.5493,-88.8 1184.7673,-88.8 1184.7673,-52.8 1420.5493,-52.8 1420.5493,-88.8"/>
<text text-anchor="middle" x="1302.6583" y="-66.6" font-family="Times,serif" font-size="14.00" fill="#ff0000">configuration.multipleThreads == false</text>
</g>
<!-- Class: [ConfigurationEffector] -->
<g id="node7" class="node">
<title>Class: [ConfigurationEffector]</title>
<ellipse fill="none" stroke="#000000" cx="606.6583" cy="-310" rx="129.0874" ry="18"/>
<text text-anchor="middle" x="606.6583" y="-305.8" font-family="Times,serif" font-size="14.00" fill="#000000">Class: [ConfigurationEffector]</text>
</g>
<!-- Class: [AbstractService] -->
<g id="node8" class="node">
<title>Class: [AbstractService]</title>
<ellipse fill="none" stroke="#000000" cx="606.6583" cy="-187.6" rx="105.3045" ry="18"/>
<text text-anchor="middle" x="606.6583" y="-183.4" font-family="Times,serif" font-size="14.00" fill="#000000">Class: [AbstractService]</text>
</g>
<!-- Class: [ConfigurationEffector]&#45;&gt;Class: [AbstractService] -->
<g id="edge1" class="edge">
<title>Class: [ConfigurationEffector]&#45;&gt;Class: [AbstractService]</title>
<path fill="none" stroke="#000000" d="M564.6942,-292.7742C557.3496,-287.8232 550.6827,-281.6352 546.3483,-274 535.2897,-254.5201 535.2897,-243.0799 546.3483,-223.6 549.1702,-218.6292 552.9807,-214.2718 557.3232,-210.4697"/>
<polygon fill="#000000" stroke="#000000" points="559.7407,-213.0302 565.6156,-204.2134 555.5248,-207.4422 559.7407,-213.0302"/>
<text text-anchor="middle" x="596.8133" y="-261.4" font-family="Times,serif" font-size="14.00" fill="#000000">[changeTimeout</text>
<text text-anchor="middle" x="596.8133" y="-244.6" font-family="Times,serif" font-size="14.00" fill="#000000">&#45;&#45;&gt;</text>
<text text-anchor="middle" x="596.8133" y="-227.8" font-family="Times,serif" font-size="14.00" fill="#000000">getConfiguration]</text>
</g>
<!-- Class: [ConfigurationEffector]&#45;&gt;Class: [AbstractService] -->
<g id="edge2" class="edge">
<title>Class: [ConfigurationEffector]&#45;&gt;Class: [AbstractService]</title>
<path fill="none" stroke="#000000" d="M633.0692,-292.0311C638.5709,-286.9037 643.6175,-280.8277 646.6583,-274 655.7715,-253.5376 655.7715,-244.0624 646.6583,-223.6 644.9051,-219.6634 642.4851,-215.9767 639.6956,-212.5776"/>
<polygon fill="#000000" stroke="#000000" points="642.0869,-210.0135 632.6557,-205.1861 637.0181,-214.8412 642.0869,-210.0135"/>
<text text-anchor="middle" x="717.8084" y="-261.4" font-family="Times,serif" font-size="14.00" fill="#000000">[setMaxRetryAttempts</text>
<text text-anchor="middle" x="717.8084" y="-244.6" font-family="Times,serif" font-size="14.00" fill="#000000">&#45;&#45;&gt;</text>
<text text-anchor="middle" x="717.8084" y="-227.8" font-family="Times,serif" font-size="14.00" fill="#000000">getConfiguration]</text>
</g>
<!-- Class: [AbstractService]&#45;&gt;DEBUG\nreply\nresponseTime ==  -->
<g id="edge3" class="edge">
<title>Class: [AbstractService]&#45;&gt;DEBUG\nreply\nresponseTime == </title>
<path fill="none" stroke="#ff0000" d="M514.0628,-179.0529C394.7493,-167.1667 194.4888,-144.0112 125.6583,-116.8 118.1852,-113.8456 110.7212,-109.9291 103.632,-105.6246"/>
<polygon fill="#ff0000" stroke="#ff0000" points="105.1867,-102.4637 94.8804,-100.0082 101.406,-108.3549 105.1867,-102.4637"/>
<text text-anchor="middle" x="322.0384" y="-139" font-family="Times,serif" font-size="14.00" fill="#ff0000">sendRequest</text>
</g>
<!-- Class: [AbstractService]&#45;&gt;DEBUG\n!(result instanceof OperationAborted)\nthread instanceof ExecutionThread\nDEBUG\nresponse.getReturnType() != null\n -->
<g id="edge4" class="edge">
<title>Class: [AbstractService]&#45;&gt;DEBUG\n!(result instanceof OperationAborted)\nthread instanceof ExecutionThread\nDEBUG\nresponse.getReturnType() != null\n</title>
<path fill="none" stroke="#ff0000" d="M551.4787,-172.2146C505.6845,-159.1815 438.6916,-139.5065 372.3236,-117.3142"/>
<polygon fill="#ff0000" stroke="#ff0000" points="373.1328,-113.8937 362.5388,-114.0221 370.9006,-120.5283 373.1328,-113.8937"/>
<text text-anchor="middle" x="512.1471" y="-139" font-family="Times,serif" font-size="14.00" fill="#ff0000">onMessage</text>
</g>
<!-- Class: [AbstractService]&#45;&gt;!(result instanceof OperationAborted)\n -->
<g id="edge5" class="edge">
<title>Class: [AbstractService]&#45;&gt;!(result instanceof OperationAborted)\n</title>
<path fill="none" stroke="#ff0000" d="M589.2497,-169.606C570.3099,-150.0293 539.875,-118.5709 518.4441,-96.4193"/>
<polygon fill="#ff0000" stroke="#ff0000" points="520.7415,-93.7603 511.2729,-89.0069 515.7106,-98.6276 520.7415,-93.7603"/>
<text text-anchor="middle" x="580.7635" y="-139" font-family="Times,serif" font-size="14.00" fill="#ff0000">call</text>
</g>
<!-- Class: [AbstractService]&#45;&gt;description.getRegisterID() &gt; 0\n -->
<g id="edge6" class="edge">
<title>Class: [AbstractService]&#45;&gt;description.getRegisterID() &gt; 0\n</title>
<path fill="none" stroke="#ff0000" d="M624.221,-169.606C643.3284,-150.0293 674.0326,-118.5709 695.6531,-96.4193"/>
<polygon fill="#ff0000" stroke="#ff0000" points="698.4078,-98.6079 702.8879,-89.0069 693.3983,-93.7186 698.4078,-98.6079"/>
<text text-anchor="middle" x="729.9634" y="-139" font-family="Times,serif" font-size="14.00" fill="#ff0000">updateServiceDescription</text>
</g>
<!-- Class: [AbstractService]&#45;&gt;operation.getAnnotation(ServiceOperation.class) != null\n -->
<g id="edge7" class="edge">
<title>Class: [AbstractService]&#45;&gt;operation.getAnnotation(ServiceOperation.class) != null\n</title>
<path fill="none" stroke="#ff0000" d="M690.3075,-176.6816C726.5021,-170.8991 769.092,-162.6619 806.6583,-151.6 858.7661,-136.2562 915.8811,-111.4307 954.5548,-93.3418"/>
<polygon fill="#ff0000" stroke="#ff0000" points="956.4245,-96.3298 963.9755,-88.8979 953.438,-89.9988 956.4245,-96.3298"/>
<text text-anchor="middle" x="927.0083" y="-139" font-family="Times,serif" font-size="14.00" fill="#ff0000">createServiceDescription</text>
</g>
<!-- Class: [AbstractService]&#45;&gt;configuration.multipleThreads == false\n -->
<g id="edge8" class="edge">
<title>Class: [AbstractService]&#45;&gt;configuration.multipleThreads == false\n</title>
<path fill="none" stroke="#ff0000" d="M709.6987,-183.9608C825.0847,-177.7851 1016.746,-161.1998 1175.6583,-116.8 1199.8573,-110.0388 1226.0467,-100.8794 1248.3215,-92.5135"/>
<polygon fill="#ff0000" stroke="#ff0000" points="1249.8287,-95.6851 1257.934,-88.862 1247.3429,-89.1413 1249.8287,-95.6851"/>
<text text-anchor="middle" x="1155.483" y="-139" font-family="Times,serif" font-size="14.00" fill="#ff0000">applyConfiguration</text>
</g>
</g>
</svg>
