<svg width="867pt" height="319pt"
 viewBox="0.00 0.00 866.81 319.20" xmlns="http://www.w3.org/2000/svg" xmlns:xlink="http://www.w3.org/1999/xlink">
<g id="graph0" class="graph" transform="scale(1 1) rotate(0) translate(4 315.2)">
<title>project</title>
<polygon fill="#ffffff" stroke="transparent" points="-4,4 -4,-315.2 862.8076,-315.2 862.8076,4 -4,4"/>
<text text-anchor="middle" x="429.4038" y="-8.2" font-family="Times,serif" font-size="14.00" fill="#000000">Method Calls for :application.utility.CSVConvert</text>
<!-- mode == FileManager.WRITING || mode == FileManager.READING\n -->
<g id="node1" class="node">
<title>mode == FileManager.WRITING || mode == FileManager.READING\n</title>
<polygon fill="none" stroke="#ff0000" points="410.0828,-60.8 -.0276,-60.8 -.0276,-24.8 410.0828,-24.8 410.0828,-60.8"/>
<text text-anchor="middle" x="205.0276" y="-38.6" font-family="Times,serif" font-size="14.00" fill="#ff0000">mode == FileManager.WRITING || mode == FileManager.READING</text>
</g>
<!-- file.exists() &amp;&amp; !file.isDirectory()\n -->
<g id="node2" class="node">
<title>file.exists() &amp;&amp; !file.isDirectory()\n</title>
<polygon fill="none" stroke="#ff0000" points="635.7832,-60.8 428.272,-60.8 428.272,-24.8 635.7832,-24.8 635.7832,-60.8"/>
<text text-anchor="middle" x="532.0276" y="-38.6" font-family="Times,serif" font-size="14.00" fill="#ff0000">file.exists() &amp;&amp; !file.isDirectory()</text>
</g>
<!-- mode == FileManager.WRITING\n -->
<g id="node3" class="node">
<title>mode == FileManager.WRITING\n</title>
<polygon fill="none" stroke="#ff0000" points="858.5881,-60.8 653.4671,-60.8 653.4671,-24.8 858.5881,-24.8 858.5881,-60.8"/>
<text text-anchor="middle" x="756.0276" y="-38.6" font-family="Times,serif" font-size="14.00" fill="#ff0000">mode == FileManager.WRITING</text>
</g>
<!-- str.length &gt;= 3\nBoolean.parseBoolean(str[2])\n!service.equals(&quot;AssistanceService&quot;)\nservice.equals(&quot;AssistanceService&quot;)\n -->
<g id="node4" class="node">
<title>str.length &gt;= 3\nBoolean.parseBoolean(str[2])\n!service.equals(&quot;AssistanceService&quot;)\nservice.equals(&quot;AssistanceService&quot;)\n</title>
<polygon fill="none" stroke="#ff0000" points="460.1777,-188.9003 237.8775,-188.9003 237.8775,-113.4997 460.1777,-113.4997 460.1777,-188.9003"/>
<text text-anchor="middle" x="349.0276" y="-172.2" font-family="Times,serif" font-size="14.00" fill="#ff0000">str.length &gt;= 3</text>
<text text-anchor="middle" x="349.0276" y="-155.4" font-family="Times,serif" font-size="14.00" fill="#ff0000">Boolean.parseBoolean(str[2])</text>
<text text-anchor="middle" x="349.0276" y="-138.6" font-family="Times,serif" font-size="14.00" fill="#ff0000">!service.equals(&quot;AssistanceService&quot;)</text>
<text text-anchor="middle" x="349.0276" y="-121.8" font-family="Times,serif" font-size="14.00" fill="#ff0000">service.equals(&quot;AssistanceService&quot;)</text>
</g>
<!-- Class: [CSVConvert] -->
<g id="node5" class="node">
<title>Class: [CSVConvert]</title>
<ellipse fill="none" stroke="#000000" cx="547.0276" cy="-293.2" rx="93.2531" ry="18"/>
<text text-anchor="middle" x="547.0276" y="-289" font-family="Times,serif" font-size="14.00" fill="#000000">Class: [CSVConvert]</text>
</g>
<!-- Class: [CSVConvert]&#45;&gt;str.length &gt;= 3\nBoolean.parseBoolean(str[2])\n!service.equals(&quot;AssistanceService&quot;)\nservice.equals(&quot;AssistanceService&quot;)\n -->
<g id="edge6" class="edge">
<title>Class: [CSVConvert]&#45;&gt;str.length &gt;= 3\nBoolean.parseBoolean(str[2])\n!service.equals(&quot;AssistanceService&quot;)\nservice.equals(&quot;AssistanceService&quot;)\n</title>
<path fill="none" stroke="#ff0000" d="M460.1045,-286.5114C417.8602,-281.3574 373.2453,-272.4308 359.36,-257.2 345.2934,-241.7703 341.626,-219.3283 341.9206,-199.0624"/>
<polygon fill="#ff0000" stroke="#ff0000" points="345.4192,-199.1703 342.3781,-189.0213 338.4265,-198.8516 345.4192,-199.1703"/>
<text text-anchor="middle" x="386.8614" y="-227.8" font-family="Times,serif" font-size="14.00" fill="#ff0000">toResult1</text>
</g>
<!-- Class: [FileManager] -->
<g id="node6" class="node">
<title>Class: [FileManager]</title>
<ellipse fill="none" stroke="#000000" cx="588.0276" cy="-151.2" rx="92.6485" ry="18"/>
<text text-anchor="middle" x="588.0276" y="-147" font-family="Times,serif" font-size="14.00" fill="#000000">Class: [FileManager]</text>
</g>
<!-- Class: [CSVConvert]&#45;&gt;Class: [FileManager] -->
<g id="edge1" class="edge">
<title>Class: [CSVConvert]&#45;&gt;Class: [FileManager]</title>
<path fill="none" stroke="#000000" d="M480.2575,-280.5678C456.4551,-274.6001 433.7643,-266.6879 426.6994,-257.2 413.3214,-239.2337 413.6942,-225.038 426.6994,-206.8 429.9143,-202.2916 484.4134,-184.081 529.1902,-169.7131"/>
<polygon fill="#000000" stroke="#000000" points="530.4067,-172.9987 538.8656,-166.6193 528.2747,-166.3313 530.4067,-172.9987"/>
<text text-anchor="middle" x="456.1917" y="-244.6" font-family="Times,serif" font-size="14.00" fill="#000000">[toResult1</text>
<text text-anchor="middle" x="456.1917" y="-227.8" font-family="Times,serif" font-size="14.00" fill="#000000">&#45;&#45;&gt;</text>
<text text-anchor="middle" x="456.1917" y="-211" font-family="Times,serif" font-size="14.00" fill="#000000">close]</text>
</g>
<!-- Class: [CSVConvert]&#45;&gt;Class: [FileManager] -->
<g id="edge2" class="edge">
<title>Class: [CSVConvert]&#45;&gt;Class: [FileManager]</title>
<path fill="none" stroke="#000000" d="M521.4589,-275.5422C515.8925,-270.3367 510.7582,-264.1467 507.6994,-257.2 498.6725,-236.6994 497.3024,-226.6409 507.6994,-206.8 515.0612,-192.7512 527.7636,-181.547 540.9225,-172.9838"/>
<polygon fill="#000000" stroke="#000000" points="542.8459,-175.9108 549.5841,-167.7347 539.2179,-169.9243 542.8459,-175.9108"/>
<text text-anchor="middle" x="537.1917" y="-244.6" font-family="Times,serif" font-size="14.00" fill="#000000">[toResult1</text>
<text text-anchor="middle" x="537.1917" y="-227.8" font-family="Times,serif" font-size="14.00" fill="#000000">&#45;&#45;&gt;</text>
<text text-anchor="middle" x="537.1917" y="-211" font-family="Times,serif" font-size="14.00" fill="#000000">open]</text>
</g>
<!-- Class: [CSVConvert]&#45;&gt;Class: [FileManager] -->
<g id="edge3" class="edge">
<title>Class: [CSVConvert]&#45;&gt;Class: [FileManager]</title>
<path fill="none" stroke="#000000" d="M557.9194,-274.9698C560.8886,-269.4116 563.8758,-263.1853 566.0276,-257.2 575.2207,-231.6297 581.0469,-201.1336 584.377,-179.4306"/>
<polygon fill="#000000" stroke="#000000" points="587.882,-179.6488 585.8554,-169.2496 580.9546,-178.6428 587.882,-179.6488"/>
<text text-anchor="middle" x="609.1917" y="-244.6" font-family="Times,serif" font-size="14.00" fill="#000000">[toResult1</text>
<text text-anchor="middle" x="609.1917" y="-227.8" font-family="Times,serif" font-size="14.00" fill="#000000">&#45;&#45;&gt;</text>
<text text-anchor="middle" x="609.1917" y="-211" font-family="Times,serif" font-size="14.00" fill="#000000">readLine]</text>
</g>
<!-- Class: [CSVConvert]&#45;&gt;Class: [FileManager] -->
<g id="edge4" class="edge">
<title>Class: [CSVConvert]&#45;&gt;Class: [FileManager]</title>
<path fill="none" stroke="#000000" d="M601.1827,-278.5281C619.516,-272.3867 636.7164,-264.8925 642.0276,-257.2 654.7547,-238.7668 650.4484,-227.5569 642.0276,-206.8 637.2457,-195.0128 628.6322,-184.3494 619.6688,-175.5872"/>
<polygon fill="#000000" stroke="#000000" points="621.8737,-172.8605 612.1338,-168.691 617.1477,-178.0244 621.8737,-172.8605"/>
<text text-anchor="middle" x="679.1917" y="-244.6" font-family="Times,serif" font-size="14.00" fill="#000000">[toResult1</text>
<text text-anchor="middle" x="679.1917" y="-227.8" font-family="Times,serif" font-size="14.00" fill="#000000">&#45;&#45;&gt;</text>
<text text-anchor="middle" x="679.1917" y="-211" font-family="Times,serif" font-size="14.00" fill="#000000">setMode]</text>
</g>
<!-- Class: [CSVConvert]&#45;&gt;Class: [FileManager] -->
<g id="edge5" class="edge">
<title>Class: [CSVConvert]&#45;&gt;Class: [FileManager]</title>
<path fill="none" stroke="#000000" d="M630.1691,-284.7704C665.5771,-279.3002 701.2234,-270.6157 712.0276,-257.2 726.0775,-239.7541 724.2028,-225.6023 712.0276,-206.8 700.2377,-188.5928 680.9227,-176.2921 661.0083,-168.0037"/>
<polygon fill="#000000" stroke="#000000" points="662.1191,-164.6811 651.5291,-164.3602 659.6076,-171.2151 662.1191,-164.6811"/>
<text text-anchor="middle" x="750.5683" y="-244.6" font-family="Times,serif" font-size="14.00" fill="#000000">[toResult1</text>
<text text-anchor="middle" x="750.5683" y="-227.8" font-family="Times,serif" font-size="14.00" fill="#000000">&#45;&#45;&gt;</text>
<text text-anchor="middle" x="750.5683" y="-211" font-family="Times,serif" font-size="14.00" fill="#000000">writeLine]</text>
</g>
<!-- Class: [FileManager]&#45;&gt;mode == FileManager.WRITING || mode == FileManager.READING\n -->
<g id="edge7" class="edge">
<title>Class: [FileManager]&#45;&gt;mode == FileManager.WRITING || mode == FileManager.READING\n</title>
<path fill="none" stroke="#ff0000" d="M540.4035,-135.6248C518.6994,-128.6627 492.6338,-120.4911 469.0276,-113.6 407.7257,-95.7047 337.9189,-77.0586 285.49,-63.3964"/>
<polygon fill="#ff0000" stroke="#ff0000" points="286.1355,-59.9479 275.5765,-60.8185 284.3738,-66.7226 286.1355,-59.9479"/>
<text text-anchor="middle" x="429.1321" y="-83" font-family="Times,serif" font-size="14.00" fill="#ff0000">setMode</text>
</g>
<!-- Class: [FileManager]&#45;&gt;file.exists() &amp;&amp; !file.isDirectory()\n -->
<g id="edge8" class="edge">
<title>Class: [FileManager]&#45;&gt;file.exists() &amp;&amp; !file.isDirectory()\n</title>
<path fill="none" stroke="#ff0000" d="M578.528,-132.8114C569.6247,-115.5773 556.2045,-89.5995 546.0661,-69.9746"/>
<polygon fill="#ff0000" stroke="#ff0000" points="549.0863,-68.1951 541.3869,-60.917 542.8672,-71.4079 549.0863,-68.1951"/>
<text text-anchor="middle" x="572.2401" y="-83" font-family="Times,serif" font-size="14.00" fill="#ff0000">reset</text>
</g>
<!-- Class: [FileManager]&#45;&gt;mode == FileManager.WRITING\n -->
<g id="edge9" class="edge">
<title>Class: [FileManager]&#45;&gt;mode == FileManager.WRITING\n</title>
<path fill="none" stroke="#ff0000" d="M606.1595,-133.4767C622.9583,-117.7141 649.1515,-94.755 674.813,-78.8 682.7003,-73.8961 691.3707,-69.3073 700.0195,-65.1567"/>
<polygon fill="#ff0000" stroke="#ff0000" points="701.7553,-68.21 709.3578,-60.8307 698.8129,-61.8584 701.7553,-68.21"/>
<text text-anchor="middle" x="687.6349" y="-83" font-family="Times,serif" font-size="14.00" fill="#ff0000">open</text>
</g>
<!-- Class: [FileManager]&#45;&gt;mode == FileManager.WRITING\n -->
<g id="edge10" class="edge">
<title>Class: [FileManager]&#45;&gt;mode == FileManager.WRITING\n</title>
<path fill="none" stroke="#ff0000" d="M629.0879,-134.9975C651.6007,-125.1944 679.4394,-111.5211 702.0276,-95.6 713.1902,-87.7321 724.2084,-77.5263 733.352,-68.1873"/>
<polygon fill="#ff0000" stroke="#ff0000" points="735.8877,-70.5998 740.25,-60.9446 730.8188,-65.7721 735.8877,-70.5998"/>
<text text-anchor="middle" x="735.4098" y="-83" font-family="Times,serif" font-size="14.00" fill="#ff0000">close</text>
</g>
</g>
</svg>
