<svg width="2228pt" height="1207pt"
 viewBox="0.00 0.00 2228.48 1207.40" xmlns="http://www.w3.org/2000/svg" xmlns:xlink="http://www.w3.org/1999/xlink">
<g id="graph0" class="graph" transform="scale(1 1) rotate(0) translate(4 1203.4)">
<title>project</title>
<polygon fill="#ffffff" stroke="transparent" points="-4,4 -4,-1203.4 2224.4789,-1203.4 2224.4789,4 -4,4"/>
<text text-anchor="middle" x="1110.2395" y="-8.2" font-family="Times,serif" font-size="14.00" fill="#000000">Execution Trace</text>
<!-- [END] -->
<g id="node1" class="node">
<title>[END]</title>
<ellipse fill="none" stroke="#000000" cx="271.9708" cy="-1092.6" rx="37.1174" ry="18"/>
<text text-anchor="middle" x="271.9708" y="-1088.4" font-family="Times,serif" font-size="14.00" fill="#000000">[END]</text>
</g>
<!-- [START] -->
<g id="node2" class="node">
<title>[START]</title>
<ellipse fill="none" stroke="#000000" cx="374.9708" cy="-1092.6" rx="48.0897" ry="18"/>
<text text-anchor="start" x="348.1447" y="-1089.4" font-family="Times,serif" font-weight="bold" font-size="14.00" fill="#000000">[START]</text>
</g>
<!-- application.MainGui -->
<g id="node3" class="node">
<title>application.MainGui</title>
<ellipse fill="none" stroke="#000000" cx="473.9708" cy="-1003.8" rx="91.4522" ry="18"/>
<text text-anchor="middle" x="473.9708" y="-999.6" font-family="Times,serif" font-size="14.00" fill="#000000">application.MainGui</text>
</g>
<!-- [START]&#45;&gt;application.MainGui -->
<g id="edge51" class="edge">
<title>[START]&#45;&gt;application.MainGui</title>
<path fill="none" stroke="#000000" d="M393.5919,-1075.8974C408.4175,-1062.5993 429.396,-1043.7822 446.2036,-1028.7063"/>
<polygon fill="#000000" stroke="#000000" points="448.9672,-1030.9292 454.0743,-1021.6465 444.2931,-1025.7183 448.9672,-1030.9292"/>
</g>
<!-- tas.adaptation.TASStart -->
<g id="node4" class="node">
<title>tas.adaptation.TASStart</title>
<ellipse fill="none" stroke="#000000" cx="644.9708" cy="-1181.4" rx="103.0848" ry="18"/>
<text text-anchor="middle" x="644.9708" y="-1177.2" font-family="Times,serif" font-size="14.00" fill="#000000">tas.adaptation.TASStart</text>
</g>
<!-- application.MainGui&#45;&gt;tas.adaptation.TASStart -->
<g id="edge1" class="edge">
<title>application.MainGui&#45;&gt;tas.adaptation.TASStart</title>
<path fill="none" stroke="#000000" d="M466.8538,-1021.8102C459.1326,-1044.5752 450.1442,-1083.9955 468.1496,-1110.6 487.9703,-1139.8868 522.0885,-1157.0602 555.0997,-1167.1298"/>
<polygon fill="#000000" stroke="#000000" points="554.2516,-1170.5275 564.8284,-1169.909 556.1744,-1163.7968 554.2516,-1170.5275"/>
<text text-anchor="middle" x="485.8814" y="-1088.4" font-family="Times,serif" font-size="14.00" fill="#000000">1.new</text>
</g>
<!-- application.view.controller.ApplicationController -->
<g id="node5" class="node">
<title>application.view.controller.ApplicationController</title>
<ellipse fill="none" stroke="#000000" cx="560.9708" cy="-915" rx="202.5679" ry="18"/>
<text text-anchor="middle" x="560.9708" y="-910.8" font-family="Times,serif" font-size="14.00" fill="#000000">application.view.controller.ApplicationController</text>
</g>
<!-- application.MainGui&#45;&gt;application.view.controller.ApplicationController -->
<g id="edge2" class="edge">
<title>application.MainGui&#45;&gt;application.view.controller.ApplicationController</title>
<path fill="none" stroke="#000000" d="M491.5765,-985.83C504.4301,-972.7105 522.0262,-954.7504 536.283,-940.1986"/>
<polygon fill="#000000" stroke="#000000" points="538.893,-942.5358 543.3912,-932.9433 533.8928,-937.637 538.893,-942.5358"/>
<text text-anchor="middle" x="568.5455" y="-955.2" font-family="Times,serif" font-size="14.00" fill="#000000">4.getController</text>
</g>
<!-- tas.adaptation.TASStart&#45;&gt;[END] -->
<g id="edge6" class="edge">
<title>tas.adaptation.TASStart&#45;&gt;[END]</title>
<path fill="none" stroke="#000000" d="M554.8296,-1172.5161C509.985,-1166.8963 455.2454,-1158.2163 407.2562,-1145.4 366.1083,-1134.4108 357.6428,-1126.0932 317.9708,-1110.6 315.5943,-1109.6719 313.1489,-1108.7164 310.6828,-1107.7525"/>
<polygon fill="#000000" stroke="#000000" points="311.7576,-1104.4147 301.1697,-1104.0324 309.2083,-1110.934 311.7576,-1104.4147"/>
<text text-anchor="middle" x="426.8281" y="-1132.8" font-family="Times,serif" font-size="14.00" fill="#000000">33.end</text>
</g>
<!-- tas.adaptation.TASStart&#45;&gt;tas.adaptation.TASStart -->
<g id="edge3" class="edge">
<title>tas.adaptation.TASStart&#45;&gt;tas.adaptation.TASStart</title>
<path fill="none" stroke="#000000" d="M738.29,-1189.1504C754.7731,-1188.1299 766.263,-1185.5465 766.263,-1181.4 766.263,-1178.1606 759.2501,-1175.8751 748.3222,-1174.5437"/>
<polygon fill="#000000" stroke="#000000" points="748.5612,-1171.0512 738.29,-1173.6496 747.9398,-1178.0236 748.5612,-1171.0512"/>
<text text-anchor="middle" x="809.2276" y="-1177.2" font-family="Times,serif" font-size="14.00" fill="#000000">2.initializeTAS</text>
</g>
<!-- service.registry.ServiceRegistry -->
<g id="node6" class="node">
<title>service.registry.ServiceRegistry</title>
<ellipse fill="none" stroke="#000000" cx="644.9708" cy="-1092.6" rx="134.2617" ry="18"/>
<text text-anchor="middle" x="644.9708" y="-1088.4" font-family="Times,serif" font-size="14.00" fill="#000000">service.registry.ServiceRegistry</text>
</g>
<!-- tas.adaptation.TASStart&#45;&gt;service.registry.ServiceRegistry -->
<g id="edge4" class="edge">
<title>tas.adaptation.TASStart&#45;&gt;service.registry.ServiceRegistry</title>
<path fill="none" stroke="#000000" d="M644.9708,-1163.0006C644.9708,-1150.8949 644.9708,-1134.8076 644.9708,-1121.0674"/>
<polygon fill="#000000" stroke="#000000" points="648.4709,-1120.672 644.9708,-1110.672 641.4709,-1120.6721 648.4709,-1120.672"/>
<text text-anchor="middle" x="661.8814" y="-1132.8" font-family="Times,serif" font-size="14.00" fill="#000000">3.new</text>
</g>
<!-- sercive.composite.CompositeServiceClient -->
<g id="node7" class="node">
<title>sercive.composite.CompositeServiceClient</title>
<ellipse fill="none" stroke="#000000" cx="1011.9708" cy="-1092.6" rx="177.1217" ry="18"/>
<text text-anchor="middle" x="1011.9708" y="-1088.4" font-family="Times,serif" font-size="14.00" fill="#000000">sercive.composite.CompositeServiceClient</text>
</g>
<!-- tas.adaptation.TASStart&#45;&gt;sercive.composite.CompositeServiceClient -->
<g id="edge5" class="edge">
<title>tas.adaptation.TASStart&#45;&gt;sercive.composite.CompositeServiceClient</title>
<path fill="none" stroke="#000000" d="M715.4402,-1168.1235C747.7169,-1161.7511 786.3995,-1153.704 820.9708,-1145.4 862.097,-1135.5215 907.7728,-1122.9538 944.1433,-1112.5581"/>
<polygon fill="#000000" stroke="#000000" points="945.4972,-1115.8109 954.1434,-1109.6877 943.5659,-1109.0826 945.4972,-1115.8109"/>
<text text-anchor="middle" x="960.596" y="-1132.8" font-family="Times,serif" font-size="14.00" fill="#000000">6.invokeCompositeService</text>
</g>
<!-- application.view.controller.ApplicationController&#45;&gt;tas.adaptation.TASStart -->
<g id="edge50" class="edge">
<title>application.view.controller.ApplicationController&#45;&gt;tas.adaptation.TASStart</title>
<path fill="none" stroke="#000000" d="M608.8959,-932.6863C663.7239,-955.8393 750.72,-1002.205 787.9708,-1074.6 809.1259,-1115.714 757.0331,-1145.1846 709.8956,-1162.6165"/>
<polygon fill="#000000" stroke="#000000" points="708.498,-1159.3987 700.2494,-1166.0477 710.8441,-1165.9939 708.498,-1159.3987"/>
<text text-anchor="middle" x="832.3618" y="-1044" font-family="Times,serif" font-size="14.00" fill="#000000">5.executeWorkflow</text>
</g>
<!-- service.registry.ServiceRegistry&#45;&gt;application.MainGui -->
<g id="edge7" class="edge">
<title>service.registry.ServiceRegistry&#45;&gt;application.MainGui</title>
<path fill="none" stroke="#000000" stroke-dasharray="1,5" d="M611.1867,-1075.056C583.7843,-1060.826 545.0296,-1040.7008 515.6923,-1025.4659"/>
<polygon fill="#000000" stroke="#000000" points="517.0122,-1022.2076 506.5245,-1020.7051 513.7861,-1028.4199 517.0122,-1022.2076"/>
</g>
<!-- service.client.AbstractServiceClient -->
<g id="node8" class="node">
<title>service.client.AbstractServiceClient</title>
<ellipse fill="none" stroke="#000000" cx="1011.9708" cy="-1003.8" rx="149.8666" ry="18"/>
<text text-anchor="middle" x="1011.9708" y="-999.6" font-family="Times,serif" font-size="14.00" fill="#000000">service.client.AbstractServiceClient</text>
</g>
<!-- sercive.composite.CompositeServiceClient&#45;&gt;service.client.AbstractServiceClient -->
<g id="edge8" class="edge">
<title>sercive.composite.CompositeServiceClient&#45;&gt;service.client.AbstractServiceClient</title>
<path fill="none" stroke="#000000" d="M1011.9708,-1074.2006C1011.9708,-1062.0949 1011.9708,-1046.0076 1011.9708,-1032.2674"/>
<polygon fill="#000000" stroke="#000000" points="1015.4709,-1031.872 1011.9708,-1021.872 1008.4709,-1031.8721 1015.4709,-1031.872"/>
<text text-anchor="middle" x="1052.6009" y="-1044" font-family="Times,serif" font-size="14.00" fill="#000000">7.sendRequest</text>
</g>
<!-- service.messagingservice.MessagingServiceProvider -->
<g id="node9" class="node">
<title>service.messagingservice.MessagingServiceProvider</title>
<ellipse fill="none" stroke="#000000" cx="1011.9708" cy="-915" rx="215.226" ry="18"/>
<text text-anchor="middle" x="1011.9708" y="-910.8" font-family="Times,serif" font-size="14.00" fill="#000000">service.messagingservice.MessagingServiceProvider</text>
</g>
<!-- service.client.AbstractServiceClient&#45;&gt;service.messagingservice.MessagingServiceProvider -->
<g id="edge9" class="edge">
<title>service.client.AbstractServiceClient&#45;&gt;service.messagingservice.MessagingServiceProvider</title>
<path fill="none" stroke="#000000" d="M1011.9708,-985.4006C1011.9708,-973.2949 1011.9708,-957.2076 1011.9708,-943.4674"/>
<polygon fill="#000000" stroke="#000000" points="1015.4709,-943.072 1011.9708,-933.072 1008.4709,-943.0721 1015.4709,-943.072"/>
<text text-anchor="middle" x="1054.5392" y="-955.2" font-family="Times,serif" font-size="14.00" fill="#000000">8.sendMessage</text>
</g>
<!-- service.messagingservice.MessagingService -->
<g id="node10" class="node">
<title>service.messagingservice.MessagingService</title>
<ellipse fill="none" stroke="#000000" cx="911.9708" cy="-826.2" rx="182.2186" ry="18"/>
<text text-anchor="middle" x="911.9708" y="-822" font-family="Times,serif" font-size="14.00" fill="#000000">service.messagingservice.MessagingService</text>
</g>
<!-- service.messagingservice.MessagingServiceProvider&#45;&gt;service.messagingservice.MessagingService -->
<g id="edge10" class="edge">
<title>service.messagingservice.MessagingServiceProvider&#45;&gt;service.messagingservice.MessagingService</title>
<path fill="none" stroke="#000000" d="M940.9026,-897.9868C924.2704,-892.5279 909.9024,-886.05 904.834,-879 899.7112,-871.8744 899.3657,-862.7783 900.9601,-854.1511"/>
<polygon fill="#000000" stroke="#000000" points="904.3697,-854.9482 903.5529,-844.3849 897.604,-853.152 904.3697,-854.9482"/>
<text text-anchor="middle" x="947.5392" y="-866.4" font-family="Times,serif" font-size="14.00" fill="#000000">9.sendMessage</text>
</g>
<!-- service.messagingservice.MessagingServiceProvider&#45;&gt;service.messagingservice.MessagingService -->
<g id="edge11" class="edge">
<title>service.messagingservice.MessagingServiceProvider&#45;&gt;service.messagingservice.MessagingService</title>
<path fill="none" stroke="#000000" d="M1008.0329,-896.9853C1004.7966,-885.802 999.2016,-871.7847 989.9708,-862.2 984.9207,-856.9563 978.9606,-852.4034 972.6212,-848.4686"/>
<polygon fill="#000000" stroke="#000000" points="974.2194,-845.3516 963.7913,-843.4792 970.7757,-851.4459 974.2194,-845.3516"/>
<text text-anchor="middle" x="1053.2892" y="-866.4" font-family="Times,serif" font-size="14.00" fill="#000000">24.2.sendMessage</text>
</g>
<!-- service.auxiliary.AbstractService -->
<g id="node11" class="node">
<title>service.auxiliary.AbstractService</title>
<ellipse fill="none" stroke="#000000" cx="1025.9708" cy="-737.4" rx="139.3976" ry="18"/>
<text text-anchor="middle" x="1025.9708" y="-733.2" font-family="Times,serif" font-size="14.00" fill="#000000">service.auxiliary.AbstractService</text>
</g>
<!-- service.messagingservice.MessagingService&#45;&gt;service.auxiliary.AbstractService -->
<g id="edge12" class="edge">
<title>service.messagingservice.MessagingService&#45;&gt;service.auxiliary.AbstractService</title>
<path fill="none" stroke="#000000" d="M975.4079,-809.2272C985.8454,-804.3442 995.8795,-798.1167 1003.9708,-790.2 1010.8814,-783.4384 1015.7177,-774.183 1019.0579,-765.3087"/>
<polygon fill="#000000" stroke="#000000" points="1022.4496,-766.1968 1022.2241,-755.6044 1015.7949,-764.0255 1022.4496,-766.1968"/>
<text text-anchor="middle" x="1056.2096" y="-777.6" font-family="Times,serif" font-size="14.00" fill="#000000">10.onMessage</text>
</g>
<!-- service.messagingservice.MessagingService&#45;&gt;service.auxiliary.AbstractService -->
<g id="edge13" class="edge">
<title>service.messagingservice.MessagingService&#45;&gt;service.auxiliary.AbstractService</title>
<path fill="none" stroke="#000000" d="M905.4841,-807.8988C902.81,-796.882 901.7934,-783.1488 908.9932,-773.4 913.9326,-766.7119 926.7835,-760.7487 942.2474,-755.6921"/>
<polygon fill="#000000" stroke="#000000" points="943.6248,-758.9311 952.1662,-752.6625 941.5799,-752.2364 943.6248,-758.9311"/>
<text text-anchor="middle" x="955.4596" y="-777.6" font-family="Times,serif" font-size="14.00" fill="#000000">25.2.onMessage</text>
</g>
<!-- service.auxiliary.AbstractService&#45;&gt;service.messagingservice.MessagingServiceProvider -->
<g id="edge15" class="edge">
<title>service.auxiliary.AbstractService&#45;&gt;service.messagingservice.MessagingServiceProvider</title>
<path fill="none" stroke="#000000" d="M1078.0828,-754.2415C1086.5811,-759.1604 1094.4092,-765.4344 1099.9708,-773.4 1164.6366,-866.0189 1123.5429,-858.0484 1108.9708,-879 1105.2885,-884.2944 1096.0405,-889.451 1084.6389,-894.1305"/>
<polygon fill="#000000" stroke="#000000" points="1083.1912,-890.9368 1075.0984,-897.7747 1085.6891,-897.476 1083.1912,-890.9368"/>
<text text-anchor="middle" x="1186.2892" y="-822" font-family="Times,serif" font-size="14.00" fill="#000000">23.2.sendMessage</text>
</g>
<!-- service.composite.CompositeService -->
<g id="node12" class="node">
<title>service.composite.CompositeService</title>
<ellipse fill="none" stroke="#000000" cx="1025.9708" cy="-575.6" rx="153.909" ry="18"/>
<text text-anchor="middle" x="1025.9708" y="-571.4" font-family="Times,serif" font-size="14.00" fill="#000000">service.composite.CompositeService</text>
</g>
<!-- service.auxiliary.AbstractService&#45;&gt;service.composite.CompositeService -->
<g id="edge14" class="edge">
<title>service.auxiliary.AbstractService&#45;&gt;service.composite.CompositeService</title>
<path fill="none" stroke="#000000" d="M973.4469,-720.6028C925.4801,-702.3215 865.7869,-670.32 892.388,-630.6 903.2028,-614.4516 919.7103,-603.04 937.4733,-594.9771"/>
<polygon fill="#000000" stroke="#000000" points="938.9751,-598.1429 946.8531,-591.0586 936.2767,-591.6839 938.9751,-598.1429"/>
<text text-anchor="middle" x="948.7622" y="-644.4" font-family="Times,serif" font-size="14.00" fill="#000000">11.invokeOperation</text>
</g>
<!-- service.atomic.AtomicService -->
<g id="node13" class="node">
<title>service.atomic.AtomicService</title>
<ellipse fill="none" stroke="#000000" cx="1269.9708" cy="-648.6" rx="127.3209" ry="18"/>
<text text-anchor="middle" x="1269.9708" y="-644.4" font-family="Times,serif" font-size="14.00" fill="#000000">service.atomic.AtomicService</text>
</g>
<!-- service.auxiliary.AbstractService&#45;&gt;service.atomic.AtomicService -->
<g id="edge16" class="edge">
<title>service.auxiliary.AbstractService&#45;&gt;service.atomic.AtomicService</title>
<path fill="none" stroke="#000000" d="M1072.7277,-720.3835C1113.1233,-705.6822 1171.5752,-684.4095 1214.3616,-668.8381"/>
<polygon fill="#000000" stroke="#000000" points="1215.586,-672.1172 1223.786,-665.4082 1213.192,-665.5392 1215.586,-672.1172"/>
<text text-anchor="middle" x="1230.0122" y="-688.8" font-family="Times,serif" font-size="14.00" fill="#000000">26.2.invokeOperation</text>
</g>
<!-- service.composite.CompositeService&#45;&gt;service.auxiliary.AbstractService -->
<g id="edge25" class="edge">
<title>service.composite.CompositeService&#45;&gt;service.auxiliary.AbstractService</title>
<path fill="none" stroke="#000000" d="M1025.9708,-594.0276C1025.9708,-622.0572 1025.9708,-675.6385 1025.9708,-708.7689"/>
<polygon fill="#000000" stroke="#000000" points="1022.4709,-709.154 1025.9708,-719.154 1029.4709,-709.154 1022.4709,-709.154"/>
<text text-anchor="middle" x="1075.3509" y="-644.4" font-family="Times,serif" font-size="14.00" fill="#000000">22.2.sendRequest</text>
</g>
<!-- service.composite.CompositeService&#45;&gt;service.composite.CompositeService -->
<g id="edge17" class="edge">
<title>service.composite.CompositeService&#45;&gt;service.composite.CompositeService</title>
<path fill="none" stroke="#000000" d="M1178.3467,-578.1574C1190.2954,-577.595 1197.6751,-576.7426 1197.6751,-575.6 1197.6751,-574.8323 1194.3438,-574.1956 1188.5337,-573.6899"/>
<polygon fill="#000000" stroke="#000000" points="1188.5486,-570.1838 1178.3467,-573.0426 1188.1046,-577.1698 1188.5486,-570.1838"/>
<text text-anchor="middle" x="1276.8003" y="-571.4" font-family="Times,serif" font-size="14.00" fill="#000000">12.invokeCompositeService</text>
</g>
<!-- service.composite.CompositeService&#45;&gt;service.composite.CompositeService -->
<g id="edge20" class="edge">
<title>service.composite.CompositeService&#45;&gt;service.composite.CompositeService</title>
<path fill="none" stroke="#000000" d="M1169.609,-582.0821C1260.0313,-583.1572 1355.9255,-580.9965 1355.9255,-575.6 1355.9255,-570.4038 1267.0164,-568.2076 1179.693,-569.0116"/>
<polygon fill="#000000" stroke="#000000" points="1179.5715,-565.5126 1169.609,-569.1179 1179.6454,-572.5122 1179.5715,-565.5126"/>
<text text-anchor="middle" x="1405.1096" y="-571.4" font-family="Times,serif" font-size="14.00" fill="#000000">18.lookupService</text>
</g>
<!-- service.adaptation.probes.WorkflowProbe -->
<g id="node14" class="node">
<title>service.adaptation.probes.WorkflowProbe</title>
<ellipse fill="none" stroke="#000000" cx="347.9708" cy="-486.8" rx="173.6031" ry="18"/>
<text text-anchor="middle" x="347.9708" y="-482.6" font-family="Times,serif" font-size="14.00" fill="#000000">service.adaptation.probes.WorkflowProbe</text>
</g>
<!-- service.composite.CompositeService&#45;&gt;service.adaptation.probes.WorkflowProbe -->
<g id="edge18" class="edge">
<title>service.composite.CompositeService&#45;&gt;service.adaptation.probes.WorkflowProbe</title>
<path fill="none" stroke="#000000" d="M873.7075,-572.9372C592.4876,-567.654 18.7234,-555.0144 3.8424,-539.6 -1.3436,-534.2282 -1.1552,-528.3476 3.8424,-522.8 16.301,-508.97 97.3677,-500.093 177.6853,-494.6148"/>
<polygon fill="#000000" stroke="#000000" points="178.2354,-498.0861 187.9812,-493.9304 177.7711,-491.1015 178.2354,-498.0861"/>
<text text-anchor="middle" x="78.035" y="-527" font-family="Times,serif" font-size="14.00" fill="#000000">13.notifyWorkflowStarted</text>
</g>
<!-- service.composite.CompositeService&#45;&gt;service.adaptation.probes.WorkflowProbe -->
<g id="edge21" class="edge">
<title>service.composite.CompositeService&#45;&gt;service.adaptation.probes.WorkflowProbe</title>
<path fill="none" stroke="#000000" d="M872.2961,-574.5363C633.5979,-572.1176 198.473,-564.325 174.7716,-539.6 169.6046,-534.2099 170.0596,-528.5921 174.7716,-522.8 181.8727,-514.0712 199.0993,-507.3898 220.0729,-502.299"/>
<polygon fill="#000000" stroke="#000000" points="220.9659,-505.6856 229.9502,-500.0702 219.4251,-498.8572 220.9659,-505.6856"/>
<text text-anchor="middle" x="255.0704" y="-527" font-family="Times,serif" font-size="14.00" fill="#000000">19.1.notifyServiceNotFound</text>
</g>
<!-- service.composite.CompositeService&#45;&gt;service.adaptation.probes.WorkflowProbe -->
<g id="edge24" class="edge">
<title>service.composite.CompositeService&#45;&gt;service.adaptation.probes.WorkflowProbe</title>
<path fill="none" stroke="#000000" d="M874.969,-572.1521C683.8081,-567.1036 376.8408,-556.43 357.6986,-539.6 350.7307,-533.4738 347.7107,-524.1291 346.622,-514.9949"/>
<polygon fill="#000000" stroke="#000000" points="350.1147,-514.7615 346.1058,-504.9544 343.1239,-515.121 350.1147,-514.7615"/>
<text text-anchor="middle" x="460.6069" y="-527" font-family="Times,serif" font-size="14.00" fill="#000000">20.2.notifyServiceOperationInvoked</text>
</g>
<!-- service.composite.CompositeService&#45;&gt;service.adaptation.probes.WorkflowProbe -->
<g id="edge26" class="edge">
<title>service.composite.CompositeService&#45;&gt;service.adaptation.probes.WorkflowProbe</title>
<path fill="none" stroke="#000000" d="M879.0668,-570.259C774.6252,-565.1684 644.0314,-555.8076 592.1348,-539.6 577.8563,-535.1408 577.0516,-527.8486 562.9708,-522.8 537.0324,-513.5 508.4573,-506.5781 480.8433,-501.4337"/>
<polygon fill="#000000" stroke="#000000" points="481.1808,-497.9385 470.7199,-499.6177 479.9448,-504.8285 481.1808,-497.9385"/>
<text text-anchor="middle" x="696.3888" y="-527" font-family="Times,serif" font-size="14.00" fill="#000000">27.1.notifyServiceOperationTimeout</text>
</g>
<!-- service.workflow.WorkflowEngine -->
<g id="node15" class="node">
<title>service.workflow.WorkflowEngine</title>
<ellipse fill="none" stroke="#000000" cx="1220.9708" cy="-486.8" rx="147.5792" ry="18"/>
<text text-anchor="middle" x="1220.9708" y="-482.6" font-family="Times,serif" font-size="14.00" fill="#000000">service.workflow.WorkflowEngine</text>
</g>
<!-- service.composite.CompositeService&#45;&gt;service.workflow.WorkflowEngine -->
<g id="edge19" class="edge">
<title>service.composite.CompositeService&#45;&gt;service.workflow.WorkflowEngine</title>
<path fill="none" stroke="#000000" d="M1064.4965,-558.056C1095.7448,-543.826 1139.9387,-523.7008 1173.3936,-508.4659"/>
<polygon fill="#000000" stroke="#000000" points="1174.8748,-511.6373 1182.5251,-504.3076 1171.9737,-505.2667 1174.8748,-511.6373"/>
<text text-anchor="middle" x="1198.8618" y="-527" font-family="Times,serif" font-size="14.00" fill="#000000">15.executeWorkflow</text>
</g>
<!-- service.auxiliary.TimeOutError -->
<g id="node16" class="node">
<title>service.auxiliary.TimeOutError</title>
<ellipse fill="none" stroke="#000000" cx="1708.9708" cy="-486.8" rx="132.5404" ry="18"/>
<text text-anchor="middle" x="1708.9708" y="-482.6" font-family="Times,serif" font-size="14.00" fill="#000000">service.auxiliary.TimeOutError</text>
</g>
<!-- service.composite.CompositeService&#45;&gt;service.auxiliary.TimeOutError -->
<g id="edge22" class="edge">
<title>service.composite.CompositeService&#45;&gt;service.auxiliary.TimeOutError</title>
<path fill="none" stroke="#000000" d="M1158.6488,-566.3933C1234.9793,-560.3606 1332.5874,-551.3967 1418.9708,-539.6 1489.3101,-529.9943 1568.5746,-515.2945 1626.4362,-503.8422"/>
<polygon fill="#000000" stroke="#000000" points="1627.1325,-507.2724 1636.2576,-501.8889 1625.7669,-500.4069 1627.1325,-507.2724"/>
<text text-anchor="middle" x="1548.6314" y="-527" font-family="Times,serif" font-size="14.00" fill="#000000">26.1.new</text>
</g>
<!-- service.workflow.AbstractQoSRequirement -->
<g id="node17" class="node">
<title>service.workflow.AbstractQoSRequirement</title>
<ellipse fill="none" stroke="#000000" cx="2039.9708" cy="-486.8" rx="180.5163" ry="18"/>
<text text-anchor="middle" x="2039.9708" y="-482.6" font-family="Times,serif" font-size="14.00" fill="#000000">service.workflow.AbstractQoSRequirement</text>
</g>
<!-- service.composite.CompositeService&#45;&gt;service.workflow.AbstractQoSRequirement -->
<g id="edge23" class="edge">
<title>service.composite.CompositeService&#45;&gt;service.workflow.AbstractQoSRequirement</title>
<path fill="none" stroke="#000000" d="M1170.3793,-569.3615C1290.1574,-563.5732 1464.8459,-553.7133 1616.9708,-539.6 1722.0568,-529.8507 1841.3243,-514.5792 1926.3656,-502.9629"/>
<polygon fill="#000000" stroke="#000000" points="1926.8709,-506.4264 1936.303,-501.6009 1925.9203,-499.4913 1926.8709,-506.4264"/>
<text text-anchor="middle" x="1790.5234" y="-527" font-family="Times,serif" font-size="14.00" fill="#000000">19.2.get</text>
</g>
<!-- service.adaptation.probes.CostProbe -->
<g id="node18" class="node">
<title>service.adaptation.probes.CostProbe</title>
<ellipse fill="none" stroke="#000000" cx="788.9708" cy="-486.8" rx="151.6485" ry="18"/>
<text text-anchor="middle" x="788.9708" y="-482.6" font-family="Times,serif" font-size="14.00" fill="#000000">service.adaptation.probes.CostProbe</text>
</g>
<!-- service.composite.CompositeService&#45;&gt;service.adaptation.probes.CostProbe -->
<g id="edge27" class="edge">
<title>service.composite.CompositeService&#45;&gt;service.adaptation.probes.CostProbe</title>
<path fill="none" stroke="#000000" d="M905.6379,-564.3963C867.232,-558.8412 830.7398,-550.8425 815.5444,-539.6 807.1561,-533.3938 801.2391,-523.7881 797.1535,-514.4624"/>
<polygon fill="#000000" stroke="#000000" points="800.3752,-513.0881 793.5321,-504.9996 793.8376,-515.5901 800.3752,-513.0881"/>
<text text-anchor="middle" x="892.184" y="-527" font-family="Times,serif" font-size="14.00" fill="#000000">27.2.notifyCostSubscribers</text>
</g>
<!-- service.atomic.AtomicService&#45;&gt;service.composite.CompositeService -->
<g id="edge49" class="edge">
<title>service.atomic.AtomicService&#45;&gt;service.composite.CompositeService</title>
<path fill="none" stroke="#000000" stroke-dasharray="1,5" d="M1215.5161,-632.3082C1179.0025,-621.3841 1130.7016,-606.9334 1091.9971,-595.3538"/>
<polygon fill="#000000" stroke="#000000" points="1092.9603,-591.9887 1082.3767,-592.4755 1090.9539,-598.695 1092.9603,-591.9887"/>
</g>
<!-- tas.services.assistance.AssistanceServiceCostProbe -->
<g id="node19" class="node">
<title>tas.services.assistance.AssistanceServiceCostProbe</title>
<ellipse fill="none" stroke="#000000" cx="715.9708" cy="-398" rx="209.3942" ry="18"/>
<text text-anchor="middle" x="715.9708" y="-393.8" font-family="Times,serif" font-size="14.00" fill="#000000">tas.services.assistance.AssistanceServiceCostProbe</text>
</g>
<!-- service.adaptation.probes.WorkflowProbe&#45;&gt;tas.services.assistance.AssistanceServiceCostProbe -->
<g id="edge28" class="edge">
<title>service.adaptation.probes.WorkflowProbe&#45;&gt;tas.services.assistance.AssistanceServiceCostProbe</title>
<path fill="none" stroke="#000000" d="M446.1432,-471.8505C468.0246,-466.6865 490.7257,-459.8361 510.9708,-450.8 522.6689,-445.5787 522.6382,-439.0944 534.3922,-434 552.176,-426.2921 571.6585,-420.218 591.0522,-415.4355"/>
<polygon fill="#000000" stroke="#000000" points="591.9364,-418.8231 600.8656,-413.1205 590.3292,-412.0101 591.9364,-418.8231"/>
<text text-anchor="middle" x="590.7601" y="-438.2" font-family="Times,serif" font-size="14.00" fill="#000000">14.workflowStarted</text>
</g>
<!-- service.adaptation.probes.WorkflowProbe&#45;&gt;tas.services.assistance.AssistanceServiceCostProbe -->
<g id="edge30" class="edge">
<title>service.adaptation.probes.WorkflowProbe&#45;&gt;tas.services.assistance.AssistanceServiceCostProbe</title>
<path fill="none" stroke="#000000" d="M495.9832,-477.2915C556.6325,-471.6727 618.8949,-463.1733 645.9708,-450.8 656.0748,-446.1826 655.7958,-440.93 664.4784,-434 669.5696,-429.9365 675.0875,-425.8098 680.5561,-421.8705"/>
<polygon fill="#000000" stroke="#000000" points="682.8968,-424.5021 689.0406,-415.8705 678.855,-418.7868 682.8968,-424.5021"/>
<text text-anchor="middle" x="749.717" y="-438.2" font-family="Times,serif" font-size="14.00" fill="#000000">21.2.serviceOperationInvoked</text>
</g>
<!-- tas.adaptation.simple.MyProbe -->
<g id="node20" class="node">
<title>tas.adaptation.simple.MyProbe</title>
<ellipse fill="none" stroke="#000000" cx="338.9708" cy="-398" rx="130.8395" ry="18"/>
<text text-anchor="middle" x="338.9708" y="-393.8" font-family="Times,serif" font-size="14.00" fill="#000000">tas.adaptation.simple.MyProbe</text>
</g>
<!-- service.adaptation.probes.WorkflowProbe&#45;&gt;tas.adaptation.simple.MyProbe -->
<g id="edge29" class="edge">
<title>service.adaptation.probes.WorkflowProbe&#45;&gt;tas.adaptation.simple.MyProbe</title>
<path fill="none" stroke="#000000" d="M242.3798,-472.4054C219.4705,-467.0793 199.8758,-460.0149 192.5514,-450.8 187.9054,-444.9548 187.9448,-439.8763 192.5514,-434 199.2737,-425.4246 217.1081,-418.6195 238.1164,-413.3402"/>
<polygon fill="#000000" stroke="#000000" points="239.0323,-416.7203 247.9637,-411.021 237.4276,-409.9067 239.0323,-416.7203"/>
<text text-anchor="middle" x="255.1805" y="-438.2" font-family="Times,serif" font-size="14.00" fill="#000000">20.1.serviceNotFound</text>
</g>
<!-- service.adaptation.probes.WorkflowProbe&#45;&gt;tas.adaptation.simple.MyProbe -->
<g id="edge31" class="edge">
<title>service.adaptation.probes.WorkflowProbe&#45;&gt;tas.adaptation.simple.MyProbe</title>
<path fill="none" stroke="#000000" d="M343.1495,-468.6097C341.8514,-462.9454 340.6142,-456.6505 339.9146,-450.8 338.9716,-442.9143 338.5587,-434.3197 338.4252,-426.3988"/>
<polygon fill="#000000" stroke="#000000" points="341.9244,-426.134 338.3926,-416.1452 334.9245,-426.1563 341.9244,-426.134"/>
<text text-anchor="middle" x="425.4989" y="-438.2" font-family="Times,serif" font-size="14.00" fill="#000000">28.1.serviceOperationTimeout</text>
</g>
<!-- taskgraph.TaskGraphInterpreter -->
<g id="node25" class="node">
<title>taskgraph.TaskGraphInterpreter</title>
<ellipse fill="none" stroke="#000000" cx="1338.9708" cy="-398" rx="134.7716" ry="18"/>
<text text-anchor="middle" x="1338.9708" y="-393.8" font-family="Times,serif" font-size="14.00" fill="#000000">taskgraph.TaskGraphInterpreter</text>
</g>
<!-- service.workflow.WorkflowEngine&#45;&gt;taskgraph.TaskGraphInterpreter -->
<g id="edge44" class="edge">
<title>service.workflow.WorkflowEngine&#45;&gt;taskgraph.TaskGraphInterpreter</title>
<path fill="none" stroke="#000000" d="M1244.8498,-468.83C1262.7632,-455.3494 1287.4679,-436.7581 1307.0723,-422.005"/>
<polygon fill="#000000" stroke="#000000" points="1309.2415,-424.7529 1315.1272,-415.9433 1305.0324,-419.1597 1309.2415,-424.7529"/>
<text text-anchor="middle" x="1322.4319" y="-438.2" font-family="Times,serif" font-size="14.00" fill="#000000">16.interpret</text>
</g>
<!-- service.auxiliary.TimeOutError&#45;&gt;service.composite.CompositeService -->
<g id="edge46" class="edge">
<title>service.auxiliary.TimeOutError&#45;&gt;service.composite.CompositeService</title>
<path fill="none" stroke="#000000" stroke-dasharray="1,5" d="M1674.3705,-504.282C1648.5122,-516.4621 1611.9195,-531.861 1577.9708,-539.6 1505.9765,-556.0119 1321.2972,-565.6967 1185.2881,-570.8143"/>
<polygon fill="#000000" stroke="#000000" points="1185.0344,-567.3212 1175.1712,-571.19 1185.2942,-574.3164 1185.0344,-567.3212"/>
</g>
<!-- service.workflow.AbstractQoSRequirement&#45;&gt;service.composite.CompositeService -->
<g id="edge47" class="edge">
<title>service.workflow.AbstractQoSRequirement&#45;&gt;service.composite.CompositeService</title>
<path fill="none" stroke="#000000" stroke-dasharray="1,5" d="M1981.3827,-503.8457C1936.7353,-516.0579 1873.5127,-531.6905 1816.9708,-539.6 1699.7143,-556.0027 1382.1252,-566.6308 1186.888,-571.829"/>
<polygon fill="#000000" stroke="#000000" points="1186.7209,-568.3321 1176.8169,-572.0952 1186.906,-575.3296 1186.7209,-568.3321"/>
</g>
<!-- service.adaptation.probes.CostProbe&#45;&gt;tas.services.assistance.AssistanceServiceCostProbe -->
<g id="edge48" class="edge">
<title>service.adaptation.probes.CostProbe&#45;&gt;tas.services.assistance.AssistanceServiceCostProbe</title>
<path fill="none" stroke="#000000" d="M822.0245,-469.0695C836.0494,-459.1964 847.2556,-446.4204 837.9708,-434 833.3781,-427.8563 822.2942,-422.396 808.5802,-417.7006"/>
<polygon fill="#000000" stroke="#000000" points="809.3034,-414.2583 798.7132,-414.5732 807.1883,-420.9311 809.3034,-414.2583"/>
<text text-anchor="middle" x="888.6265" y="-438.2" font-family="Times,serif" font-size="14.00" fill="#000000">28.2.serviceCost</text>
</g>
<!-- tas.services.assistance.AssistanceServiceCostProbe&#45;&gt;service.composite.CompositeService -->
<g id="edge32" class="edge">
<title>tas.services.assistance.AssistanceServiceCostProbe&#45;&gt;service.composite.CompositeService</title>
<path fill="none" stroke="#000000" stroke-dasharray="1,5" d="M859.2792,-411.1552C893.8109,-416.5412 924.8266,-423.9461 938.9708,-434 982.4417,-464.8997 966.0833,-495.427 995.9708,-539.6 998.2147,-542.9165 1000.7047,-546.2884 1003.2632,-549.5719"/>
<polygon fill="#000000" stroke="#000000" points="1000.648,-551.9038 1009.6631,-557.4696 1006.0865,-547.4967 1000.648,-551.9038"/>
</g>
<!-- tas.adaptation.MyAdaptationEngine -->
<g id="node21" class="node">
<title>tas.adaptation.MyAdaptationEngine</title>
<ellipse fill="none" stroke="#000000" cx="514.9708" cy="-309.2" rx="150.4868" ry="18"/>
<text text-anchor="middle" x="514.9708" y="-305" font-family="Times,serif" font-size="14.00" fill="#000000">tas.adaptation.MyAdaptationEngine</text>
</g>
<!-- tas.adaptation.simple.MyProbe&#45;&gt;tas.adaptation.MyAdaptationEngine -->
<g id="edge33" class="edge">
<title>tas.adaptation.simple.MyProbe&#45;&gt;tas.adaptation.MyAdaptationEngine</title>
<path fill="none" stroke="#000000" d="M329.35,-380.0078C324.825,-368.8334 321.9664,-354.8177 329.8936,-345.2 338.3857,-334.8969 360.2596,-327.5046 386.1243,-322.2142"/>
<polygon fill="#000000" stroke="#000000" points="387.047,-325.6013 396.213,-320.2878 385.734,-318.7255 387.047,-325.6013"/>
<text text-anchor="middle" x="412.0094" y="-349.4" font-family="Times,serif" font-size="14.00" fill="#000000">21.1.handleServiceNotFound</text>
</g>
<!-- tas.adaptation.simple.MyProbe&#45;&gt;tas.adaptation.MyAdaptationEngine -->
<g id="edge34" class="edge">
<title>tas.adaptation.simple.MyProbe&#45;&gt;tas.adaptation.MyAdaptationEngine</title>
<path fill="none" stroke="#000000" d="M427.7449,-384.6491C456.2487,-378.8417 483.2358,-371.2314 493.9708,-362 501.4412,-355.5759 506.279,-346.1279 509.4013,-336.9931"/>
<polygon fill="#000000" stroke="#000000" points="512.771,-337.9391 512.1594,-327.3619 506.0415,-336.0119 512.771,-337.9391"/>
<text text-anchor="middle" x="579.4463" y="-349.4" font-family="Times,serif" font-size="14.00" fill="#000000">29.1.handleServiceFailure</text>
</g>
<!-- service.adaptation.effectors.WorkflowEffector -->
<g id="node22" class="node">
<title>service.adaptation.effectors.WorkflowEffector</title>
<ellipse fill="none" stroke="#000000" cx="663.9708" cy="-220.4" rx="190.8676" ry="18"/>
<text text-anchor="middle" x="663.9708" y="-216.2" font-family="Times,serif" font-size="14.00" fill="#000000">service.adaptation.effectors.WorkflowEffector</text>
</g>
<!-- tas.adaptation.MyAdaptationEngine&#45;&gt;service.adaptation.effectors.WorkflowEffector -->
<g id="edge35" class="edge">
<title>tas.adaptation.MyAdaptationEngine&#45;&gt;service.adaptation.effectors.WorkflowEffector</title>
<path fill="none" stroke="#000000" d="M507.7506,-290.9849C504.632,-279.8629 503.211,-265.986 510.8052,-256.4 516.7088,-248.9479 530.7264,-242.8867 548.0088,-238.011"/>
<polygon fill="#000000" stroke="#000000" points="549.1247,-241.3371 557.9152,-235.423 547.3553,-234.5644 549.1247,-241.3371"/>
<text text-anchor="middle" x="577.0536" y="-260.6" font-family="Times,serif" font-size="14.00" fill="#000000">22.1.refreshAllServices</text>
</g>
<!-- tas.adaptation.MyAdaptationEngine&#45;&gt;service.adaptation.effectors.WorkflowEffector -->
<g id="edge36" class="edge">
<title>tas.adaptation.MyAdaptationEngine&#45;&gt;service.adaptation.effectors.WorkflowEffector</title>
<path fill="none" stroke="#000000" d="M591.4542,-293.6387C613.8384,-287.8201 634.5661,-280.7702 642.9708,-273.2 650.2138,-266.6761 654.9941,-257.3221 658.1337,-248.2946"/>
<polygon fill="#000000" stroke="#000000" points="661.577,-248.9898 661.0251,-238.4094 654.8585,-247.0246 661.577,-248.9898"/>
<text text-anchor="middle" x="710.9498" y="-260.6" font-family="Times,serif" font-size="14.00" fill="#000000">30.1.removeService</text>
</g>
<!-- service.adaptation.effectors.CacheEffector -->
<g id="node23" class="node">
<title>service.adaptation.effectors.CacheEffector</title>
<ellipse fill="none" stroke="#000000" cx="817.9708" cy="-131.6" rx="175.2549" ry="18"/>
<text text-anchor="middle" x="817.9708" y="-127.4" font-family="Times,serif" font-size="14.00" fill="#000000">service.adaptation.effectors.CacheEffector</text>
</g>
<!-- service.adaptation.effectors.WorkflowEffector&#45;&gt;service.adaptation.effectors.CacheEffector -->
<g id="edge37" class="edge">
<title>service.adaptation.effectors.WorkflowEffector&#45;&gt;service.adaptation.effectors.CacheEffector</title>
<path fill="none" stroke="#000000" d="M657.6305,-202.4097C654.9185,-191.236 653.8978,-177.2205 661.5556,-167.6 667.865,-159.6734 683.2098,-153.3453 701.9479,-148.3472"/>
<polygon fill="#000000" stroke="#000000" points="702.8453,-151.7307 711.7087,-145.9264 701.1603,-144.9366 702.8453,-151.7307"/>
<text text-anchor="middle" x="717.1784" y="-171.8" font-family="Times,serif" font-size="14.00" fill="#000000">23.1.getAllServices</text>
</g>
<!-- service.adaptation.effectors.WorkflowEffector&#45;&gt;service.adaptation.effectors.CacheEffector -->
<g id="edge38" class="edge">
<title>service.adaptation.effectors.WorkflowEffector&#45;&gt;service.adaptation.effectors.CacheEffector</title>
<path fill="none" stroke="#000000" d="M732.7963,-203.5733C746.4066,-198.5934 760.1299,-192.2927 771.9708,-184.4 782.5335,-177.3593 792.1322,-167.2783 799.7961,-157.8084"/>
<polygon fill="#000000" stroke="#000000" points="802.6836,-159.7951 806.0086,-149.7355 797.1361,-155.526 802.6836,-159.7951"/>
<text text-anchor="middle" x="846.9498" y="-171.8" font-family="Times,serif" font-size="14.00" fill="#000000">31.1.removeService</text>
</g>
<!-- service.adaptation.effectors.CacheEffector&#45;&gt;service.composite.CompositeService -->
<g id="edge40" class="edge">
<title>service.adaptation.effectors.CacheEffector&#45;&gt;service.composite.CompositeService</title>
<path fill="none" stroke="#000000" d="M884.2056,-148.4053C893.0347,-153.2674 901.0624,-159.5314 906.9708,-167.6 958.1704,-237.5199 893.9961,-280.0231 922.1026,-362 925.2104,-371.0645 928.8431,-371.9049 933.9708,-380 958.6881,-419.0214 968.125,-427.0895 987.9708,-468.8 1000.307,-494.7274 1010.9242,-525.7899 1017.7752,-547.7137"/>
<polygon fill="#000000" stroke="#000000" points="1014.4626,-548.8497 1020.7386,-557.3856 1021.1555,-546.799 1014.4626,-548.8497"/>
<text text-anchor="middle" x="977.4049" y="-349.4" font-family="Times,serif" font-size="14.00" fill="#000000">25.1.lookupService</text>
</g>
<!-- service.composite.CompositeService.SDCache -->
<g id="node24" class="node">
<title>service.composite.CompositeService.SDCache</title>
<ellipse fill="none" stroke="#000000" cx="876.9708" cy="-42.8" rx="192.6742" ry="18"/>
<text text-anchor="middle" x="876.9708" y="-38.6" font-family="Times,serif" font-size="14.00" fill="#000000">service.composite.CompositeService.SDCache</text>
</g>
<!-- service.adaptation.effectors.CacheEffector&#45;&gt;service.composite.CompositeService.SDCache -->
<g id="edge39" class="edge">
<title>service.adaptation.effectors.CacheEffector&#45;&gt;service.composite.CompositeService.SDCache</title>
<path fill="none" stroke="#000000" d="M854.2814,-113.9381C861.2065,-108.9477 867.6362,-102.8541 871.9708,-95.6 876.2879,-88.3752 878.1595,-79.5783 878.7817,-71.253"/>
<polygon fill="#000000" stroke="#000000" points="882.2837,-71.1841 878.9915,-61.1137 875.2852,-71.0392 882.2837,-71.1841"/>
<text text-anchor="middle" x="912.961" y="-83" font-family="Times,serif" font-size="14.00" fill="#000000">24.1.remove</text>
</g>
<!-- service.adaptation.effectors.CacheEffector&#45;&gt;service.composite.CompositeService.SDCache -->
<g id="edge41" class="edge">
<title>service.adaptation.effectors.CacheEffector&#45;&gt;service.composite.CompositeService.SDCache</title>
<path fill="none" stroke="#000000" d="M790.2087,-113.5945C778.2254,-103.5338 768.6504,-90.6671 776.9904,-78.8 780.8365,-73.3273 790.526,-68.0664 802.4398,-63.3365"/>
<polygon fill="#000000" stroke="#000000" points="803.7593,-66.5802 811.924,-59.8283 801.3308,-60.015 803.7593,-66.5802"/>
<text text-anchor="middle" x="812.961" y="-83" font-family="Times,serif" font-size="14.00" fill="#000000">32.1.remove</text>
</g>
<!-- service.composite.CompositeService.SDCache&#45;&gt;service.composite.CompositeService -->
<g id="edge43" class="edge">
<title>service.composite.CompositeService.SDCache&#45;&gt;service.composite.CompositeService</title>
<path fill="none" stroke="#000000" stroke-dasharray="1,5" d="M971.2835,-58.6128C1009.5788,-70.9492 1044.9708,-92.8363 1044.9708,-131.6 1044.9708,-486.8 1044.9708,-486.8 1044.9708,-486.8 1044.9708,-507.4283 1040.0074,-530.1674 1035.1542,-547.4708"/>
<polygon fill="#000000" stroke="#000000" points="1031.6753,-546.8925 1032.1921,-557.4747 1038.3873,-548.88 1031.6753,-546.8925"/>
</g>
<!-- service.composite.CompositeService.SDCache&#45;&gt;service.adaptation.effectors.CacheEffector -->
<g id="edge42" class="edge">
<title>service.composite.CompositeService.SDCache&#45;&gt;service.adaptation.effectors.CacheEffector</title>
<path fill="none" stroke="#000000" stroke-dasharray="1,5" d="M867.664,-60.8318C862.0617,-71.2424 854.5617,-84.4424 846.9708,-95.6 844.7488,-98.8659 842.3093,-102.2068 839.818,-105.473"/>
<polygon fill="#000000" stroke="#000000" points="837.0498,-103.3311 833.613,-113.353 842.5494,-107.6617 837.0498,-103.3311"/>
</g>
<!-- taskgraph.TaskGraphInterpreter&#45;&gt;service.composite.CompositeService -->
<g id="edge45" class="edge">
<title>taskgraph.TaskGraphInterpreter&#45;&gt;service.composite.CompositeService</title>
<path fill="none" stroke="#000000" d="M1355.3582,-416.152C1373.6656,-438.7131 1398.2375,-477.561 1377.9708,-504.8 1352.8265,-538.5946 1256.1266,-556.4395 1170.4309,-565.7564"/>
<polygon fill="#000000" stroke="#000000" points="1169.8867,-562.2943 1160.3087,-566.8235 1170.6206,-569.2558 1169.8867,-562.2943"/>
<text text-anchor="middle" x="1461.751" y="-482.6" font-family="Times,serif" font-size="14.00" fill="#000000">17.invokeServiceOperation</text>
</g>
</g>
</svg>
