<svg width="1108pt" height="191pt"
 viewBox="0.00 0.00 1107.95 191.20" xmlns="http://www.w3.org/2000/svg" xmlns:xlink="http://www.w3.org/1999/xlink">
<g id="graph0" class="graph" transform="scale(1 1) rotate(0) translate(4 187.2)">
<title>project</title>
<polygon fill="#ffffff" stroke="transparent" points="-4,4 -4,-187.2 1103.9498,-187.2 1103.9498,4 -4,4"/>
<text text-anchor="middle" x="549.9749" y="-8.2" font-family="Times,serif" font-size="14.00" fill="#000000">Method Calls for :profile.InputProfile</text>
<!-- req.getName().equals(reqName)\n -->
<g id="node1" class="node">
<title>req.getName().equals(reqName)\n</title>
<polygon fill="none" stroke="#ff0000" points="197.1728,-60.8 -.0576,-60.8 -.0576,-24.8 197.1728,-24.8 197.1728,-60.8"/>
<text text-anchor="middle" x="98.5576" y="-38.6" font-family="Times,serif" font-size="14.00" fill="#ff0000">req.getName().equals(reqName)</text>
</g>
<!-- requirements == null\n -->
<g id="node2" class="node">
<title>requirements == null\n</title>
<polygon fill="none" stroke="#ff0000" points="348.2099,-60.8 214.9053,-60.8 214.9053,-24.8 348.2099,-24.8 348.2099,-60.8"/>
<text text-anchor="middle" x="281.5576" y="-38.6" font-family="Times,serif" font-size="14.00" fill="#ff0000">requirements == null</text>
</g>
<!-- variable.getName().equals(variableName)\n -->
<g id="node3" class="node">
<title>variable.getName().equals(variableName)\n</title>
<polygon fill="none" stroke="#ff0000" points="618.094,-60.8 367.0212,-60.8 367.0212,-24.8 618.094,-24.8 618.094,-60.8"/>
<text text-anchor="middle" x="492.5576" y="-38.6" font-family="Times,serif" font-size="14.00" fill="#ff0000">variable.getName().equals(variableName)</text>
</g>
<!-- Class: [InputProfile] -->
<g id="node4" class="node">
<title>Class: [InputProfile]</title>
<ellipse fill="none" stroke="#000000" cx="578.5576" cy="-165.2" rx="90.3004" ry="18"/>
<text text-anchor="middle" x="578.5576" y="-161" font-family="Times,serif" font-size="14.00" fill="#000000">Class: [InputProfile]</text>
</g>
<!-- Class: [InputProfile]&#45;&gt;req.getName().equals(reqName)\n -->
<g id="edge5" class="edge">
<title>Class: [InputProfile]&#45;&gt;req.getName().equals(reqName)\n</title>
<path fill="none" stroke="#ff0000" d="M489.3187,-162.2881C396.3346,-158.2356 257.4468,-149.0239 208.1396,-129.2 174.5067,-115.678 142.7547,-88.4475 122.1742,-68.1522"/>
<polygon fill="#ff0000" stroke="#ff0000" points="124.6392,-65.6673 115.1146,-61.0271 119.6667,-70.5942 124.6392,-65.6673"/>
<text text-anchor="middle" x="253.2666" y="-99.8" font-family="Times,serif" font-size="14.00" fill="#ff0000">getRequirement</text>
</g>
<!-- Class: [InputProfile]&#45;&gt;requirements == null\n -->
<g id="edge6" class="edge">
<title>Class: [InputProfile]&#45;&gt;requirements == null\n</title>
<path fill="none" stroke="#ff0000" d="M495.0708,-158.4047C440.299,-152.7493 374.4912,-143.317 350.2686,-129.2 326.3969,-115.2875 307.6209,-89.6436 295.772,-69.8937"/>
<polygon fill="#ff0000" stroke="#ff0000" points="298.6903,-67.9475 290.6709,-61.0237 292.6222,-71.4373 298.6903,-67.9475"/>
<text text-anchor="middle" x="414.7021" y="-99.8" font-family="Times,serif" font-size="14.00" fill="#ff0000">getRequirementNames</text>
</g>
<!-- Class: [InputProfile]&#45;&gt;variable.getName().equals(variableName)\n -->
<g id="edge7" class="edge">
<title>Class: [InputProfile]&#45;&gt;variable.getName().equals(variableName)\n</title>
<path fill="none" stroke="#ff0000" d="M518.712,-151.5589C507.8756,-146.3462 497.9168,-139.1455 491.2602,-129.2 479.9603,-112.317 480.9785,-89.1185 484.4446,-71.0105"/>
<polygon fill="#ff0000" stroke="#ff0000" points="487.9112,-71.5479 486.6937,-61.0233 481.0822,-70.01 487.9112,-71.5479"/>
<text text-anchor="middle" x="524.2063" y="-99.8" font-family="Times,serif" font-size="14.00" fill="#ff0000">getVariable</text>
</g>
<!-- Class: [Requirement] -->
<g id="node5" class="node">
<title>Class: [Requirement]</title>
<ellipse fill="none" stroke="#000000" cx="732.5576" cy="-42.8" rx="93.2318" ry="18"/>
<text text-anchor="middle" x="732.5576" y="-38.6" font-family="Times,serif" font-size="14.00" fill="#000000">Class: [Requirement]</text>
</g>
<!-- Class: [InputProfile]&#45;&gt;Class: [Requirement] -->
<g id="edge1" class="edge">
<title>Class: [InputProfile]&#45;&gt;Class: [Requirement]</title>
<path fill="none" stroke="#000000" d="M572.9039,-147.1808C568.1148,-128.0536 564.2172,-97.9931 579.608,-78.8 584.7338,-72.4079 618.7344,-64.0867 653.3791,-57.0549"/>
<polygon fill="#000000" stroke="#000000" points="654.5066,-60.3992 663.6303,-55.0133 653.1393,-53.534 654.5066,-60.3992"/>
<text text-anchor="middle" x="647.0324" y="-116.6" font-family="Times,serif" font-size="14.00" fill="#000000">[getRequirementNames</text>
<text text-anchor="middle" x="647.0324" y="-99.8" font-family="Times,serif" font-size="14.00" fill="#000000">&#45;&#45;&gt;</text>
<text text-anchor="middle" x="647.0324" y="-83" font-family="Times,serif" font-size="14.00" fill="#000000">getName]</text>
</g>
<!-- Class: [InputProfile]&#45;&gt;Class: [Requirement] -->
<g id="edge2" class="edge">
<title>Class: [InputProfile]&#45;&gt;Class: [Requirement]</title>
<path fill="none" stroke="#000000" d="M647.3378,-153.4557C675.1615,-147.3687 702.9781,-139.1207 712.5576,-129.2 727.3781,-113.8518 732.014,-89.8035 733.1487,-70.9711"/>
<polygon fill="#000000" stroke="#000000" points="736.6504,-70.9666 733.4622,-60.8628 729.6537,-70.7495 736.6504,-70.9666"/>
<text text-anchor="middle" x="779.5969" y="-116.6" font-family="Times,serif" font-size="14.00" fill="#000000">[getRequirement</text>
<text text-anchor="middle" x="779.5969" y="-99.8" font-family="Times,serif" font-size="14.00" fill="#000000">&#45;&#45;&gt;</text>
<text text-anchor="middle" x="779.5969" y="-83" font-family="Times,serif" font-size="14.00" fill="#000000">getName]</text>
</g>
<!-- Class: [InputProfileVariable] -->
<g id="node6" class="node">
<title>Class: [InputProfileVariable]</title>
<ellipse fill="none" stroke="#000000" cx="976.5576" cy="-42.8" rx="123.2844" ry="18"/>
<text text-anchor="middle" x="976.5576" y="-38.6" font-family="Times,serif" font-size="14.00" fill="#000000">Class: [InputProfileVariable]</text>
</g>
<!-- Class: [InputProfile]&#45;&gt;Class: [InputProfileVariable] -->
<g id="edge3" class="edge">
<title>Class: [InputProfile]&#45;&gt;Class: [InputProfileVariable]</title>
<path fill="none" stroke="#000000" d="M666.7078,-161.399C728.4424,-157.1164 804.2445,-148.0925 829.5576,-129.2 849.3152,-114.4538 834.0545,-94.8963 852.7286,-78.8 860.3431,-72.2366 877.8537,-65.8479 897.3803,-60.319"/>
<polygon fill="#000000" stroke="#000000" points="898.3628,-63.679 907.0935,-57.6769 896.5254,-56.9244 898.3628,-63.679"/>
<text text-anchor="middle" x="906.9721" y="-116.6" font-family="Times,serif" font-size="14.00" fill="#000000">[getVariableNames</text>
<text text-anchor="middle" x="906.9721" y="-99.8" font-family="Times,serif" font-size="14.00" fill="#000000">&#45;&#45;&gt;</text>
<text text-anchor="middle" x="906.9721" y="-83" font-family="Times,serif" font-size="14.00" fill="#000000">getName]</text>
</g>
<!-- Class: [InputProfile]&#45;&gt;Class: [InputProfileVariable] -->
<g id="edge4" class="edge">
<title>Class: [InputProfile]&#45;&gt;Class: [InputProfileVariable]</title>
<path fill="none" stroke="#000000" d="M667.9306,-162.4315C774.3465,-158.274 940.4422,-148.726 961.5576,-129.2 977.2134,-114.7227 980.2281,-90.2241 979.7477,-71.0035"/>
<polygon fill="#000000" stroke="#000000" points="983.2392,-70.7517 979.1793,-60.9656 976.2504,-71.1475 983.2392,-70.7517"/>
<text text-anchor="middle" x="1014.5366" y="-116.6" font-family="Times,serif" font-size="14.00" fill="#000000">[getVariable</text>
<text text-anchor="middle" x="1014.5366" y="-99.8" font-family="Times,serif" font-size="14.00" fill="#000000">&#45;&#45;&gt;</text>
<text text-anchor="middle" x="1014.5366" y="-83" font-family="Times,serif" font-size="14.00" fill="#000000">getName]</text>
</g>
</g>
</svg>
