<svg width="3121pt" height="336pt"
 viewBox="0.00 0.00 3121.43 336.00" xmlns="http://www.w3.org/2000/svg" xmlns:xlink="http://www.w3.org/1999/xlink">
<g id="graph0" class="graph" transform="scale(1 1) rotate(0) translate(4 332)">
<title>project</title>
<polygon fill="#ffffff" stroke="transparent" points="-4,4 -4,-332 3117.4287,-332 3117.4287,4 -4,4"/>
<text text-anchor="middle" x="1556.7144" y="-8.2" font-family="Times,serif" font-size="14.00" fill="#000000">Method Calls for :tas.services.medical.MedicalAnalysisService</text>
<!-- DEBUG\nreply\nresponseTime ==  -->
<g id="node1" class="node">
<title>DEBUG\nreply\nresponseTime == </title>
<polygon fill="none" stroke="#ff0000" points="117.4753,-100.2014 -.1587,-100.2014 -.1587,-41.3986 117.4753,-41.3986 117.4753,-100.2014"/>
<text text-anchor="middle" x="58.6583" y="-83.4" font-family="Times,serif" font-size="14.00" fill="#ff0000">DEBUG</text>
<text text-anchor="middle" x="58.6583" y="-66.6" font-family="Times,serif" font-size="14.00" fill="#ff0000">reply</text>
<text text-anchor="middle" x="58.6583" y="-49.8" font-family="Times,serif" font-size="14.00" fill="#ff0000">responseTime == </text>
</g>
<!-- DEBUG\n!(result instanceof OperationAborted)\nthread instanceof ExecutionThread\nDEBUG\nresponse.getReturnType() != null\n -->
<g id="node2" class="node">
<title>DEBUG\n!(result instanceof OperationAborted)\nthread instanceof ExecutionThread\nDEBUG\nresponse.getReturnType() != null\n</title>
<polygon fill="none" stroke="#ff0000" points="362.6218,-116.8 134.6948,-116.8 134.6948,-24.8 362.6218,-24.8 362.6218,-116.8"/>
<text text-anchor="middle" x="248.6583" y="-100.2" font-family="Times,serif" font-size="14.00" fill="#ff0000">DEBUG</text>
<text text-anchor="middle" x="248.6583" y="-83.4" font-family="Times,serif" font-size="14.00" fill="#ff0000">!(result instanceof OperationAborted)</text>
<text text-anchor="middle" x="248.6583" y="-66.6" font-family="Times,serif" font-size="14.00" fill="#ff0000">thread instanceof ExecutionThread</text>
<text text-anchor="middle" x="248.6583" y="-49.8" font-family="Times,serif" font-size="14.00" fill="#ff0000">DEBUG</text>
<text text-anchor="middle" x="248.6583" y="-33" font-family="Times,serif" font-size="14.00" fill="#ff0000">response.getReturnType() != null</text>
</g>
<!-- !(result instanceof OperationAborted)\n -->
<g id="node3" class="node">
<title>!(result instanceof OperationAborted)\n</title>
<polygon fill="none" stroke="#ff0000" points="607.6218,-88.8 379.6948,-88.8 379.6948,-52.8 607.6218,-52.8 607.6218,-88.8"/>
<text text-anchor="middle" x="493.6583" y="-66.6" font-family="Times,serif" font-size="14.00" fill="#ff0000">!(result instanceof OperationAborted)</text>
</g>
<!-- description.getRegisterID() &gt; 0\n -->
<g id="node4" class="node">
<title>description.getRegisterID() &gt; 0\n</title>
<polygon fill="none" stroke="#ff0000" points="816.6054,-88.8 624.7112,-88.8 624.7112,-52.8 816.6054,-52.8 816.6054,-88.8"/>
<text text-anchor="middle" x="720.6583" y="-66.6" font-family="Times,serif" font-size="14.00" fill="#ff0000">description.getRegisterID() &gt; 0</text>
</g>
<!-- operation.getAnnotation(ServiceOperation.class) != null\n -->
<g id="node5" class="node">
<title>operation.getAnnotation(ServiceOperation.class) != null\n</title>
<polygon fill="none" stroke="#ff0000" points="1166.4494,-88.8 834.8672,-88.8 834.8672,-52.8 1166.4494,-52.8 1166.4494,-88.8"/>
<text text-anchor="middle" x="1000.6583" y="-66.6" font-family="Times,serif" font-size="14.00" fill="#ff0000">operation.getAnnotation(ServiceOperation.class) != null</text>
</g>
<!-- configuration.multipleThreads == false\n -->
<g id="node6" class="node">
<title>configuration.multipleThreads == false\n</title>
<polygon fill="none" stroke="#ff0000" points="1420.5493,-88.8 1184.7673,-88.8 1184.7673,-52.8 1420.5493,-52.8 1420.5493,-88.8"/>
<text text-anchor="middle" x="1302.6583" y="-66.6" font-family="Times,serif" font-size="14.00" fill="#ff0000">configuration.multipleThreads == false</text>
</g>
<!-- opList.get(i).getOpName().equals(opName)\n -->
<g id="node7" class="node">
<title>opList.get(i).getOpName().equals(opName)\n</title>
<polygon fill="none" stroke="#ff0000" points="1700.7251,-88.8 1438.5915,-88.8 1438.5915,-52.8 1700.7251,-52.8 1700.7251,-88.8"/>
<text text-anchor="middle" x="1569.6583" y="-66.6" font-family="Times,serif" font-size="14.00" fill="#ff0000">opList.get(i).getOpName().equals(opName)</text>
</g>
<!-- op.getOpName().equals(opName)\n -->
<g id="node8" class="node">
<title>op.getOpName().equals(opName)\n</title>
<polygon fill="none" stroke="#ff0000" points="1925.1302,-88.8 1718.1864,-88.8 1718.1864,-52.8 1925.1302,-52.8 1925.1302,-88.8"/>
<text text-anchor="middle" x="1821.6583" y="-66.6" font-family="Times,serif" font-size="14.00" fill="#ff0000">op.getOpName().equals(opName)</text>
</g>
<!-- customProperties.containsKey(RESPONSE_TIME)\n -->
<g id="node9" class="node">
<title>customProperties.containsKey(RESPONSE_TIME)\n</title>
<polygon fill="none" stroke="#ff0000" points="2250.3682,-88.8 1942.9484,-88.8 1942.9484,-52.8 2250.3682,-52.8 2250.3682,-88.8"/>
<text text-anchor="middle" x="2096.6583" y="-66.6" font-family="Times,serif" font-size="14.00" fill="#ff0000">customProperties.containsKey(RESPONSE_TIME)</text>
</g>
<!-- os != null\nis != null\n -->
<g id="node10" class="node">
<title>os != null\nis != null\n</title>
<polygon fill="none" stroke="#ff0000" points="2337.4396,-91.4019 2267.877,-91.4019 2267.877,-50.1981 2337.4396,-50.1981 2337.4396,-91.4019"/>
<text text-anchor="middle" x="2302.6583" y="-75" font-family="Times,serif" font-size="14.00" fill="#ff0000">os != null</text>
<text text-anchor="middle" x="2302.6583" y="-58.2" font-family="Times,serif" font-size="14.00" fill="#ff0000">is != null</text>
</g>
<!-- obj instanceof ServiceDescription\nregisterID == service.getRegisterID() &amp;&amp; endpoint.equals(service.getServiceEndpoint()) &amp;&amp; type.equals(service.getServiceType())\n!opList.get(i).equals(service.getOperationList().get(i))\n!service.getCustomProperties().containsKey(key)\n!service.getCustomProperties().get(key).equals(value)\n -->
<g id="node11" class="node">
<title>obj instanceof ServiceDescription\nregisterID == service.getRegisterID() &amp;&amp; endpoint.equals(service.getServiceEndpoint()) &amp;&amp; type.equals(service.getServiceType())\n!opList.get(i).equals(service.getOperationList().get(i))\n!service.getCustomProperties().containsKey(key)\n!service.getCustomProperties().get(key).equals(value)\n</title>
<polygon fill="none" stroke="#ff0000" points="3113.1992,-116.8 2356.1174,-116.8 2356.1174,-24.8 3113.1992,-24.8 3113.1992,-116.8"/>
<text text-anchor="middle" x="2734.6583" y="-100.2" font-family="Times,serif" font-size="14.00" fill="#ff0000">obj instanceof ServiceDescription</text>
<text text-anchor="middle" x="2734.6583" y="-83.4" font-family="Times,serif" font-size="14.00" fill="#ff0000">registerID == service.getRegisterID() &amp;&amp; endpoint.equals(service.getServiceEndpoint()) &amp;&amp; type.equals(service.getServiceType())</text>
<text text-anchor="middle" x="2734.6583" y="-66.6" font-family="Times,serif" font-size="14.00" fill="#ff0000">!opList.get(i).equals(service.getOperationList().get(i))</text>
<text text-anchor="middle" x="2734.6583" y="-49.8" font-family="Times,serif" font-size="14.00" fill="#ff0000">!service.getCustomProperties().containsKey(key)</text>
<text text-anchor="middle" x="2734.6583" y="-33" font-family="Times,serif" font-size="14.00" fill="#ff0000">!service.getCustomProperties().get(key).equals(value)</text>
</g>
<!-- Class: [MedicalAnalysisService] -->
<g id="node12" class="node">
<title>Class: [MedicalAnalysisService]</title>
<ellipse fill="none" stroke="#000000" cx="1270.6583" cy="-310" rx="137.7495" ry="18"/>
<text text-anchor="middle" x="1270.6583" y="-305.8" font-family="Times,serif" font-size="14.00" fill="#000000">Class: [MedicalAnalysisService]</text>
</g>
<!-- Class: [AbstractService] -->
<g id="node13" class="node">
<title>Class: [AbstractService]</title>
<ellipse fill="none" stroke="#000000" cx="720.6583" cy="-187.6" rx="105.3045" ry="18"/>
<text text-anchor="middle" x="720.6583" y="-183.4" font-family="Times,serif" font-size="14.00" fill="#000000">Class: [AbstractService]</text>
</g>
<!-- Class: [MedicalAnalysisService]&#45;&gt;Class: [AbstractService] -->
<g id="edge1" class="edge">
<title>Class: [MedicalAnalysisService]&#45;&gt;Class: [AbstractService]</title>
<path fill="none" stroke="#000000" d="M1200.7213,-294.4358C1096.5951,-271.263 901.6603,-227.8812 795.0247,-204.1499"/>
<polygon fill="#000000" stroke="#000000" points="795.5084,-200.672 784.9868,-201.916 793.9877,-207.5048 795.5084,-200.672"/>
<text text-anchor="middle" x="1173.1864" y="-261.4" font-family="Times,serif" font-size="14.00" fill="#000000">[analyzeData</text>
<text text-anchor="middle" x="1173.1864" y="-244.6" font-family="Times,serif" font-size="14.00" fill="#000000">&#45;&#45;&gt;</text>
<text text-anchor="middle" x="1173.1864" y="-227.8" font-family="Times,serif" font-size="14.00" fill="#000000">getServiceDescription]</text>
</g>
<!-- Class: [ServiceDescription] -->
<g id="node14" class="node">
<title>Class: [ServiceDescription]</title>
<ellipse fill="none" stroke="#000000" cx="1958.6583" cy="-187.6" rx="117.4855" ry="18"/>
<text text-anchor="middle" x="1958.6583" y="-183.4" font-family="Times,serif" font-size="14.00" fill="#000000">Class: [ServiceDescription]</text>
</g>
<!-- Class: [MedicalAnalysisService]&#45;&gt;Class: [ServiceDescription] -->
<g id="edge2" class="edge">
<title>Class: [MedicalAnalysisService]&#45;&gt;Class: [ServiceDescription]</title>
<path fill="none" stroke="#000000" d="M1352.2827,-295.4785C1482.8934,-272.2419 1737.7451,-226.902 1871.6699,-203.0758"/>
<polygon fill="#000000" stroke="#000000" points="1872.6541,-206.4558 1881.8864,-201.2583 1871.4279,-199.564 1872.6541,-206.4558"/>
<text text-anchor="middle" x="1804.2432" y="-261.4" font-family="Times,serif" font-size="14.00" fill="#000000">[analyzeData</text>
<text text-anchor="middle" x="1804.2432" y="-244.6" font-family="Times,serif" font-size="14.00" fill="#000000">&#45;&#45;&gt;</text>
<text text-anchor="middle" x="1804.2432" y="-227.8" font-family="Times,serif" font-size="14.00" fill="#000000">getServiceName]</text>
</g>
<!-- Class: [AbstractService]&#45;&gt;DEBUG\nreply\nresponseTime ==  -->
<g id="edge3" class="edge">
<title>Class: [AbstractService]&#45;&gt;DEBUG\nreply\nresponseTime == </title>
<path fill="none" stroke="#ff0000" d="M620.8686,-181.7785C475.5869,-172.2809 213.5789,-151.0048 125.6583,-116.8 118.1692,-113.8864 110.6963,-109.9925 103.603,-105.6986"/>
<polygon fill="#ff0000" stroke="#ff0000" points="105.1566,-102.5374 94.8484,-100.0895 101.3803,-108.4314 105.1566,-102.5374"/>
<text text-anchor="middle" x="329.0384" y="-139" font-family="Times,serif" font-size="14.00" fill="#ff0000">sendRequest</text>
</g>
<!-- Class: [AbstractService]&#45;&gt;DEBUG\n!(result instanceof OperationAborted)\nthread instanceof ExecutionThread\nDEBUG\nresponse.getReturnType() != null\n -->
<g id="edge4" class="edge">
<title>Class: [AbstractService]&#45;&gt;DEBUG\n!(result instanceof OperationAborted)\nthread instanceof ExecutionThread\nDEBUG\nresponse.getReturnType() != null\n</title>
<path fill="none" stroke="#ff0000" d="M642.638,-175.5229C573.4359,-163.9679 469.6577,-144.5772 372.1519,-117.1277"/>
<polygon fill="#ff0000" stroke="#ff0000" points="373.0099,-113.733 362.4335,-114.3587 371.0917,-120.465 373.0099,-113.733"/>
<text text-anchor="middle" x="545.1471" y="-139" font-family="Times,serif" font-size="14.00" fill="#ff0000">onMessage</text>
</g>
<!-- Class: [AbstractService]&#45;&gt;!(result instanceof OperationAborted)\n -->
<g id="edge5" class="edge">
<title>Class: [AbstractService]&#45;&gt;!(result instanceof OperationAborted)\n</title>
<path fill="none" stroke="#ff0000" d="M687.1637,-170.3658C647.5562,-149.9862 581.5017,-115.9987 537.7621,-93.493"/>
<polygon fill="#ff0000" stroke="#ff0000" points="539.2781,-90.337 528.7848,-88.8739 536.0754,-96.5614 539.2781,-90.337"/>
<text text-anchor="middle" x="657.7635" y="-139" font-family="Times,serif" font-size="14.00" fill="#ff0000">call</text>
</g>
<!-- Class: [AbstractService]&#45;&gt;description.getRegisterID() &gt; 0\n -->
<g id="edge6" class="edge">
<title>Class: [AbstractService]&#45;&gt;description.getRegisterID() &gt; 0\n</title>
<path fill="none" stroke="#ff0000" d="M720.6583,-169.35C720.6583,-150.4929 720.6583,-120.8112 720.6583,-98.9461"/>
<polygon fill="#ff0000" stroke="#ff0000" points="724.1584,-98.9218 720.6583,-88.9218 717.1584,-98.9219 724.1584,-98.9218"/>
<text text-anchor="middle" x="792.9634" y="-139" font-family="Times,serif" font-size="14.00" fill="#ff0000">updateServiceDescription</text>
</g>
<!-- Class: [AbstractService]&#45;&gt;operation.getAnnotation(ServiceOperation.class) != null\n -->
<g id="edge7" class="edge">
<title>Class: [AbstractService]&#45;&gt;operation.getAnnotation(ServiceOperation.class) != null\n</title>
<path fill="none" stroke="#ff0000" d="M794.1187,-174.681C818.6681,-169.1039 845.8308,-161.5304 869.6583,-151.6 905.3357,-136.731 942.5187,-112.8686 968.1153,-94.923"/>
<polygon fill="#ff0000" stroke="#ff0000" points="970.2074,-97.7301 976.3329,-89.0855 966.1535,-92.0234 970.2074,-97.7301"/>
<text text-anchor="middle" x="975.0083" y="-139" font-family="Times,serif" font-size="14.00" fill="#ff0000">createServiceDescription</text>
</g>
<!-- Class: [AbstractService]&#45;&gt;configuration.multipleThreads == false\n -->
<g id="edge8" class="edge">
<title>Class: [AbstractService]&#45;&gt;configuration.multipleThreads == false\n</title>
<path fill="none" stroke="#ff0000" d="M818.8029,-181.0046C884.5295,-175.5746 972.7679,-166.3262 1049.6583,-151.6 1106.7179,-140.6718 1120.3042,-134.4393 1175.6583,-116.8 1198.9168,-109.3884 1224.2589,-100.3985 1246.1445,-92.3393"/>
<polygon fill="#ff0000" stroke="#ff0000" points="1247.4542,-95.5866 1255.6155,-88.8307 1245.0224,-89.0226 1247.4542,-95.5866"/>
<text text-anchor="middle" x="1174.483" y="-139" font-family="Times,serif" font-size="14.00" fill="#ff0000">applyConfiguration</text>
</g>
<!-- Class: [ServiceDescription]&#45;&gt;opList.get(i).getOpName().equals(opName)\n -->
<g id="edge9" class="edge">
<title>Class: [ServiceDescription]&#45;&gt;opList.get(i).getOpName().equals(opName)\n</title>
<path fill="none" stroke="#ff0000" d="M1883.8796,-173.6994C1854.9663,-167.7381 1821.7442,-160.1666 1792.0257,-151.6 1733.3776,-134.6941 1667.8927,-110.1906 1623.2682,-92.6057"/>
<polygon fill="#ff0000" stroke="#ff0000" points="1624.3793,-89.2813 1613.7931,-88.8523 1621.8012,-95.7893 1624.3793,-89.2813"/>
<text text-anchor="middle" x="1843.9746" y="-139" font-family="Times,serif" font-size="14.00" fill="#ff0000">containsOperation</text>
</g>
<!-- Class: [ServiceDescription]&#45;&gt;op.getOpName().equals(opName)\n -->
<g id="edge10" class="edge">
<title>Class: [ServiceDescription]&#45;&gt;op.getOpName().equals(opName)\n</title>
<path fill="none" stroke="#ff0000" d="M1937.8509,-169.8606C1914.6508,-150.0812 1876.9608,-117.9484 1850.8252,-95.6664"/>
<polygon fill="#ff0000" stroke="#ff0000" points="1852.9945,-92.9165 1843.114,-89.0921 1848.453,-98.2434 1852.9945,-92.9165"/>
<text text-anchor="middle" x="1951.1997" y="-139" font-family="Times,serif" font-size="14.00" fill="#ff0000">getOperation</text>
</g>
<!-- Class: [ServiceDescription]&#45;&gt;customProperties.containsKey(RESPONSE_TIME)\n -->
<g id="edge11" class="edge">
<title>Class: [ServiceDescription]&#45;&gt;customProperties.containsKey(RESPONSE_TIME)\n</title>
<path fill="none" stroke="#ff0000" d="M1979.6175,-169.8606C2002.987,-150.0812 2040.9522,-117.9484 2067.2785,-95.6664"/>
<polygon fill="#ff0000" stroke="#ff0000" points="2069.6741,-98.2241 2075.046,-89.0921 2065.1518,-92.881 2069.6741,-98.2241"/>
<text text-anchor="middle" x="2069.8126" y="-139" font-family="Times,serif" font-size="14.00" fill="#ff0000">getResponseTime</text>
</g>
<!-- Class: [ServiceDescription]&#45;&gt;os != null\nis != null\n -->
<g id="edge12" class="edge">
<title>Class: [ServiceDescription]&#45;&gt;os != null\nis != null\n</title>
<path fill="none" stroke="#ff0000" d="M2061.6435,-178.9298C2122.638,-170.1385 2199.4993,-152.4372 2259.6583,-116.8 2267.365,-112.2347 2274.5434,-105.8794 2280.7422,-99.3476"/>
<polygon fill="#ff0000" stroke="#ff0000" points="2283.5158,-101.4955 2287.5421,-91.6955 2278.2833,-96.8457 2283.5158,-101.4955"/>
<text text-anchor="middle" x="2237.8182" y="-139" font-family="Times,serif" font-size="14.00" fill="#ff0000">clone</text>
</g>
<!-- Class: [ServiceDescription]&#45;&gt;obj instanceof ServiceDescription\nregisterID == service.getRegisterID() &amp;&amp; endpoint.equals(service.getServiceEndpoint()) &amp;&amp; type.equals(service.getServiceType())\n!opList.get(i).equals(service.getOperationList().get(i))\n!service.getCustomProperties().containsKey(key)\n!service.getCustomProperties().get(key).equals(value)\n -->
<g id="edge13" class="edge">
<title>Class: [ServiceDescription]&#45;&gt;obj instanceof ServiceDescription\nregisterID == service.getRegisterID() &amp;&amp; endpoint.equals(service.getServiceEndpoint()) &amp;&amp; type.equals(service.getServiceType())\n!opList.get(i).equals(service.getOperationList().get(i))\n!service.getCustomProperties().containsKey(key)\n!service.getCustomProperties().get(key).equals(value)\n</title>
<path fill="none" stroke="#ff0000" d="M2054.768,-177.1557C2113.2301,-170.5129 2189.3541,-161.3483 2256.6583,-151.6 2324.6358,-141.7542 2397.8507,-129.9743 2466.0551,-118.4941"/>
<polygon fill="#ff0000" stroke="#ff0000" points="2466.8021,-121.9176 2476.0805,-116.8027 2465.6375,-115.0151 2466.8021,-121.9176"/>
<text text-anchor="middle" x="2380.5405" y="-139" font-family="Times,serif" font-size="14.00" fill="#ff0000">equals</text>
</g>
</g>
</svg>
