<svg width="1683pt" height="342pt"
 viewBox="0.00 0.00 1682.80 341.60" xmlns="http://www.w3.org/2000/svg" xmlns:xlink="http://www.w3.org/1999/xlink">
<g id="graph0" class="graph" transform="scale(1 1) rotate(0) translate(4 337.6)">
<title>project</title>
<polygon fill="#ffffff" stroke="transparent" points="-4,4 -4,-337.6 1678.8038,-337.6 1678.8038,4 -4,4"/>
<text text-anchor="middle" x="837.4019" y="-8.2" font-family="Times,serif" font-size="14.00" fill="#000000">Method Calls for :tas.services.qos.MinCostQoS</text>
<!-- opList.get(i).getOpName().equals(opName)\n -->
<g id="node1" class="node">
<title>opList.get(i).getOpName().equals(opName)\n</title>
<polygon fill="none" stroke="#ff0000" points="262.1002,-88.8 -.0334,-88.8 -.0334,-52.8 262.1002,-52.8 262.1002,-88.8"/>
<text text-anchor="middle" x="131.0334" y="-66.6" font-family="Times,serif" font-size="14.00" fill="#ff0000">opList.get(i).getOpName().equals(opName)</text>
</g>
<!-- op.getOpName().equals(opName)\n -->
<g id="node2" class="node">
<title>op.getOpName().equals(opName)\n</title>
<polygon fill="none" stroke="#ff0000" points="486.5053,-88.8 279.5615,-88.8 279.5615,-52.8 486.5053,-52.8 486.5053,-88.8"/>
<text text-anchor="middle" x="383.0334" y="-66.6" font-family="Times,serif" font-size="14.00" fill="#ff0000">op.getOpName().equals(opName)</text>
</g>
<!-- customProperties.containsKey(RESPONSE_TIME)\n -->
<g id="node3" class="node">
<title>customProperties.containsKey(RESPONSE_TIME)\n</title>
<polygon fill="none" stroke="#ff0000" points="811.7433,-88.8 504.3235,-88.8 504.3235,-52.8 811.7433,-52.8 811.7433,-88.8"/>
<text text-anchor="middle" x="658.0334" y="-66.6" font-family="Times,serif" font-size="14.00" fill="#ff0000">customProperties.containsKey(RESPONSE_TIME)</text>
</g>
<!-- os != null\nis != null\n -->
<g id="node4" class="node">
<title>os != null\nis != null\n</title>
<polygon fill="none" stroke="#ff0000" points="898.8147,-91.4019 829.2521,-91.4019 829.2521,-50.1981 898.8147,-50.1981 898.8147,-91.4019"/>
<text text-anchor="middle" x="864.0334" y="-75" font-family="Times,serif" font-size="14.00" fill="#ff0000">os != null</text>
<text text-anchor="middle" x="864.0334" y="-58.2" font-family="Times,serif" font-size="14.00" fill="#ff0000">is != null</text>
</g>
<!-- obj instanceof ServiceDescription\nregisterID == service.getRegisterID() &amp;&amp; endpoint.equals(service.getServiceEndpoint()) &amp;&amp; type.equals(service.getServiceType())\n!opList.get(i).equals(service.getOperationList().get(i))\n!service.getCustomProperties().containsKey(key)\n!service.getCustomProperties().get(key).equals(value)\n -->
<g id="node5" class="node">
<title>obj instanceof ServiceDescription\nregisterID == service.getRegisterID() &amp;&amp; endpoint.equals(service.getServiceEndpoint()) &amp;&amp; type.equals(service.getServiceType())\n!opList.get(i).equals(service.getOperationList().get(i))\n!service.getCustomProperties().containsKey(key)\n!service.getCustomProperties().get(key).equals(value)\n</title>
<polygon fill="none" stroke="#ff0000" points="1674.5743,-116.8 917.4925,-116.8 917.4925,-24.8 1674.5743,-24.8 1674.5743,-116.8"/>
<text text-anchor="middle" x="1296.0334" y="-100.2" font-family="Times,serif" font-size="14.00" fill="#ff0000">obj instanceof ServiceDescription</text>
<text text-anchor="middle" x="1296.0334" y="-83.4" font-family="Times,serif" font-size="14.00" fill="#ff0000">registerID == service.getRegisterID() &amp;&amp; endpoint.equals(service.getServiceEndpoint()) &amp;&amp; type.equals(service.getServiceType())</text>
<text text-anchor="middle" x="1296.0334" y="-66.6" font-family="Times,serif" font-size="14.00" fill="#ff0000">!opList.get(i).equals(service.getOperationList().get(i))</text>
<text text-anchor="middle" x="1296.0334" y="-49.8" font-family="Times,serif" font-size="14.00" fill="#ff0000">!service.getCustomProperties().containsKey(key)</text>
<text text-anchor="middle" x="1296.0334" y="-33" font-family="Times,serif" font-size="14.00" fill="#ff0000">!service.getCustomProperties().get(key).equals(value)</text>
</g>
<!-- properties.containsKey(&quot;Cost&quot;)\ncost &lt; minCost\n -->
<g id="node6" class="node">
<title>properties.containsKey(&quot;Cost&quot;)\ncost &lt; minCost\n</title>
<polygon fill="none" stroke="#ff0000" points="522.9,-211.0019 331.1668,-211.0019 331.1668,-169.7981 522.9,-169.7981 522.9,-211.0019"/>
<text text-anchor="middle" x="427.0334" y="-194.6" font-family="Times,serif" font-size="14.00" fill="#ff0000">properties.containsKey(&quot;Cost&quot;)</text>
<text text-anchor="middle" x="427.0334" y="-177.8" font-family="Times,serif" font-size="14.00" fill="#ff0000">cost &lt; minCost</text>
</g>
<!-- Class: [MinCostQoS] -->
<g id="node7" class="node">
<title>Class: [MinCostQoS]</title>
<ellipse fill="none" stroke="#000000" cx="502.0334" cy="-315.6" rx="94.4161" ry="18"/>
<text text-anchor="middle" x="502.0334" y="-311.4" font-family="Times,serif" font-size="14.00" fill="#000000">Class: [MinCostQoS]</text>
</g>
<!-- Class: [MinCostQoS]&#45;&gt;properties.containsKey(&quot;Cost&quot;)\ncost &lt; minCost\n -->
<g id="edge2" class="edge">
<title>Class: [MinCostQoS]&#45;&gt;properties.containsKey(&quot;Cost&quot;)\ncost &lt; minCost\n</title>
<path fill="none" stroke="#ff0000" d="M482.9565,-297.9387C477.6118,-292.3966 472.0793,-286.0363 467.7262,-279.6 455.3355,-261.2794 445.0395,-238.5765 437.904,-220.6598"/>
<polygon fill="#ff0000" stroke="#ff0000" points="441.1401,-219.3238 434.2718,-211.2567 434.6103,-221.8462 441.1401,-219.3238"/>
<text text-anchor="middle" x="532.187" y="-250.2" font-family="Times,serif" font-size="14.00" fill="#ff0000">applyQoSRequirement</text>
</g>
<!-- Class: [ServiceDescription] -->
<g id="node8" class="node">
<title>Class: [ServiceDescription]</title>
<ellipse fill="none" stroke="#000000" cx="658.0334" cy="-190.4" rx="117.4855" ry="18"/>
<text text-anchor="middle" x="658.0334" y="-186.2" font-family="Times,serif" font-size="14.00" fill="#000000">Class: [ServiceDescription]</text>
</g>
<!-- Class: [MinCostQoS]&#45;&gt;Class: [ServiceDescription] -->
<g id="edge1" class="edge">
<title>Class: [MinCostQoS]&#45;&gt;Class: [ServiceDescription]</title>
<path fill="none" stroke="#000000" d="M557.1547,-300.7542C570.7206,-295.4743 584.6157,-288.5452 596.0334,-279.6 617.212,-263.0076 634.0398,-237.2083 644.7892,-217.6157"/>
<polygon fill="#000000" stroke="#000000" points="647.9947,-219.0406 649.5703,-208.5635 641.8051,-215.7713 647.9947,-219.0406"/>
<text text-anchor="middle" x="703.5173" y="-267" font-family="Times,serif" font-size="14.00" fill="#000000">[applyQoSRequirement</text>
<text text-anchor="middle" x="703.5173" y="-250.2" font-family="Times,serif" font-size="14.00" fill="#000000">&#45;&#45;&gt;</text>
<text text-anchor="middle" x="703.5173" y="-233.4" font-family="Times,serif" font-size="14.00" fill="#000000">getCustomProperties]</text>
</g>
<!-- Class: [ServiceDescription]&#45;&gt;opList.get(i).getOpName().equals(opName)\n -->
<g id="edge3" class="edge">
<title>Class: [ServiceDescription]&#45;&gt;opList.get(i).getOpName().equals(opName)\n</title>
<path fill="none" stroke="#ff0000" d="M578.006,-177.1609C524.1471,-168.1738 458.0959,-156.9811 430.4008,-151.6 359.2328,-137.7721 340.9783,-135.8738 271.0334,-116.8 244.6673,-109.6101 215.929,-100.4112 191.3888,-92.1318"/>
<polygon fill="#ff0000" stroke="#ff0000" points="192.4478,-88.7952 181.8534,-88.8902 190.1947,-95.4227 192.4478,-88.7952"/>
<text text-anchor="middle" x="482.3497" y="-139" font-family="Times,serif" font-size="14.00" fill="#ff0000">containsOperation</text>
</g>
<!-- Class: [ServiceDescription]&#45;&gt;op.getOpName().equals(opName)\n -->
<g id="edge4" class="edge">
<title>Class: [ServiceDescription]&#45;&gt;op.getOpName().equals(opName)\n</title>
<path fill="none" stroke="#ff0000" d="M618.9247,-173.3913C570.3838,-152.2804 487.4878,-116.2282 434.0082,-92.9694"/>
<polygon fill="#ff0000" stroke="#ff0000" points="435.2734,-89.703 424.7072,-88.9243 432.4816,-96.1222 435.2734,-89.703"/>
<text text-anchor="middle" x="598.5748" y="-139" font-family="Times,serif" font-size="14.00" fill="#ff0000">getOperation</text>
</g>
<!-- Class: [ServiceDescription]&#45;&gt;customProperties.containsKey(RESPONSE_TIME)\n -->
<g id="edge5" class="edge">
<title>Class: [ServiceDescription]&#45;&gt;customProperties.containsKey(RESPONSE_TIME)\n</title>
<path fill="none" stroke="#ff0000" d="M658.0334,-172.2353C658.0334,-152.8293 658.0334,-121.8101 658.0334,-99.1779"/>
<polygon fill="#ff0000" stroke="#ff0000" points="661.5335,-99.1356 658.0334,-89.1356 654.5335,-99.1356 661.5335,-99.1356"/>
<text text-anchor="middle" x="708.1877" y="-139" font-family="Times,serif" font-size="14.00" fill="#ff0000">getResponseTime</text>
</g>
<!-- Class: [ServiceDescription]&#45;&gt;os != null\nis != null\n -->
<g id="edge6" class="edge">
<title>Class: [ServiceDescription]&#45;&gt;os != null\nis != null\n</title>
<path fill="none" stroke="#ff0000" d="M710.9394,-174.1931C744.794,-162.0599 788.3347,-143.0266 821.0334,-116.8 827.5092,-111.6059 833.9268,-105.4458 839.7508,-99.3497"/>
<polygon fill="#ff0000" stroke="#ff0000" points="842.5627,-101.4634 846.7701,-91.7398 837.4173,-96.7173 842.5627,-101.4634"/>
<text text-anchor="middle" x="808.1933" y="-139" font-family="Times,serif" font-size="14.00" fill="#ff0000">clone</text>
</g>
<!-- Class: [ServiceDescription]&#45;&gt;obj instanceof ServiceDescription\nregisterID == service.getRegisterID() &amp;&amp; endpoint.equals(service.getServiceEndpoint()) &amp;&amp; type.equals(service.getServiceType())\n!opList.get(i).equals(service.getOperationList().get(i))\n!service.getCustomProperties().containsKey(key)\n!service.getCustomProperties().get(key).equals(value)\n -->
<g id="edge7" class="edge">
<title>Class: [ServiceDescription]&#45;&gt;obj instanceof ServiceDescription\nregisterID == service.getRegisterID() &amp;&amp; endpoint.equals(service.getServiceEndpoint()) &amp;&amp; type.equals(service.getServiceType())\n!opList.get(i).equals(service.getOperationList().get(i))\n!service.getCustomProperties().containsKey(key)\n!service.getCustomProperties().get(key).equals(value)\n</title>
<path fill="none" stroke="#ff0000" d="M732.4687,-176.4463C808.0897,-162.2703 929.5352,-139.5041 1040.3569,-118.7293"/>
<polygon fill="#ff0000" stroke="#ff0000" points="1041.1766,-122.1367 1050.3605,-116.854 1039.8868,-115.2566 1041.1766,-122.1367"/>
<text text-anchor="middle" x="955.9156" y="-139" font-family="Times,serif" font-size="14.00" fill="#ff0000">equals</text>
</g>
</g>
</svg>
