<svg width="3650pt" height="409pt"
 viewBox="0.00 0.00 3649.80 408.80" xmlns="http://www.w3.org/2000/svg" xmlns:xlink="http://www.w3.org/1999/xlink">
<g id="graph0" class="graph" transform="scale(1 1) rotate(0) translate(4 404.8)">
<title>project</title>
<polygon fill="#ffffff" stroke="transparent" points="-4,4 -4,-404.8 3645.8037,-404.8 3645.8037,4 -4,4"/>
<text text-anchor="middle" x="1820.9019" y="-8.2" font-family="Times,serif" font-size="14.00" fill="#000000">Method Calls for :application.utility.NodeVisitor</text>
<!-- token != null\nthis.children != null\ni instanceof ASTNode\n -->
<g id="node1" class="node">
<title>token != null\nthis.children != null\ni instanceof ASTNode\n</title>
<polygon fill="none" stroke="#ff0000" points="309.8689,-83.4014 168.5011,-83.4014 168.5011,-24.5986 309.8689,-24.5986 309.8689,-83.4014"/>
<text text-anchor="middle" x="239.185" y="-66.6" font-family="Times,serif" font-size="14.00" fill="#ff0000">token != null</text>
<text text-anchor="middle" x="239.185" y="-49.8" font-family="Times,serif" font-size="14.00" fill="#ff0000">this.children != null</text>
<text text-anchor="middle" x="239.185" y="-33" font-family="Times,serif" font-size="14.00" fill="#ff0000">i instanceof ASTNode</text>
</g>
<!-- this.children != null\ni instanceof ASTNode\n -->
<g id="node2" class="node">
<title>this.children != null\ni instanceof ASTNode\n</title>
<polygon fill="none" stroke="#ff0000" points="468.8689,-74.6019 327.5011,-74.6019 327.5011,-33.3981 468.8689,-33.3981 468.8689,-74.6019"/>
<text text-anchor="middle" x="398.185" y="-58.2" font-family="Times,serif" font-size="14.00" fill="#ff0000">this.children != null</text>
<text text-anchor="middle" x="398.185" y="-41.4" font-family="Times,serif" font-size="14.00" fill="#ff0000">i instanceof ASTNode</text>
</g>
<!-- getChild(i).getClass().getSimpleName().equals(name)\n -->
<g id="node3" class="node">
<title>getChild(i).getClass().getSimpleName().equals(name)\n</title>
<polygon fill="none" stroke="#ff0000" points="805.8046,-72 486.5654,-72 486.5654,-36 805.8046,-36 805.8046,-72"/>
<text text-anchor="middle" x="646.185" y="-49.8" font-family="Times,serif" font-size="14.00" fill="#ff0000">getChild(i).getClass().getSimpleName().equals(name)</text>
</g>
<!-- first != null\nparamList != null &amp;&amp; paramList.size() &gt; 0\n -->
<g id="node4" class="node">
<title>first != null\nparamList != null &amp;&amp; paramList.size() &gt; 0\n</title>
<polygon fill="none" stroke="#ff0000" points="1080.3004,-74.6019 824.0696,-74.6019 824.0696,-33.3981 1080.3004,-33.3981 1080.3004,-74.6019"/>
<text text-anchor="middle" x="952.185" y="-58.2" font-family="Times,serif" font-size="14.00" fill="#ff0000">first != null</text>
<text text-anchor="middle" x="952.185" y="-41.4" font-family="Times,serif" font-size="14.00" fill="#ff0000">paramList != null &amp;&amp; paramList.size() &gt; 0</text>
</g>
<!-- paramList != null\nresult != null\n -->
<g id="node5" class="node">
<title>paramList != null\nresult != null\n</title>
<polygon fill="none" stroke="#ff0000" points="1212.2802,-74.6019 1098.0898,-74.6019 1098.0898,-33.3981 1212.2802,-33.3981 1212.2802,-74.6019"/>
<text text-anchor="middle" x="1155.185" y="-58.2" font-family="Times,serif" font-size="14.00" fill="#ff0000">paramList != null</text>
<text text-anchor="middle" x="1155.185" y="-41.4" font-family="Times,serif" font-size="14.00" fill="#ff0000">result != null</text>
</g>
<!-- first != null\nsize() &lt;= 1 &amp;&amp; !returnList\n -->
<g id="node6" class="node">
<title>first != null\nsize() &lt;= 1 &amp;&amp; !returnList\n</title>
<polygon fill="none" stroke="#ff0000" points="1395.7071,-74.6019 1230.6629,-74.6019 1230.6629,-33.3981 1395.7071,-33.3981 1395.7071,-74.6019"/>
<text text-anchor="middle" x="1313.185" y="-58.2" font-family="Times,serif" font-size="14.00" fill="#ff0000">first != null</text>
<text text-anchor="middle" x="1313.185" y="-41.4" font-family="Times,serif" font-size="14.00" fill="#ff0000">size() &lt;= 1 &amp;&amp; !returnList</text>
</g>
<!-- first != null\n -->
<g id="node7" class="node">
<title>first != null\n</title>
<polygon fill="none" stroke="#ff0000" points="1573.0685,-72 1493.3015,-72 1493.3015,-36 1573.0685,-36 1573.0685,-72"/>
<text text-anchor="middle" x="1533.185" y="-49.8" font-family="Times,serif" font-size="14.00" fill="#ff0000">first != null</text>
</g>
<!-- size() &gt; 0\nlast != null\n -->
<g id="node8" class="node">
<title>size() &gt; 0\nlast != null\n</title>
<polygon fill="none" stroke="#ff0000" points="1824.4621,-74.6019 1747.9079,-74.6019 1747.9079,-33.3981 1824.4621,-33.3981 1824.4621,-74.6019"/>
<text text-anchor="middle" x="1786.185" y="-58.2" font-family="Times,serif" font-size="14.00" fill="#ff0000">size() &gt; 0</text>
<text text-anchor="middle" x="1786.185" y="-41.4" font-family="Times,serif" font-size="14.00" fill="#ff0000">last != null</text>
</g>
<!-- getChildCount() != 0 &amp;&amp; first != null\ngetChildCount() == 0\n -->
<g id="node9" class="node">
<title>getChildCount() != 0 &amp;&amp; first != null\ngetChildCount() == 0\n</title>
<polygon fill="none" stroke="#ff0000" points="2069.6762,-74.6019 1842.6938,-74.6019 1842.6938,-33.3981 2069.6762,-33.3981 2069.6762,-74.6019"/>
<text text-anchor="middle" x="1956.185" y="-58.2" font-family="Times,serif" font-size="14.00" fill="#ff0000">getChildCount() != 0 &amp;&amp; first != null</text>
<text text-anchor="middle" x="1956.185" y="-41.4" font-family="Times,serif" font-size="14.00" fill="#ff0000">getChildCount() == 0</text>
</g>
<!-- size() == 0\n -->
<g id="node10" class="node">
<title>size() == 0\n</title>
<polygon fill="none" stroke="#ff0000" points="2164.5599,-72 2087.8101,-72 2087.8101,-36 2164.5599,-36 2164.5599,-72"/>
<text text-anchor="middle" x="2126.185" y="-49.8" font-family="Times,serif" font-size="14.00" fill="#ff0000">size() == 0</text>
</g>
<!-- first != null\nstmntList.size() &gt; 0\n -->
<g id="node11" class="node">
<title>first != null\nstmntList.size() &gt; 0\n</title>
<polygon fill="none" stroke="#ff0000" points="2308.0606,-74.6019 2182.3094,-74.6019 2182.3094,-33.3981 2308.0606,-33.3981 2308.0606,-74.6019"/>
<text text-anchor="middle" x="2245.185" y="-58.2" font-family="Times,serif" font-size="14.00" fill="#ff0000">first != null</text>
<text text-anchor="middle" x="2245.185" y="-41.4" font-family="Times,serif" font-size="14.00" fill="#ff0000">stmntList.size() &gt; 0</text>
</g>
<!-- getChildCount() &gt; 2\n -->
<g id="node12" class="node">
<title>getChildCount() &gt; 2\n</title>
<polygon fill="none" stroke="#ff0000" points="2455.8514,-72 2326.5186,-72 2326.5186,-36 2455.8514,-36 2455.8514,-72"/>
<text text-anchor="middle" x="2391.185" y="-49.8" font-family="Times,serif" font-size="14.00" fill="#ff0000">getChildCount() &gt; 2</text>
</g>
<!-- first != null\nifStatement.size() &gt; 0\nelseStmnt != null &amp;&amp; elseStmnt.size() &gt; 0\n -->
<g id="node13" class="node">
<title>first != null\nifStatement.size() &gt; 0\nelseStmnt != null &amp;&amp; elseStmnt.size() &gt; 0\n</title>
<polygon fill="none" stroke="#ff0000" points="2726.7204,-83.4014 2473.6496,-83.4014 2473.6496,-24.5986 2726.7204,-24.5986 2726.7204,-83.4014"/>
<text text-anchor="middle" x="2600.185" y="-66.6" font-family="Times,serif" font-size="14.00" fill="#ff0000">first != null</text>
<text text-anchor="middle" x="2600.185" y="-49.8" font-family="Times,serif" font-size="14.00" fill="#ff0000">ifStatement.size() &gt; 0</text>
<text text-anchor="middle" x="2600.185" y="-33" font-family="Times,serif" font-size="14.00" fill="#ff0000">elseStmnt != null &amp;&amp; elseStmnt.size() &gt; 0</text>
</g>
<!-- elseStmnt != null\n -->
<g id="node14" class="node">
<title>elseStmnt != null\n</title>
<polygon fill="none" stroke="#ff0000" points="2857.2411,-72 2745.1289,-72 2745.1289,-36 2857.2411,-36 2857.2411,-72"/>
<text text-anchor="middle" x="2801.185" y="-49.8" font-family="Times,serif" font-size="14.00" fill="#ff0000">elseStmnt != null</text>
</g>
<!-- getExpression() != null\n -->
<g id="node15" class="node">
<title>getExpression() != null\n</title>
<polygon fill="none" stroke="#ff0000" points="3021.1554,-72 2875.2146,-72 2875.2146,-36 3021.1554,-36 3021.1554,-72"/>
<text text-anchor="middle" x="2948.185" y="-49.8" font-family="Times,serif" font-size="14.00" fill="#ff0000">getExpression() != null</text>
</g>
<!-- first != null\nexp != null\n -->
<g id="node16" class="node">
<title>first != null\nexp != null\n</title>
<polygon fill="none" stroke="#ff0000" points="3119.0685,-74.6019 3039.3015,-74.6019 3039.3015,-33.3981 3119.0685,-33.3981 3119.0685,-74.6019"/>
<text text-anchor="middle" x="3079.185" y="-58.2" font-family="Times,serif" font-size="14.00" fill="#ff0000">first != null</text>
<text text-anchor="middle" x="3079.185" y="-41.4" font-family="Times,serif" font-size="14.00" fill="#ff0000">exp != null</text>
</g>
<!-- first != null\nleftExpression instanceof VarRef\n -->
<g id="node17" class="node">
<title>first != null\nleftExpression instanceof VarRef\n</title>
<polygon fill="none" stroke="#ff0000" points="3339.2732,-74.6019 3137.0968,-74.6019 3137.0968,-33.3981 3339.2732,-33.3981 3339.2732,-74.6019"/>
<text text-anchor="middle" x="3238.185" y="-58.2" font-family="Times,serif" font-size="14.00" fill="#ff0000">first != null</text>
<text text-anchor="middle" x="3238.185" y="-41.4" font-family="Times,serif" font-size="14.00" fill="#ff0000">leftExpression instanceof VarRef</text>
</g>
<!-- last != null\n -->
<g id="node18" class="node">
<title>last != null\n</title>
<polygon fill="none" stroke="#ff0000" points="3434.4621,-72 3357.9079,-72 3357.9079,-36 3434.4621,-36 3434.4621,-72"/>
<text text-anchor="middle" x="3396.185" y="-49.8" font-family="Times,serif" font-size="14.00" fill="#ff0000">last != null</text>
</g>
<!-- first != null\nargs != null &amp;&amp; args.size() &gt; 0\n -->
<g id="node19" class="node">
<title>first != null\nargs != null &amp;&amp; args.size() &gt; 0\n</title>
<polygon fill="none" stroke="#ff0000" points="3641.9225,-74.6019 3452.4475,-74.6019 3452.4475,-33.3981 3641.9225,-33.3981 3641.9225,-74.6019"/>
<text text-anchor="middle" x="3547.185" y="-58.2" font-family="Times,serif" font-size="14.00" fill="#ff0000">first != null</text>
<text text-anchor="middle" x="3547.185" y="-41.4" font-family="Times,serif" font-size="14.00" fill="#ff0000">args != null &amp;&amp; args.size() &gt; 0</text>
</g>
<!-- node != null &amp;&amp; node.getType() != rspParser.RETURN\nifNode.getExpression() instanceof BinaryOperator\n!ifElseNodes.containsKey(currentScope)\nifNode.getElseStatement() != null\n!service.equals(&quot;this&quot;)\n!instanceNodes.containsKey(service)\n!ifElseNodes.containsKey(currentScope)\nnode.getChildCount() != 0\n -->
<g id="node20" class="node">
<title>node != null &amp;&amp; node.getType() != rspParser.RETURN\nifNode.getExpression() instanceof BinaryOperator\n!ifElseNodes.containsKey(currentScope)\nifNode.getElseStatement() != null\n!service.equals(&quot;this&quot;)\n!instanceNodes.containsKey(service)\n!ifElseNodes.containsKey(currentScope)\nnode.getChildCount() != 0\n</title>
<polygon fill="none" stroke="#ff0000" points="330.5552,-278.6006 -.1852,-278.6006 -.1852,-135.7994 330.5552,-135.7994 330.5552,-278.6006"/>
<text text-anchor="middle" x="165.185" y="-261.8" font-family="Times,serif" font-size="14.00" fill="#ff0000">node != null &amp;&amp; node.getType() != rspParser.RETURN</text>
<text text-anchor="middle" x="165.185" y="-245" font-family="Times,serif" font-size="14.00" fill="#ff0000">ifNode.getExpression() instanceof BinaryOperator</text>
<text text-anchor="middle" x="165.185" y="-228.2" font-family="Times,serif" font-size="14.00" fill="#ff0000">!ifElseNodes.containsKey(currentScope)</text>
<text text-anchor="middle" x="165.185" y="-211.4" font-family="Times,serif" font-size="14.00" fill="#ff0000">ifNode.getElseStatement() != null</text>
<text text-anchor="middle" x="165.185" y="-194.6" font-family="Times,serif" font-size="14.00" fill="#ff0000">!service.equals(&quot;this&quot;)</text>
<text text-anchor="middle" x="165.185" y="-177.8" font-family="Times,serif" font-size="14.00" fill="#ff0000">!instanceNodes.containsKey(service)</text>
<text text-anchor="middle" x="165.185" y="-161" font-family="Times,serif" font-size="14.00" fill="#ff0000">!ifElseNodes.containsKey(currentScope)</text>
<text text-anchor="middle" x="165.185" y="-144.2" font-family="Times,serif" font-size="14.00" fill="#ff0000">node.getChildCount() != 0</text>
</g>
<!-- Class: [NodeVisitor] -->
<g id="node21" class="node">
<title>Class: [NodeVisitor]</title>
<ellipse fill="none" stroke="#000000" cx="1147.185" cy="-382.8" rx="91.4445" ry="18"/>
<text text-anchor="middle" x="1147.185" y="-378.6" font-family="Times,serif" font-size="14.00" fill="#000000">Class: [NodeVisitor]</text>
</g>
<!-- Class: [NodeVisitor]&#45;&gt;node != null &amp;&amp; node.getType() != rspParser.RETURN\nifNode.getExpression() instanceof BinaryOperator\n!ifElseNodes.containsKey(currentScope)\nifNode.getElseStatement() != null\n!service.equals(&quot;this&quot;)\n!instanceNodes.containsKey(service)\n!ifElseNodes.containsKey(currentScope)\nnode.getChildCount() != 0\n -->
<g id="edge15" class="edge">
<title>Class: [NodeVisitor]&#45;&gt;node != null &amp;&amp; node.getType() != rspParser.RETURN\nifNode.getExpression() instanceof BinaryOperator\n!ifElseNodes.containsKey(currentScope)\nifNode.getElseStatement() != null\n!service.equals(&quot;this&quot;)\n!instanceNodes.containsKey(service)\n!ifElseNodes.containsKey(currentScope)\nnode.getChildCount() != 0\n</title>
<path fill="none" stroke="#ff0000" d="M1056.1334,-381.0262C817.4308,-376.1688 190.786,-361.9969 175.0686,-346.8 159.5372,-331.7828 153.6026,-310.356 152.472,-288.7838"/>
<polygon fill="#ff0000" stroke="#ff0000" points="155.9669,-288.4802 152.2772,-278.5486 148.9682,-288.6134 155.9669,-288.4802"/>
<text text-anchor="middle" x="187.2432" y="-317.4" font-family="Times,serif" font-size="14.00" fill="#ff0000">visit</text>
</g>
<!-- Class: [Node] -->
<g id="node22" class="node">
<title>Class: [Node]</title>
<ellipse fill="none" stroke="#000000" cx="564.185" cy="-207.2" rx="64.3017" ry="18"/>
<text text-anchor="middle" x="564.185" y="-203" font-family="Times,serif" font-size="14.00" fill="#000000">Class: [Node]</text>
</g>
<!-- Class: [NodeVisitor]&#45;&gt;Class: [Node] -->
<g id="edge1" class="edge">
<title>Class: [NodeVisitor]&#45;&gt;Class: [Node]</title>
<path fill="none" stroke="#000000" d="M1056.3291,-380.9479C824.4735,-376.0067 228.0241,-361.8588 213.5348,-346.8 198.0037,-330.6586 198.8616,-313.325 213.5348,-296.4 232.0121,-275.0871 311.6848,-284.6762 339.185,-278.4 401.1463,-264.259 470.6282,-241.1137 515.7677,-225.068"/>
<polygon fill="#000000" stroke="#000000" points="517.0625,-228.322 525.2982,-221.6569 514.7037,-221.7314 517.0625,-228.322"/>
<text text-anchor="middle" x="289.0101" y="-334.2" font-family="Times,serif" font-size="14.00" fill="#000000">[setCanvasPane</text>
<text text-anchor="middle" x="289.0101" y="-317.4" font-family="Times,serif" font-size="14.00" fill="#000000">&#45;&#45;&gt;</text>
<text text-anchor="middle" x="289.0101" y="-300.6" font-family="Times,serif" font-size="14.00" fill="#000000">InstanceNode.getCenterY]</text>
</g>
<!-- Class: [NodeVisitor]&#45;&gt;Class: [Node] -->
<g id="edge2" class="edge">
<title>Class: [NodeVisitor]&#45;&gt;Class: [Node]</title>
<path fill="none" stroke="#000000" d="M1056.0559,-381.8054C859.0064,-379.2072 409.0957,-370.6786 386.3202,-346.8 338.0952,-296.2393 442.9183,-248.5 511.2754,-224.1017"/>
<polygon fill="#000000" stroke="#000000" points="512.7905,-227.2797 521.0737,-220.6738 510.4789,-220.6724 512.7905,-227.2797"/>
<text text-anchor="middle" x="465.1174" y="-334.2" font-family="Times,serif" font-size="14.00" fill="#000000">[visit</text>
<text text-anchor="middle" x="465.1174" y="-317.4" font-family="Times,serif" font-size="14.00" fill="#000000">&#45;&#45;&gt;</text>
<text text-anchor="middle" x="465.1174" y="-300.6" font-family="Times,serif" font-size="14.00" fill="#000000">IfElseNode.addIfElseNode]</text>
</g>
<!-- Class: [NodeVisitor]&#45;&gt;Class: [Node] -->
<g id="edge3" class="edge">
<title>Class: [NodeVisitor]&#45;&gt;Class: [Node]</title>
<path fill="none" stroke="#000000" d="M1056.5036,-380.4088C896.9807,-375.7571 581.3357,-364.3785 564.7438,-346.8 536.9436,-317.3468 545.1996,-266.861 554.2849,-235.3519"/>
<polygon fill="#000000" stroke="#000000" points="557.7358,-236.0392 557.3469,-225.4515 551.0484,-233.9708 557.7358,-236.0392"/>
<text text-anchor="middle" x="626.4056" y="-334.2" font-family="Times,serif" font-size="14.00" fill="#000000">[visit</text>
<text text-anchor="middle" x="626.4056" y="-317.4" font-family="Times,serif" font-size="14.00" fill="#000000">&#45;&#45;&gt;</text>
<text text-anchor="middle" x="626.4056" y="-300.6" font-family="Times,serif" font-size="14.00" fill="#000000">IfElseNode.addNode]</text>
</g>
<!-- Class: [NodeVisitor]&#45;&gt;Class: [Node] -->
<g id="edge4" class="edge">
<title>Class: [NodeVisitor]&#45;&gt;Class: [Node]</title>
<path fill="none" stroke="#000000" d="M1056.882,-380.2074C937.1571,-376.0351 737.7006,-366.2498 710.0706,-346.8 689.9538,-332.639 702.7456,-315.4547 687.185,-296.4 663.9501,-267.9478 629.5968,-244.0551 603.0968,-228.1806"/>
<polygon fill="#000000" stroke="#000000" points="604.8361,-225.1432 594.4383,-223.1095 601.2984,-231.1835 604.8361,-225.1432"/>
<text text-anchor="middle" x="780.7422" y="-334.2" font-family="Times,serif" font-size="14.00" fill="#000000">[visit</text>
<text text-anchor="middle" x="780.7422" y="-317.4" font-family="Times,serif" font-size="14.00" fill="#000000">&#45;&#45;&gt;</text>
<text text-anchor="middle" x="780.7422" y="-300.6" font-family="Times,serif" font-size="14.00" fill="#000000">IfElseNode.addSubPane]</text>
</g>
<!-- Class: [NodeVisitor]&#45;&gt;Class: [Node] -->
<g id="edge5" class="edge">
<title>Class: [NodeVisitor]&#45;&gt;Class: [Node]</title>
<path fill="none" stroke="#000000" d="M1062.8142,-375.7611C988.4435,-368.8924 889.6079,-357.8852 874.5348,-346.8 854.6469,-332.1738 869.7589,-312.6624 851.185,-296.4 790.9115,-243.6276 699.7021,-222.0704 636.3448,-213.2681"/>
<polygon fill="#000000" stroke="#000000" points="636.7958,-209.7973 626.4244,-211.9621 635.882,-216.7375 636.7958,-209.7973"/>
<text text-anchor="middle" x="950.0101" y="-334.2" font-family="Times,serif" font-size="14.00" fill="#000000">[visit</text>
<text text-anchor="middle" x="950.0101" y="-317.4" font-family="Times,serif" font-size="14.00" fill="#000000">&#45;&#45;&gt;</text>
<text text-anchor="middle" x="950.0101" y="-300.6" font-family="Times,serif" font-size="14.00" fill="#000000">InstanceNode.getCenterX]</text>
</g>
<!-- Class: [ASTNode] -->
<g id="node23" class="node">
<title>Class: [ASTNode]</title>
<ellipse fill="none" stroke="#000000" cx="1797.185" cy="-207.2" rx="82.7799" ry="18"/>
<text text-anchor="middle" x="1797.185" y="-203" font-family="Times,serif" font-size="14.00" fill="#000000">Class: [ASTNode]</text>
</g>
<!-- Class: [NodeVisitor]&#45;&gt;Class: [ASTNode] -->
<g id="edge6" class="edge">
<title>Class: [NodeVisitor]&#45;&gt;Class: [ASTNode]</title>
<path fill="none" stroke="#000000" d="M1090.6785,-368.6273C1071.1533,-362.5012 1052.7253,-354.8856 1047.0398,-346.8 1034.1553,-328.4765 1032.1651,-313.1482 1047.0398,-296.4 1090.1458,-247.8645 1515.2393,-221.0502 1705.7043,-211.3892"/>
<polygon fill="#000000" stroke="#000000" points="1706.1633,-214.8706 1715.9751,-210.8733 1705.8121,-207.8795 1706.1633,-214.8706"/>
<text text-anchor="middle" x="1086.2576" y="-334.2" font-family="Times,serif" font-size="14.00" fill="#000000">[visit</text>
<text text-anchor="middle" x="1086.2576" y="-317.4" font-family="Times,serif" font-size="14.00" fill="#000000">&#45;&#45;&gt;</text>
<text text-anchor="middle" x="1086.2576" y="-300.6" font-family="Times,serif" font-size="14.00" fill="#000000">ASTList.size]</text>
</g>
<!-- Class: [NodeVisitor]&#45;&gt;Class: [ASTNode] -->
<g id="edge7" class="edge">
<title>Class: [NodeVisitor]&#45;&gt;Class: [ASTNode]</title>
<path fill="none" stroke="#000000" d="M1141.1831,-364.4911C1136.0956,-345.1162 1131.9427,-314.8453 1148.222,-296.4 1184.7041,-255.0638 1538.2722,-225.1697 1707.6245,-213.1009"/>
<polygon fill="#000000" stroke="#000000" points="1708.0403,-216.5804 1717.7685,-212.3837 1707.5465,-209.5978 1708.0403,-216.5804"/>
<text text-anchor="middle" x="1263.6665" y="-334.2" font-family="Times,serif" font-size="14.00" fill="#000000">[visit</text>
<text text-anchor="middle" x="1263.6665" y="-317.4" font-family="Times,serif" font-size="14.00" fill="#000000">&#45;&#45;&gt;</text>
<text text-anchor="middle" x="1263.6665" y="-300.6" font-family="Times,serif" font-size="14.00" fill="#000000">BinaryOperator.getLeftHandExpression]</text>
</g>
<!-- Class: [NodeVisitor]&#45;&gt;Class: [ASTNode] -->
<g id="edge8" class="edge">
<title>Class: [NodeVisitor]&#45;&gt;Class: [ASTNode]</title>
<path fill="none" stroke="#000000" d="M1234.5533,-377.6202C1289.837,-372.7588 1354.934,-363.611 1377.185,-346.8 1396.8658,-331.9309 1381.2422,-311.9092 1400.4226,-296.4 1447.9743,-257.9498 1612.8497,-230.692 1714.4922,-217.0856"/>
<polygon fill="#000000" stroke="#000000" points="1714.9742,-220.5524 1724.4292,-215.7719 1714.0567,-213.6128 1714.9742,-220.5524"/>
<text text-anchor="middle" x="1519.5662" y="-334.2" font-family="Times,serif" font-size="14.00" fill="#000000">[visit</text>
<text text-anchor="middle" x="1519.5662" y="-317.4" font-family="Times,serif" font-size="14.00" fill="#000000">&#45;&#45;&gt;</text>
<text text-anchor="middle" x="1519.5662" y="-300.6" font-family="Times,serif" font-size="14.00" fill="#000000">BinaryOperator.getRightHandExpression]</text>
</g>
<!-- Class: [NodeVisitor]&#45;&gt;Class: [ASTNode] -->
<g id="edge9" class="edge">
<title>Class: [NodeVisitor]&#45;&gt;Class: [ASTNode]</title>
<path fill="none" stroke="#000000" d="M1238.0706,-381.058C1370.7512,-377.7762 1605.2492,-368.9012 1637.185,-346.8 1657.4807,-332.7543 1644.3625,-315.0697 1660.5068,-296.4 1685.7599,-267.1966 1722.8498,-243.8111 1752.0228,-228.3231"/>
<polygon fill="#000000" stroke="#000000" points="1753.9212,-231.2816 1761.1913,-223.5747 1750.7019,-225.0657 1753.9212,-231.2816"/>
<text text-anchor="middle" x="1718.5241" y="-334.2" font-family="Times,serif" font-size="14.00" fill="#000000">[visit</text>
<text text-anchor="middle" x="1718.5241" y="-317.4" font-family="Times,serif" font-size="14.00" fill="#000000">&#45;&#45;&gt;</text>
<text text-anchor="middle" x="1718.5241" y="-300.6" font-family="Times,serif" font-size="14.00" fill="#000000">If.getElseStatement]</text>
</g>
<!-- Class: [NodeVisitor]&#45;&gt;Class: [ASTNode] -->
<g id="edge10" class="edge">
<title>Class: [NodeVisitor]&#45;&gt;Class: [ASTNode]</title>
<path fill="none" stroke="#000000" d="M1238.0299,-380.572C1407.2841,-376.0102 1755.6182,-364.5188 1775.185,-346.8 1791.1997,-332.2978 1795.5918,-271.68 1796.7735,-235.2605"/>
<polygon fill="#000000" stroke="#000000" points="1800.2726,-235.3393 1797.0377,-225.2504 1793.275,-235.1545 1800.2726,-235.3393"/>
<text text-anchor="middle" x="1840.5823" y="-334.2" font-family="Times,serif" font-size="14.00" fill="#000000">[visit</text>
<text text-anchor="middle" x="1840.5823" y="-317.4" font-family="Times,serif" font-size="14.00" fill="#000000">&#45;&#45;&gt;</text>
<text text-anchor="middle" x="1840.5823" y="-300.6" font-family="Times,serif" font-size="14.00" fill="#000000">If.getExpression]</text>
</g>
<!-- Class: [NodeVisitor]&#45;&gt;Class: [ASTNode] -->
<g id="edge11" class="edge">
<title>Class: [NodeVisitor]&#45;&gt;Class: [ASTNode]</title>
<path fill="none" stroke="#000000" d="M1238.3571,-381.7134C1432.4961,-378.9516 1870.9344,-370.1503 1893.185,-346.8 1928.2309,-310.0221 1872.2912,-259.3273 1832.184,-230.2346"/>
<polygon fill="#000000" stroke="#000000" points="1834.087,-227.2935 1823.9042,-224.3672 1830.0396,-233.0048 1834.087,-227.2935"/>
<text text-anchor="middle" x="1954.1335" y="-334.2" font-family="Times,serif" font-size="14.00" fill="#000000">[visit</text>
<text text-anchor="middle" x="1954.1335" y="-317.4" font-family="Times,serif" font-size="14.00" fill="#000000">&#45;&#45;&gt;</text>
<text text-anchor="middle" x="1954.1335" y="-300.6" font-family="Times,serif" font-size="14.00" fill="#000000">If.getIfStatement]</text>
</g>
<!-- Class: [NodeVisitor]&#45;&gt;Class: [ASTNode] -->
<g id="edge12" class="edge">
<title>Class: [NodeVisitor]&#45;&gt;Class: [ASTNode]</title>
<path fill="none" stroke="#000000" d="M1238.4388,-382.3387C1454.6118,-380.7979 1981.8751,-374.233 2008.185,-346.8 2061.5406,-291.1669 1942.5851,-246.2054 1862.4912,-223.4286"/>
<polygon fill="#000000" stroke="#000000" points="1863.0167,-219.9417 1852.4442,-220.6288 1861.1375,-226.6848 1863.0167,-219.9417"/>
<text text-anchor="middle" x="2096.8025" y="-334.2" font-family="Times,serif" font-size="14.00" fill="#000000">[visit</text>
<text text-anchor="middle" x="2096.8025" y="-317.4" font-family="Times,serif" font-size="14.00" fill="#000000">&#45;&#45;&gt;</text>
<text text-anchor="middle" x="2096.8025" y="-300.6" font-family="Times,serif" font-size="14.00" fill="#000000">MethodRef.getArguments]</text>
</g>
<!-- Class: [NodeVisitor]&#45;&gt;Class: [ASTNode] -->
<g id="edge13" class="edge">
<title>Class: [NodeVisitor]&#45;&gt;Class: [ASTNode]</title>
<path fill="none" stroke="#000000" d="M1238.1982,-381.2803C1486.8033,-376.9144 2159.9944,-363.5669 2176.185,-346.8 2266.5301,-253.2388 2026.9958,-221.971 1888.1785,-211.8443"/>
<polygon fill="#000000" stroke="#000000" points="1888.1742,-208.3354 1877.9527,-211.1231 1887.6817,-215.3181 1888.1742,-208.3354"/>
<text text-anchor="middle" x="2284.4007" y="-334.2" font-family="Times,serif" font-size="14.00" fill="#000000">[visit</text>
<text text-anchor="middle" x="2284.4007" y="-317.4" font-family="Times,serif" font-size="14.00" fill="#000000">&#45;&#45;&gt;</text>
<text text-anchor="middle" x="2284.4007" y="-300.6" font-family="Times,serif" font-size="14.00" fill="#000000">MethodRef.getOperationName]</text>
</g>
<!-- Class: [NodeVisitor]&#45;&gt;Class: [ASTNode] -->
<g id="edge14" class="edge">
<title>Class: [NodeVisitor]&#45;&gt;Class: [ASTNode]</title>
<path fill="none" stroke="#000000" d="M1238.4533,-381.8153C1520.013,-378.5624 2357.3829,-367.1901 2377.185,-346.8 2392.7908,-330.7308 2391.7708,-313.4004 2377.185,-296.4 2345.5716,-259.5529 2039.4601,-228.1229 1885.1663,-214.4723"/>
<polygon fill="#000000" stroke="#000000" points="1885.0442,-210.9482 1874.7763,-213.5597 1884.4317,-217.9213 1885.0442,-210.9482"/>
<text text-anchor="middle" x="2470.4007" y="-334.2" font-family="Times,serif" font-size="14.00" fill="#000000">[visit</text>
<text text-anchor="middle" x="2470.4007" y="-317.4" font-family="Times,serif" font-size="14.00" fill="#000000">&#45;&#45;&gt;</text>
<text text-anchor="middle" x="2470.4007" y="-300.6" font-family="Times,serif" font-size="14.00" fill="#000000">MethodRef.getServiceName]</text>
</g>
<!-- Class: [ASTNode]&#45;&gt;token != null\nthis.children != null\ni instanceof ASTNode\n -->
<g id="edge16" class="edge">
<title>Class: [ASTNode]&#45;&gt;token != null\nthis.children != null\ni instanceof ASTNode\n</title>
<path fill="none" stroke="#ff0000" d="M1715.1947,-204.476C1511.5822,-197.0638 966.7544,-173.2657 515.7432,-118 430.3607,-107.5375 405.9452,-106.5421 319.7255,-83.4856"/>
<polygon fill="#ff0000" stroke="#ff0000" points="320.615,-80.1006 310.0486,-80.8759 318.7923,-86.8591 320.615,-80.1006"/>
<text text-anchor="middle" x="529.4059" y="-105.4" font-family="Times,serif" font-size="14.00" fill="#ff0000">print</text>
</g>
<!-- Class: [ASTNode]&#45;&gt;this.children != null\ni instanceof ASTNode\n -->
<g id="edge17" class="edge">
<title>Class: [ASTNode]&#45;&gt;this.children != null\ni instanceof ASTNode\n</title>
<path fill="none" stroke="#ff0000" d="M1715.1123,-204.8067C1524.648,-198.401 1038.2019,-177.1402 636.199,-118 564.6239,-107.4703 546.6173,-103.523 477.185,-83.2 471.8348,-81.634 466.326,-79.8868 460.8245,-78.0471"/>
<polygon fill="#ff0000" stroke="#ff0000" points="461.5604,-74.5989 450.9657,-74.6549 459.2828,-81.2181 461.5604,-74.5989"/>
<text text-anchor="middle" x="682.678" y="-105.4" font-family="Times,serif" font-size="14.00" fill="#ff0000">setSymbolTable</text>
</g>
<!-- Class: [ASTNode]&#45;&gt;getChild(i).getClass().getSimpleName().equals(name)\n -->
<g id="edge18" class="edge">
<title>Class: [ASTNode]&#45;&gt;getChild(i).getClass().getSimpleName().equals(name)\n</title>
<path fill="none" stroke="#ff0000" d="M1715.6179,-204.0177C1505.7669,-195.2037 951.2956,-167.7785 774.6268,-118 742.1637,-108.8532 708.1169,-91.4833 683.2392,-77.145"/>
<polygon fill="#ff0000" stroke="#ff0000" points="684.9044,-74.0641 674.5085,-72.0205 681.361,-80.101 684.9044,-74.0641"/>
<text text-anchor="middle" x="796.9641" y="-105.4" font-family="Times,serif" font-size="14.00" fill="#ff0000">isExists</text>
</g>
<!-- Class: [ASTNode]&#45;&gt;getChild(i).getClass().getSimpleName().equals(name)\n -->
<g id="edge19" class="edge">
<title>Class: [ASTNode]&#45;&gt;getChild(i).getClass().getSimpleName().equals(name)\n</title>
<path fill="none" stroke="#ff0000" d="M1717.4648,-202.436C1563.2117,-192.475 1213.4836,-166.2691 922.7586,-118 854.6481,-106.6916 778.2602,-88.5947 723.0499,-74.5252"/>
<polygon fill="#ff0000" stroke="#ff0000" points="723.8965,-71.1291 713.3406,-72.0369 722.1586,-77.91 723.8965,-71.1291"/>
<text text-anchor="middle" x="946.8982" y="-105.4" font-family="Times,serif" font-size="14.00" fill="#ff0000">getNode</text>
</g>
<!-- Class: [ASTNode]&#45;&gt;first != null\nparamList != null &amp;&amp; paramList.size() &gt; 0\n -->
<g id="edge20" class="edge">
<title>Class: [ASTNode]&#45;&gt;first != null\nparamList != null &amp;&amp; paramList.size() &gt; 0\n</title>
<path fill="none" stroke="#ff0000" d="M1717.3995,-202.3485C1525.9574,-190.1464 1051.9013,-156.3979 991.4108,-118 978.9608,-110.097 969.8531,-96.6763 963.5655,-84.1598"/>
<polygon fill="#ff0000" stroke="#ff0000" points="966.6533,-82.4969 959.2984,-74.8709 960.2924,-85.4191 966.6533,-82.4969"/>
<text text-anchor="middle" x="1013.5721" y="-105.4" font-family="Times,serif" font-size="14.00" fill="#ff0000">getFirst</text>
</g>
<!-- Class: [ASTNode]&#45;&gt;paramList != null\nresult != null\n -->
<g id="edge21" class="edge">
<title>Class: [ASTNode]&#45;&gt;paramList != null\nresult != null\n</title>
<path fill="none" stroke="#ff0000" d="M1716.0017,-203.6118C1529.9289,-194.5567 1085.1994,-167.8703 1040.8652,-118 1035.9043,-112.4196 1036.6055,-107.3324 1040.8652,-101.2 1053.9392,-82.378 1067.9589,-91.84 1089.185,-83.2 1092.8025,-81.7275 1096.5176,-80.1807 1100.2529,-78.5994"/>
<polygon fill="#ff0000" stroke="#ff0000" points="1101.723,-81.7774 1109.5354,-74.6207 1098.9652,-75.3435 1101.723,-81.7774"/>
<text text-anchor="middle" x="1056.3449" y="-105.4" font-family="Times,serif" font-size="14.00" fill="#ff0000">clone</text>
</g>
<!-- Class: [ASTNode]&#45;&gt;first != null\nsize() &lt;= 1 &amp;&amp; !returnList\n -->
<g id="edge22" class="edge">
<title>Class: [ASTNode]&#45;&gt;first != null\nsize() &lt;= 1 &amp;&amp; !returnList\n</title>
<path fill="none" stroke="#ff0000" d="M1720.6415,-200.287C1541.6403,-183.7573 1109.2025,-141.5724 1088.4108,-118 1057.4888,-82.9426 1066.7819,-117.8963 1221.185,-83.2 1228.4606,-81.5651 1235.9867,-79.6162 1243.4564,-77.512"/>
<polygon fill="#ff0000" stroke="#ff0000" points="1244.595,-80.8259 1253.2177,-74.6696 1242.6379,-74.105 1244.595,-80.8259"/>
<text text-anchor="middle" x="1110.5721" y="-105.4" font-family="Times,serif" font-size="14.00" fill="#ff0000">getFirst</text>
</g>
<!-- Class: [ASTNode]&#45;&gt;first != null\n -->
<g id="edge23" class="edge">
<title>Class: [ASTNode]&#45;&gt;first != null\n</title>
<path fill="none" stroke="#ff0000" d="M1717.483,-202.2064C1550.4696,-190.9296 1176.0475,-161.0763 1138.4108,-118 1133.498,-112.3772 1133.3119,-106.6546 1138.4108,-101.2 1158.6988,-79.497 1375.7914,-87.5171 1405.185,-83.2 1431.2316,-79.3745 1459.8304,-73.0571 1483.3765,-67.275"/>
<polygon fill="#ff0000" stroke="#ff0000" points="1484.2817,-70.6565 1493.1362,-64.8386 1482.5861,-63.865 1484.2817,-70.6565"/>
<text text-anchor="middle" x="1160.5721" y="-105.4" font-family="Times,serif" font-size="14.00" fill="#ff0000">getFirst</text>
</g>
<!-- Class: [ASTNode]&#45;&gt;first != null\n -->
<g id="edge24" class="edge">
<title>Class: [ASTNode]&#45;&gt;first != null\n</title>
<path fill="none" stroke="#ff0000" d="M1719.3659,-201.0927C1566.2176,-188.2824 1237.615,-156.5746 1204.4108,-118 1199.5397,-112.3411 1199.3723,-106.7104 1204.4108,-101.2 1219.5247,-84.6704 1383.0622,-86.6987 1405.185,-83.2 1431.1879,-79.0877 1459.7824,-72.7422 1483.337,-67.0158"/>
<polygon fill="#ff0000" stroke="#ff0000" points="1484.2299,-70.4005 1493.101,-64.6078 1482.5538,-63.6042 1484.2299,-70.4005"/>
<text text-anchor="middle" x="1226.5721" y="-105.4" font-family="Times,serif" font-size="14.00" fill="#ff0000">getFirst</text>
</g>
<!-- Class: [ASTNode]&#45;&gt;first != null\n -->
<g id="edge25" class="edge">
<title>Class: [ASTNode]&#45;&gt;first != null\n</title>
<path fill="none" stroke="#ff0000" d="M1721.6188,-199.7798C1582.9267,-185.3955 1299.2387,-152.1197 1270.4108,-118 1265.5919,-112.2965 1265.4929,-106.8183 1270.4108,-101.2 1290.3122,-78.464 1375.4495,-88.5658 1405.185,-83.2 1431.0926,-78.525 1459.6778,-72.1246 1483.2509,-66.5073"/>
<polygon fill="#ff0000" stroke="#ff0000" points="1484.1209,-69.898 1493.0243,-64.1552 1482.483,-63.0923 1484.1209,-69.898"/>
<text text-anchor="middle" x="1292.5721" y="-105.4" font-family="Times,serif" font-size="14.00" fill="#ff0000">getFirst</text>
</g>
<!-- Class: [ASTNode]&#45;&gt;first != null\n -->
<g id="edge32" class="edge">
<title>Class: [ASTNode]&#45;&gt;first != null\n</title>
<path fill="none" stroke="#ff0000" d="M1716.2591,-203.5166C1597.1654,-196.2085 1383.661,-175.2745 1336.4108,-118 1331.6592,-112.2404 1331.7876,-107.0632 1336.4108,-101.2 1337.5747,-99.7239 1425.2046,-79.1084 1483.1183,-65.6156"/>
<polygon fill="#ff0000" stroke="#ff0000" points="1484.2574,-68.9441 1493.2034,-63.268 1482.6703,-62.1264 1484.2574,-68.9441"/>
<text text-anchor="middle" x="1358.5721" y="-105.4" font-family="Times,serif" font-size="14.00" fill="#ff0000">getFirst</text>
</g>
<!-- Class: [ASTNode]&#45;&gt;first != null\n -->
<g id="edge36" class="edge">
<title>Class: [ASTNode]&#45;&gt;first != null\n</title>
<path fill="none" stroke="#ff0000" d="M1719.5727,-200.9229C1616.0749,-190.7573 1441.3448,-166.7127 1402.4108,-118 1376.8283,-85.9921 1436.0817,-68.8583 1482.9885,-60.5956"/>
<polygon fill="#ff0000" stroke="#ff0000" points="1483.786,-64.0111 1493.0761,-58.9177 1482.6373,-57.106 1483.786,-64.0111"/>
<text text-anchor="middle" x="1424.5721" y="-105.4" font-family="Times,serif" font-size="14.00" fill="#ff0000">getFirst</text>
</g>
<!-- Class: [ASTNode]&#45;&gt;first != null\n -->
<g id="edge40" class="edge">
<title>Class: [ASTNode]&#45;&gt;first != null\n</title>
<path fill="none" stroke="#ff0000" d="M1726.0928,-198.0208C1639.1112,-185.1617 1499.5352,-158.6939 1468.4108,-118 1457.2685,-103.4319 1469.5284,-88.9237 1486.2679,-77.4132"/>
<polygon fill="#ff0000" stroke="#ff0000" points="1488.1988,-80.3331 1494.7623,-72.0162 1484.4449,-74.4247 1488.1988,-80.3331"/>
<text text-anchor="middle" x="1490.5721" y="-105.4" font-family="Times,serif" font-size="14.00" fill="#ff0000">getFirst</text>
</g>
<!-- Class: [ASTNode]&#45;&gt;first != null\n -->
<g id="edge42" class="edge">
<title>Class: [ASTNode]&#45;&gt;first != null\n</title>
<path fill="none" stroke="#ff0000" d="M1736.3274,-194.9555C1666.5283,-179.5453 1558.5813,-151.0567 1534.4108,-118 1527.0039,-107.8699 1525.8928,-94.2241 1526.9646,-82.1352"/>
<polygon fill="#ff0000" stroke="#ff0000" points="1530.4577,-82.426 1528.365,-72.0399 1523.5241,-81.4641 1530.4577,-82.426"/>
<text text-anchor="middle" x="1556.5721" y="-105.4" font-family="Times,serif" font-size="14.00" fill="#ff0000">getFirst</text>
</g>
<!-- Class: [ASTNode]&#45;&gt;first != null\n -->
<g id="edge43" class="edge">
<title>Class: [ASTNode]&#45;&gt;first != null\n</title>
<path fill="none" stroke="#ff0000" d="M1752.7751,-191.9746C1711.3836,-176.6783 1648.9268,-150.7104 1600.4108,-118 1584.2563,-107.1083 1568.3657,-92.229 1556.0932,-79.5582"/>
<polygon fill="#ff0000" stroke="#ff0000" points="1558.3652,-76.8669 1548.9494,-72.0096 1553.281,-81.6785 1558.3652,-76.8669"/>
<text text-anchor="middle" x="1622.5721" y="-105.4" font-family="Times,serif" font-size="14.00" fill="#ff0000">getFirst</text>
</g>
<!-- Class: [ASTNode]&#45;&gt;first != null\n -->
<g id="edge45" class="edge">
<title>Class: [ASTNode]&#45;&gt;first != null\n</title>
<path fill="none" stroke="#ff0000" d="M1771.4817,-189.9735C1745.0063,-172.1581 1702.6163,-143.4349 1666.4108,-118 1655.9861,-110.6765 1654.2676,-107.4834 1643.185,-101.2 1624.0858,-90.3715 1602.016,-80.4417 1582.6803,-72.5132"/>
<polygon fill="#ff0000" stroke="#ff0000" points="1583.7252,-69.1609 1573.1417,-68.6713 1581.1099,-75.654 1583.7252,-69.1609"/>
<text text-anchor="middle" x="1688.5721" y="-105.4" font-family="Times,serif" font-size="14.00" fill="#ff0000">getFirst</text>
</g>
<!-- Class: [ASTNode]&#45;&gt;first != null\n -->
<g id="edge46" class="edge">
<title>Class: [ASTNode]&#45;&gt;first != null\n</title>
<path fill="none" stroke="#ff0000" d="M1787.158,-189.2698C1772.9295,-165.4985 1744.6262,-123.915 1709.185,-101.2 1671.0844,-76.7805 1620.6086,-64.9137 1583.4849,-59.1959"/>
<polygon fill="#ff0000" stroke="#ff0000" points="1583.7866,-55.7033 1573.3895,-57.7409 1582.788,-62.6317 1583.7866,-55.7033"/>
<text text-anchor="middle" x="1751.5721" y="-105.4" font-family="Times,serif" font-size="14.00" fill="#ff0000">getFirst</text>
</g>
<!-- Class: [ASTNode]&#45;&gt;first != null\n -->
<g id="edge48" class="edge">
<title>Class: [ASTNode]&#45;&gt;first != null\n</title>
<path fill="none" stroke="#ff0000" d="M1798.9983,-189.0225C1800.2715,-165.3628 1798.5819,-124.3174 1775.185,-101.2 1761.6269,-87.8038 1649.7965,-70.2012 1582.9986,-60.7295"/>
<polygon fill="#ff0000" stroke="#ff0000" points="1583.4766,-57.2624 1573.0868,-59.3368 1582.5025,-64.1943 1583.4766,-57.2624"/>
<text text-anchor="middle" x="1808.5721" y="-105.4" font-family="Times,serif" font-size="14.00" fill="#ff0000">getFirst</text>
</g>
<!-- Class: [ASTNode]&#45;&gt;first != null\n -->
<g id="edge49" class="edge">
<title>Class: [ASTNode]&#45;&gt;first != null\n</title>
<path fill="none" stroke="#ff0000" d="M1812.9275,-189.4732C1831.2152,-166.6799 1856.2311,-126.9726 1834.185,-101.2 1830.121,-96.4491 1667.8035,-72.96 1583.2602,-61.0098"/>
<polygon fill="#ff0000" stroke="#ff0000" points="1583.4955,-57.5085 1573.1046,-59.577 1582.5175,-64.4398 1583.4955,-57.5085"/>
<text text-anchor="middle" x="1862.5721" y="-105.4" font-family="Times,serif" font-size="14.00" fill="#ff0000">getFirst</text>
</g>
<!-- Class: [ASTNode]&#45;&gt;first != null\n -->
<g id="edge50" class="edge">
<title>Class: [ASTNode]&#45;&gt;first != null\n</title>
<path fill="none" stroke="#ff0000" d="M1829.0864,-190.5348C1865.2665,-169.5364 1915.8579,-132.4172 1888.185,-101.2 1866.0611,-76.2425 1772.2532,-87.5406 1739.185,-83.2 1685.9163,-76.2078 1625.0081,-67.4838 1583.319,-61.4005"/>
<polygon fill="#ff0000" stroke="#ff0000" points="1583.8152,-57.936 1573.414,-59.9521 1582.8023,-64.8623 1583.8152,-57.936"/>
<text text-anchor="middle" x="1916.5721" y="-105.4" font-family="Times,serif" font-size="14.00" fill="#ff0000">getFirst</text>
</g>
<!-- Class: [ASTNode]&#45;&gt;size() &gt; 0\nlast != null\n -->
<g id="edge26" class="edge">
<title>Class: [ASTNode]&#45;&gt;size() &gt; 0\nlast != null\n</title>
<path fill="none" stroke="#ff0000" d="M1856.9795,-194.7704C1922.4676,-178.5461 2013.2147,-146.7476 1973.185,-101.2 1952.6237,-77.8044 1863.5731,-93.5181 1834.185,-83.2 1831.1019,-82.1175 1828.0037,-80.8183 1824.9472,-79.3777"/>
<polygon fill="#ff0000" stroke="#ff0000" points="1826.4468,-76.2126 1815.9595,-74.7065 1823.2186,-82.4238 1826.4468,-76.2126"/>
<text text-anchor="middle" x="2003.5658" y="-105.4" font-family="Times,serif" font-size="14.00" fill="#ff0000">setNext</text>
</g>
<!-- Class: [ASTNode]&#45;&gt;getChildCount() != 0 &amp;&amp; first != null\ngetChildCount() == 0\n -->
<g id="edge27" class="edge">
<title>Class: [ASTNode]&#45;&gt;getChildCount() != 0 &amp;&amp; first != null\ngetChildCount() == 0\n</title>
<path fill="none" stroke="#ff0000" d="M1852.2036,-193.71C1914.0457,-177.3028 2008.5398,-148.0562 2029.185,-118 2038.8471,-103.9335 2029.4472,-90.9825 2014.5522,-80.465"/>
<polygon fill="#ff0000" stroke="#ff0000" points="2016.1111,-77.308 2005.7981,-74.8807 2012.3465,-83.2095 2016.1111,-77.308"/>
<text text-anchor="middle" x="2053.5721" y="-105.4" font-family="Times,serif" font-size="14.00" fill="#ff0000">getFirst</text>
</g>
<!-- Class: [ASTNode]&#45;&gt;size() == 0\n -->
<g id="edge28" class="edge">
<title>Class: [ASTNode]&#45;&gt;size() == 0\n</title>
<path fill="none" stroke="#ff0000" d="M1867.2846,-197.5637C1927.9366,-186.4649 2015.6414,-163.5432 2079.185,-118 2092.5291,-108.4359 2103.6294,-93.9196 2111.6855,-81.1285"/>
<polygon fill="#ff0000" stroke="#ff0000" points="2114.8854,-82.5962 2117.0022,-72.215 2108.8736,-79.0103 2114.8854,-82.5962"/>
<text text-anchor="middle" x="2117.5658" y="-105.4" font-family="Times,serif" font-size="14.00" fill="#ff0000">setNext</text>
</g>
<!-- Class: [ASTNode]&#45;&gt;first != null\nstmntList.size() &gt; 0\n -->
<g id="edge29" class="edge">
<title>Class: [ASTNode]&#45;&gt;first != null\nstmntList.size() &gt; 0\n</title>
<path fill="none" stroke="#ff0000" d="M1863.5688,-196.3799C1934.7237,-183.3544 2050.0186,-158.0877 2143.185,-118 2166.3325,-108.0401 2190.2957,-93.2704 2209.1744,-80.4285"/>
<polygon fill="#ff0000" stroke="#ff0000" points="2211.2382,-83.2567 2217.4695,-74.6881 2207.2548,-77.5006 2211.2382,-83.2567"/>
<text text-anchor="middle" x="2196.5721" y="-105.4" font-family="Times,serif" font-size="14.00" fill="#ff0000">getFirst</text>
</g>
<!-- Class: [ASTNode]&#45;&gt;first != null\nstmntList.size() &gt; 0\n -->
<g id="edge30" class="edge">
<title>Class: [ASTNode]&#45;&gt;first != null\nstmntList.size() &gt; 0\n</title>
<path fill="none" stroke="#ff0000" d="M1873.3363,-200.1112C1981.1596,-188.6253 2170.938,-162.616 2222.185,-118 2231.9247,-109.5205 2237.5403,-96.6042 2240.778,-84.5901"/>
<polygon fill="#ff0000" stroke="#ff0000" points="2244.1939,-85.3523 2242.9766,-74.8276 2237.365,-83.8143 2244.1939,-85.3523"/>
<text text-anchor="middle" x="2255.5721" y="-105.4" font-family="Times,serif" font-size="14.00" fill="#ff0000">getFirst</text>
</g>
<!-- Class: [ASTNode]&#45;&gt;first != null\nstmntList.size() &gt; 0\n -->
<g id="edge31" class="edge">
<title>Class: [ASTNode]&#45;&gt;first != null\nstmntList.size() &gt; 0\n</title>
<path fill="none" stroke="#ff0000" d="M1878.8233,-204.3244C2003.1686,-198.0355 2230.9241,-178.3703 2281.185,-118 2290.0656,-107.3332 2284.881,-94.1634 2275.9886,-82.5491"/>
<polygon fill="#ff0000" stroke="#ff0000" points="2278.5267,-80.1318 2269.3673,-74.8068 2273.2068,-84.6814 2278.5267,-80.1318"/>
<text text-anchor="middle" x="2306.5721" y="-105.4" font-family="Times,serif" font-size="14.00" fill="#ff0000">getFirst</text>
</g>
<!-- Class: [ASTNode]&#45;&gt;getChildCount() &gt; 2\n -->
<g id="edge33" class="edge">
<title>Class: [ASTNode]&#45;&gt;getChildCount() &gt; 2\n</title>
<path fill="none" stroke="#ff0000" d="M1874.1497,-200.5487C2002.6259,-188.4315 2254.373,-160.0672 2332.185,-118 2348.6984,-109.0724 2363.0776,-93.7401 2373.5058,-80.3205"/>
<polygon fill="#ff0000" stroke="#ff0000" points="2376.3199,-82.4015 2379.4719,-72.2864 2370.7,-78.2281 2376.3199,-82.4015"/>
<text text-anchor="middle" x="2367.3449" y="-105.4" font-family="Times,serif" font-size="14.00" fill="#ff0000">clone</text>
</g>
<!-- Class: [ASTNode]&#45;&gt;first != null\nifStatement.size() &gt; 0\nelseStmnt != null &amp;&amp; elseStmnt.size() &gt; 0\n -->
<g id="edge34" class="edge">
<title>Class: [ASTNode]&#45;&gt;first != null\nifStatement.size() &gt; 0\nelseStmnt != null &amp;&amp; elseStmnt.size() &gt; 0\n</title>
<path fill="none" stroke="#ff0000" d="M1871.7257,-199.3103C1984.113,-186.6515 2203.2675,-158.9904 2386.185,-118 2424.7421,-109.3597 2466.5086,-97.4583 2502.8212,-86.2607"/>
<polygon fill="#ff0000" stroke="#ff0000" points="2503.9082,-89.5881 2512.4193,-83.2785 2501.8311,-82.9034 2503.9082,-89.5881"/>
<text text-anchor="middle" x="2472.5721" y="-105.4" font-family="Times,serif" font-size="14.00" fill="#ff0000">getFirst</text>
</g>
<!-- Class: [ASTNode]&#45;&gt;elseStmnt != null\n -->
<g id="edge35" class="edge">
<title>Class: [ASTNode]&#45;&gt;elseStmnt != null\n</title>
<path fill="none" stroke="#ff0000" d="M1869.6496,-198.4305C1996.9292,-182.9265 2268.9077,-149.3469 2498.185,-118 2604.1022,-103.5189 2633.5558,-113.1232 2736.185,-83.2 2742.808,-81.2689 2749.63,-78.7936 2756.25,-76.1027"/>
<polygon fill="#ff0000" stroke="#ff0000" points="2757.9346,-79.1892 2765.7577,-72.0443 2755.1864,-72.7512 2757.9346,-79.1892"/>
<text text-anchor="middle" x="2676.5658" y="-105.4" font-family="Times,serif" font-size="14.00" fill="#ff0000">setNext</text>
</g>
<!-- Class: [ASTNode]&#45;&gt;getExpression() != null\n -->
<g id="edge37" class="edge">
<title>Class: [ASTNode]&#45;&gt;getExpression() != null\n</title>
<path fill="none" stroke="#ff0000" d="M1876.8492,-202.3277C2034.9154,-192.0039 2399.1182,-164.9423 2702.185,-118 2775.8187,-106.5948 2794.485,-103.4761 2866.185,-83.2 2874.3373,-80.8946 2882.8516,-78.1985 2891.1784,-75.3935"/>
<polygon fill="#ff0000" stroke="#ff0000" points="2892.5193,-78.6335 2900.8342,-72.0674 2890.2395,-72.0151 2892.5193,-78.6335"/>
<text text-anchor="middle" x="2810.3449" y="-105.4" font-family="Times,serif" font-size="14.00" fill="#ff0000">clone</text>
</g>
<!-- Class: [ASTNode]&#45;&gt;first != null\nexp != null\n -->
<g id="edge38" class="edge">
<title>Class: [ASTNode]&#45;&gt;first != null\nexp != null\n</title>
<path fill="none" stroke="#ff0000" d="M1877.3937,-202.6029C2051.2928,-192.124 2475.8401,-163.774 2829.185,-118 2919.0961,-106.3525 2945.1576,-114.6644 3030.185,-83.2 3033.2498,-82.0659 3036.3388,-80.7389 3039.3946,-79.2877"/>
<polygon fill="#ff0000" stroke="#ff0000" points="3041.1295,-82.3309 3048.4058,-74.6298 3037.9152,-76.1125 3041.1295,-82.3309"/>
<text text-anchor="middle" x="2990.5721" y="-105.4" font-family="Times,serif" font-size="14.00" fill="#ff0000">getFirst</text>
</g>
<!-- Class: [ASTNode]&#45;&gt;first != null\nleftExpression instanceof VarRef\n -->
<g id="edge39" class="edge">
<title>Class: [ASTNode]&#45;&gt;first != null\nleftExpression instanceof VarRef\n</title>
<path fill="none" stroke="#ff0000" d="M1878.1843,-203.4721C2113.8425,-192.2778 2796.3307,-157.2942 3016.185,-118 3068.4957,-108.6506 3126.1181,-91.8381 3169.5452,-77.7908"/>
<polygon fill="#ff0000" stroke="#ff0000" points="3170.727,-81.0868 3179.1464,-74.6554 3168.5539,-74.4326 3170.727,-81.0868"/>
<text text-anchor="middle" x="3105.5721" y="-105.4" font-family="Times,serif" font-size="14.00" fill="#ff0000">getFirst</text>
</g>
<!-- Class: [ASTNode]&#45;&gt;last != null\n -->
<g id="edge41" class="edge">
<title>Class: [ASTNode]&#45;&gt;last != null\n</title>
<path fill="none" stroke="#ff0000" d="M1879.0099,-204.3579C2088.0695,-196.5267 2658.6677,-171.5707 3131.185,-118 3228.24,-106.9966 3256.5232,-116.9471 3348.185,-83.2 3352.696,-81.5392 3357.2489,-79.4357 3361.6606,-77.1216"/>
<polygon fill="#ff0000" stroke="#ff0000" points="3363.4747,-80.1167 3370.4589,-72.1498 3360.0309,-74.0224 3363.4747,-80.1167"/>
<text text-anchor="middle" x="3308.5658" y="-105.4" font-family="Times,serif" font-size="14.00" fill="#ff0000">setNext</text>
</g>
<!-- Class: [ASTNode]&#45;&gt;last != null\n -->
<g id="edge47" class="edge">
<title>Class: [ASTNode]&#45;&gt;last != null\n</title>
<path fill="none" stroke="#ff0000" d="M1879.7163,-205.9025C2179.7138,-200.7101 3201.7125,-178.6937 3334.185,-118 3351.8881,-109.8891 3367.1717,-94.2813 3378.135,-80.51"/>
<polygon fill="#ff0000" stroke="#ff0000" points="3381.1386,-82.3411 3384.3859,-72.2561 3375.5583,-78.1149 3381.1386,-82.3411"/>
<text text-anchor="middle" x="3378.5721" y="-105.4" font-family="Times,serif" font-size="14.00" fill="#ff0000">getFirst</text>
</g>
<!-- Class: [ASTNode]&#45;&gt;first != null\nargs != null &amp;&amp; args.size() &gt; 0\n -->
<g id="edge44" class="edge">
<title>Class: [ASTNode]&#45;&gt;first != null\nargs != null &amp;&amp; args.size() &gt; 0\n</title>
<path fill="none" stroke="#ff0000" d="M1880.1506,-206.5709C2166.3129,-203.7819 3110.5854,-189.2682 3404.185,-118 3438.3812,-109.6992 3474.536,-93.4428 3501.9361,-79.3919"/>
<polygon fill="#ff0000" stroke="#ff0000" points="3503.631,-82.4554 3510.8772,-74.726 3500.3925,-76.2495 3503.631,-82.4554"/>
<text text-anchor="middle" x="3473.5721" y="-105.4" font-family="Times,serif" font-size="14.00" fill="#ff0000">getFirst</text>
</g>
</g>
</svg>
