<svg width="1683pt" height="342pt"
 viewBox="0.00 0.00 1682.80 341.60" xmlns="http://www.w3.org/2000/svg" xmlns:xlink="http://www.w3.org/1999/xlink">
<g id="graph0" class="graph" transform="scale(1 1) rotate(0) translate(4 337.6)">
<title>project</title>
<polygon fill="#ffffff" stroke="transparent" points="-4,4 -4,-337.6 1678.8038,-337.6 1678.8038,4 -4,4"/>
<text text-anchor="middle" x="837.4019" y="-8.2" font-family="Times,serif" font-size="14.00" fill="#000000">Method Calls for :tas.services.qos.PreferencesQoS</text>
<!-- opList.get(i).getOpName().equals(opName)\n -->
<g id="node1" class="node">
<title>opList.get(i).getOpName().equals(opName)\n</title>
<polygon fill="none" stroke="#ff0000" points="262.1002,-88.8 -.0334,-88.8 -.0334,-52.8 262.1002,-52.8 262.1002,-88.8"/>
<text text-anchor="middle" x="131.0334" y="-66.6" font-family="Times,serif" font-size="14.00" fill="#ff0000">opList.get(i).getOpName().equals(opName)</text>
</g>
<!-- op.getOpName().equals(opName)\n -->
<g id="node2" class="node">
<title>op.getOpName().equals(opName)\n</title>
<polygon fill="none" stroke="#ff0000" points="486.5053,-88.8 279.5615,-88.8 279.5615,-52.8 486.5053,-52.8 486.5053,-88.8"/>
<text text-anchor="middle" x="383.0334" y="-66.6" font-family="Times,serif" font-size="14.00" fill="#ff0000">op.getOpName().equals(opName)</text>
</g>
<!-- customProperties.containsKey(RESPONSE_TIME)\n -->
<g id="node3" class="node">
<title>customProperties.containsKey(RESPONSE_TIME)\n</title>
<polygon fill="none" stroke="#ff0000" points="811.7433,-88.8 504.3235,-88.8 504.3235,-52.8 811.7433,-52.8 811.7433,-88.8"/>
<text text-anchor="middle" x="658.0334" y="-66.6" font-family="Times,serif" font-size="14.00" fill="#ff0000">customProperties.containsKey(RESPONSE_TIME)</text>
</g>
<!-- os != null\nis != null\n -->
<g id="node4" class="node">
<title>os != null\nis != null\n</title>
<polygon fill="none" stroke="#ff0000" points="898.8147,-91.4019 829.2521,-91.4019 829.2521,-50.1981 898.8147,-50.1981 898.8147,-91.4019"/>
<text text-anchor="middle" x="864.0334" y="-75" font-family="Times,serif" font-size="14.00" fill="#ff0000">os != null</text>
<text text-anchor="middle" x="864.0334" y="-58.2" font-family="Times,serif" font-size="14.00" fill="#ff0000">is != null</text>
</g>
<!-- obj instanceof ServiceDescription\nregisterID == service.getRegisterID() &amp;&amp; endpoint.equals(service.getServiceEndpoint()) &amp;&amp; type.equals(service.getServiceType())\n!opList.get(i).equals(service.getOperationList().get(i))\n!service.getCustomProperties().containsKey(key)\n!service.getCustomProperties().get(key).equals(value)\n -->
<g id="node5" class="node">
<title>obj instanceof ServiceDescription\nregisterID == service.getRegisterID() &amp;&amp; endpoint.equals(service.getServiceEndpoint()) &amp;&amp; type.equals(service.getServiceType())\n!opList.get(i).equals(service.getOperationList().get(i))\n!service.getCustomProperties().containsKey(key)\n!service.getCustomProperties().get(key).equals(value)\n</title>
<polygon fill="none" stroke="#ff0000" points="1674.5743,-116.8 917.4925,-116.8 917.4925,-24.8 1674.5743,-24.8 1674.5743,-116.8"/>
<text text-anchor="middle" x="1296.0334" y="-100.2" font-family="Times,serif" font-size="14.00" fill="#ff0000">obj instanceof ServiceDescription</text>
<text text-anchor="middle" x="1296.0334" y="-83.4" font-family="Times,serif" font-size="14.00" fill="#ff0000">registerID == service.getRegisterID() &amp;&amp; endpoint.equals(service.getServiceEndpoint()) &amp;&amp; type.equals(service.getServiceType())</text>
<text text-anchor="middle" x="1296.0334" y="-66.6" font-family="Times,serif" font-size="14.00" fill="#ff0000">!opList.get(i).equals(service.getOperationList().get(i))</text>
<text text-anchor="middle" x="1296.0334" y="-49.8" font-family="Times,serif" font-size="14.00" fill="#ff0000">!service.getCustomProperties().containsKey(key)</text>
<text text-anchor="middle" x="1296.0334" y="-33" font-family="Times,serif" font-size="14.00" fill="#ff0000">!service.getCustomProperties().get(key).equals(value)</text>
</g>
<!-- serviceDescription.getCustomProperties().containsKey(&quot;preferred&quot;)\nvalue\n -->
<g id="node6" class="node">
<title>serviceDescription.getCustomProperties().containsKey(&quot;preferred&quot;)\nvalue\n</title>
<polygon fill="none" stroke="#ff0000" points="522.2383,-211.0019 125.8285,-211.0019 125.8285,-169.7981 522.2383,-169.7981 522.2383,-211.0019"/>
<text text-anchor="middle" x="324.0334" y="-194.6" font-family="Times,serif" font-size="14.00" fill="#ff0000">serviceDescription.getCustomProperties().containsKey(&quot;preferred&quot;)</text>
<text text-anchor="middle" x="324.0334" y="-177.8" font-family="Times,serif" font-size="14.00" fill="#ff0000">value</text>
</g>
<!-- Class: [PreferencesQoS] -->
<g id="node7" class="node">
<title>Class: [PreferencesQoS]</title>
<ellipse fill="none" stroke="#000000" cx="399.0334" cy="-315.6" rx="105.8688" ry="18"/>
<text text-anchor="middle" x="399.0334" y="-311.4" font-family="Times,serif" font-size="14.00" fill="#000000">Class: [PreferencesQoS]</text>
</g>
<!-- Class: [PreferencesQoS]&#45;&gt;serviceDescription.getCustomProperties().containsKey(&quot;preferred&quot;)\nvalue\n -->
<g id="edge2" class="edge">
<title>Class: [PreferencesQoS]&#45;&gt;serviceDescription.getCustomProperties().containsKey(&quot;preferred&quot;)\nvalue\n</title>
<path fill="none" stroke="#ff0000" d="M388.2877,-297.6619C376.1482,-277.3969 356.2035,-244.1026 341.7512,-219.9769"/>
<polygon fill="#ff0000" stroke="#ff0000" points="344.6504,-218.0057 336.5089,-211.2258 338.6454,-221.603 344.6504,-218.0057"/>
<text text-anchor="middle" x="441.187" y="-250.2" font-family="Times,serif" font-size="14.00" fill="#ff0000">applyQoSRequirement</text>
</g>
<!-- Class: [ServiceDescription] -->
<g id="node8" class="node">
<title>Class: [ServiceDescription]</title>
<ellipse fill="none" stroke="#000000" cx="658.0334" cy="-190.4" rx="117.4855" ry="18"/>
<text text-anchor="middle" x="658.0334" y="-186.2" font-family="Times,serif" font-size="14.00" fill="#000000">Class: [ServiceDescription]</text>
</g>
<!-- Class: [PreferencesQoS]&#45;&gt;Class: [ServiceDescription] -->
<g id="edge1" class="edge">
<title>Class: [PreferencesQoS]&#45;&gt;Class: [ServiceDescription]</title>
<path fill="none" stroke="#000000" d="M454.2228,-300.1916C472.039,-294.5202 491.6649,-287.5206 509.0334,-279.6 550.3006,-260.7808 594.5207,-233.2764 623.9724,-213.7932"/>
<polygon fill="#000000" stroke="#000000" points="626.244,-216.4851 632.6188,-208.0228 622.3582,-210.6627 626.244,-216.4851"/>
<text text-anchor="middle" x="665.5173" y="-267" font-family="Times,serif" font-size="14.00" fill="#000000">[applyQoSRequirement</text>
<text text-anchor="middle" x="665.5173" y="-250.2" font-family="Times,serif" font-size="14.00" fill="#000000">&#45;&#45;&gt;</text>
<text text-anchor="middle" x="665.5173" y="-233.4" font-family="Times,serif" font-size="14.00" fill="#000000">getCustomProperties]</text>
</g>
<!-- Class: [ServiceDescription]&#45;&gt;opList.get(i).getOpName().equals(opName)\n -->
<g id="edge3" class="edge">
<title>Class: [ServiceDescription]&#45;&gt;opList.get(i).getOpName().equals(opName)\n</title>
<path fill="none" stroke="#ff0000" d="M577.9395,-177.2277C523.7902,-168.2416 457.2619,-157.0219 429.4008,-151.6 358.663,-137.834 340.547,-135.8053 271.0334,-116.8 244.6721,-109.5927 215.9345,-100.391 191.3936,-92.1142"/>
<polygon fill="#ff0000" stroke="#ff0000" points="192.4523,-88.7774 181.8579,-88.8738 190.2,-95.4052 192.4523,-88.7774"/>
<text text-anchor="middle" x="481.3497" y="-139" font-family="Times,serif" font-size="14.00" fill="#ff0000">containsOperation</text>
</g>
<!-- Class: [ServiceDescription]&#45;&gt;op.getOpName().equals(opName)\n -->
<g id="edge4" class="edge">
<title>Class: [ServiceDescription]&#45;&gt;op.getOpName().equals(opName)\n</title>
<path fill="none" stroke="#ff0000" d="M618.9247,-173.3913C570.3838,-152.2804 487.4878,-116.2282 434.0082,-92.9694"/>
<polygon fill="#ff0000" stroke="#ff0000" points="435.2734,-89.703 424.7072,-88.9243 432.4816,-96.1222 435.2734,-89.703"/>
<text text-anchor="middle" x="597.5748" y="-139" font-family="Times,serif" font-size="14.00" fill="#ff0000">getOperation</text>
</g>
<!-- Class: [ServiceDescription]&#45;&gt;customProperties.containsKey(RESPONSE_TIME)\n -->
<g id="edge5" class="edge">
<title>Class: [ServiceDescription]&#45;&gt;customProperties.containsKey(RESPONSE_TIME)\n</title>
<path fill="none" stroke="#ff0000" d="M658.0334,-172.2353C658.0334,-152.8293 658.0334,-121.8101 658.0334,-99.1779"/>
<polygon fill="#ff0000" stroke="#ff0000" points="661.5335,-99.1356 658.0334,-89.1356 654.5335,-99.1356 661.5335,-99.1356"/>
<text text-anchor="middle" x="708.1877" y="-139" font-family="Times,serif" font-size="14.00" fill="#ff0000">getResponseTime</text>
</g>
<!-- Class: [ServiceDescription]&#45;&gt;os != null\nis != null\n -->
<g id="edge6" class="edge">
<title>Class: [ServiceDescription]&#45;&gt;os != null\nis != null\n</title>
<path fill="none" stroke="#ff0000" d="M710.9394,-174.1931C744.794,-162.0599 788.3347,-143.0266 821.0334,-116.8 827.5092,-111.6059 833.9268,-105.4458 839.7508,-99.3497"/>
<polygon fill="#ff0000" stroke="#ff0000" points="842.5627,-101.4634 846.7701,-91.7398 837.4173,-96.7173 842.5627,-101.4634"/>
<text text-anchor="middle" x="808.1933" y="-139" font-family="Times,serif" font-size="14.00" fill="#ff0000">clone</text>
</g>
<!-- Class: [ServiceDescription]&#45;&gt;obj instanceof ServiceDescription\nregisterID == service.getRegisterID() &amp;&amp; endpoint.equals(service.getServiceEndpoint()) &amp;&amp; type.equals(service.getServiceType())\n!opList.get(i).equals(service.getOperationList().get(i))\n!service.getCustomProperties().containsKey(key)\n!service.getCustomProperties().get(key).equals(value)\n -->
<g id="edge7" class="edge">
<title>Class: [ServiceDescription]&#45;&gt;obj instanceof ServiceDescription\nregisterID == service.getRegisterID() &amp;&amp; endpoint.equals(service.getServiceEndpoint()) &amp;&amp; type.equals(service.getServiceType())\n!opList.get(i).equals(service.getOperationList().get(i))\n!service.getCustomProperties().containsKey(key)\n!service.getCustomProperties().get(key).equals(value)\n</title>
<path fill="none" stroke="#ff0000" d="M732.4687,-176.4463C808.0897,-162.2703 929.5352,-139.5041 1040.3569,-118.7293"/>
<polygon fill="#ff0000" stroke="#ff0000" points="1041.1766,-122.1367 1050.3605,-116.854 1039.8868,-115.2566 1041.1766,-122.1367"/>
<text text-anchor="middle" x="955.9156" y="-139" font-family="Times,serif" font-size="14.00" fill="#ff0000">equals</text>
</g>
</g>
</svg>
