<svg width="818pt" height="280pt"
 viewBox="0.00 0.00 818.37 280.00" xmlns="http://www.w3.org/2000/svg" xmlns:xlink="http://www.w3.org/1999/xlink">
<g id="graph0" class="graph" transform="scale(1 1) rotate(0) translate(4 276)">
<title>project</title>
<polygon fill="#ffffff" stroke="transparent" points="-4,4 -4,-276 814.3671,-276 814.3671,4 -4,4"/>
<text text-anchor="middle" x="405.1835" y="-8.2" font-family="Times,serif" font-size="14.00" fill="#000000">Method Calls for :profile.ProfileExecutor</text>
<!-- req.getName().equals(reqName)\n -->
<g id="node1" class="node">
<title>req.getName().equals(reqName)\n</title>
<polygon fill="none" stroke="#ff0000" points="197.1728,-60.8 -.0576,-60.8 -.0576,-24.8 197.1728,-24.8 197.1728,-60.8"/>
<text text-anchor="middle" x="98.5576" y="-38.6" font-family="Times,serif" font-size="14.00" fill="#ff0000">req.getName().equals(reqName)</text>
</g>
<!-- requirements == null\n -->
<g id="node2" class="node">
<title>requirements == null\n</title>
<polygon fill="none" stroke="#ff0000" points="348.2099,-60.8 214.9053,-60.8 214.9053,-24.8 348.2099,-24.8 348.2099,-60.8"/>
<text text-anchor="middle" x="281.5576" y="-38.6" font-family="Times,serif" font-size="14.00" fill="#ff0000">requirements == null</text>
</g>
<!-- variable.getName().equals(variableName)\n -->
<g id="node3" class="node">
<title>variable.getName().equals(variableName)\n</title>
<polygon fill="none" stroke="#ff0000" points="618.094,-60.8 367.0212,-60.8 367.0212,-24.8 618.094,-24.8 618.094,-60.8"/>
<text text-anchor="middle" x="492.5576" y="-38.6" font-family="Times,serif" font-size="14.00" fill="#ff0000">variable.getName().equals(variableName)</text>
</g>
<!-- Class: [ProfileExecutor] -->
<g id="node4" class="node">
<title>Class: [ProfileExecutor]</title>
<ellipse fill="none" stroke="#000000" cx="561.5576" cy="-254" rx="104.746" ry="18"/>
<text text-anchor="middle" x="561.5576" y="-249.8" font-family="Times,serif" font-size="14.00" fill="#000000">Class: [ProfileExecutor]</text>
</g>
<!-- Class: [InputProfile] -->
<g id="node5" class="node">
<title>Class: [InputProfile]</title>
<ellipse fill="none" stroke="#000000" cx="281.5576" cy="-131.6" rx="90.3004" ry="18"/>
<text text-anchor="middle" x="281.5576" y="-127.4" font-family="Times,serif" font-size="14.00" fill="#000000">Class: [InputProfile]</text>
</g>
<!-- Class: [ProfileExecutor]&#45;&gt;Class: [InputProfile] -->
<g id="edge1" class="edge">
<title>Class: [ProfileExecutor]&#45;&gt;Class: [InputProfile]</title>
<path fill="none" stroke="#000000" d="M502.0006,-239.1913C481.8313,-233.4546 459.3845,-226.2636 439.4902,-218 396.0139,-199.9411 349.0218,-173.2208 317.7035,-154.2843"/>
<polygon fill="#000000" stroke="#000000" points="319.2657,-151.1375 308.9056,-148.9198 315.6215,-157.1141 319.2657,-151.1375"/>
<text text-anchor="middle" x="476.0913" y="-205.4" font-family="Times,serif" font-size="14.00" fill="#000000">[main</text>
<text text-anchor="middle" x="476.0913" y="-188.6" font-family="Times,serif" font-size="14.00" fill="#000000">&#45;&#45;&gt;</text>
<text text-anchor="middle" x="476.0913" y="-171.8" font-family="Times,serif" font-size="14.00" fill="#000000">addVariable]</text>
</g>
<!-- Class: [InputProfileVariable] -->
<g id="node6" class="node">
<title>Class: [InputProfileVariable]</title>
<ellipse fill="none" stroke="#000000" cx="513.5576" cy="-131.6" rx="123.2844" ry="18"/>
<text text-anchor="middle" x="513.5576" y="-127.4" font-family="Times,serif" font-size="14.00" fill="#000000">Class: [InputProfileVariable]</text>
</g>
<!-- Class: [ProfileExecutor]&#45;&gt;Class: [InputProfileVariable] -->
<g id="edge2" class="edge">
<title>Class: [ProfileExecutor]&#45;&gt;Class: [InputProfileVariable]</title>
<path fill="none" stroke="#000000" d="M541.9458,-236.038C537.1207,-230.6758 532.4329,-224.4851 529.256,-218 520.3693,-199.8594 516.4763,-177.3517 514.7884,-159.8572"/>
<polygon fill="#000000" stroke="#000000" points="518.2631,-159.3942 513.9975,-149.696 511.2842,-159.9375 518.2631,-159.3942"/>
<text text-anchor="middle" x="558.7084" y="-205.4" font-family="Times,serif" font-size="14.00" fill="#000000">[main</text>
<text text-anchor="middle" x="558.7084" y="-188.6" font-family="Times,serif" font-size="14.00" fill="#000000">&#45;&#45;&gt;</text>
<text text-anchor="middle" x="558.7084" y="-171.8" font-family="Times,serif" font-size="14.00" fill="#000000">addValue]</text>
</g>
<!-- Class: [XStream] -->
<g id="node7" class="node">
<title>Class: [XStream]</title>
<ellipse fill="none" stroke="#000000" cx="732.5576" cy="-131.6" rx="77.6194" ry="18"/>
<text text-anchor="middle" x="732.5576" y="-127.4" font-family="Times,serif" font-size="14.00" fill="#000000">Class: [XStream]</text>
</g>
<!-- Class: [ProfileExecutor]&#45;&gt;Class: [XStream] -->
<g id="edge3" class="edge">
<title>Class: [ProfileExecutor]&#45;&gt;Class: [XStream]</title>
<path fill="none" stroke="#000000" d="M575.0486,-235.8693C579.1538,-230.2075 583.6193,-223.899 587.5576,-218 602.1632,-196.1229 597.8448,-183.7787 618.5856,-167.6 630.9333,-157.9682 645.9058,-150.8867 660.8824,-145.6888"/>
<polygon fill="#000000" stroke="#000000" points="662.2461,-148.927 670.6972,-142.5372 660.1059,-142.2622 662.2461,-148.927"/>
<text text-anchor="middle" x="660.5436" y="-205.4" font-family="Times,serif" font-size="14.00" fill="#000000">[readFromXml</text>
<text text-anchor="middle" x="660.5436" y="-188.6" font-family="Times,serif" font-size="14.00" fill="#000000">&#45;&#45;&gt;</text>
<text text-anchor="middle" x="660.5436" y="-171.8" font-family="Times,serif" font-size="14.00" fill="#000000">fromXML]</text>
</g>
<!-- Class: [ProfileExecutor]&#45;&gt;Class: [XStream] -->
<g id="edge4" class="edge">
<title>Class: [ProfileExecutor]&#45;&gt;Class: [XStream]</title>
<path fill="none" stroke="#000000" d="M636.8481,-241.4035C664.8554,-235.3723 692.3271,-227.4032 702.5576,-218 718.833,-203.0407 726.2788,-178.7996 729.6852,-159.7961"/>
<polygon fill="#000000" stroke="#000000" points="733.1515,-160.2818 731.1924,-149.8696 726.2308,-159.2309 733.1515,-160.2818"/>
<text text-anchor="middle" x="764.4896" y="-205.4" font-family="Times,serif" font-size="14.00" fill="#000000">[writeToXml</text>
<text text-anchor="middle" x="764.4896" y="-188.6" font-family="Times,serif" font-size="14.00" fill="#000000">&#45;&#45;&gt;</text>
<text text-anchor="middle" x="764.4896" y="-171.8" font-family="Times,serif" font-size="14.00" fill="#000000">toXML]</text>
</g>
<!-- Class: [InputProfile]&#45;&gt;req.getName().equals(reqName)\n -->
<g id="edge5" class="edge">
<title>Class: [InputProfile]&#45;&gt;req.getName().equals(reqName)\n</title>
<path fill="none" stroke="#ff0000" d="M236.2537,-115.8581C220.7601,-110.025 203.4757,-103.0121 188.1396,-95.6 170.1738,-86.9169 151.0222,-75.889 135.0578,-66.1597"/>
<polygon fill="#ff0000" stroke="#ff0000" points="136.8936,-63.1798 126.5444,-60.9113 133.2201,-69.1385 136.8936,-63.1798"/>
<text text-anchor="middle" x="233.2666" y="-83" font-family="Times,serif" font-size="14.00" fill="#ff0000">getRequirement</text>
</g>
<!-- Class: [InputProfile]&#45;&gt;requirements == null\n -->
<g id="edge6" class="edge">
<title>Class: [InputProfile]&#45;&gt;requirements == null\n</title>
<path fill="none" stroke="#ff0000" d="M281.5576,-113.2006C281.5576,-101.0949 281.5576,-85.0076 281.5576,-71.2674"/>
<polygon fill="#ff0000" stroke="#ff0000" points="285.0577,-70.872 281.5576,-60.872 278.0577,-70.8721 285.0577,-70.872"/>
<text text-anchor="middle" x="345.7021" y="-83" font-family="Times,serif" font-size="14.00" fill="#ff0000">getRequirementNames</text>
</g>
<!-- Class: [InputProfile]&#45;&gt;variable.getName().equals(variableName)\n -->
<g id="edge7" class="edge">
<title>Class: [InputProfile]&#45;&gt;variable.getName().equals(variableName)\n</title>
<path fill="none" stroke="#ff0000" d="M344.7903,-118.7641C367.0741,-113.1012 391.9437,-105.4528 413.5576,-95.6 430.3389,-87.9502 447.5295,-76.9122 461.5715,-66.9042"/>
<polygon fill="#ff0000" stroke="#ff0000" points="463.8603,-69.5669 469.8759,-60.8454 459.7345,-63.9119 463.8603,-69.5669"/>
<text text-anchor="middle" x="476.2063" y="-83" font-family="Times,serif" font-size="14.00" fill="#ff0000">getVariable</text>
</g>
</g>
</svg>
