<svg width="4081pt" height="342pt"
 viewBox="0.00 0.00 4081.42 341.60" xmlns="http://www.w3.org/2000/svg" xmlns:xlink="http://www.w3.org/1999/xlink">
<g id="graph0" class="graph" transform="scale(1 1) rotate(0) translate(4 337.6)">
<title>project</title>
<polygon fill="#ffffff" stroke="transparent" points="-4,4 -4,-337.6 4077.4197,-337.6 4077.4197,4 -4,4"/>
<text text-anchor="middle" x="2036.7099" y="-8.2" font-family="Times,serif" font-size="14.00" fill="#000000">Method Calls for :service.composite.SDCache</text>
<!-- obj instanceof Operation\n!name.equals(op.getOpName())\n!returnType.equals(op.getReturnType())\n!paramTypes[i].equals(op.getParamTypes()[i])\n -->
<g id="node1" class="node">
<title>obj instanceof Operation\n!name.equals(op.getOpName())\n!returnType.equals(op.getReturnType())\n!paramTypes[i].equals(op.getParamTypes()[i])\n</title>
<polygon fill="none" stroke="#ff0000" points="2380.9126,-108.5003 2102.386,-108.5003 2102.386,-33.0997 2380.9126,-33.0997 2380.9126,-108.5003"/>
<text text-anchor="middle" x="2241.6493" y="-91.8" font-family="Times,serif" font-size="14.00" fill="#ff0000">obj instanceof Operation</text>
<text text-anchor="middle" x="2241.6493" y="-75" font-family="Times,serif" font-size="14.00" fill="#ff0000">!name.equals(op.getOpName())</text>
<text text-anchor="middle" x="2241.6493" y="-58.2" font-family="Times,serif" font-size="14.00" fill="#ff0000">!returnType.equals(op.getReturnType())</text>
<text text-anchor="middle" x="2241.6493" y="-41.4" font-family="Times,serif" font-size="14.00" fill="#ff0000">!paramTypes[i].equals(op.getParamTypes()[i])</text>
</g>
<!-- opList.get(i).getOpName().equals(opName)\n -->
<g id="node2" class="node">
<title>opList.get(i).getOpName().equals(opName)\n</title>
<polygon fill="none" stroke="#ff0000" points="2660.7161,-88.8 2398.5825,-88.8 2398.5825,-52.8 2660.7161,-52.8 2660.7161,-88.8"/>
<text text-anchor="middle" x="2529.6493" y="-66.6" font-family="Times,serif" font-size="14.00" fill="#ff0000">opList.get(i).getOpName().equals(opName)</text>
</g>
<!-- op.getOpName().equals(opName)\n -->
<g id="node3" class="node">
<title>op.getOpName().equals(opName)\n</title>
<polygon fill="none" stroke="#ff0000" points="2885.1212,-88.8 2678.1774,-88.8 2678.1774,-52.8 2885.1212,-52.8 2885.1212,-88.8"/>
<text text-anchor="middle" x="2781.6493" y="-66.6" font-family="Times,serif" font-size="14.00" fill="#ff0000">op.getOpName().equals(opName)</text>
</g>
<!-- customProperties.containsKey(RESPONSE_TIME)\n -->
<g id="node4" class="node">
<title>customProperties.containsKey(RESPONSE_TIME)\n</title>
<polygon fill="none" stroke="#ff0000" points="3210.3592,-88.8 2902.9394,-88.8 2902.9394,-52.8 3210.3592,-52.8 3210.3592,-88.8"/>
<text text-anchor="middle" x="3056.6493" y="-66.6" font-family="Times,serif" font-size="14.00" fill="#ff0000">customProperties.containsKey(RESPONSE_TIME)</text>
</g>
<!-- os != null\nis != null\n -->
<g id="node5" class="node">
<title>os != null\nis != null\n</title>
<polygon fill="none" stroke="#ff0000" points="3297.4306,-91.4019 3227.868,-91.4019 3227.868,-50.1981 3297.4306,-50.1981 3297.4306,-91.4019"/>
<text text-anchor="middle" x="3262.6493" y="-75" font-family="Times,serif" font-size="14.00" fill="#ff0000">os != null</text>
<text text-anchor="middle" x="3262.6493" y="-58.2" font-family="Times,serif" font-size="14.00" fill="#ff0000">is != null</text>
</g>
<!-- obj instanceof ServiceDescription\nregisterID == service.getRegisterID() &amp;&amp; endpoint.equals(service.getServiceEndpoint()) &amp;&amp; type.equals(service.getServiceType())\n!opList.get(i).equals(service.getOperationList().get(i))\n!service.getCustomProperties().containsKey(key)\n!service.getCustomProperties().get(key).equals(value)\n -->
<g id="node6" class="node">
<title>obj instanceof ServiceDescription\nregisterID == service.getRegisterID() &amp;&amp; endpoint.equals(service.getServiceEndpoint()) &amp;&amp; type.equals(service.getServiceType())\n!opList.get(i).equals(service.getOperationList().get(i))\n!service.getCustomProperties().containsKey(key)\n!service.getCustomProperties().get(key).equals(value)\n</title>
<polygon fill="none" stroke="#ff0000" points="4073.1902,-116.8 3316.1084,-116.8 3316.1084,-24.8 4073.1902,-24.8 4073.1902,-116.8"/>
<text text-anchor="middle" x="3694.6493" y="-100.2" font-family="Times,serif" font-size="14.00" fill="#ff0000">obj instanceof ServiceDescription</text>
<text text-anchor="middle" x="3694.6493" y="-83.4" font-family="Times,serif" font-size="14.00" fill="#ff0000">registerID == service.getRegisterID() &amp;&amp; endpoint.equals(service.getServiceEndpoint()) &amp;&amp; type.equals(service.getServiceType())</text>
<text text-anchor="middle" x="3694.6493" y="-66.6" font-family="Times,serif" font-size="14.00" fill="#ff0000">!opList.get(i).equals(service.getOperationList().get(i))</text>
<text text-anchor="middle" x="3694.6493" y="-49.8" font-family="Times,serif" font-size="14.00" fill="#ff0000">!service.getCustomProperties().containsKey(key)</text>
<text text-anchor="middle" x="3694.6493" y="-33" font-family="Times,serif" font-size="14.00" fill="#ff0000">!service.getCustomProperties().get(key).equals(value)</text>
</g>
<!-- timer != null\nrefreshPeriod &gt; 0\n -->
<g id="node7" class="node">
<title>timer != null\nrefreshPeriod &gt; 0\n</title>
<polygon fill="none" stroke="#ff0000" points="113.4483,-211.0019 -.1497,-211.0019 -.1497,-169.7981 113.4483,-169.7981 113.4483,-211.0019"/>
<text text-anchor="middle" x="56.6493" y="-194.6" font-family="Times,serif" font-size="14.00" fill="#ff0000">timer != null</text>
<text text-anchor="middle" x="56.6493" y="-177.8" font-family="Times,serif" font-size="14.00" fill="#ff0000">refreshPeriod &gt; 0</text>
</g>
<!-- service.getServiceName().equals(serviceName)\n -->
<g id="node8" class="node">
<title>service.getServiceName().equals(serviceName)\n</title>
<polygon fill="none" stroke="#ff0000" points="413.7712,-208.4 131.5274,-208.4 131.5274,-172.4 413.7712,-172.4 413.7712,-208.4"/>
<text text-anchor="middle" x="272.6493" y="-186.2" font-family="Times,serif" font-size="14.00" fill="#ff0000">service.getServiceName().equals(serviceName)</text>
</g>
<!-- !caches.containsKey(description)\n -->
<g id="node9" class="node">
<title>!caches.containsKey(description)\n</title>
<polygon fill="none" stroke="#ff0000" points="635.1165,-208.4 432.1821,-208.4 432.1821,-172.4 635.1165,-172.4 635.1165,-208.4"/>
<text text-anchor="middle" x="533.6493" y="-186.2" font-family="Times,serif" font-size="14.00" fill="#ff0000">!caches.containsKey(description)</text>
</g>
<!-- maxCacheSize &lt;= caches.size() &amp;&amp; maxCacheSize &gt; 0\n -->
<g id="node10" class="node">
<title>maxCacheSize &lt;= caches.size() &amp;&amp; maxCacheSize &gt; 0\n</title>
<polygon fill="none" stroke="#ff0000" points="980.379,-208.4 652.9196,-208.4 652.9196,-172.4 980.379,-172.4 980.379,-208.4"/>
<text text-anchor="middle" x="816.6493" y="-186.2" font-family="Times,serif" font-size="14.00" fill="#ff0000">maxCacheSize &lt;= caches.size() &amp;&amp; maxCacheSize &gt; 0</text>
</g>
<!-- caches.containsKey(description)\n -->
<g id="node11" class="node">
<title>caches.containsKey(description)\n</title>
<polygon fill="none" stroke="#ff0000" points="1196.9561,-208.4 998.3425,-208.4 998.3425,-172.4 1196.9561,-172.4 1196.9561,-208.4"/>
<text text-anchor="middle" x="1097.6493" y="-186.2" font-family="Times,serif" font-size="14.00" fill="#ff0000">caches.containsKey(description)</text>
</g>
<!-- caches.containsKey(description)\ns.equals(service)\n -->
<g id="node12" class="node">
<title>caches.containsKey(description)\ns.equals(service)\n</title>
<polygon fill="none" stroke="#ff0000" points="1412.9561,-211.0019 1214.3425,-211.0019 1214.3425,-169.7981 1412.9561,-169.7981 1412.9561,-211.0019"/>
<text text-anchor="middle" x="1313.6493" y="-194.6" font-family="Times,serif" font-size="14.00" fill="#ff0000">caches.containsKey(description)</text>
<text text-anchor="middle" x="1313.6493" y="-177.8" font-family="Times,serif" font-size="14.00" fill="#ff0000">s.equals(service)</text>
</g>
<!-- caches.containsKey(description)\nservices.contains(oldService)\n -->
<g id="node13" class="node">
<title>caches.containsKey(description)\nservices.contains(oldService)\n</title>
<polygon fill="none" stroke="#ff0000" points="1628.9561,-211.0019 1430.3425,-211.0019 1430.3425,-169.7981 1628.9561,-169.7981 1628.9561,-211.0019"/>
<text text-anchor="middle" x="1529.6493" y="-194.6" font-family="Times,serif" font-size="14.00" fill="#ff0000">caches.containsKey(description)</text>
<text text-anchor="middle" x="1529.6493" y="-177.8" font-family="Times,serif" font-size="14.00" fill="#ff0000">services.contains(oldService)</text>
</g>
<!-- service.getRegisterID() == registerId\n -->
<g id="node14" class="node">
<title>service.getRegisterID() == registerId\n</title>
<polygon fill="none" stroke="#ff0000" points="1870.5611,-208.4 1646.7375,-208.4 1646.7375,-172.4 1870.5611,-172.4 1870.5611,-208.4"/>
<text text-anchor="middle" x="1758.6493" y="-186.2" font-family="Times,serif" font-size="14.00" fill="#ff0000">service.getRegisterID() == registerId</text>
</g>
<!-- serviceDescription != null\n -->
<g id="node15" class="node">
<title>serviceDescription != null\n</title>
<polygon fill="none" stroke="#ff0000" points="2050.9384,-208.4 1888.3602,-208.4 1888.3602,-172.4 2050.9384,-172.4 2050.9384,-208.4"/>
<text text-anchor="middle" x="1969.6493" y="-186.2" font-family="Times,serif" font-size="14.00" fill="#ff0000">serviceDescription != null</text>
</g>
<!-- obj instanceof Description\ndescription.serviceType.equals(serviceType) &amp;&amp; description.opName.equals(opName)\n -->
<g id="node16" class="node">
<title>obj instanceof Description\ndescription.serviceType.equals(serviceType) &amp;&amp; description.opName.equals(opName)\n</title>
<polygon fill="none" stroke="#ff0000" points="2574.1805,-211.0019 2069.1181,-211.0019 2069.1181,-169.7981 2574.1805,-169.7981 2574.1805,-211.0019"/>
<text text-anchor="middle" x="2321.6493" y="-194.6" font-family="Times,serif" font-size="14.00" fill="#ff0000">obj instanceof Description</text>
<text text-anchor="middle" x="2321.6493" y="-177.8" font-family="Times,serif" font-size="14.00" fill="#ff0000">description.serviceType.equals(serviceType) &amp;&amp; description.opName.equals(opName)</text>
</g>
<!-- Class: [SDCache] -->
<g id="node17" class="node">
<title>Class: [SDCache]</title>
<ellipse fill="none" stroke="#000000" cx="2015.6493" cy="-315.6" rx="79.9085" ry="18"/>
<text text-anchor="middle" x="2015.6493" y="-311.4" font-family="Times,serif" font-size="14.00" fill="#000000">Class: [SDCache]</text>
</g>
<!-- Class: [SDCache]&#45;&gt;timer != null\nrefreshPeriod &gt; 0\n -->
<g id="edge14" class="edge">
<title>Class: [SDCache]&#45;&gt;timer != null\nrefreshPeriod &gt; 0\n</title>
<path fill="none" stroke="#ff0000" d="M1935.7218,-314.6875C1607.0891,-310.8383 373.4659,-295.3962 292.0195,-279.6 225.9982,-266.7954 154.2941,-237.1496 107.5996,-215.5387"/>
<polygon fill="#ff0000" stroke="#ff0000" points="108.8558,-212.2623 98.3149,-211.1947 105.8893,-218.6027 108.8558,-212.2623"/>
<text text-anchor="middle" x="340.4642" y="-250.2" font-family="Times,serif" font-size="14.00" fill="#ff0000">setRefreshPeriod</text>
</g>
<!-- Class: [SDCache]&#45;&gt;service.getServiceName().equals(serviceName)\n -->
<g id="edge15" class="edge">
<title>Class: [SDCache]&#45;&gt;service.getServiceName().equals(serviceName)\n</title>
<path fill="none" stroke="#ff0000" d="M1935.5781,-314.7536C1654.2044,-311.6176 720.5887,-299.7875 587.5665,-279.6 496.2426,-265.7406 393.9229,-233.5171 331.3928,-211.839"/>
<polygon fill="#ff0000" stroke="#ff0000" points="332.3013,-208.449 321.7065,-208.4548 329.9924,-215.0573 332.3013,-208.449"/>
<text text-anchor="middle" x="617.1907" y="-250.2" font-family="Times,serif" font-size="14.00" fill="#ff0000">getService</text>
</g>
<!-- Class: [SDCache]&#45;&gt;!caches.containsKey(description)\n -->
<g id="edge16" class="edge">
<title>Class: [SDCache]&#45;&gt;!caches.containsKey(description)\n</title>
<path fill="none" stroke="#ff0000" d="M1935.743,-314.3009C1689.1826,-310.1311 950.4407,-296.3736 843.4571,-279.6 753.7033,-265.5278 653.2179,-233.4406 591.6922,-211.8404"/>
<polygon fill="#ff0000" stroke="#ff0000" points="592.7546,-208.5037 582.1598,-208.4681 590.4199,-215.1029 592.7546,-208.5037"/>
<text text-anchor="middle" x="874.7454" y="-250.2" font-family="Times,serif" font-size="14.00" fill="#ff0000">addService</text>
</g>
<!-- Class: [SDCache]&#45;&gt;maxCacheSize &lt;= caches.size() &amp;&amp; maxCacheSize &gt; 0\n -->
<g id="edge17" class="edge">
<title>Class: [SDCache]&#45;&gt;maxCacheSize &lt;= caches.size() &amp;&amp; maxCacheSize &gt; 0\n</title>
<path fill="none" stroke="#ff0000" d="M1935.9951,-313.9882C1722.6383,-309.4726 1148.6944,-295.9523 1064.4347,-279.6 992.481,-265.636 913.4754,-234.1811 864.4669,-212.6176"/>
<polygon fill="#ff0000" stroke="#ff0000" points="865.6358,-209.3071 855.0761,-208.4449 862.7934,-215.704 865.6358,-209.3071"/>
<text text-anchor="middle" x="1074.7566" y="-250.2" font-family="Times,serif" font-size="14.00" fill="#ff0000">add</text>
</g>
<!-- Class: [SDCache]&#45;&gt;caches.containsKey(description)\n -->
<g id="edge18" class="edge">
<title>Class: [SDCache]&#45;&gt;caches.containsKey(description)\n</title>
<path fill="none" stroke="#ff0000" d="M1935.6593,-315.3361C1718.467,-314.2391 1131.9882,-308.5937 1102.5441,-279.6 1086.9005,-264.1956 1087.0609,-238.5528 1090.3305,-218.7047"/>
<polygon fill="#ff0000" stroke="#ff0000" points="1093.8108,-219.1474 1092.321,-208.6578 1086.9442,-217.7869 1093.8108,-219.1474"/>
<text text-anchor="middle" x="1111.2019" y="-250.2" font-family="Times,serif" font-size="14.00" fill="#ff0000">get</text>
</g>
<!-- Class: [SDCache]&#45;&gt;caches.containsKey(description)\n -->
<g id="edge19" class="edge">
<title>Class: [SDCache]&#45;&gt;caches.containsKey(description)\n</title>
<path fill="none" stroke="#ff0000" d="M1935.6357,-314.5227C1726.3139,-311.4083 1176.383,-301.2048 1143.6689,-279.6 1122.963,-265.9256 1131.1138,-251.2066 1119.6493,-229.2 1117.6368,-225.337 1115.4466,-221.2983 1113.2539,-217.3477"/>
<polygon fill="#ff0000" stroke="#ff0000" points="1116.1763,-215.4046 1108.2155,-208.4135 1110.0791,-218.8432 1116.1763,-215.4046"/>
<text text-anchor="middle" x="1165.6395" y="-250.2" font-family="Times,serif" font-size="14.00" fill="#ff0000">remove</text>
</g>
<!-- Class: [SDCache]&#45;&gt;caches.containsKey(description)\n -->
<g id="edge21" class="edge">
<title>Class: [SDCache]&#45;&gt;caches.containsKey(description)\n</title>
<path fill="none" stroke="#ff0000" d="M1935.7293,-314.8502C1777.9948,-312.8178 1431.8988,-305.4663 1316.0139,-279.6 1299.0241,-275.8078 1208.2705,-237.7019 1149.2355,-212.5374"/>
<polygon fill="#ff0000" stroke="#ff0000" points="1150.2604,-209.1695 1139.6891,-208.4632 1147.5126,-215.6076 1150.2604,-209.1695"/>
<text text-anchor="middle" x="1357.467" y="-250.2" font-family="Times,serif" font-size="14.00" fill="#ff0000">containsCache</text>
</g>
<!-- Class: [SDCache]&#45;&gt;caches.containsKey(description)\ns.equals(service)\n -->
<g id="edge20" class="edge">
<title>Class: [SDCache]&#45;&gt;caches.containsKey(description)\ns.equals(service)\n</title>
<path fill="none" stroke="#ff0000" d="M1936.7421,-312.2716C1823.2097,-307.0144 1619.5299,-295.705 1547.6689,-279.6 1482.9698,-265.1001 1412.3123,-236.2235 1365.7525,-215.2432"/>
<polygon fill="#ff0000" stroke="#ff0000" points="1367.0342,-211.9811 1356.4825,-211.0266 1364.1359,-218.353 1367.0342,-211.9811"/>
<text text-anchor="middle" x="1569.6395" y="-250.2" font-family="Times,serif" font-size="14.00" fill="#ff0000">remove</text>
</g>
<!-- Class: [SDCache]&#45;&gt;caches.containsKey(description)\nservices.contains(oldService)\n -->
<g id="edge22" class="edge">
<title>Class: [SDCache]&#45;&gt;caches.containsKey(description)\nservices.contains(oldService)\n</title>
<path fill="none" stroke="#ff0000" d="M1939.5123,-309.9709C1861.5811,-303.6473 1746.0272,-292.5562 1703.3295,-279.6 1654.9438,-264.9179 1603.9761,-237.0598 1569.8639,-216.3659"/>
<polygon fill="#ff0000" stroke="#ff0000" points="1571.4893,-213.2567 1561.1367,-211.0043 1567.8251,-219.2211 1571.4893,-213.2567"/>
<text text-anchor="middle" x="1722.3092" y="-250.2" font-family="Times,serif" font-size="14.00" fill="#ff0000">update</text>
</g>
<!-- Class: [SDCache]&#45;&gt;service.getRegisterID() == registerId\n -->
<g id="edge23" class="edge">
<title>Class: [SDCache]&#45;&gt;service.getRegisterID() == registerId\n</title>
<path fill="none" stroke="#ff0000" d="M1939.3333,-310.1005C1866.892,-304.0848 1767.3017,-293.4283 1755.2537,-279.6 1740.9289,-263.1586 1743.3773,-237.8424 1748.4878,-218.3748"/>
<polygon fill="#ff0000" stroke="#ff0000" points="1751.9196,-219.1136 1751.4193,-208.5306 1745.2108,-217.1157 1751.9196,-219.1136"/>
<text text-anchor="middle" x="1817.8471" y="-250.2" font-family="Times,serif" font-size="14.00" fill="#ff0000">getServiceDescription</text>
</g>
<!-- Class: [SDCache]&#45;&gt;serviceDescription != null\n -->
<g id="edge24" class="edge">
<title>Class: [SDCache]&#45;&gt;serviceDescription != null\n</title>
<path fill="none" stroke="#ff0000" d="M1952.8164,-304.4192C1926.6059,-298.358 1900.4391,-289.9708 1892.6689,-279.6 1879.2377,-261.6734 1880.9232,-248.2735 1892.6689,-229.2 1896.2543,-223.3777 1901.0119,-218.3978 1906.409,-214.1451"/>
<polygon fill="#ff0000" stroke="#ff0000" points="1908.4652,-216.9786 1914.7119,-208.4211 1904.4921,-211.2154 1908.4652,-216.9786"/>
<text text-anchor="middle" x="1914.6395" y="-250.2" font-family="Times,serif" font-size="14.00" fill="#ff0000">remove</text>
</g>
<!-- Class: [SDCache]&#45;&gt;obj instanceof Description\ndescription.serviceType.equals(serviceType) &amp;&amp; description.opName.equals(opName)\n -->
<g id="edge25" class="edge">
<title>Class: [SDCache]&#45;&gt;obj instanceof Description\ndescription.serviceType.equals(serviceType) &amp;&amp; description.opName.equals(opName)\n</title>
<path fill="none" stroke="#ff0000" d="M1977.788,-299.6696C1969.8344,-294.4805 1962.4729,-287.8654 1957.8849,-279.6 1947.0135,-260.015 1942.9092,-245.858 1957.8849,-229.2 1962.5039,-224.0621 2006.0191,-217.9337 2061.4519,-212.0819"/>
<polygon fill="#ff0000" stroke="#ff0000" points="2061.9753,-215.5464 2071.5597,-211.0311 2061.2514,-208.5839 2061.9753,-215.5464"/>
<text text-anchor="middle" x="1976.5315" y="-250.2" font-family="Times,serif" font-size="14.00" fill="#ff0000">equals</text>
</g>
<!-- Class: [Operation] -->
<g id="node18" class="node">
<title>Class: [Operation]</title>
<ellipse fill="none" stroke="#000000" cx="2674.6493" cy="-190.4" rx="82.1963" ry="18"/>
<text text-anchor="middle" x="2674.6493" y="-186.2" font-family="Times,serif" font-size="14.00" fill="#000000">Class: [Operation]</text>
</g>
<!-- Class: [SDCache]&#45;&gt;Class: [Operation] -->
<g id="edge1" class="edge">
<title>Class: [SDCache]&#45;&gt;Class: [Operation]</title>
<path fill="none" stroke="#000000" d="M2009.2965,-297.3217C2003.7645,-277.6808 1999.0568,-246.9068 2016.3505,-229.2 2038.3826,-206.6416 2552.3757,-215.2319 2583.6493,-211.2 2592.9541,-210.0004 2602.7041,-208.2797 2612.2221,-206.3349"/>
<polygon fill="#000000" stroke="#000000" points="2612.9806,-209.7519 2622.0285,-204.2396 2611.5179,-202.9064 2612.9806,-209.7519"/>
<text text-anchor="middle" x="2052.7987" y="-267" font-family="Times,serif" font-size="14.00" fill="#000000">[addService</text>
<text text-anchor="middle" x="2052.7987" y="-250.2" font-family="Times,serif" font-size="14.00" fill="#000000">&#45;&#45;&gt;</text>
<text text-anchor="middle" x="2052.7987" y="-233.4" font-family="Times,serif" font-size="14.00" fill="#000000">getOpName]</text>
</g>
<!-- Class: [SDCache]&#45;&gt;Class: [Operation] -->
<g id="edge9" class="edge">
<title>Class: [SDCache]&#45;&gt;Class: [Operation]</title>
<path fill="none" stroke="#000000" d="M2059.062,-300.2479C2069.7099,-294.9499 2080.4039,-288.1387 2088.6493,-279.6 2105.7149,-261.9273 2090.9754,-242.9263 2111.3505,-229.2 2154.9047,-199.8584 2531.5863,-218.0808 2583.6493,-211.2 2592.7343,-209.9993 2602.2458,-208.3142 2611.552,-206.4172"/>
<polygon fill="#000000" stroke="#000000" points="2612.4891,-209.7962 2621.5399,-204.2886 2611.03,-202.95 2612.4891,-209.7962"/>
<text text-anchor="middle" x="2147.7987" y="-267" font-family="Times,serif" font-size="14.00" fill="#000000">[remove</text>
<text text-anchor="middle" x="2147.7987" y="-250.2" font-family="Times,serif" font-size="14.00" fill="#000000">&#45;&#45;&gt;</text>
<text text-anchor="middle" x="2147.7987" y="-233.4" font-family="Times,serif" font-size="14.00" fill="#000000">getOpName]</text>
</g>
<!-- Class: [ServiceDescription] -->
<g id="node19" class="node">
<title>Class: [ServiceDescription]</title>
<ellipse fill="none" stroke="#000000" cx="2919.6493" cy="-190.4" rx="117.4855" ry="18"/>
<text text-anchor="middle" x="2919.6493" y="-186.2" font-family="Times,serif" font-size="14.00" fill="#000000">Class: [ServiceDescription]</text>
</g>
<!-- Class: [SDCache]&#45;&gt;Class: [ServiceDescription] -->
<g id="edge2" class="edge">
<title>Class: [SDCache]&#45;&gt;Class: [ServiceDescription]</title>
<path fill="none" stroke="#000000" d="M2085.769,-306.9432C2124.7375,-300.9196 2168.3712,-291.7782 2183.6493,-279.6 2202.9728,-264.1972 2186.5055,-242.8153 2207.1275,-229.2 2233.0353,-212.0949 2734.7117,-213.781 2765.6493,-211.2 2785.429,-209.5498 2806.5588,-207.1303 2826.629,-204.5198"/>
<polygon fill="#000000" stroke="#000000" points="2827.2468,-207.9686 2836.6993,-203.1831 2826.3257,-201.0295 2827.2468,-207.9686"/>
<text text-anchor="middle" x="2257.4102" y="-267" font-family="Times,serif" font-size="14.00" fill="#000000">[addService</text>
<text text-anchor="middle" x="2257.4102" y="-250.2" font-family="Times,serif" font-size="14.00" fill="#000000">&#45;&#45;&gt;</text>
<text text-anchor="middle" x="2257.4102" y="-233.4" font-family="Times,serif" font-size="14.00" fill="#000000">getOperationList]</text>
</g>
<!-- Class: [SDCache]&#45;&gt;Class: [ServiceDescription] -->
<g id="edge3" class="edge">
<title>Class: [SDCache]&#45;&gt;Class: [ServiceDescription]</title>
<path fill="none" stroke="#000000" d="M2091.9252,-309.988C2172.2798,-303.4748 2289.565,-292.0271 2306.6493,-279.6 2326.6347,-265.0627 2309.5758,-242.9082 2330.1387,-229.2 2370.4364,-202.3357 2717.4044,-215.4458 2765.6493,-211.2 2785.3064,-209.4701 2806.3022,-207.0307 2826.2672,-204.4285"/>
<polygon fill="#000000" stroke="#000000" points="2826.8343,-207.884 2836.2867,-203.0983 2825.913,-200.9449 2826.8343,-207.884"/>
<text text-anchor="middle" x="2376.9046" y="-267" font-family="Times,serif" font-size="14.00" fill="#000000">[addService</text>
<text text-anchor="middle" x="2376.9046" y="-250.2" font-family="Times,serif" font-size="14.00" fill="#000000">&#45;&#45;&gt;</text>
<text text-anchor="middle" x="2376.9046" y="-233.4" font-family="Times,serif" font-size="14.00" fill="#000000">getServiceType]</text>
</g>
<!-- Class: [SDCache]&#45;&gt;Class: [ServiceDescription] -->
<g id="edge4" class="edge">
<title>Class: [SDCache]&#45;&gt;Class: [ServiceDescription]</title>
<path fill="none" stroke="#000000" d="M2095.0713,-312.8369C2205.9575,-308.3375 2396.5824,-298.0246 2422.6493,-279.6 2442.7589,-265.3861 2425.3342,-243.09 2445.6689,-229.2 2475.0734,-209.1147 2730.201,-214.5857 2765.6493,-211.2 2785.0632,-209.3457 2805.7922,-206.8802 2825.5457,-204.2964"/>
<polygon fill="#000000" stroke="#000000" points="2826.0111,-207.7654 2835.4632,-202.9791 2825.0894,-200.8264 2826.0111,-207.7654"/>
<text text-anchor="middle" x="2464.1395" y="-267" font-family="Times,serif" font-size="14.00" fill="#000000">[add</text>
<text text-anchor="middle" x="2464.1395" y="-250.2" font-family="Times,serif" font-size="14.00" fill="#000000">&#45;&#45;&gt;</text>
<text text-anchor="middle" x="2464.1395" y="-233.4" font-family="Times,serif" font-size="14.00" fill="#000000">clone]</text>
</g>
<!-- Class: [SDCache]&#45;&gt;Class: [ServiceDescription] -->
<g id="edge5" class="edge">
<title>Class: [SDCache]&#45;&gt;Class: [ServiceDescription]</title>
<path fill="none" stroke="#000000" d="M2095.2516,-313.7714C2219.8068,-310.2678 2449.8039,-300.9701 2480.6493,-279.6 2500.9651,-265.5249 2483.7728,-243.1882 2504.1485,-229.2 2528.1593,-212.7163 2736.6748,-214.1507 2765.6493,-211.2 2784.734,-209.2564 2805.0978,-206.7879 2824.5578,-204.2359"/>
<polygon fill="#000000" stroke="#000000" points="2825.1883,-207.6829 2834.6401,-202.8961 2824.2662,-200.7439 2825.1883,-207.6829"/>
<text text-anchor="middle" x="2571.8997" y="-267" font-family="Times,serif" font-size="14.00" fill="#000000">[getServiceDescriptions</text>
<text text-anchor="middle" x="2571.8997" y="-250.2" font-family="Times,serif" font-size="14.00" fill="#000000">&#45;&#45;&gt;</text>
<text text-anchor="middle" x="2571.8997" y="-233.4" font-family="Times,serif" font-size="14.00" fill="#000000">getServiceName]</text>
</g>
<!-- Class: [SDCache]&#45;&gt;Class: [ServiceDescription] -->
<g id="edge6" class="edge">
<title>Class: [SDCache]&#45;&gt;Class: [ServiceDescription]</title>
<path fill="none" stroke="#000000" d="M2094.9223,-313.1876C2257.7628,-307.9356 2616.5844,-294.7168 2638.6493,-279.6 2658.9532,-265.6897 2641.9468,-244.0245 2661.5931,-229.2 2664.9392,-226.6752 2750.7084,-214.0958 2822.4562,-203.9347"/>
<polygon fill="#000000" stroke="#000000" points="2823.0653,-207.3835 2832.477,-202.5183 2822.0855,-200.4524 2823.0653,-207.3835"/>
<text text-anchor="middle" x="2726.1774" y="-267" font-family="Times,serif" font-size="14.00" fill="#000000">[getServiceDescription</text>
<text text-anchor="middle" x="2726.1774" y="-250.2" font-family="Times,serif" font-size="14.00" fill="#000000">&#45;&#45;&gt;</text>
<text text-anchor="middle" x="2726.1774" y="-233.4" font-family="Times,serif" font-size="14.00" fill="#000000">getRegisterID]</text>
</g>
<!-- Class: [SDCache]&#45;&gt;Class: [ServiceDescription] -->
<g id="edge7" class="edge">
<title>Class: [SDCache]&#45;&gt;Class: [ServiceDescription]</title>
<path fill="none" stroke="#000000" d="M2095.4224,-314.1266C2287.5509,-310.2783 2762.2405,-298.8667 2790.6493,-279.6 2811.0013,-265.7973 2795.4517,-245.9247 2813.4795,-229.2 2822.3027,-221.0146 2832.9916,-214.5242 2844.1459,-209.3866"/>
<polygon fill="#000000" stroke="#000000" points="2845.7532,-212.5068 2853.5943,-205.3816 2843.0213,-206.0619 2845.7532,-212.5068"/>
<text text-anchor="middle" x="2861.2342" y="-267" font-family="Times,serif" font-size="14.00" fill="#000000">[getServices</text>
<text text-anchor="middle" x="2861.2342" y="-250.2" font-family="Times,serif" font-size="14.00" fill="#000000">&#45;&#45;&gt;</text>
<text text-anchor="middle" x="2861.2342" y="-233.4" font-family="Times,serif" font-size="14.00" fill="#000000">getServiceName]</text>
</g>
<!-- Class: [SDCache]&#45;&gt;Class: [ServiceDescription] -->
<g id="edge8" class="edge">
<title>Class: [SDCache]&#45;&gt;Class: [ServiceDescription]</title>
<path fill="none" stroke="#000000" d="M2095.9114,-315.1955C2310.145,-313.7429 2881.2453,-307.2808 2910.6493,-279.6 2926.7882,-264.4069 2927.7568,-238.5147 2925.4387,-218.5281"/>
<polygon fill="#000000" stroke="#000000" points="2928.8689,-217.7987 2923.9393,-208.4205 2921.9446,-218.8259 2928.8689,-217.7987"/>
<text text-anchor="middle" x="2974.2342" y="-267" font-family="Times,serif" font-size="14.00" fill="#000000">[getService</text>
<text text-anchor="middle" x="2974.2342" y="-250.2" font-family="Times,serif" font-size="14.00" fill="#000000">&#45;&#45;&gt;</text>
<text text-anchor="middle" x="2974.2342" y="-233.4" font-family="Times,serif" font-size="14.00" fill="#000000">getServiceName]</text>
</g>
<!-- Class: [SDCache]&#45;&gt;Class: [ServiceDescription] -->
<g id="edge10" class="edge">
<title>Class: [SDCache]&#45;&gt;Class: [ServiceDescription]</title>
<path fill="none" stroke="#000000" d="M2095.6317,-314.2217C2331.7794,-309.9639 3010.5371,-296.2961 3026.6493,-279.6 3042.2041,-263.4814 3039.5084,-247.5413 3026.6493,-229.2 3021.5527,-221.9305 3006.8505,-214.9839 2989.9141,-209.0291"/>
<polygon fill="#000000" stroke="#000000" points="2990.9157,-205.6736 2980.322,-205.8271 2988.6992,-212.3134 2990.9157,-205.6736"/>
<text text-anchor="middle" x="3059.9698" y="-267" font-family="Times,serif" font-size="14.00" fill="#000000">[remove</text>
<text text-anchor="middle" x="3059.9698" y="-250.2" font-family="Times,serif" font-size="14.00" fill="#000000">&#45;&#45;&gt;</text>
<text text-anchor="middle" x="3059.9698" y="-233.4" font-family="Times,serif" font-size="14.00" fill="#000000">equals]</text>
</g>
<!-- Class: [SDCache]&#45;&gt;Class: [ServiceDescription] -->
<g id="edge11" class="edge">
<title>Class: [SDCache]&#45;&gt;Class: [ServiceDescription]</title>
<path fill="none" stroke="#000000" d="M2095.6296,-314.3888C2341.4546,-310.4779 3070.437,-297.4 3087.6493,-279.6 3103.2204,-263.4972 3101.5929,-246.731 3087.6493,-229.2 3078.5672,-217.7813 3052.0424,-209.4329 3022.6756,-203.4721"/>
<polygon fill="#000000" stroke="#000000" points="3023.1094,-199.9915 3012.6286,-201.5412 3021.7883,-206.8657 3023.1094,-199.9915"/>
<text text-anchor="middle" x="3148.4102" y="-267" font-family="Times,serif" font-size="14.00" fill="#000000">[remove</text>
<text text-anchor="middle" x="3148.4102" y="-250.2" font-family="Times,serif" font-size="14.00" fill="#000000">&#45;&#45;&gt;</text>
<text text-anchor="middle" x="3148.4102" y="-233.4" font-family="Times,serif" font-size="14.00" fill="#000000">getOperationList]</text>
</g>
<!-- Class: [SDCache]&#45;&gt;Class: [ServiceDescription] -->
<g id="edge12" class="edge">
<title>Class: [SDCache]&#45;&gt;Class: [ServiceDescription]</title>
<path fill="none" stroke="#000000" d="M2095.7522,-314.6557C2359.2346,-311.3614 3183.3587,-299.4846 3202.6493,-279.6 3218.2466,-263.5225 3217.3735,-246.0807 3202.6493,-229.2 3191.3244,-216.2165 3108.9052,-205.8957 3035.9125,-199.1726"/>
<polygon fill="#000000" stroke="#000000" points="3035.9584,-195.6626 3025.6839,-198.2479 3035.3281,-202.6342 3035.9584,-195.6626"/>
<text text-anchor="middle" x="3259.9046" y="-267" font-family="Times,serif" font-size="14.00" fill="#000000">[remove</text>
<text text-anchor="middle" x="3259.9046" y="-250.2" font-family="Times,serif" font-size="14.00" fill="#000000">&#45;&#45;&gt;</text>
<text text-anchor="middle" x="3259.9046" y="-233.4" font-family="Times,serif" font-size="14.00" fill="#000000">getServiceType]</text>
</g>
<!-- Class: [SDCache]&#45;&gt;Class: [ServiceDescription] -->
<g id="edge13" class="edge">
<title>Class: [SDCache]&#45;&gt;Class: [ServiceDescription]</title>
<path fill="none" stroke="#000000" d="M2095.6585,-314.8658C2374.7391,-312.1171 3289.3939,-301.4545 3310.6493,-279.6 3326.2669,-263.5422 3325.6861,-245.8028 3310.6493,-229.2 3292.8633,-209.5617 3152.6552,-199.4693 3045.1688,-194.5693"/>
<polygon fill="#000000" stroke="#000000" points="3045.02,-191.0593 3034.8742,-194.1112 3044.7087,-198.0524 3045.02,-191.0593"/>
<text text-anchor="middle" x="3367.9046" y="-267" font-family="Times,serif" font-size="14.00" fill="#000000">[update</text>
<text text-anchor="middle" x="3367.9046" y="-250.2" font-family="Times,serif" font-size="14.00" fill="#000000">&#45;&#45;&gt;</text>
<text text-anchor="middle" x="3367.9046" y="-233.4" font-family="Times,serif" font-size="14.00" fill="#000000">getServiceType]</text>
</g>
<!-- Class: [Operation]&#45;&gt;obj instanceof Operation\n!name.equals(op.getOpName())\n!returnType.equals(op.getReturnType())\n!paramTypes[i].equals(op.getParamTypes()[i])\n -->
<g id="edge26" class="edge">
<title>Class: [Operation]&#45;&gt;obj instanceof Operation\n!name.equals(op.getOpName())\n!returnType.equals(op.getReturnType())\n!paramTypes[i].equals(op.getParamTypes()[i])\n</title>
<path fill="none" stroke="#ff0000" d="M2619.5331,-177.0103C2561.9689,-162.8288 2469.1558,-139.4074 2389.6493,-116.8 2383.5349,-115.0614 2377.2886,-113.2519 2370.9868,-111.3995"/>
<polygon fill="#ff0000" stroke="#ff0000" points="2371.6315,-107.9402 2361.0493,-108.4571 2369.6442,-114.6522 2371.6315,-107.9402"/>
<text text-anchor="middle" x="2532.5315" y="-139" font-family="Times,serif" font-size="14.00" fill="#ff0000">equals</text>
</g>
<!-- Class: [ServiceDescription]&#45;&gt;opList.get(i).getOpName().equals(opName)\n -->
<g id="edge27" class="edge">
<title>Class: [ServiceDescription]&#45;&gt;opList.get(i).getOpName().equals(opName)\n</title>
<path fill="none" stroke="#ff0000" d="M2848.6014,-175.9511C2818.5822,-169.3321 2783.3797,-160.8906 2752.0167,-151.6 2693.6777,-134.3184 2628.3998,-109.9829 2583.7462,-92.543"/>
<polygon fill="#ff0000" stroke="#ff0000" points="2584.8483,-89.2157 2574.2609,-88.8209 2582.2913,-95.732 2584.8483,-89.2157"/>
<text text-anchor="middle" x="2803.9656" y="-139" font-family="Times,serif" font-size="14.00" fill="#ff0000">containsOperation</text>
</g>
<!-- Class: [ServiceDescription]&#45;&gt;op.getOpName().equals(opName)\n -->
<g id="edge28" class="edge">
<title>Class: [ServiceDescription]&#45;&gt;op.getOpName().equals(opName)\n</title>
<path fill="none" stroke="#ff0000" d="M2898.9893,-172.4947C2875.4125,-152.0614 2836.7035,-118.5136 2810.2399,-95.5785"/>
<polygon fill="#ff0000" stroke="#ff0000" points="2812.2997,-92.7322 2802.4505,-88.8277 2807.7152,-98.022 2812.2997,-92.7322"/>
<text text-anchor="middle" x="2907.1907" y="-139" font-family="Times,serif" font-size="14.00" fill="#ff0000">getOperation</text>
</g>
<!-- Class: [ServiceDescription]&#45;&gt;customProperties.containsKey(RESPONSE_TIME)\n -->
<g id="edge29" class="edge">
<title>Class: [ServiceDescription]&#45;&gt;customProperties.containsKey(RESPONSE_TIME)\n</title>
<path fill="none" stroke="#ff0000" d="M2940.1596,-172.4947C2963.5656,-152.0614 3001.994,-118.5136 3028.2659,-95.5785"/>
<polygon fill="#ff0000" stroke="#ff0000" points="3030.7673,-98.0409 3035.9988,-88.8277 3026.1637,-92.7676 3030.7673,-98.0409"/>
<text text-anchor="middle" x="3029.8036" y="-139" font-family="Times,serif" font-size="14.00" fill="#ff0000">getResponseTime</text>
</g>
<!-- Class: [ServiceDescription]&#45;&gt;os != null\nis != null\n -->
<g id="edge30" class="edge">
<title>Class: [ServiceDescription]&#45;&gt;os != null\nis != null\n</title>
<path fill="none" stroke="#ff0000" d="M3019.405,-180.7721C3080.5923,-171.3891 3158.6294,-152.9472 3219.6493,-116.8 3227.356,-112.2347 3234.5344,-105.8794 3240.7332,-99.3476"/>
<polygon fill="#ff0000" stroke="#ff0000" points="3243.5068,-101.4955 3247.5331,-91.6955 3238.2743,-96.8457 3243.5068,-101.4955"/>
<text text-anchor="middle" x="3196.8092" y="-139" font-family="Times,serif" font-size="14.00" fill="#ff0000">clone</text>
</g>
<!-- Class: [ServiceDescription]&#45;&gt;obj instanceof ServiceDescription\nregisterID == service.getRegisterID() &amp;&amp; endpoint.equals(service.getServiceEndpoint()) &amp;&amp; type.equals(service.getServiceType())\n!opList.get(i).equals(service.getOperationList().get(i))\n!service.getCustomProperties().containsKey(key)\n!service.getCustomProperties().get(key).equals(value)\n -->
<g id="edge31" class="edge">
<title>Class: [ServiceDescription]&#45;&gt;obj instanceof ServiceDescription\nregisterID == service.getRegisterID() &amp;&amp; endpoint.equals(service.getServiceEndpoint()) &amp;&amp; type.equals(service.getServiceType())\n!opList.get(i).equals(service.getOperationList().get(i))\n!service.getCustomProperties().containsKey(key)\n!service.getCustomProperties().get(key).equals(value)\n</title>
<path fill="none" stroke="#ff0000" d="M3011.77,-179.2099C3070.2471,-171.8878 3147.4783,-161.8141 3215.6493,-151.6 3282.7224,-141.5504 3354.9245,-129.841 3422.414,-118.5065"/>
<polygon fill="#ff0000" stroke="#ff0000" points="3423.0555,-121.9479 3432.3361,-116.8372 3421.894,-115.0449 3423.0555,-121.9479"/>
<text text-anchor="middle" x="3338.5315" y="-139" font-family="Times,serif" font-size="14.00" fill="#ff0000">equals</text>
</g>
</g>
</svg>
