<svg width="429pt" height="291pt"
 viewBox="0.00 0.00 428.82 291.20" xmlns="http://www.w3.org/2000/svg" xmlns:xlink="http://www.w3.org/1999/xlink">
<g id="graph0" class="graph" transform="scale(1 1) rotate(0) translate(4 287.2)">
<title>project</title>
<polygon fill="#ffffff" stroke="transparent" points="-4,4 -4,-287.2 424.823,-287.2 424.823,4 -4,4"/>
<text text-anchor="middle" x="210.4115" y="-8.2" font-family="Times,serif" font-size="14.00" fill="#000000">Method Calls for :tas.services.profiles.ServiceDelayProfile</text>
<!-- parallel\nparallelTimes.containsKey(token)\n -->
<g id="node1" class="node">
<title>parallel\nparallelTimes.containsKey(token)\n</title>
<polygon fill="none" stroke="#ff0000" points="281.7608,-66.2019 75.0172,-66.2019 75.0172,-24.9981 281.7608,-24.9981 281.7608,-66.2019"/>
<text text-anchor="middle" x="178.389" y="-49.8" font-family="Times,serif" font-size="14.00" fill="#ff0000">parallel</text>
<text text-anchor="middle" x="178.389" y="-33" font-family="Times,serif" font-size="14.00" fill="#ff0000">parallelTimes.containsKey(token)</text>
</g>
<!-- maxTime &lt; value\n -->
<g id="node2" class="node">
<title>maxTime &lt; value\n</title>
<polygon fill="none" stroke="#ff0000" points="420.7571,-63.6 306.0209,-63.6 306.0209,-27.6 420.7571,-27.6 420.7571,-63.6"/>
<text text-anchor="middle" x="363.389" y="-41.4" font-family="Times,serif" font-size="14.00" fill="#ff0000">maxTime &lt; value</text>
</g>
<!-- invocationNum &gt;= num\ninvocationNum &lt; num\n -->
<g id="node3" class="node">
<title>invocationNum &gt;= num\ninvocationNum &lt; num\n</title>
<polygon fill="none" stroke="#ff0000" points="150.6672,-160.6019 .1108,-160.6019 .1108,-119.3981 150.6672,-119.3981 150.6672,-160.6019"/>
<text text-anchor="middle" x="75.389" y="-144.2" font-family="Times,serif" font-size="14.00" fill="#ff0000">invocationNum &gt;= num</text>
<text text-anchor="middle" x="75.389" y="-127.4" font-family="Times,serif" font-size="14.00" fill="#ff0000">invocationNum &lt; num</text>
</g>
<!-- Class: [ServiceDelayProfile] -->
<g id="node4" class="node">
<title>Class: [ServiceDelayProfile]</title>
<ellipse fill="none" stroke="#000000" cx="143.389" cy="-265.2" rx="121.5574" ry="18"/>
<text text-anchor="middle" x="143.389" y="-261" font-family="Times,serif" font-size="14.00" fill="#000000">Class: [ServiceDelayProfile]</text>
</g>
<!-- Class: [ServiceDelayProfile]&#45;&gt;invocationNum &gt;= num\ninvocationNum &lt; num\n -->
<g id="edge2" class="edge">
<title>Class: [ServiceDelayProfile]&#45;&gt;invocationNum &gt;= num\ninvocationNum &lt; num\n</title>
<path fill="none" stroke="#ff0000" d="M114.2943,-247.6863C107.656,-242.4781 101.2224,-236.2506 96.661,-229.2 85.3838,-211.7687 80.076,-188.9501 77.5822,-170.7559"/>
<polygon fill="#ff0000" stroke="#ff0000" points="81.0397,-170.1859 76.4153,-160.6536 74.086,-170.9892 81.0397,-170.1859"/>
<text text-anchor="middle" x="153.753" y="-199.8" font-family="Times,serif" font-size="14.00" fill="#ff0000">preInvokeOperation</text>
</g>
<!-- Class: [SimClock] -->
<g id="node5" class="node">
<title>Class: [SimClock]</title>
<ellipse fill="none" stroke="#000000" cx="251.389" cy="-140" rx="82.235" ry="18"/>
<text text-anchor="middle" x="251.389" y="-135.8" font-family="Times,serif" font-size="14.00" fill="#000000">Class: [SimClock]</text>
</g>
<!-- Class: [ServiceDelayProfile]&#45;&gt;Class: [SimClock] -->
<g id="edge1" class="edge">
<title>Class: [ServiceDelayProfile]&#45;&gt;Class: [SimClock]</title>
<path fill="none" stroke="#000000" d="M184.2708,-248.1306C193.3249,-243.0049 202.3172,-236.704 209.389,-229.2 225.8081,-211.7774 236.8229,-186.767 243.4376,-167.6603"/>
<polygon fill="#000000" stroke="#000000" points="246.8121,-168.6013 246.5835,-158.0089 240.1567,-166.4319 246.8121,-168.6013"/>
<text text-anchor="middle" x="298.0833" y="-216.6" font-family="Times,serif" font-size="14.00" fill="#000000">[preInvokeOperation</text>
<text text-anchor="middle" x="298.0833" y="-199.8" font-family="Times,serif" font-size="14.00" fill="#000000">&#45;&#45;&gt;</text>
<text text-anchor="middle" x="298.0833" y="-183" font-family="Times,serif" font-size="14.00" fill="#000000">increment]</text>
</g>
<!-- Class: [SimClock]&#45;&gt;parallel\nparallelTimes.containsKey(token)\n -->
<g id="edge3" class="edge">
<title>Class: [SimClock]&#45;&gt;parallel\nparallelTimes.containsKey(token)\n</title>
<path fill="none" stroke="#ff0000" d="M201.7416,-125.4087C190.5411,-119.6991 180.0212,-111.8695 173.4128,-101.2 168.8779,-93.8782 168.0911,-84.9397 168.9967,-76.3892"/>
<polygon fill="#ff0000" stroke="#ff0000" points="172.4882,-76.7466 170.8025,-66.2868 165.5974,-75.5149 172.4882,-76.7466"/>
<text text-anchor="middle" x="202.3771" y="-88.6" font-family="Times,serif" font-size="14.00" fill="#ff0000">increment</text>
</g>
<!-- Class: [SimClock]&#45;&gt;parallel\nparallelTimes.containsKey(token)\n -->
<g id="edge4" class="edge">
<title>Class: [SimClock]&#45;&gt;parallel\nparallelTimes.containsKey(token)\n</title>
<path fill="none" stroke="#ff0000" d="M246.9642,-121.9634C243.5097,-110.4195 237.8547,-95.5684 229.389,-84.4 226.3175,-80.3479 222.7173,-76.5061 218.8749,-72.9285"/>
<polygon fill="#ff0000" stroke="#ff0000" points="221.1287,-70.2505 211.2628,-66.3885 216.567,-75.56 221.1287,-70.2505"/>
<text text-anchor="middle" x="284.0973" y="-88.6" font-family="Times,serif" font-size="14.00" fill="#ff0000">getCurrentTime</text>
</g>
<!-- Class: [SimClock]&#45;&gt;maxTime &lt; value\n -->
<g id="edge5" class="edge">
<title>Class: [SimClock]&#45;&gt;maxTime &lt; value\n</title>
<path fill="none" stroke="#ff0000" d="M295.6551,-124.7277C308.5354,-118.799 321.9363,-111.0248 332.389,-101.2 340.7495,-93.3417 347.4274,-82.7127 352.4124,-72.8528"/>
<polygon fill="#ff0000" stroke="#ff0000" points="355.6034,-74.2915 356.6727,-63.7507 349.2635,-71.3239 355.6034,-74.2915"/>
<text text-anchor="middle" x="376.8757" y="-88.6" font-family="Times,serif" font-size="14.00" fill="#ff0000">endParallel</text>
</g>
</g>
</svg>
