<svg width="3830pt" height="342pt"
 viewBox="0.00 0.00 3829.94 341.60" xmlns="http://www.w3.org/2000/svg" xmlns:xlink="http://www.w3.org/1999/xlink">
<g id="graph0" class="graph" transform="scale(1 1) rotate(0) translate(4 337.6)">
<title>project</title>
<polygon fill="#ffffff" stroke="transparent" points="-4,4 -4,-337.6 3825.9389,-337.6 3825.9389,4 -4,4"/>
<text text-anchor="middle" x="1910.9695" y="-8.2" font-family="Times,serif" font-size="14.00" fill="#000000">Method Calls for :service.registry.ServiceRegistry</text>
<!-- opList.get(i).getOpName().equals(opName)\n -->
<g id="node1" class="node">
<title>opList.get(i).getOpName().equals(opName)\n</title>
<polygon fill="none" stroke="#ff0000" points="971.0602,-88.8 708.9266,-88.8 708.9266,-52.8 971.0602,-52.8 971.0602,-88.8"/>
<text text-anchor="middle" x="839.9934" y="-66.6" font-family="Times,serif" font-size="14.00" fill="#ff0000">opList.get(i).getOpName().equals(opName)</text>
</g>
<!-- op.getOpName().equals(opName)\n -->
<g id="node2" class="node">
<title>op.getOpName().equals(opName)\n</title>
<polygon fill="none" stroke="#ff0000" points="1195.4653,-88.8 988.5215,-88.8 988.5215,-52.8 1195.4653,-52.8 1195.4653,-88.8"/>
<text text-anchor="middle" x="1091.9934" y="-66.6" font-family="Times,serif" font-size="14.00" fill="#ff0000">op.getOpName().equals(opName)</text>
</g>
<!-- customProperties.containsKey(RESPONSE_TIME)\n -->
<g id="node3" class="node">
<title>customProperties.containsKey(RESPONSE_TIME)\n</title>
<polygon fill="none" stroke="#ff0000" points="1520.7033,-88.8 1213.2835,-88.8 1213.2835,-52.8 1520.7033,-52.8 1520.7033,-88.8"/>
<text text-anchor="middle" x="1366.9934" y="-66.6" font-family="Times,serif" font-size="14.00" fill="#ff0000">customProperties.containsKey(RESPONSE_TIME)</text>
</g>
<!-- os != null\nis != null\n -->
<g id="node4" class="node">
<title>os != null\nis != null\n</title>
<polygon fill="none" stroke="#ff0000" points="1607.7747,-91.4019 1538.2121,-91.4019 1538.2121,-50.1981 1607.7747,-50.1981 1607.7747,-91.4019"/>
<text text-anchor="middle" x="1572.9934" y="-75" font-family="Times,serif" font-size="14.00" fill="#ff0000">os != null</text>
<text text-anchor="middle" x="1572.9934" y="-58.2" font-family="Times,serif" font-size="14.00" fill="#ff0000">is != null</text>
</g>
<!-- obj instanceof ServiceDescription\nregisterID == service.getRegisterID() &amp;&amp; endpoint.equals(service.getServiceEndpoint()) &amp;&amp; type.equals(service.getServiceType())\n!opList.get(i).equals(service.getOperationList().get(i))\n!service.getCustomProperties().containsKey(key)\n!service.getCustomProperties().get(key).equals(value)\n -->
<g id="node5" class="node">
<title>obj instanceof ServiceDescription\nregisterID == service.getRegisterID() &amp;&amp; endpoint.equals(service.getServiceEndpoint()) &amp;&amp; type.equals(service.getServiceType())\n!opList.get(i).equals(service.getOperationList().get(i))\n!service.getCustomProperties().containsKey(key)\n!service.getCustomProperties().get(key).equals(value)\n</title>
<polygon fill="none" stroke="#ff0000" points="2383.5343,-116.8 1626.4525,-116.8 1626.4525,-24.8 2383.5343,-24.8 2383.5343,-116.8"/>
<text text-anchor="middle" x="2004.9934" y="-100.2" font-family="Times,serif" font-size="14.00" fill="#ff0000">obj instanceof ServiceDescription</text>
<text text-anchor="middle" x="2004.9934" y="-83.4" font-family="Times,serif" font-size="14.00" fill="#ff0000">registerID == service.getRegisterID() &amp;&amp; endpoint.equals(service.getServiceEndpoint()) &amp;&amp; type.equals(service.getServiceType())</text>
<text text-anchor="middle" x="2004.9934" y="-66.6" font-family="Times,serif" font-size="14.00" fill="#ff0000">!opList.get(i).equals(service.getOperationList().get(i))</text>
<text text-anchor="middle" x="2004.9934" y="-49.8" font-family="Times,serif" font-size="14.00" fill="#ff0000">!service.getCustomProperties().containsKey(key)</text>
<text text-anchor="middle" x="2004.9934" y="-33" font-family="Times,serif" font-size="14.00" fill="#ff0000">!service.getCustomProperties().get(key).equals(value)</text>
</g>
<!-- DEBUG\nreply\nresponseTime ==  -->
<g id="node6" class="node">
<title>DEBUG\nreply\nresponseTime == </title>
<polygon fill="none" stroke="#ff0000" points="2518.8104,-100.2014 2401.1764,-100.2014 2401.1764,-41.3986 2518.8104,-41.3986 2518.8104,-100.2014"/>
<text text-anchor="middle" x="2459.9934" y="-83.4" font-family="Times,serif" font-size="14.00" fill="#ff0000">DEBUG</text>
<text text-anchor="middle" x="2459.9934" y="-66.6" font-family="Times,serif" font-size="14.00" fill="#ff0000">reply</text>
<text text-anchor="middle" x="2459.9934" y="-49.8" font-family="Times,serif" font-size="14.00" fill="#ff0000">responseTime == </text>
</g>
<!-- DEBUG\n!(result instanceof OperationAborted)\nthread instanceof ExecutionThread\nDEBUG\nresponse.getReturnType() != null\n -->
<g id="node7" class="node">
<title>DEBUG\n!(result instanceof OperationAborted)\nthread instanceof ExecutionThread\nDEBUG\nresponse.getReturnType() != null\n</title>
<polygon fill="none" stroke="#ff0000" points="2763.9569,-116.8 2536.0299,-116.8 2536.0299,-24.8 2763.9569,-24.8 2763.9569,-116.8"/>
<text text-anchor="middle" x="2649.9934" y="-100.2" font-family="Times,serif" font-size="14.00" fill="#ff0000">DEBUG</text>
<text text-anchor="middle" x="2649.9934" y="-83.4" font-family="Times,serif" font-size="14.00" fill="#ff0000">!(result instanceof OperationAborted)</text>
<text text-anchor="middle" x="2649.9934" y="-66.6" font-family="Times,serif" font-size="14.00" fill="#ff0000">thread instanceof ExecutionThread</text>
<text text-anchor="middle" x="2649.9934" y="-49.8" font-family="Times,serif" font-size="14.00" fill="#ff0000">DEBUG</text>
<text text-anchor="middle" x="2649.9934" y="-33" font-family="Times,serif" font-size="14.00" fill="#ff0000">response.getReturnType() != null</text>
</g>
<!-- !(result instanceof OperationAborted)\n -->
<g id="node8" class="node">
<title>!(result instanceof OperationAborted)\n</title>
<polygon fill="none" stroke="#ff0000" points="3008.9569,-88.8 2781.0299,-88.8 2781.0299,-52.8 3008.9569,-52.8 3008.9569,-88.8"/>
<text text-anchor="middle" x="2894.9934" y="-66.6" font-family="Times,serif" font-size="14.00" fill="#ff0000">!(result instanceof OperationAborted)</text>
</g>
<!-- description.getRegisterID() &gt; 0\n -->
<g id="node9" class="node">
<title>description.getRegisterID() &gt; 0\n</title>
<polygon fill="none" stroke="#ff0000" points="3217.9405,-88.8 3026.0463,-88.8 3026.0463,-52.8 3217.9405,-52.8 3217.9405,-88.8"/>
<text text-anchor="middle" x="3121.9934" y="-66.6" font-family="Times,serif" font-size="14.00" fill="#ff0000">description.getRegisterID() &gt; 0</text>
</g>
<!-- operation.getAnnotation(ServiceOperation.class) != null\n -->
<g id="node10" class="node">
<title>operation.getAnnotation(ServiceOperation.class) != null\n</title>
<polygon fill="none" stroke="#ff0000" points="3567.7845,-88.8 3236.2023,-88.8 3236.2023,-52.8 3567.7845,-52.8 3567.7845,-88.8"/>
<text text-anchor="middle" x="3401.9934" y="-66.6" font-family="Times,serif" font-size="14.00" fill="#ff0000">operation.getAnnotation(ServiceOperation.class) != null</text>
</g>
<!-- configuration.multipleThreads == false\n -->
<g id="node11" class="node">
<title>configuration.multipleThreads == false\n</title>
<polygon fill="none" stroke="#ff0000" points="3821.8844,-88.8 3586.1024,-88.8 3586.1024,-52.8 3821.8844,-52.8 3821.8844,-88.8"/>
<text text-anchor="middle" x="3703.9934" y="-66.6" font-family="Times,serif" font-size="14.00" fill="#ff0000">configuration.multipleThreads == false</text>
</g>
<!-- services.containsKey(type)\n -->
<g id="node12" class="node">
<title>services.containsKey(type)\n</title>
<polygon fill="none" stroke="#ff0000" points="167.9802,-208.4 .0066,-208.4 .0066,-172.4 167.9802,-172.4 167.9802,-208.4"/>
<text text-anchor="middle" x="83.9934" y="-186.2" font-family="Times,serif" font-size="14.00" fill="#ff0000">services.containsKey(type)</text>
</g>
<!-- set.size() == 0\n -->
<g id="node13" class="node">
<title>set.size() == 0\n</title>
<polygon fill="none" stroke="#ff0000" points="281.918,-208.4 186.0688,-208.4 186.0688,-172.4 281.918,-172.4 281.918,-208.4"/>
<text text-anchor="middle" x="233.9934" y="-186.2" font-family="Times,serif" font-size="14.00" fill="#ff0000">set.size() == 0</text>
</g>
<!-- services.containsKey(type)\nservice.containsOperation(opName)\n -->
<g id="node14" class="node">
<title>services.containsKey(type)\nservice.containsOperation(opName)\n</title>
<polygon fill="none" stroke="#ff0000" points="518.0137,-211.0019 299.9731,-211.0019 299.9731,-169.7981 518.0137,-169.7981 518.0137,-211.0019"/>
<text text-anchor="middle" x="408.9934" y="-194.6" font-family="Times,serif" font-size="14.00" fill="#ff0000">services.containsKey(type)</text>
<text text-anchor="middle" x="408.9934" y="-177.8" font-family="Times,serif" font-size="14.00" fill="#ff0000">service.containsOperation(opName)</text>
</g>
<!-- description.getServiceName().equals(serviceName)\n -->
<g id="node15" class="node">
<title>description.getServiceName().equals(serviceName)\n</title>
<polygon fill="none" stroke="#ff0000" points="841.6817,-208.4 536.3051,-208.4 536.3051,-172.4 841.6817,-172.4 841.6817,-208.4"/>
<text text-anchor="middle" x="688.9934" y="-186.2" font-family="Times,serif" font-size="14.00" fill="#ff0000">description.getServiceName().equals(serviceName)</text>
</g>
<!-- serviceList.containsKey(registerID)\nservices.containsKey(type)\n -->
<g id="node16" class="node">
<title>serviceList.containsKey(registerID)\nservices.containsKey(type)\n</title>
<polygon fill="none" stroke="#ff0000" points="1076.4522,-211.0019 859.5346,-211.0019 859.5346,-169.7981 1076.4522,-169.7981 1076.4522,-211.0019"/>
<text text-anchor="middle" x="967.9934" y="-194.6" font-family="Times,serif" font-size="14.00" fill="#ff0000">serviceList.containsKey(registerID)</text>
<text text-anchor="middle" x="967.9934" y="-177.8" font-family="Times,serif" font-size="14.00" fill="#ff0000">services.containsKey(type)</text>
</g>
<!-- Class: [ServiceRegistry] -->
<g id="node17" class="node">
<title>Class: [ServiceRegistry]</title>
<ellipse fill="none" stroke="#000000" cx="1279.9934" cy="-315.6" rx="105.3257" ry="18"/>
<text text-anchor="middle" x="1279.9934" y="-311.4" font-family="Times,serif" font-size="14.00" fill="#000000">Class: [ServiceRegistry]</text>
</g>
<!-- Class: [ServiceRegistry]&#45;&gt;services.containsKey(type)\n -->
<g id="edge14" class="edge">
<title>Class: [ServiceRegistry]&#45;&gt;services.containsKey(type)\n</title>
<path fill="none" stroke="#ff0000" d="M1174.7691,-314.4187C932.3344,-311.3325 348.5481,-301.6877 262.0172,-279.6 209.4383,-266.1788 154.4056,-235.679 119.697,-214.0911"/>
<polygon fill="#ff0000" stroke="#ff0000" points="121.2199,-210.9135 110.8953,-208.5357 117.4837,-216.833 121.2199,-210.9135"/>
<text text-anchor="middle" x="283.9815" y="-250.2" font-family="Times,serif" font-size="14.00" fill="#ff0000">register</text>
</g>
<!-- Class: [ServiceRegistry]&#45;&gt;set.size() == 0\n -->
<g id="edge15" class="edge">
<title>Class: [ServiceRegistry]&#45;&gt;set.size() == 0\n</title>
<path fill="none" stroke="#ff0000" d="M1175.3191,-313.3721C964.4878,-308.5613 502.7522,-296.2743 432.3412,-279.6 374.1768,-265.8258 312.0992,-234.9764 273.1908,-213.4375"/>
<polygon fill="#ff0000" stroke="#ff0000" points="274.7282,-210.287 264.2937,-208.4504 271.3054,-216.3931 274.7282,-210.287"/>
<text text-anchor="middle" x="463.3195" y="-250.2" font-family="Times,serif" font-size="14.00" fill="#ff0000">unRegister</text>
</g>
<!-- Class: [ServiceRegistry]&#45;&gt;services.containsKey(type)\nservice.containsOperation(opName)\n -->
<g id="edge16" class="edge">
<title>Class: [ServiceRegistry]&#45;&gt;services.containsKey(type)\nservice.containsOperation(opName)\n</title>
<path fill="none" stroke="#ff0000" d="M1175.3491,-313.5476C1021.6333,-309.8729 742.3884,-300.5064 644.1028,-279.6 578.7862,-265.7065 507.5863,-236.5702 460.8527,-215.3666"/>
<polygon fill="#ff0000" stroke="#ff0000" points="462.1011,-212.0888 451.5521,-211.1048 459.1851,-218.4525 462.1011,-212.0888"/>
<text text-anchor="middle" x="664.4387" y="-250.2" font-family="Times,serif" font-size="14.00" fill="#ff0000">lookup</text>
</g>
<!-- Class: [ServiceRegistry]&#45;&gt;description.getServiceName().equals(serviceName)\n -->
<g id="edge17" class="edge">
<title>Class: [ServiceRegistry]&#45;&gt;description.getServiceName().equals(serviceName)\n</title>
<path fill="none" stroke="#ff0000" d="M1176.5335,-312.3382C1016.2203,-306.8258 724.2895,-294.7705 706.9106,-279.6 689.9649,-264.8078 686.3278,-238.8704 686.4366,-218.7648"/>
<polygon fill="#ff0000" stroke="#ff0000" points="689.9408,-218.7075 686.8026,-208.5881 682.9453,-218.4558 689.9408,-218.7075"/>
<text text-anchor="middle" x="736.5348" y="-250.2" font-family="Times,serif" font-size="14.00" fill="#ff0000">getService</text>
</g>
<!-- Class: [ServiceRegistry]&#45;&gt;serviceList.containsKey(registerID)\nservices.containsKey(type)\n -->
<g id="edge18" class="edge">
<title>Class: [ServiceRegistry]&#45;&gt;serviceList.containsKey(registerID)\nservices.containsKey(type)\n</title>
<path fill="none" stroke="#ff0000" d="M1177.1953,-311.7431C1034.7913,-305.8919 793.365,-293.9239 780.0354,-279.6 764.7756,-263.2019 765.8876,-246.5666 780.0354,-229.2 782.7285,-225.8942 813.3262,-219.0275 849.0796,-211.9765"/>
<polygon fill="#ff0000" stroke="#ff0000" points="850.1372,-215.3362 859.2817,-209.9857 848.7965,-208.4658 850.1372,-215.3362"/>
<text text-anchor="middle" x="822.9724" y="-250.2" font-family="Times,serif" font-size="14.00" fill="#ff0000">removeService</text>
</g>
<!-- Class: [ServiceDescription] -->
<g id="node18" class="node">
<title>Class: [ServiceDescription]</title>
<ellipse fill="none" stroke="#000000" cx="1469.9934" cy="-190.4" rx="117.4855" ry="18"/>
<text text-anchor="middle" x="1469.9934" y="-186.2" font-family="Times,serif" font-size="14.00" fill="#000000">Class: [ServiceDescription]</text>
</g>
<!-- Class: [ServiceRegistry]&#45;&gt;Class: [ServiceDescription] -->
<g id="edge1" class="edge">
<title>Class: [ServiceRegistry]&#45;&gt;Class: [ServiceDescription]</title>
<path fill="none" stroke="#000000" d="M1175.3842,-313.385C1063.2315,-309.902 898.5086,-301.1474 878.8082,-279.6 863.6934,-263.0681 863.4964,-245.5496 878.8082,-229.2 882.7936,-224.9445 1177.925,-207.2406 1349.6233,-197.2822"/>
<polygon fill="#000000" stroke="#000000" points="1349.9532,-200.769 1359.734,-196.6964 1349.5482,-193.7807 1349.9532,-200.769"/>
<text text-anchor="middle" x="920.586" y="-267" font-family="Times,serif" font-size="14.00" fill="#000000">[addService</text>
<text text-anchor="middle" x="920.586" y="-250.2" font-family="Times,serif" font-size="14.00" fill="#000000">&#45;&#45;&gt;</text>
<text text-anchor="middle" x="920.586" y="-233.4" font-family="Times,serif" font-size="14.00" fill="#000000">getRegisterID]</text>
</g>
<!-- Class: [ServiceRegistry]&#45;&gt;Class: [ServiceDescription] -->
<g id="edge2" class="edge">
<title>Class: [ServiceRegistry]&#45;&gt;Class: [ServiceDescription]</title>
<path fill="none" stroke="#000000" d="M1180.092,-309.8599C1099.8508,-304.1999 998.457,-294.2567 985.4828,-279.6 970.6356,-262.8274 970.2889,-245.6592 985.4828,-229.2 997.6544,-216.0147 1207.6046,-203.2195 1347.1018,-196.1185"/>
<polygon fill="#000000" stroke="#000000" points="1347.6274,-199.5965 1357.438,-195.5962 1347.2741,-192.6054 1347.6274,-199.5965"/>
<text text-anchor="middle" x="1032.2487" y="-267" font-family="Times,serif" font-size="14.00" fill="#000000">[addService</text>
<text text-anchor="middle" x="1032.2487" y="-250.2" font-family="Times,serif" font-size="14.00" fill="#000000">&#45;&#45;&gt;</text>
<text text-anchor="middle" x="1032.2487" y="-233.4" font-family="Times,serif" font-size="14.00" fill="#000000">getServiceType]</text>
</g>
<!-- Class: [ServiceRegistry]&#45;&gt;Class: [ServiceDescription] -->
<g id="edge3" class="edge">
<title>Class: [ServiceRegistry]&#45;&gt;Class: [ServiceDescription]</title>
<path fill="none" stroke="#000000" d="M1185.8564,-307.5025C1148.744,-302.1838 1112.2326,-293.5294 1100.8236,-279.6 1086.63,-262.2708 1085.835,-245.8464 1100.8236,-229.2 1117.2392,-210.9687 1244.737,-200.6983 1345.3644,-195.3686"/>
<polygon fill="#000000" stroke="#000000" points="1345.8258,-198.8495 1355.6314,-194.8369 1345.4637,-191.8589 1345.8258,-198.8495"/>
<text text-anchor="middle" x="1149.5783" y="-267" font-family="Times,serif" font-size="14.00" fill="#000000">[getAllServices</text>
<text text-anchor="middle" x="1149.5783" y="-250.2" font-family="Times,serif" font-size="14.00" fill="#000000">&#45;&#45;&gt;</text>
<text text-anchor="middle" x="1149.5783" y="-233.4" font-family="Times,serif" font-size="14.00" fill="#000000">getServiceName]</text>
</g>
<!-- Class: [ServiceRegistry]&#45;&gt;Class: [ServiceDescription] -->
<g id="edge4" class="edge">
<title>Class: [ServiceRegistry]&#45;&gt;Class: [ServiceDescription]</title>
<path fill="none" stroke="#000000" d="M1239.7109,-298.8488C1232.1511,-293.8064 1225.2427,-287.4614 1220.8236,-279.6 1209.8473,-260.0736 1206.2538,-246.2141 1220.8236,-229.2 1230.2984,-218.1357 1297.2675,-208.0888 1359.3891,-200.9919"/>
<polygon fill="#000000" stroke="#000000" points="1360.1608,-204.4274 1369.7083,-199.8345 1359.3804,-197.471 1360.1608,-204.4274"/>
<text text-anchor="middle" x="1269.5783" y="-267" font-family="Times,serif" font-size="14.00" fill="#000000">[getService</text>
<text text-anchor="middle" x="1269.5783" y="-250.2" font-family="Times,serif" font-size="14.00" fill="#000000">&#45;&#45;&gt;</text>
<text text-anchor="middle" x="1269.5783" y="-233.4" font-family="Times,serif" font-size="14.00" fill="#000000">getServiceName]</text>
</g>
<!-- Class: [ServiceRegistry]&#45;&gt;Class: [ServiceDescription] -->
<g id="edge5" class="edge">
<title>Class: [ServiceRegistry]&#45;&gt;Class: [ServiceDescription]</title>
<path fill="none" stroke="#000000" d="M1301.6244,-297.8592C1307.4228,-292.4096 1313.3607,-286.1187 1317.9934,-279.6 1332.2256,-259.5738 1322.2218,-245.3912 1340.7002,-229.2 1349.3372,-221.6321 1370.3088,-214.1724 1392.9056,-207.8471"/>
<polygon fill="#000000" stroke="#000000" points="1393.9193,-211.1988 1402.6583,-205.2087 1392.0912,-204.4417 1393.9193,-211.1988"/>
<text text-anchor="middle" x="1394.64" y="-267" font-family="Times,serif" font-size="14.00" fill="#000000">[lookup</text>
<text text-anchor="middle" x="1394.64" y="-250.2" font-family="Times,serif" font-size="14.00" fill="#000000">&#45;&#45;&gt;</text>
<text text-anchor="middle" x="1394.64" y="-233.4" font-family="Times,serif" font-size="14.00" fill="#000000">containsOperation]</text>
</g>
<!-- Class: [ServiceRegistry]&#45;&gt;Class: [ServiceDescription] -->
<g id="edge7" class="edge">
<title>Class: [ServiceRegistry]&#45;&gt;Class: [ServiceDescription]</title>
<path fill="none" stroke="#000000" d="M1367.3661,-305.4331C1401.7439,-299.7218 1435.8947,-291.3326 1447.9934,-279.6 1464.1277,-263.9539 1469.1659,-238.5077 1470.435,-218.7898"/>
<polygon fill="#000000" stroke="#000000" points="1473.9423,-218.6411 1470.7987,-208.5234 1466.9467,-218.3931 1473.9423,-218.6411"/>
<text text-anchor="middle" x="1516.2487" y="-267" font-family="Times,serif" font-size="14.00" fill="#000000">[register</text>
<text text-anchor="middle" x="1516.2487" y="-250.2" font-family="Times,serif" font-size="14.00" fill="#000000">&#45;&#45;&gt;</text>
<text text-anchor="middle" x="1516.2487" y="-233.4" font-family="Times,serif" font-size="14.00" fill="#000000">getServiceType]</text>
</g>
<!-- Class: [ServiceRegistry]&#45;&gt;Class: [ServiceDescription] -->
<g id="edge8" class="edge">
<title>Class: [ServiceRegistry]&#45;&gt;Class: [ServiceDescription]</title>
<path fill="none" stroke="#000000" d="M1379.0224,-309.4161C1455.9672,-303.5723 1551.6506,-293.6061 1563.9934,-279.6 1578.8032,-262.7944 1576.4497,-247.8172 1563.9934,-229.2 1558.8744,-221.5491 1551.9412,-215.4053 1544.1452,-210.4719"/>
<polygon fill="#000000" stroke="#000000" points="1545.8287,-207.4034 1535.392,-205.5798 1542.4136,-213.5138 1545.8287,-207.4034"/>
<text text-anchor="middle" x="1615.8083" y="-267" font-family="Times,serif" font-size="14.00" fill="#000000">[register</text>
<text text-anchor="middle" x="1615.8083" y="-250.2" font-family="Times,serif" font-size="14.00" fill="#000000">&#45;&#45;&gt;</text>
<text text-anchor="middle" x="1615.8083" y="-233.4" font-family="Times,serif" font-size="14.00" fill="#000000">setRegisterID]</text>
</g>
<!-- Class: [ServiceRegistry]&#45;&gt;Class: [ServiceDescription] -->
<g id="edge9" class="edge">
<title>Class: [ServiceRegistry]&#45;&gt;Class: [ServiceDescription]</title>
<path fill="none" stroke="#000000" d="M1384.1708,-312.8357C1490.5303,-308.911 1642.6039,-299.809 1660.9934,-279.6 1676.0692,-263.0326 1675.1686,-246.5443 1660.9934,-229.2 1650.0083,-215.759 1617.1471,-206.8594 1581.7102,-201.0201"/>
<polygon fill="#000000" stroke="#000000" points="1582.0828,-197.536 1571.6629,-199.453 1581.004,-204.4524 1582.0828,-197.536"/>
<text text-anchor="middle" x="1716.3027" y="-267" font-family="Times,serif" font-size="14.00" fill="#000000">[removeService</text>
<text text-anchor="middle" x="1716.3027" y="-250.2" font-family="Times,serif" font-size="14.00" fill="#000000">&#45;&#45;&gt;</text>
<text text-anchor="middle" x="1716.3027" y="-233.4" font-family="Times,serif" font-size="14.00" fill="#000000">getRegisterID]</text>
</g>
<!-- Class: [ServiceRegistry]&#45;&gt;Class: [ServiceDescription] -->
<g id="edge10" class="edge">
<title>Class: [ServiceRegistry]&#45;&gt;Class: [ServiceDescription]</title>
<path fill="none" stroke="#000000" d="M1382.6134,-311.5081C1521.1118,-305.4781 1752.1657,-293.4152 1764.9934,-279.6 1780.2351,-263.185 1779.7638,-246.0403 1764.9934,-229.2 1752.9932,-215.5181 1664.8114,-205.1419 1587.9573,-198.578"/>
<polygon fill="#000000" stroke="#000000" points="1587.9394,-195.0643 1577.682,-197.717 1587.3548,-202.0399 1587.9394,-195.0643"/>
<text text-anchor="middle" x="1823.2487" y="-267" font-family="Times,serif" font-size="14.00" fill="#000000">[removeService</text>
<text text-anchor="middle" x="1823.2487" y="-250.2" font-family="Times,serif" font-size="14.00" fill="#000000">&#45;&#45;&gt;</text>
<text text-anchor="middle" x="1823.2487" y="-233.4" font-family="Times,serif" font-size="14.00" fill="#000000">getServiceType]</text>
</g>
<!-- Class: [ServiceRegistry]&#45;&gt;Class: [ServiceDescription] -->
<g id="edge11" class="edge">
<title>Class: [ServiceRegistry]&#45;&gt;Class: [ServiceDescription]</title>
<path fill="none" stroke="#000000" d="M1384.246,-312.9491C1550.1861,-308.2144 1857.4969,-297.1266 1873.9934,-279.6 1889.346,-263.2887 1889.0565,-245.779 1873.9934,-229.2 1855.3657,-208.6976 1707.1811,-198.7429 1595.635,-194.1137"/>
<polygon fill="#000000" stroke="#000000" points="1595.7734,-190.6166 1585.64,-193.709 1595.4902,-197.6108 1595.7734,-190.6166"/>
<text text-anchor="middle" x="1932.2487" y="-267" font-family="Times,serif" font-size="14.00" fill="#000000">[unRegister</text>
<text text-anchor="middle" x="1932.2487" y="-250.2" font-family="Times,serif" font-size="14.00" fill="#000000">&#45;&#45;&gt;</text>
<text text-anchor="middle" x="1932.2487" y="-233.4" font-family="Times,serif" font-size="14.00" fill="#000000">getServiceType]</text>
</g>
<!-- Class: [ServiceRegistry]&#45;&gt;Class: [ServiceDescription] -->
<g id="edge12" class="edge">
<title>Class: [ServiceRegistry]&#45;&gt;Class: [ServiceDescription]</title>
<path fill="none" stroke="#000000" d="M1384.9299,-313.9822C1575.9482,-310.5191 1962.7518,-300.9047 1982.9934,-279.6 1998.4223,-263.3608 1998.2236,-245.6256 1982.9934,-229.2 1969.8869,-215.0647 1741.1084,-202.3472 1593.5374,-195.5648"/>
<polygon fill="#000000" stroke="#000000" points="1593.6466,-192.0663 1583.4974,-195.1068 1593.3275,-199.059 1593.6466,-192.0663"/>
<text text-anchor="middle" x="2036.586" y="-267" font-family="Times,serif" font-size="14.00" fill="#000000">[update</text>
<text text-anchor="middle" x="2036.586" y="-250.2" font-family="Times,serif" font-size="14.00" fill="#000000">&#45;&#45;&gt;</text>
<text text-anchor="middle" x="2036.586" y="-233.4" font-family="Times,serif" font-size="14.00" fill="#000000">getRegisterID]</text>
</g>
<!-- Class: [ServiceRegistry]&#45;&gt;Class: [ServiceDescription] -->
<g id="edge13" class="edge">
<title>Class: [ServiceRegistry]&#45;&gt;Class: [ServiceDescription]</title>
<path fill="none" stroke="#000000" d="M1385.1826,-314.6889C1597.3059,-312.3327 2058.305,-304.3756 2081.9934,-279.6 2097.4734,-263.4096 2097.3233,-245.5326 2081.9934,-229.2 2065.6105,-211.7455 1770.0808,-199.6632 1595.7883,-194.0214"/>
<polygon fill="#000000" stroke="#000000" points="1595.885,-190.5228 1585.7778,-193.7002 1595.6604,-197.5192 1595.885,-190.5228"/>
<text text-anchor="middle" x="2140.2487" y="-267" font-family="Times,serif" font-size="14.00" fill="#000000">[update</text>
<text text-anchor="middle" x="2140.2487" y="-250.2" font-family="Times,serif" font-size="14.00" fill="#000000">&#45;&#45;&gt;</text>
<text text-anchor="middle" x="2140.2487" y="-233.4" font-family="Times,serif" font-size="14.00" fill="#000000">getServiceType]</text>
</g>
<!-- Class: [AbstractService] -->
<g id="node19" class="node">
<title>Class: [AbstractService]</title>
<ellipse fill="none" stroke="#000000" cx="2894.9934" cy="-190.4" rx="105.3045" ry="18"/>
<text text-anchor="middle" x="2894.9934" y="-186.2" font-family="Times,serif" font-size="14.00" fill="#000000">Class: [AbstractService]</text>
</g>
<!-- Class: [ServiceRegistry]&#45;&gt;Class: [AbstractService] -->
<g id="edge6" class="edge">
<title>Class: [ServiceRegistry]&#45;&gt;Class: [AbstractService]</title>
<path fill="none" stroke="#000000" d="M1385.0373,-314.399C1554.7719,-311.7955 1899.7634,-303.7588 2190.9934,-279.6 2413.5615,-261.137 2673.9263,-224.0946 2806.9575,-204.0434"/>
<polygon fill="#000000" stroke="#000000" points="2807.7279,-207.4667 2817.0925,-202.5114 2806.6817,-200.5454 2807.7279,-207.4667"/>
<text text-anchor="middle" x="2663.363" y="-267" font-family="Times,serif" font-size="14.00" fill="#000000">[main</text>
<text text-anchor="middle" x="2663.363" y="-250.2" font-family="Times,serif" font-size="14.00" fill="#000000">&#45;&#45;&gt;</text>
<text text-anchor="middle" x="2663.363" y="-233.4" font-family="Times,serif" font-size="14.00" fill="#000000">startService]</text>
</g>
<!-- Class: [ServiceDescription]&#45;&gt;opList.get(i).getOpName().equals(opName)\n -->
<g id="edge19" class="edge">
<title>Class: [ServiceDescription]&#45;&gt;opList.get(i).getOpName().equals(opName)\n</title>
<path fill="none" stroke="#ff0000" d="M1367.3457,-181.4703C1267.297,-171.2537 1111.4581,-151.3051 979.9934,-116.8 953.3414,-109.8047 924.335,-100.5534 899.6728,-92.1826"/>
<polygon fill="#ff0000" stroke="#ff0000" points="900.6914,-88.8319 890.0968,-88.9029 898.4233,-95.4543 900.6914,-88.8319"/>
<text text-anchor="middle" x="1191.3097" y="-139" font-family="Times,serif" font-size="14.00" fill="#ff0000">containsOperation</text>
</g>
<!-- Class: [ServiceDescription]&#45;&gt;op.getOpName().equals(opName)\n -->
<g id="edge20" class="edge">
<title>Class: [ServiceDescription]&#45;&gt;op.getOpName().equals(opName)\n</title>
<path fill="none" stroke="#ff0000" d="M1406.7324,-175.1708C1352.426,-161.5584 1272.3329,-140.1945 1203.9934,-116.8 1183.4075,-109.7529 1161.1578,-100.884 1141.9556,-92.8187"/>
<polygon fill="#ff0000" stroke="#ff0000" points="1143.0796,-89.4937 1132.5066,-88.8123 1140.347,-95.9383 1143.0796,-89.4937"/>
<text text-anchor="middle" x="1349.5348" y="-139" font-family="Times,serif" font-size="14.00" fill="#ff0000">getOperation</text>
</g>
<!-- Class: [ServiceDescription]&#45;&gt;customProperties.containsKey(RESPONSE_TIME)\n -->
<g id="edge21" class="edge">
<title>Class: [ServiceDescription]&#45;&gt;customProperties.containsKey(RESPONSE_TIME)\n</title>
<path fill="none" stroke="#ff0000" d="M1454.5733,-172.4947C1437.2036,-152.3256 1408.8299,-119.3791 1389.1036,-96.4735"/>
<polygon fill="#ff0000" stroke="#ff0000" points="1391.6967,-94.1211 1382.519,-88.8277 1386.3925,-98.6891 1391.6967,-94.1211"/>
<text text-anchor="middle" x="1484.1477" y="-139" font-family="Times,serif" font-size="14.00" fill="#ff0000">getResponseTime</text>
</g>
<!-- Class: [ServiceDescription]&#45;&gt;os != null\nis != null\n -->
<g id="edge22" class="edge">
<title>Class: [ServiceDescription]&#45;&gt;os != null\nis != null\n</title>
<path fill="none" stroke="#ff0000" d="M1509.8086,-173.3123C1519.9602,-167.5419 1530.1936,-160.3064 1537.9934,-151.6 1550.749,-137.3618 1559.3942,-117.7546 1564.9011,-101.4208"/>
<polygon fill="#ff0000" stroke="#ff0000" points="1568.2808,-102.34 1567.9331,-91.7509 1561.6014,-100.2457 1568.2808,-102.34"/>
<text text-anchor="middle" x="1565.1533" y="-139" font-family="Times,serif" font-size="14.00" fill="#ff0000">clone</text>
</g>
<!-- Class: [ServiceDescription]&#45;&gt;obj instanceof ServiceDescription\nregisterID == service.getRegisterID() &amp;&amp; endpoint.equals(service.getServiceEndpoint()) &amp;&amp; type.equals(service.getServiceType())\n!opList.get(i).equals(service.getOperationList().get(i))\n!service.getCustomProperties().containsKey(key)\n!service.getCustomProperties().get(key).equals(value)\n -->
<g id="edge23" class="edge">
<title>Class: [ServiceDescription]&#45;&gt;obj instanceof ServiceDescription\nregisterID == service.getRegisterID() &amp;&amp; endpoint.equals(service.getServiceEndpoint()) &amp;&amp; type.equals(service.getServiceType())\n!opList.get(i).equals(service.getOperationList().get(i))\n!service.getCustomProperties().containsKey(key)\n!service.getCustomProperties().get(key).equals(value)\n</title>
<path fill="none" stroke="#ff0000" d="M1536.6698,-175.4944C1599.9787,-161.3416 1698.6538,-139.2826 1789.1348,-119.0555"/>
<polygon fill="#ff0000" stroke="#ff0000" points="1789.9951,-122.4496 1798.9906,-116.8522 1788.4679,-115.6183 1789.9951,-122.4496"/>
<text text-anchor="middle" x="1723.8756" y="-139" font-family="Times,serif" font-size="14.00" fill="#ff0000">equals</text>
</g>
<!-- Class: [AbstractService]&#45;&gt;DEBUG\nreply\nresponseTime ==  -->
<g id="edge24" class="edge">
<title>Class: [AbstractService]&#45;&gt;DEBUG\nreply\nresponseTime == </title>
<path fill="none" stroke="#ff0000" d="M2801.1991,-182.182C2724.9432,-173.0471 2615.8274,-154.3087 2526.9934,-116.8 2519.7732,-113.7514 2512.5319,-109.8601 2505.6186,-105.6353"/>
<polygon fill="#ff0000" stroke="#ff0000" points="2507.3696,-102.6002 2497.0634,-100.1438 2503.5883,-108.4911 2507.3696,-102.6002"/>
<text text-anchor="middle" x="2660.3735" y="-139" font-family="Times,serif" font-size="14.00" fill="#ff0000">sendRequest</text>
</g>
<!-- Class: [AbstractService]&#45;&gt;DEBUG\n!(result instanceof OperationAborted)\nthread instanceof ExecutionThread\nDEBUG\nresponse.getReturnType() != null\n -->
<g id="edge25" class="edge">
<title>Class: [AbstractService]&#45;&gt;DEBUG\n!(result instanceof OperationAborted)\nthread instanceof ExecutionThread\nDEBUG\nresponse.getReturnType() != null\n</title>
<path fill="none" stroke="#ff0000" d="M2860.1511,-173.3913C2832.2656,-159.7786 2791.654,-139.9535 2753.5487,-121.3519"/>
<polygon fill="#ff0000" stroke="#ff0000" points="2754.9621,-118.1471 2744.4403,-116.9055 2751.8913,-124.4376 2754.9621,-118.1471"/>
<text text-anchor="middle" x="2840.4822" y="-139" font-family="Times,serif" font-size="14.00" fill="#ff0000">onMessage</text>
</g>
<!-- Class: [AbstractService]&#45;&gt;!(result instanceof OperationAborted)\n -->
<g id="edge26" class="edge">
<title>Class: [AbstractService]&#45;&gt;!(result instanceof OperationAborted)\n</title>
<path fill="none" stroke="#ff0000" d="M2894.9934,-172.2353C2894.9934,-152.8293 2894.9934,-121.8101 2894.9934,-99.1779"/>
<polygon fill="#ff0000" stroke="#ff0000" points="2898.4935,-99.1356 2894.9934,-89.1356 2891.4935,-99.1356 2898.4935,-99.1356"/>
<text text-anchor="middle" x="2905.0986" y="-139" font-family="Times,serif" font-size="14.00" fill="#ff0000">call</text>
</g>
<!-- Class: [AbstractService]&#45;&gt;description.getRegisterID() &gt; 0\n -->
<g id="edge27" class="edge">
<title>Class: [AbstractService]&#45;&gt;description.getRegisterID() &gt; 0\n</title>
<path fill="none" stroke="#ff0000" d="M2927.517,-173.2642C2967.2318,-152.3396 3034.5469,-116.8731 3078.6358,-93.6439"/>
<polygon fill="#ff0000" stroke="#ff0000" points="3080.4573,-96.6403 3087.673,-88.8825 3077.1944,-90.4473 3080.4573,-96.6403"/>
<text text-anchor="middle" x="3067.2985" y="-139" font-family="Times,serif" font-size="14.00" fill="#ff0000">updateServiceDescription</text>
</g>
<!-- Class: [AbstractService]&#45;&gt;operation.getAnnotation(ServiceOperation.class) != null\n -->
<g id="edge28" class="edge">
<title>Class: [AbstractService]&#45;&gt;operation.getAnnotation(ServiceOperation.class) != null\n</title>
<path fill="none" stroke="#ff0000" d="M2981.4535,-180.1503C3029.6335,-173.6347 3090.52,-164.0664 3143.9934,-151.6 3213.1323,-135.4815 3290.6349,-110.204 3342.4833,-92.217"/>
<polygon fill="#ff0000" stroke="#ff0000" points="3343.8902,-95.4331 3352.1792,-88.8345 3341.5844,-88.8237 3343.8902,-95.4331"/>
<text text-anchor="middle" x="3272.3434" y="-139" font-family="Times,serif" font-size="14.00" fill="#ff0000">createServiceDescription</text>
</g>
<!-- Class: [AbstractService]&#45;&gt;configuration.multipleThreads == false\n -->
<g id="edge29" class="edge">
<title>Class: [AbstractService]&#45;&gt;configuration.multipleThreads == false\n</title>
<path fill="none" stroke="#ff0000" d="M2993.0493,-183.8164C3084.7299,-177.2266 3225.3705,-166.0059 3346.9934,-151.6 3449.6614,-139.4392 3476.792,-142.2614 3576.9934,-116.8 3601.9517,-110.4581 3628.8663,-101.0928 3651.4665,-92.4649"/>
<polygon fill="#ff0000" stroke="#ff0000" points="3652.8087,-95.6985 3660.8699,-88.8234 3650.2808,-89.1709 3652.8087,-95.6985"/>
<text text-anchor="middle" x="3545.8181" y="-139" font-family="Times,serif" font-size="14.00" fill="#ff0000">applyConfiguration</text>
</g>
</g>
</svg>
