<svg width="1922pt" height="375pt"
 viewBox="0.00 0.00 1922.41 375.20" xmlns="http://www.w3.org/2000/svg" xmlns:xlink="http://www.w3.org/1999/xlink">
<g id="graph0" class="graph" transform="scale(1 1) rotate(0) translate(4 371.2)">
<title>project</title>
<polygon fill="#ffffff" stroke="transparent" points="-4,4 -4,-371.2 1918.415,-371.2 1918.415,4 -4,4"/>
<text text-anchor="middle" x="957.2075" y="-8.2" font-family="Times,serif" font-size="14.00" fill="#000000">Method Calls for :service.auxiliary.ServiceDescription</text>
<!-- obj instanceof Operation\n!name.equals(op.getOpName())\n!returnType.equals(op.getReturnType())\n!paramTypes[i].equals(op.getParamTypes()[i])\n -->
<g id="node1" class="node">
<title>obj instanceof Operation\n!name.equals(op.getOpName())\n!returnType.equals(op.getReturnType())\n!paramTypes[i].equals(op.getParamTypes()[i])\n</title>
<polygon fill="none" stroke="#ff0000" points="1914.2967,-100.1003 1635.7701,-100.1003 1635.7701,-24.6997 1914.2967,-24.6997 1914.2967,-100.1003"/>
<text text-anchor="middle" x="1775.0334" y="-83.4" font-family="Times,serif" font-size="14.00" fill="#ff0000">obj instanceof Operation</text>
<text text-anchor="middle" x="1775.0334" y="-66.6" font-family="Times,serif" font-size="14.00" fill="#ff0000">!name.equals(op.getOpName())</text>
<text text-anchor="middle" x="1775.0334" y="-49.8" font-family="Times,serif" font-size="14.00" fill="#ff0000">!returnType.equals(op.getReturnType())</text>
<text text-anchor="middle" x="1775.0334" y="-33" font-family="Times,serif" font-size="14.00" fill="#ff0000">!paramTypes[i].equals(op.getParamTypes()[i])</text>
</g>
<!-- opList.get(i).getOpName().equals(opName)\n -->
<g id="node2" class="node">
<title>opList.get(i).getOpName().equals(opName)\n</title>
<polygon fill="none" stroke="#ff0000" points="262.1002,-216.8 -.0334,-216.8 -.0334,-180.8 262.1002,-180.8 262.1002,-216.8"/>
<text text-anchor="middle" x="131.0334" y="-194.6" font-family="Times,serif" font-size="14.00" fill="#ff0000">opList.get(i).getOpName().equals(opName)</text>
</g>
<!-- op.getOpName().equals(opName)\n -->
<g id="node3" class="node">
<title>op.getOpName().equals(opName)\n</title>
<polygon fill="none" stroke="#ff0000" points="486.5053,-216.8 279.5615,-216.8 279.5615,-180.8 486.5053,-180.8 486.5053,-216.8"/>
<text text-anchor="middle" x="383.0334" y="-194.6" font-family="Times,serif" font-size="14.00" fill="#ff0000">op.getOpName().equals(opName)</text>
</g>
<!-- customProperties.containsKey(RESPONSE_TIME)\n -->
<g id="node4" class="node">
<title>customProperties.containsKey(RESPONSE_TIME)\n</title>
<polygon fill="none" stroke="#ff0000" points="811.7433,-216.8 504.3235,-216.8 504.3235,-180.8 811.7433,-180.8 811.7433,-216.8"/>
<text text-anchor="middle" x="658.0334" y="-194.6" font-family="Times,serif" font-size="14.00" fill="#ff0000">customProperties.containsKey(RESPONSE_TIME)</text>
</g>
<!-- os != null\nis != null\n -->
<g id="node5" class="node">
<title>os != null\nis != null\n</title>
<polygon fill="none" stroke="#ff0000" points="898.8147,-219.4019 829.2521,-219.4019 829.2521,-178.1981 898.8147,-178.1981 898.8147,-219.4019"/>
<text text-anchor="middle" x="864.0334" y="-203" font-family="Times,serif" font-size="14.00" fill="#ff0000">os != null</text>
<text text-anchor="middle" x="864.0334" y="-186.2" font-family="Times,serif" font-size="14.00" fill="#ff0000">is != null</text>
</g>
<!-- obj instanceof ServiceDescription\nregisterID == service.getRegisterID() &amp;&amp; endpoint.equals(service.getServiceEndpoint()) &amp;&amp; type.equals(service.getServiceType())\n!opList.get(i).equals(service.getOperationList().get(i))\n!service.getCustomProperties().containsKey(key)\n!service.getCustomProperties().get(key).equals(value)\n -->
<g id="node6" class="node">
<title>obj instanceof ServiceDescription\nregisterID == service.getRegisterID() &amp;&amp; endpoint.equals(service.getServiceEndpoint()) &amp;&amp; type.equals(service.getServiceType())\n!opList.get(i).equals(service.getOperationList().get(i))\n!service.getCustomProperties().containsKey(key)\n!service.getCustomProperties().get(key).equals(value)\n</title>
<polygon fill="none" stroke="#ff0000" points="1674.5743,-244.8 917.4925,-244.8 917.4925,-152.8 1674.5743,-152.8 1674.5743,-244.8"/>
<text text-anchor="middle" x="1296.0334" y="-228.2" font-family="Times,serif" font-size="14.00" fill="#ff0000">obj instanceof ServiceDescription</text>
<text text-anchor="middle" x="1296.0334" y="-211.4" font-family="Times,serif" font-size="14.00" fill="#ff0000">registerID == service.getRegisterID() &amp;&amp; endpoint.equals(service.getServiceEndpoint()) &amp;&amp; type.equals(service.getServiceType())</text>
<text text-anchor="middle" x="1296.0334" y="-194.6" font-family="Times,serif" font-size="14.00" fill="#ff0000">!opList.get(i).equals(service.getOperationList().get(i))</text>
<text text-anchor="middle" x="1296.0334" y="-177.8" font-family="Times,serif" font-size="14.00" fill="#ff0000">!service.getCustomProperties().containsKey(key)</text>
<text text-anchor="middle" x="1296.0334" y="-161" font-family="Times,serif" font-size="14.00" fill="#ff0000">!service.getCustomProperties().get(key).equals(value)</text>
</g>
<!-- Class: [ServiceDescription] -->
<g id="node7" class="node">
<title>Class: [ServiceDescription]</title>
<ellipse fill="none" stroke="#000000" cx="1325.0334" cy="-349.2" rx="117.4855" ry="18"/>
<text text-anchor="middle" x="1325.0334" y="-345" font-family="Times,serif" font-size="14.00" fill="#000000">Class: [ServiceDescription]</text>
</g>
<!-- Class: [ServiceDescription]&#45;&gt;opList.get(i).getOpName().equals(opName)\n -->
<g id="edge6" class="edge">
<title>Class: [ServiceDescription]&#45;&gt;opList.get(i).getOpName().equals(opName)\n</title>
<path fill="none" stroke="#ff0000" d="M1208.3355,-346.8621C979.4353,-341.9454 487.1766,-329.6205 411.4008,-313.2 323.1883,-294.0845 227.1901,-249.1525 173.5272,-221.6308"/>
<polygon fill="#ff0000" stroke="#ff0000" points="174.8198,-218.3589 164.3299,-216.8711 171.6025,-224.5757 174.8198,-218.3589"/>
<text text-anchor="middle" x="463.3497" y="-283.8" font-family="Times,serif" font-size="14.00" fill="#ff0000">containsOperation</text>
</g>
<!-- Class: [ServiceDescription]&#45;&gt;op.getOpName().equals(opName)\n -->
<g id="edge7" class="edge">
<title>Class: [ServiceDescription]&#45;&gt;op.getOpName().equals(opName)\n</title>
<path fill="none" stroke="#ff0000" d="M1207.8818,-347.293C1047.3251,-343.904 767.4842,-335.0092 667.9506,-313.2 578.6155,-293.6254 481.0471,-248.9024 426.4093,-221.5331"/>
<polygon fill="#ff0000" stroke="#ff0000" points="427.8716,-218.3506 417.3677,-216.9656 424.7153,-224.5987 427.8716,-218.3506"/>
<text text-anchor="middle" x="704.5748" y="-283.8" font-family="Times,serif" font-size="14.00" fill="#ff0000">getOperation</text>
</g>
<!-- Class: [ServiceDescription]&#45;&gt;customProperties.containsKey(RESPONSE_TIME)\n -->
<g id="edge8" class="edge">
<title>Class: [ServiceDescription]&#45;&gt;customProperties.containsKey(RESPONSE_TIME)\n</title>
<path fill="none" stroke="#ff0000" d="M1208.508,-346.6941C1088.7096,-343.0057 910.7663,-334.1189 845.7248,-313.2 784.6825,-293.5673 722.9121,-250.4219 687.6672,-223.0876"/>
<polygon fill="#ff0000" stroke="#ff0000" points="689.7413,-220.266 679.7161,-216.8386 685.4158,-225.7697 689.7413,-220.266"/>
<text text-anchor="middle" x="896.1877" y="-283.8" font-family="Times,serif" font-size="14.00" fill="#ff0000">getResponseTime</text>
</g>
<!-- Class: [ServiceDescription]&#45;&gt;os != null\nis != null\n -->
<g id="edge9" class="edge">
<title>Class: [ServiceDescription]&#45;&gt;os != null\nis != null\n</title>
<path fill="none" stroke="#ff0000" d="M1224.3508,-339.905C1135.9998,-328.175 1006.5944,-302.0818 908.0334,-244.8 900.2044,-240.25 892.8796,-233.9002 886.5381,-227.3688"/>
<polygon fill="#ff0000" stroke="#ff0000" points="888.893,-224.7562 879.5743,-219.7151 883.7154,-229.4672 888.893,-224.7562"/>
<text text-anchor="middle" x="1098.1933" y="-283.8" font-family="Times,serif" font-size="14.00" fill="#ff0000">clone</text>
</g>
<!-- Class: [ServiceDescription]&#45;&gt;obj instanceof ServiceDescription\nregisterID == service.getRegisterID() &amp;&amp; endpoint.equals(service.getServiceEndpoint()) &amp;&amp; type.equals(service.getServiceType())\n!opList.get(i).equals(service.getOperationList().get(i))\n!service.getCustomProperties().containsKey(key)\n!service.getCustomProperties().get(key).equals(value)\n -->
<g id="edge10" class="edge">
<title>Class: [ServiceDescription]&#45;&gt;obj instanceof ServiceDescription\nregisterID == service.getRegisterID() &amp;&amp; endpoint.equals(service.getServiceEndpoint()) &amp;&amp; type.equals(service.getServiceType())\n!opList.get(i).equals(service.getOperationList().get(i))\n!service.getCustomProperties().containsKey(key)\n!service.getCustomProperties().get(key).equals(value)\n</title>
<path fill="none" stroke="#ff0000" d="M1307.5065,-331.1426C1303.3566,-325.78 1299.4934,-319.613 1297.269,-313.2 1290.9532,-294.9916 1289.2476,-274.1513 1289.5648,-255.2899"/>
<polygon fill="#ff0000" stroke="#ff0000" points="1293.0715,-255.1635 1289.9327,-245.0443 1286.076,-254.9123 1293.0715,-255.1635"/>
<text text-anchor="middle" x="1315.9156" y="-283.8" font-family="Times,serif" font-size="14.00" fill="#ff0000">equals</text>
</g>
<!-- Class: [Operation] -->
<g id="node8" class="node">
<title>Class: [Operation]</title>
<ellipse fill="none" stroke="#000000" cx="1775.0334" cy="-198.8" rx="82.1963" ry="18"/>
<text text-anchor="middle" x="1775.0334" y="-194.6" font-family="Times,serif" font-size="14.00" fill="#000000">Class: [Operation]</text>
</g>
<!-- Class: [ServiceDescription]&#45;&gt;Class: [Operation] -->
<g id="edge1" class="edge">
<title>Class: [ServiceDescription]&#45;&gt;Class: [Operation]</title>
<path fill="none" stroke="#000000" d="M1329.0526,-330.8378C1334.4487,-308.0278 1344.6484,-271.0937 1355.7402,-262.8 1384.9975,-240.9235 1648.7426,-254.2412 1684.0334,-244.8 1703.1892,-239.6753 1723.0041,-230.2282 1739.2339,-221.2225"/>
<polygon fill="#000000" stroke="#000000" points="1741.404,-224.0132 1748.3433,-216.0071 1737.926,-217.9383 1741.404,-224.0132"/>
<text text-anchor="middle" x="1409.68" y="-300.6" font-family="Times,serif" font-size="14.00" fill="#000000">[containsOperation</text>
<text text-anchor="middle" x="1409.68" y="-283.8" font-family="Times,serif" font-size="14.00" fill="#000000">&#45;&#45;&gt;</text>
<text text-anchor="middle" x="1409.68" y="-267" font-family="Times,serif" font-size="14.00" fill="#000000">getOpName]</text>
</g>
<!-- Class: [ServiceDescription]&#45;&gt;Class: [Operation] -->
<g id="edge2" class="edge">
<title>Class: [ServiceDescription]&#45;&gt;Class: [Operation]</title>
<path fill="none" stroke="#000000" d="M1400.9585,-335.4227C1427.3959,-329.3796 1452.9698,-321.7183 1463.0334,-313.2 1481.7675,-297.3425 1465.6333,-277.0626 1485.6084,-262.8 1521.6414,-237.0718 1641.473,-257.0039 1684.0334,-244.8 1702.9524,-239.3751 1722.6023,-229.986 1738.7799,-221.0993"/>
<polygon fill="#000000" stroke="#000000" points="1740.8896,-223.9272 1747.8719,-215.9587 1737.4443,-217.8337 1740.8896,-223.9272"/>
<text text-anchor="middle" x="1506.2459" y="-300.6" font-family="Times,serif" font-size="14.00" fill="#000000">[equals</text>
<text text-anchor="middle" x="1506.2459" y="-283.8" font-family="Times,serif" font-size="14.00" fill="#000000">&#45;&#45;&gt;</text>
<text text-anchor="middle" x="1506.2459" y="-267" font-family="Times,serif" font-size="14.00" fill="#000000">equals]</text>
</g>
<!-- Class: [ServiceDescription]&#45;&gt;Class: [Operation] -->
<g id="edge3" class="edge">
<title>Class: [ServiceDescription]&#45;&gt;Class: [Operation]</title>
<path fill="none" stroke="#000000" d="M1425.9029,-339.9272C1467.596,-334.3289 1509.9372,-325.7795 1526.0334,-313.2 1545.3739,-298.0851 1528.942,-277.4752 1548.6182,-262.8 1597.2864,-226.5014 1626.0328,-262.7475 1684.0334,-244.8 1702.6939,-239.0258 1722.1745,-229.6831 1738.3014,-220.9209"/>
<polygon fill="#000000" stroke="#000000" points="1740.348,-223.7872 1747.3776,-215.8603 1736.939,-217.6733 1740.348,-223.7872"/>
<text text-anchor="middle" x="1600.741" y="-300.6" font-family="Times,serif" font-size="14.00" fill="#000000">[getOperationCost</text>
<text text-anchor="middle" x="1600.741" y="-283.8" font-family="Times,serif" font-size="14.00" fill="#000000">&#45;&#45;&gt;</text>
<text text-anchor="middle" x="1600.741" y="-267" font-family="Times,serif" font-size="14.00" fill="#000000">getOpCost]</text>
</g>
<!-- Class: [ServiceDescription]&#45;&gt;Class: [Operation] -->
<g id="edge4" class="edge">
<title>Class: [ServiceDescription]&#45;&gt;Class: [Operation]</title>
<path fill="none" stroke="#000000" d="M1434.3677,-342.4822C1522.443,-336.1955 1634.4209,-325.882 1652.0334,-313.2 1672.0533,-298.7846 1659.0915,-281.4066 1675.29,-262.8 1690.5681,-245.2507 1711.8126,-230.7169 1730.7707,-219.9591"/>
<polygon fill="#000000" stroke="#000000" points="1732.4857,-223.0104 1739.573,-215.1351 1729.1215,-216.8718 1732.4857,-223.0104"/>
<text text-anchor="middle" x="1713.9051" y="-300.6" font-family="Times,serif" font-size="14.00" fill="#000000">[getOperation</text>
<text text-anchor="middle" x="1713.9051" y="-283.8" font-family="Times,serif" font-size="14.00" fill="#000000">&#45;&#45;&gt;</text>
<text text-anchor="middle" x="1713.9051" y="-267" font-family="Times,serif" font-size="14.00" fill="#000000">getOpName]</text>
</g>
<!-- Class: [ServiceDescription]&#45;&gt;Class: [Operation] -->
<g id="edge5" class="edge">
<title>Class: [ServiceDescription]&#45;&gt;Class: [Operation]</title>
<path fill="none" stroke="#000000" d="M1441.5108,-346.54C1560.2672,-342.7082 1730.2475,-333.6886 1753.0334,-313.2 1776.6938,-291.925 1779.5821,-253.5937 1778.2933,-227.2048"/>
<polygon fill="#000000" stroke="#000000" points="1781.7717,-226.7777 1777.5661,-217.0533 1774.7896,-227.2779 1781.7717,-226.7777"/>
<text text-anchor="middle" x="1826.9633" y="-300.6" font-family="Times,serif" font-size="14.00" fill="#000000">[setOperationCost</text>
<text text-anchor="middle" x="1826.9633" y="-283.8" font-family="Times,serif" font-size="14.00" fill="#000000">&#45;&#45;&gt;</text>
<text text-anchor="middle" x="1826.9633" y="-267" font-family="Times,serif" font-size="14.00" fill="#000000">setOpCost]</text>
</g>
<!-- Class: [Operation]&#45;&gt;obj instanceof Operation\n!name.equals(op.getOpName())\n!returnType.equals(op.getReturnType())\n!paramTypes[i].equals(op.getParamTypes()[i])\n -->
<g id="edge11" class="edge">
<title>Class: [Operation]&#45;&gt;obj instanceof Operation\n!name.equals(op.getOpName())\n!returnType.equals(op.getReturnType())\n!paramTypes[i].equals(op.getParamTypes()[i])\n</title>
<path fill="none" stroke="#ff0000" d="M1775.0334,-180.6871C1775.0334,-162.8057 1775.0334,-134.6863 1775.0334,-110.35"/>
<polygon fill="#ff0000" stroke="#ff0000" points="1778.5335,-110.1926 1775.0334,-100.1927 1771.5335,-110.1927 1778.5335,-110.1926"/>
<text text-anchor="middle" x="1792.9156" y="-122.2" font-family="Times,serif" font-size="14.00" fill="#ff0000">equals</text>
</g>
</g>
</svg>
