<svg width="600pt" height="197pt"
 viewBox="0.00 0.00 600.42 196.80" xmlns="http://www.w3.org/2000/svg" xmlns:xlink="http://www.w3.org/1999/xlink">
<g id="graph0" class="graph" transform="scale(1 1) rotate(0) translate(4 192.8)">
<title>project</title>
<polygon fill="#ffffff" stroke="transparent" points="-4,4 -4,-192.8 596.4204,-192.8 596.4204,4 -4,4"/>
<text text-anchor="middle" x="296.2102" y="-8.2" font-family="Times,serif" font-size="14.00" fill="#000000">Method Calls for :service.utility.SimClock</text>
<!-- parallel\nparallelTimes.containsKey(token)\n -->
<g id="node1" class="node">
<title>parallel\nparallelTimes.containsKey(token)\n</title>
<polygon fill="none" stroke="#ff0000" points="206.8077,-66.2019 .0641,-66.2019 .0641,-24.9981 206.8077,-24.9981 206.8077,-66.2019"/>
<text text-anchor="middle" x="103.4359" y="-49.8" font-family="Times,serif" font-size="14.00" fill="#ff0000">parallel</text>
<text text-anchor="middle" x="103.4359" y="-33" font-family="Times,serif" font-size="14.00" fill="#ff0000">parallelTimes.containsKey(token)</text>
</g>
<!-- maxTime &lt; value\n -->
<g id="node2" class="node">
<title>maxTime &lt; value\n</title>
<polygon fill="none" stroke="#ff0000" points="345.804,-63.6 231.0678,-63.6 231.0678,-27.6 345.804,-27.6 345.804,-63.6"/>
<text text-anchor="middle" x="288.4359" y="-41.4" font-family="Times,serif" font-size="14.00" fill="#ff0000">maxTime &lt; value</text>
</g>
<!-- Class: [SimClock] -->
<g id="node3" class="node">
<title>Class: [SimClock]</title>
<ellipse fill="none" stroke="#000000" cx="288.4359" cy="-170.8" rx="82.235" ry="18"/>
<text text-anchor="middle" x="288.4359" y="-166.6" font-family="Times,serif" font-size="14.00" fill="#000000">Class: [SimClock]</text>
</g>
<!-- Class: [SimClock]&#45;&gt;parallel\nparallelTimes.containsKey(token)\n -->
<g id="edge3" class="edge">
<title>Class: [SimClock]&#45;&gt;parallel\nparallelTimes.containsKey(token)\n</title>
<path fill="none" stroke="#ff0000" d="M209.3849,-165.8134C163.8022,-161.105 112.7531,-152.0564 98.4597,-134.8 85.2089,-118.8024 87.1847,-95.1295 92.0819,-76.1907"/>
<polygon fill="#ff0000" stroke="#ff0000" points="95.4651,-77.0918 94.934,-66.5103 88.7505,-75.1135 95.4651,-77.0918"/>
<text text-anchor="middle" x="127.424" y="-105.4" font-family="Times,serif" font-size="14.00" fill="#ff0000">increment</text>
</g>
<!-- Class: [SimClock]&#45;&gt;parallel\nparallelTimes.containsKey(token)\n -->
<g id="edge4" class="edge">
<title>Class: [SimClock]&#45;&gt;parallel\nparallelTimes.containsKey(token)\n</title>
<path fill="none" stroke="#ff0000" d="M237.4787,-156.6505C222.9531,-151.207 207.6558,-144.0203 195.0193,-134.8 171.787,-117.8484 175.05,-104.4538 154.4359,-84.4 150.3989,-80.4727 145.9641,-76.5813 141.4467,-72.8653"/>
<polygon fill="#ff0000" stroke="#ff0000" points="143.3033,-69.8704 133.2944,-66.3958 138.9519,-75.3537 143.3033,-69.8704"/>
<text text-anchor="middle" x="240.1442" y="-105.4" font-family="Times,serif" font-size="14.00" fill="#ff0000">getCurrentTime</text>
</g>
<!-- Class: [SimClock]&#45;&gt;maxTime &lt; value\n -->
<g id="edge5" class="edge">
<title>Class: [SimClock]&#45;&gt;maxTime &lt; value\n</title>
<path fill="none" stroke="#ff0000" d="M288.4359,-152.5948C288.4359,-132.0104 288.4359,-98.2313 288.4359,-74.1349"/>
<polygon fill="#ff0000" stroke="#ff0000" points="291.936,-73.8271 288.4359,-63.8271 284.936,-73.8272 291.936,-73.8271"/>
<text text-anchor="middle" x="319.9226" y="-105.4" font-family="Times,serif" font-size="14.00" fill="#ff0000">endParallel</text>
</g>
<!-- Class: [ExecutionThread] -->
<g id="node4" class="node">
<title>Class: [ExecutionThread]</title>
<ellipse fill="none" stroke="#000000" cx="482.4359" cy="-45.6" rx="109.9689" ry="18"/>
<text text-anchor="middle" x="482.4359" y="-41.4" font-family="Times,serif" font-size="14.00" fill="#000000">Class: [ExecutionThread]</text>
</g>
<!-- Class: [SimClock]&#45;&gt;Class: [ExecutionThread] -->
<g id="edge1" class="edge">
<title>Class: [SimClock]&#45;&gt;Class: [ExecutionThread]</title>
<path fill="none" stroke="#000000" d="M326.1459,-154.7563C335.591,-149.4334 345.1083,-142.7828 352.4359,-134.8 369.0765,-116.6715 357.2829,-101.0978 375.3587,-84.4 384.5843,-75.8777 395.8239,-69.1959 407.5102,-63.9658"/>
<polygon fill="#000000" stroke="#000000" points="409.0367,-67.1223 416.9481,-60.0753 406.3689,-60.6506 409.0367,-67.1223"/>
<text text-anchor="middle" x="422.4745" y="-122.2" font-family="Times,serif" font-size="14.00" fill="#000000">[getCurrentTime</text>
<text text-anchor="middle" x="422.4745" y="-105.4" font-family="Times,serif" font-size="14.00" fill="#000000">&#45;&#45;&gt;</text>
<text text-anchor="middle" x="422.4745" y="-88.6" font-family="Times,serif" font-size="14.00" fill="#000000">getToken]</text>
</g>
<!-- Class: [SimClock]&#45;&gt;Class: [ExecutionThread] -->
<g id="edge2" class="edge">
<title>Class: [SimClock]&#45;&gt;Class: [ExecutionThread]</title>
<path fill="none" stroke="#000000" d="M365.4185,-164.3168C407.9274,-159.0872 454.9847,-150.017 469.4359,-134.8 484.5301,-118.9059 486.9991,-93.7027 486.1395,-74.1344"/>
<polygon fill="#000000" stroke="#000000" points="489.6132,-73.6496 485.3786,-63.9378 482.6326,-74.1706 489.6132,-73.6496"/>
<text text-anchor="middle" x="515.7543" y="-122.2" font-family="Times,serif" font-size="14.00" fill="#000000">[increment</text>
<text text-anchor="middle" x="515.7543" y="-105.4" font-family="Times,serif" font-size="14.00" fill="#000000">&#45;&#45;&gt;</text>
<text text-anchor="middle" x="515.7543" y="-88.6" font-family="Times,serif" font-size="14.00" fill="#000000">getToken]</text>
</g>
</g>
</svg>
