<svg width="2848pt" height="319pt"
 viewBox="0.00 0.00 2848.12 319.20" xmlns="http://www.w3.org/2000/svg" xmlns:xlink="http://www.w3.org/1999/xlink">
<g id="graph0" class="graph" transform="scale(1 1) rotate(0) translate(4 315.2)">
<title>project</title>
<polygon fill="#ffffff" stroke="transparent" points="-4,4 -4,-315.2 2844.1189,-315.2 2844.1189,4 -4,4"/>
<text text-anchor="middle" x="1420.0595" y="-8.2" font-family="Times,serif" font-size="14.00" fill="#000000">Method Calls for :application.view.controller.TableViewController</text>
<!-- invocationNum.get() == failNum.get()\n -->
<g id="node1" class="node">
<title>invocationNum.get() == failNum.get()\n</title>
<polygon fill="none" stroke="#ff0000" points="1716.9842,-60.8 1484.196,-60.8 1484.196,-24.8 1716.9842,-24.8 1716.9842,-60.8"/>
<text text-anchor="middle" x="1600.5901" y="-38.6" font-family="Times,serif" font-size="14.00" fill="#ff0000">invocationNum.get() == failNum.get()</text>
</g>
<!-- str.length &gt;= 3\n!reliabilityEntries.containsKey(service)\n!result\n!entry.getService().equals(&quot;AssistanceService&quot;)\n -->
<g id="node2" class="node">
<title>str.length &gt;= 3\n!reliabilityEntries.containsKey(service)\n!result\n!entry.getService().equals(&quot;AssistanceService&quot;)\n</title>
<polygon fill="none" stroke="#ff0000" points="283.2704,-188.9003 -.0902,-188.9003 -.0902,-113.4997 283.2704,-113.4997 283.2704,-188.9003"/>
<text text-anchor="middle" x="141.5901" y="-172.2" font-family="Times,serif" font-size="14.00" fill="#ff0000">str.length &gt;= 3</text>
<text text-anchor="middle" x="141.5901" y="-155.4" font-family="Times,serif" font-size="14.00" fill="#ff0000">!reliabilityEntries.containsKey(service)</text>
<text text-anchor="middle" x="141.5901" y="-138.6" font-family="Times,serif" font-size="14.00" fill="#ff0000">!result</text>
<text text-anchor="middle" x="141.5901" y="-121.8" font-family="Times,serif" font-size="14.00" fill="#ff0000">!entry.getService().equals(&quot;AssistanceService&quot;)</text>
</g>
<!-- str.length &gt;= 3\n!service.equals(&quot;AssistanceService&quot;)\n!performanceEntries.containsKey(service)\nresult\n -->
<g id="node3" class="node">
<title>str.length &gt;= 3\n!service.equals(&quot;AssistanceService&quot;)\n!performanceEntries.containsKey(service)\nresult\n</title>
<polygon fill="none" stroke="#ff0000" points="554.5726,-188.9003 300.6076,-188.9003 300.6076,-113.4997 554.5726,-113.4997 554.5726,-188.9003"/>
<text text-anchor="middle" x="427.5901" y="-172.2" font-family="Times,serif" font-size="14.00" fill="#ff0000">str.length &gt;= 3</text>
<text text-anchor="middle" x="427.5901" y="-155.4" font-family="Times,serif" font-size="14.00" fill="#ff0000">!service.equals(&quot;AssistanceService&quot;)</text>
<text text-anchor="middle" x="427.5901" y="-138.6" font-family="Times,serif" font-size="14.00" fill="#ff0000">!performanceEntries.containsKey(service)</text>
<text text-anchor="middle" x="427.5901" y="-121.8" font-family="Times,serif" font-size="14.00" fill="#ff0000">result</text>
</g>
<!-- str.length &gt;= 3\nresult &amp;&amp; !service.equals(&quot;AssistanceService&quot;)\n!costEntries.containsKey(service)\n -->
<g id="node4" class="node">
<title>str.length &gt;= 3\nresult &amp;&amp; !service.equals(&quot;AssistanceService&quot;)\n!costEntries.containsKey(service)\n</title>
<polygon fill="none" stroke="#ff0000" points="854.6223,-180.6014 572.5579,-180.6014 572.5579,-121.7986 854.6223,-121.7986 854.6223,-180.6014"/>
<text text-anchor="middle" x="713.5901" y="-163.8" font-family="Times,serif" font-size="14.00" fill="#ff0000">str.length &gt;= 3</text>
<text text-anchor="middle" x="713.5901" y="-147" font-family="Times,serif" font-size="14.00" fill="#ff0000">result &amp;&amp; !service.equals(&quot;AssistanceService&quot;)</text>
<text text-anchor="middle" x="713.5901" y="-130.2" font-family="Times,serif" font-size="14.00" fill="#ff0000">!costEntries.containsKey(service)</text>
</g>
<!-- Class: [TableViewController] -->
<g id="node5" class="node">
<title>Class: [TableViewController]</title>
<ellipse fill="none" stroke="#000000" cx="1529.5901" cy="-293.2" rx="126.1536" ry="18"/>
<text text-anchor="middle" x="1529.5901" y="-289" font-family="Times,serif" font-size="14.00" fill="#000000">Class: [TableViewController]</text>
</g>
<!-- Class: [TableViewController]&#45;&gt;str.length &gt;= 3\n!reliabilityEntries.containsKey(service)\n!result\n!entry.getService().equals(&quot;AssistanceService&quot;)\n -->
<g id="edge17" class="edge">
<title>Class: [TableViewController]&#45;&gt;str.length &gt;= 3\n!reliabilityEntries.containsKey(service)\n!result\n!entry.getService().equals(&quot;AssistanceService&quot;)\n</title>
<path fill="none" stroke="#ff0000" d="M1403.7989,-291.9405C1126.7837,-288.7782 480.8869,-279.1347 383.7219,-257.2 325.6011,-244.0794 264.149,-216.9995 217.6965,-193.4959"/>
<polygon fill="#ff0000" stroke="#ff0000" points="219.1082,-190.2867 208.6115,-188.8481 215.92,-196.5186 219.1082,-190.2867"/>
<text text-anchor="middle" x="435.5242" y="-227.8" font-family="Times,serif" font-size="14.00" fill="#ff0000">fillReliabilityDate</text>
</g>
<!-- Class: [TableViewController]&#45;&gt;str.length &gt;= 3\n!service.equals(&quot;AssistanceService&quot;)\n!performanceEntries.containsKey(service)\nresult\n -->
<g id="edge18" class="edge">
<title>Class: [TableViewController]&#45;&gt;str.length &gt;= 3\n!service.equals(&quot;AssistanceService&quot;)\n!performanceEntries.containsKey(service)\nresult\n</title>
<path fill="none" stroke="#ff0000" d="M1403.1512,-292.5633C1160.9348,-290.7412 648.6454,-283.7599 572.3179,-257.2 535.3725,-244.344 499.8415,-218.5869 473.2305,-195.6827"/>
<polygon fill="#ff0000" stroke="#ff0000" points="475.4417,-192.9665 465.6179,-188.9985 470.823,-198.2266 475.4417,-192.9665"/>
<text text-anchor="middle" x="629.7262" y="-227.8" font-family="Times,serif" font-size="14.00" fill="#ff0000">fillPerformanceData</text>
</g>
<!-- Class: [TableViewController]&#45;&gt;str.length &gt;= 3\nresult &amp;&amp; !service.equals(&quot;AssistanceService&quot;)\n!costEntries.containsKey(service)\n -->
<g id="edge19" class="edge">
<title>Class: [TableViewController]&#45;&gt;str.length &gt;= 3\nresult &amp;&amp; !service.equals(&quot;AssistanceService&quot;)\n!costEntries.containsKey(service)\n</title>
<path fill="none" stroke="#ff0000" d="M1403.4563,-292.2349C1177.752,-289.8826 725.9781,-282.0775 702.1595,-257.2 685.5453,-239.8472 688.7163,-212.8427 695.8809,-190.4339"/>
<polygon fill="#ff0000" stroke="#ff0000" points="699.2414,-191.4285 699.2727,-180.8337 692.6413,-189.0966 699.2414,-191.4285"/>
<text text-anchor="middle" x="736.8054" y="-227.8" font-family="Times,serif" font-size="14.00" fill="#ff0000">fillCostData</text>
</g>
<!-- Class: [CostEntry] -->
<g id="node6" class="node">
<title>Class: [CostEntry]</title>
<ellipse fill="none" stroke="#000000" cx="996.5901" cy="-151.2" rx="82.7974" ry="18"/>
<text text-anchor="middle" x="996.5901" y="-147" font-family="Times,serif" font-size="14.00" fill="#000000">Class: [CostEntry]</text>
</g>
<!-- Class: [TableViewController]&#45;&gt;Class: [CostEntry] -->
<g id="edge1" class="edge">
<title>Class: [TableViewController]&#45;&gt;Class: [CostEntry]</title>
<path fill="none" stroke="#000000" d="M1403.9134,-291.5837C1197.1677,-288.3012 805.9235,-279.2055 784.9561,-257.2 769.5041,-240.9829 770.9955,-224.3174 784.9561,-206.8 807.3008,-178.7624 828.8547,-197.6795 863.5901,-188.8 888.0002,-182.56 914.7607,-175.1133 937.8371,-168.4996"/>
<polygon fill="#000000" stroke="#000000" points="938.8426,-171.8524 947.4839,-165.7221 936.9058,-165.1256 938.8426,-171.8524"/>
<text text-anchor="middle" x="840.4071" y="-244.6" font-family="Times,serif" font-size="14.00" fill="#000000">[fillCostData</text>
<text text-anchor="middle" x="840.4071" y="-227.8" font-family="Times,serif" font-size="14.00" fill="#000000">&#45;&#45;&gt;</text>
<text text-anchor="middle" x="840.4071" y="-211" font-family="Times,serif" font-size="14.00" fill="#000000">getInvocationNum]</text>
</g>
<!-- Class: [TableViewController]&#45;&gt;Class: [CostEntry] -->
<g id="edge2" class="edge">
<title>Class: [TableViewController]&#45;&gt;Class: [CostEntry]</title>
<path fill="none" stroke="#000000" d="M1405.2347,-290.2022C1231.1491,-285.3875 934.0667,-274.6595 917.6041,-257.2 902.237,-240.9024 907.2857,-226.6819 917.6041,-206.8 924.9547,-192.6366 937.7539,-181.3204 950.9354,-172.6918"/>
<polygon fill="#000000" stroke="#000000" points="952.8851,-175.6023 959.5994,-167.4067 949.2397,-169.6264 952.8851,-175.6023"/>
<text text-anchor="middle" x="957.0831" y="-244.6" font-family="Times,serif" font-size="14.00" fill="#000000">[fillCostData</text>
<text text-anchor="middle" x="957.0831" y="-227.8" font-family="Times,serif" font-size="14.00" fill="#000000">&#45;&#45;&gt;</text>
<text text-anchor="middle" x="957.0831" y="-211" font-family="Times,serif" font-size="14.00" fill="#000000">getTotalCost]</text>
</g>
<!-- Class: [TableViewController]&#45;&gt;Class: [CostEntry] -->
<g id="edge3" class="edge">
<title>Class: [TableViewController]&#45;&gt;Class: [CostEntry]</title>
<path fill="none" stroke="#000000" d="M1407.8839,-288.3365C1261.0686,-281.9269 1031.9723,-269.9615 1017.5115,-257.2 995.9491,-238.1714 992.7096,-203.9171 993.5801,-179.4984"/>
<polygon fill="#000000" stroke="#000000" points="997.0816,-179.5779 994.1906,-169.3852 990.0943,-179.1561 997.0816,-179.5779"/>
<text text-anchor="middle" x="1071.6294" y="-244.6" font-family="Times,serif" font-size="14.00" fill="#000000">[fillCostData</text>
<text text-anchor="middle" x="1071.6294" y="-227.8" font-family="Times,serif" font-size="14.00" fill="#000000">&#45;&#45;&gt;</text>
<text text-anchor="middle" x="1071.6294" y="-211" font-family="Times,serif" font-size="14.00" fill="#000000">setInvocationNum]</text>
</g>
<!-- Class: [TableViewController]&#45;&gt;Class: [CostEntry] -->
<g id="edge4" class="edge">
<title>Class: [TableViewController]&#45;&gt;Class: [CostEntry]</title>
<path fill="none" stroke="#000000" d="M1410.93,-286.9628C1310.1577,-280.8094 1178.5346,-270.4168 1157.1595,-257.2 1134.6784,-243.2994 1145.6506,-224.0105 1125.5901,-206.8 1105.9873,-189.9823 1080.5256,-177.5637 1057.4077,-168.7827"/>
<polygon fill="#000000" stroke="#000000" points="1058.6012,-165.4925 1048.0072,-165.3584 1056.2052,-172.0698 1058.6012,-165.4925"/>
<text text-anchor="middle" x="1195.3054" y="-244.6" font-family="Times,serif" font-size="14.00" fill="#000000">[fillCostData</text>
<text text-anchor="middle" x="1195.3054" y="-227.8" font-family="Times,serif" font-size="14.00" fill="#000000">&#45;&#45;&gt;</text>
<text text-anchor="middle" x="1195.3054" y="-211" font-family="Times,serif" font-size="14.00" fill="#000000">setTotalCost]</text>
</g>
<!-- Class: [PerformanceEntry] -->
<g id="node7" class="node">
<title>Class: [PerformanceEntry]</title>
<ellipse fill="none" stroke="#000000" cx="1600.5901" cy="-151.2" rx="114.039" ry="18"/>
<text text-anchor="middle" x="1600.5901" y="-147" font-family="Times,serif" font-size="14.00" fill="#000000">Class: [PerformanceEntry]</text>
</g>
<!-- Class: [TableViewController]&#45;&gt;Class: [PerformanceEntry] -->
<g id="edge5" class="edge">
<title>Class: [TableViewController]&#45;&gt;Class: [PerformanceEntry]</title>
<path fill="none" stroke="#000000" d="M1414.622,-285.7025C1341.3578,-279.7183 1258.092,-270.1819 1246.6573,-257.2 1231.8514,-240.3909 1232.0989,-223.8239 1246.6573,-206.8 1262.6082,-188.1477 1393.4205,-171.361 1491.4022,-161.2292"/>
<polygon fill="#000000" stroke="#000000" points="1491.7832,-164.7086 1501.3751,-160.2091 1491.0708,-157.745 1491.7832,-164.7086"/>
<text text-anchor="middle" x="1307.0565" y="-244.6" font-family="Times,serif" font-size="14.00" fill="#000000">[fillPerformanceData</text>
<text text-anchor="middle" x="1307.0565" y="-227.8" font-family="Times,serif" font-size="14.00" fill="#000000">&#45;&#45;&gt;</text>
<text text-anchor="middle" x="1307.0565" y="-211" font-family="Times,serif" font-size="14.00" fill="#000000">addResponseTime]</text>
</g>
<!-- Class: [TableViewController]&#45;&gt;Class: [PerformanceEntry] -->
<g id="edge6" class="edge">
<title>Class: [TableViewController]&#45;&gt;Class: [PerformanceEntry]</title>
<path fill="none" stroke="#000000" d="M1443.0983,-280.0695C1418.451,-274.4616 1396.2087,-266.9229 1388.6573,-257.2 1374.9173,-239.509 1374.9746,-224.5354 1388.6573,-206.8 1403.3576,-187.7456 1455.3016,-173.9441 1504.0812,-164.8577"/>
<polygon fill="#000000" stroke="#000000" points="1504.8863,-168.269 1514.1047,-163.0467 1503.6417,-161.3805 1504.8863,-168.269"/>
<text text-anchor="middle" x="1449.0565" y="-244.6" font-family="Times,serif" font-size="14.00" fill="#000000">[fillPerformanceData</text>
<text text-anchor="middle" x="1449.0565" y="-227.8" font-family="Times,serif" font-size="14.00" fill="#000000">&#45;&#45;&gt;</text>
<text text-anchor="middle" x="1449.0565" y="-211" font-family="Times,serif" font-size="14.00" fill="#000000">getFailNum]</text>
</g>
<!-- Class: [TableViewController]&#45;&gt;Class: [PerformanceEntry] -->
<g id="edge7" class="edge">
<title>Class: [TableViewController]&#45;&gt;Class: [PerformanceEntry]</title>
<path fill="none" stroke="#000000" d="M1525.4714,-274.9549C1522.3179,-256.7143 1520.094,-228.3523 1530.6573,-206.8 1536.9743,-193.9113 1547.8624,-183.0755 1559.1914,-174.4926"/>
<polygon fill="#000000" stroke="#000000" points="1561.3168,-177.2763 1567.4595,-168.6439 1557.2743,-171.5615 1561.3168,-177.2763"/>
<text text-anchor="middle" x="1591.0565" y="-244.6" font-family="Times,serif" font-size="14.00" fill="#000000">[fillPerformanceData</text>
<text text-anchor="middle" x="1591.0565" y="-227.8" font-family="Times,serif" font-size="14.00" fill="#000000">&#45;&#45;&gt;</text>
<text text-anchor="middle" x="1591.0565" y="-211" font-family="Times,serif" font-size="14.00" fill="#000000">getInvocationNum]</text>
</g>
<!-- Class: [TableViewController]&#45;&gt;Class: [PerformanceEntry] -->
<g id="edge8" class="edge">
<title>Class: [TableViewController]&#45;&gt;Class: [PerformanceEntry]</title>
<path fill="none" stroke="#000000" d="M1603.6734,-278.5833C1624.5396,-272.8817 1643.293,-265.6634 1649.5901,-257.2 1662.9613,-239.2286 1657.506,-227.7547 1649.5901,-206.8 1645.2997,-195.4427 1637.515,-184.904 1629.3948,-176.1235"/>
<polygon fill="#000000" stroke="#000000" points="1631.7667,-173.544 1622.2519,-168.8834 1626.7836,-178.4603 1631.7667,-173.544"/>
<text text-anchor="middle" x="1722.3503" y="-244.6" font-family="Times,serif" font-size="14.00" fill="#000000">[fillPerformanceData</text>
<text text-anchor="middle" x="1722.3503" y="-227.8" font-family="Times,serif" font-size="14.00" fill="#000000">&#45;&#45;&gt;</text>
<text text-anchor="middle" x="1722.3503" y="-211" font-family="Times,serif" font-size="14.00" fill="#000000">setAvgResponseTime]</text>
</g>
<!-- Class: [TableViewController]&#45;&gt;Class: [PerformanceEntry] -->
<g id="edge9" class="edge">
<title>Class: [TableViewController]&#45;&gt;Class: [PerformanceEntry]</title>
<path fill="none" stroke="#000000" d="M1640.771,-284.6482C1707.0808,-278.3863 1780.3532,-268.9458 1790.5901,-257.2 1805.3075,-240.3133 1804.0221,-224.726 1790.5901,-206.8 1777.7318,-189.6398 1732.268,-175.9986 1689.0388,-166.5229"/>
<polygon fill="#000000" stroke="#000000" points="1689.5036,-163.0435 1678.994,-164.3847 1688.0462,-169.8901 1689.5036,-163.0435"/>
<text text-anchor="middle" x="1861.0565" y="-244.6" font-family="Times,serif" font-size="14.00" fill="#000000">[fillPerformanceData</text>
<text text-anchor="middle" x="1861.0565" y="-227.8" font-family="Times,serif" font-size="14.00" fill="#000000">&#45;&#45;&gt;</text>
<text text-anchor="middle" x="1861.0565" y="-211" font-family="Times,serif" font-size="14.00" fill="#000000">setFailNum]</text>
</g>
<!-- Class: [TableViewController]&#45;&gt;Class: [PerformanceEntry] -->
<g id="edge10" class="edge">
<title>Class: [TableViewController]&#45;&gt;Class: [PerformanceEntry]</title>
<path fill="none" stroke="#000000" d="M1653.9856,-290.1294C1762.849,-286.1204 1906.4245,-277.0964 1924.5901,-257.2 1939.6934,-240.6576 1939.0278,-223.9264 1924.5901,-206.8 1910.3556,-189.9147 1794.8881,-173.1221 1705.8079,-162.4829"/>
<polygon fill="#000000" stroke="#000000" points="1705.9751,-158.9784 1695.6334,-161.2806 1705.1536,-165.93 1705.9751,-158.9784"/>
<text text-anchor="middle" x="1996.0565" y="-244.6" font-family="Times,serif" font-size="14.00" fill="#000000">[fillPerformanceData</text>
<text text-anchor="middle" x="1996.0565" y="-227.8" font-family="Times,serif" font-size="14.00" fill="#000000">&#45;&#45;&gt;</text>
<text text-anchor="middle" x="1996.0565" y="-211" font-family="Times,serif" font-size="14.00" fill="#000000">setInvocationNum]</text>
</g>
<!-- Class: [ReliabilityEntry] -->
<g id="node8" class="node">
<title>Class: [ReliabilityEntry]</title>
<ellipse fill="none" stroke="#000000" cx="2434.5901" cy="-151.2" rx="105.9268" ry="18"/>
<text text-anchor="middle" x="2434.5901" y="-147" font-family="Times,serif" font-size="14.00" fill="#000000">Class: [ReliabilityEntry]</text>
</g>
<!-- Class: [TableViewController]&#45;&gt;Class: [ReliabilityEntry] -->
<g id="edge11" class="edge">
<title>Class: [TableViewController]&#45;&gt;Class: [ReliabilityEntry]</title>
<path fill="none" stroke="#000000" d="M1652.9895,-289.485C1798.0708,-284.3893 2023.7535,-273.9122 2059.5901,-257.2 2087.7561,-244.065 2080.5931,-221.3378 2108.0613,-206.8 2146.2009,-186.6142 2251.8475,-170.987 2332.7402,-161.5112"/>
<polygon fill="#000000" stroke="#000000" points="2333.4439,-164.9533 2342.9764,-160.3292 2332.6409,-157.9995 2333.4439,-164.9533"/>
<text text-anchor="middle" x="2161.8545" y="-244.6" font-family="Times,serif" font-size="14.00" fill="#000000">[fillReliabilityDate</text>
<text text-anchor="middle" x="2161.8545" y="-227.8" font-family="Times,serif" font-size="14.00" fill="#000000">&#45;&#45;&gt;</text>
<text text-anchor="middle" x="2161.8545" y="-211" font-family="Times,serif" font-size="14.00" fill="#000000">getFailNum]</text>
</g>
<!-- Class: [TableViewController]&#45;&gt;Class: [ReliabilityEntry] -->
<g id="edge12" class="edge">
<title>Class: [TableViewController]&#45;&gt;Class: [ReliabilityEntry]</title>
<path fill="none" stroke="#000000" d="M1653.9445,-289.9664C1845.146,-284.525 2191.8082,-272.6058 2214.5901,-257.2 2235.0429,-243.3692 2219.1697,-222.8212 2237.9561,-206.8 2255.8427,-191.5461 2307.9065,-177.1852 2353.9685,-166.8805"/>
<polygon fill="#000000" stroke="#000000" points="2354.9784,-170.2422 2363.9951,-164.679 2353.4771,-163.4051 2354.9784,-170.2422"/>
<text text-anchor="middle" x="2293.4071" y="-244.6" font-family="Times,serif" font-size="14.00" fill="#000000">[fillReliabilityDate</text>
<text text-anchor="middle" x="2293.4071" y="-227.8" font-family="Times,serif" font-size="14.00" fill="#000000">&#45;&#45;&gt;</text>
<text text-anchor="middle" x="2293.4071" y="-211" font-family="Times,serif" font-size="14.00" fill="#000000">getInvocationNum]</text>
</g>
<!-- Class: [TableViewController]&#45;&gt;Class: [ReliabilityEntry] -->
<g id="edge13" class="edge">
<title>Class: [TableViewController]&#45;&gt;Class: [ReliabilityEntry]</title>
<path fill="none" stroke="#000000" d="M1655.1235,-291.0733C1877.3417,-286.8347 2319.3607,-276.0796 2347.5901,-257.2 2368.1298,-243.4632 2356.2286,-226.5628 2371.0613,-206.8 2379.7549,-195.2168 2391.2022,-184.2919 2401.9821,-175.2429"/>
<polygon fill="#000000" stroke="#000000" points="2404.4766,-177.7262 2410.0388,-168.7088 2400.0674,-172.2894 2404.4766,-177.7262"/>
<text text-anchor="middle" x="2424.8545" y="-244.6" font-family="Times,serif" font-size="14.00" fill="#000000">[fillReliabilityDate</text>
<text text-anchor="middle" x="2424.8545" y="-227.8" font-family="Times,serif" font-size="14.00" fill="#000000">&#45;&#45;&gt;</text>
<text text-anchor="middle" x="2424.8545" y="-211" font-family="Times,serif" font-size="14.00" fill="#000000">getService]</text>
</g>
<!-- Class: [TableViewController]&#45;&gt;Class: [ReliabilityEntry] -->
<g id="edge14" class="edge">
<title>Class: [TableViewController]&#45;&gt;Class: [ReliabilityEntry]</title>
<path fill="none" stroke="#000000" d="M1654.7163,-290.6831C1909.0191,-285.2693 2463.5165,-271.8182 2477.5901,-257.2 2499.0286,-234.932 2478.5021,-200.5573 2459.1152,-177.0295"/>
<polygon fill="#000000" stroke="#000000" points="2461.5515,-174.4947 2452.376,-169.1974 2456.2454,-179.0604 2461.5515,-174.4947"/>
<text text-anchor="middle" x="2539.8545" y="-244.6" font-family="Times,serif" font-size="14.00" fill="#000000">[fillReliabilityDate</text>
<text text-anchor="middle" x="2539.8545" y="-227.8" font-family="Times,serif" font-size="14.00" fill="#000000">&#45;&#45;&gt;</text>
<text text-anchor="middle" x="2539.8545" y="-211" font-family="Times,serif" font-size="14.00" fill="#000000">setFailNum]</text>
</g>
<!-- Class: [TableViewController]&#45;&gt;Class: [ReliabilityEntry] -->
<g id="edge15" class="edge">
<title>Class: [TableViewController]&#45;&gt;Class: [ReliabilityEntry]</title>
<path fill="none" stroke="#000000" d="M1655.0941,-291.2317C1933.8527,-286.561 2581.4103,-273.9344 2597.5901,-257.2 2613.1602,-241.0962 2610.6241,-225.0174 2597.5901,-206.8 2586.6901,-191.5653 2547.4097,-177.9239 2510.1426,-167.9659"/>
<polygon fill="#000000" stroke="#000000" points="2510.7808,-164.5155 2500.2218,-165.3861 2509.0191,-171.2902 2510.7808,-164.5155"/>
<text text-anchor="middle" x="2661.6294" y="-244.6" font-family="Times,serif" font-size="14.00" fill="#000000">[fillReliabilityDate</text>
<text text-anchor="middle" x="2661.6294" y="-227.8" font-family="Times,serif" font-size="14.00" fill="#000000">&#45;&#45;&gt;</text>
<text text-anchor="middle" x="2661.6294" y="-211" font-family="Times,serif" font-size="14.00" fill="#000000">setInvocationNum]</text>
</g>
<!-- Class: [TableViewController]&#45;&gt;Class: [ReliabilityEntry] -->
<g id="edge16" class="edge">
<title>Class: [TableViewController]&#45;&gt;Class: [ReliabilityEntry]</title>
<path fill="none" stroke="#000000" d="M1655.2248,-291.6813C1957.386,-287.73 2701.2507,-276.1026 2719.5901,-257.2 2779.4455,-195.5065 2647.8611,-169.41 2544.1513,-158.5863"/>
<polygon fill="#000000" stroke="#000000" points="2544.1915,-155.0728 2533.8916,-157.555 2543.4914,-162.0377 2544.1915,-155.0728"/>
<text text-anchor="middle" x="2786.8545" y="-244.6" font-family="Times,serif" font-size="14.00" fill="#000000">[fillReliabilityDate</text>
<text text-anchor="middle" x="2786.8545" y="-227.8" font-family="Times,serif" font-size="14.00" fill="#000000">&#45;&#45;&gt;</text>
<text text-anchor="middle" x="2786.8545" y="-211" font-family="Times,serif" font-size="14.00" fill="#000000">setRate]</text>
</g>
<!-- Class: [PerformanceEntry]&#45;&gt;invocationNum.get() == failNum.get()\n -->
<g id="edge20" class="edge">
<title>Class: [PerformanceEntry]&#45;&gt;invocationNum.get() == failNum.get()\n</title>
<path fill="none" stroke="#ff0000" d="M1600.5901,-132.8114C1600.5901,-115.8907 1600.5901,-90.5413 1600.5901,-71.0513"/>
<polygon fill="#ff0000" stroke="#ff0000" points="1604.0902,-70.917 1600.5901,-60.917 1597.0902,-70.917 1604.0902,-70.917"/>
<text text-anchor="middle" x="1662.02" y="-83" font-family="Times,serif" font-size="14.00" fill="#ff0000">setAvgResponseTime</text>
</g>
</g>
</svg>
