<svg width="3367pt" height="442pt"
 viewBox="0.00 0.00 3366.72 442.40" xmlns="http://www.w3.org/2000/svg" xmlns:xlink="http://www.w3.org/1999/xlink">
<g id="graph0" class="graph" transform="scale(1 1) rotate(0) translate(4 438.4)">
<title>project</title>
<polygon fill="#ffffff" stroke="transparent" points="-4,4 -4,-438.4 3362.716,-438.4 3362.716,4 -4,4"/>
<text text-anchor="middle" x="1679.358" y="-8.2" font-family="Times,serif" font-size="14.00" fill="#000000">Method Calls for :tools.TaskGraphVisualizer</text>
<!-- object == null\ngraphID.containsKey(object)\n -->
<g id="node1" class="node">
<title>object == null\ngraphID.containsKey(object)\n</title>
<polygon fill="none" stroke="#ff0000" points="999.9239,-74.6019 820.6229,-74.6019 820.6229,-33.3981 999.9239,-33.3981 999.9239,-74.6019"/>
<text text-anchor="middle" x="910.2734" y="-58.2" font-family="Times,serif" font-size="14.00" fill="#ff0000">object == null</text>
<text text-anchor="middle" x="910.2734" y="-41.4" font-family="Times,serif" font-size="14.00" fill="#ff0000">graphID.containsKey(object)</text>
</g>
<!-- string == null\n -->
<g id="node2" class="node">
<title>string == null\n</title>
<polygon fill="none" stroke="#ff0000" points="1110.7313,-72 1017.8155,-72 1017.8155,-36 1110.7313,-36 1110.7313,-72"/>
<text text-anchor="middle" x="1064.2734" y="-49.8" font-family="Times,serif" font-size="14.00" fill="#ff0000">string == null</text>
</g>
<!-- attributes != null &amp;&amp; attributes.size() &gt; 0\n -->
<g id="node3" class="node">
<title>attributes != null &amp;&amp; attributes.size() &gt; 0\n</title>
<polygon fill="none" stroke="#ff0000" points="1390.5649,-72 1143.9819,-72 1143.9819,-36 1390.5649,-36 1390.5649,-72"/>
<text text-anchor="middle" x="1267.2734" y="-49.8" font-family="Times,serif" font-size="14.00" fill="#ff0000">attributes != null &amp;&amp; attributes.size() &gt; 0</text>
</g>
<!-- next == null || next == stopGraph\nthis instanceof IF\nifTask.False != ifTask.next\n -->
<g id="node4" class="node">
<title>next == null || next == stopGraph\nthis instanceof IF\nifTask.False != ifTask.next\n</title>
<polygon fill="none" stroke="#ff0000" points="2090.7582,-83.4014 1887.7886,-83.4014 1887.7886,-24.5986 2090.7582,-24.5986 2090.7582,-83.4014"/>
<text text-anchor="middle" x="1989.2734" y="-66.6" font-family="Times,serif" font-size="14.00" fill="#ff0000">next == null || next == stopGraph</text>
<text text-anchor="middle" x="1989.2734" y="-49.8" font-family="Times,serif" font-size="14.00" fill="#ff0000">this instanceof IF</text>
<text text-anchor="middle" x="1989.2734" y="-33" font-family="Times,serif" font-size="14.00" fill="#ff0000">ifTask.False != ifTask.next</text>
</g>
<!-- next != null\nnext.prev != null\n -->
<g id="node5" class="node">
<title>next != null\nnext.prev != null\n</title>
<polygon fill="none" stroke="#ff0000" points="2218.0904,-74.6019 2108.4564,-74.6019 2108.4564,-33.3981 2218.0904,-33.3981 2218.0904,-74.6019"/>
<text text-anchor="middle" x="2163.2734" y="-58.2" font-family="Times,serif" font-size="14.00" fill="#ff0000">next != null</text>
<text text-anchor="middle" x="2163.2734" y="-41.4" font-family="Times,serif" font-size="14.00" fill="#ff0000">next.prev != null</text>
</g>
<!-- this.next == null\n -->
<g id="node6" class="node">
<title>this.next == null\n</title>
<polygon fill="none" stroke="#ff0000" points="2344.6755,-72 2235.8713,-72 2235.8713,-36 2344.6755,-36 2344.6755,-72"/>
<text text-anchor="middle" x="2290.2734" y="-49.8" font-family="Times,serif" font-size="14.00" fill="#ff0000">this.next == null</text>
</g>
<!-- name != null\n -->
<g id="node7" class="node">
<title>name != null\n</title>
<polygon fill="none" stroke="#ff0000" points="2449.9303,-72 2362.6165,-72 2362.6165,-36 2449.9303,-36 2449.9303,-72"/>
<text text-anchor="middle" x="2406.2734" y="-49.8" font-family="Times,serif" font-size="14.00" fill="#ff0000">name != null</text>
</g>
<!-- q != null\n -->
<g id="node8" class="node">
<title>q != null\n</title>
<polygon fill="none" stroke="#ff0000" points="2532.6107,-72 2467.9361,-72 2467.9361,-36 2532.6107,-36 2532.6107,-72"/>
<text text-anchor="middle" x="2500.2734" y="-49.8" font-family="Times,serif" font-size="14.00" fill="#ff0000">q != null</text>
</g>
<!-- label != null\n -->
<g id="node9" class="node">
<title>label != null\n</title>
<polygon fill="none" stroke="#ff0000" points="84.3214,-242 .2254,-242 .2254,-206 84.3214,-206 84.3214,-242"/>
<text text-anchor="middle" x="42.2734" y="-219.8" font-family="Times,serif" font-size="14.00" fill="#ff0000">label != null</text>
</g>
<!-- visitedNodes.contains(node)\n -->
<g id="node10" class="node">
<title>visitedNodes.contains(node)\n</title>
<polygon fill="none" stroke="#ff0000" points="278.0611,-242 102.4857,-242 102.4857,-206 278.0611,-206 278.0611,-242"/>
<text text-anchor="middle" x="190.2734" y="-219.8" font-family="Times,serif" font-size="14.00" fill="#ff0000">visitedNodes.contains(node)</text>
</g>
<!-- node instanceof TaskGraph.PUSH\nnode instanceof TaskGraph.ALLOC\ncastedNode.getInstanceName() != null\nnode instanceof TaskGraph.CALL\nnode instanceof TaskGraph.Expression\nnode instanceof TaskGraph.MemoryOperation\nnode instanceof TaskGraph.DECL\nnode instanceof TaskGraph.Store\nnode instanceof TaskGraph.BinaryOp\nnode instanceof TaskGraph.UnaryOp\n -->
<g id="node11" class="node">
<title>node instanceof TaskGraph.PUSH\nnode instanceof TaskGraph.ALLOC\ncastedNode.getInstanceName() != null\nnode instanceof TaskGraph.CALL\nnode instanceof TaskGraph.Expression\nnode instanceof TaskGraph.MemoryOperation\nnode instanceof TaskGraph.DECL\nnode instanceof TaskGraph.Store\nnode instanceof TaskGraph.BinaryOp\nnode instanceof TaskGraph.UnaryOp\n</title>
<polygon fill="none" stroke="#ff0000" points="573.9001,-312 296.6467,-312 296.6467,-136 573.9001,-136 573.9001,-312"/>
<text text-anchor="middle" x="435.2734" y="-295.4" font-family="Times,serif" font-size="14.00" fill="#ff0000">node instanceof TaskGraph.PUSH</text>
<text text-anchor="middle" x="435.2734" y="-278.6" font-family="Times,serif" font-size="14.00" fill="#ff0000">node instanceof TaskGraph.ALLOC</text>
<text text-anchor="middle" x="435.2734" y="-261.8" font-family="Times,serif" font-size="14.00" fill="#ff0000">castedNode.getInstanceName() != null</text>
<text text-anchor="middle" x="435.2734" y="-245" font-family="Times,serif" font-size="14.00" fill="#ff0000">node instanceof TaskGraph.CALL</text>
<text text-anchor="middle" x="435.2734" y="-228.2" font-family="Times,serif" font-size="14.00" fill="#ff0000">node instanceof TaskGraph.Expression</text>
<text text-anchor="middle" x="435.2734" y="-211.4" font-family="Times,serif" font-size="14.00" fill="#ff0000">node instanceof TaskGraph.MemoryOperation</text>
<text text-anchor="middle" x="435.2734" y="-194.6" font-family="Times,serif" font-size="14.00" fill="#ff0000">node instanceof TaskGraph.DECL</text>
<text text-anchor="middle" x="435.2734" y="-177.8" font-family="Times,serif" font-size="14.00" fill="#ff0000">node instanceof TaskGraph.Store</text>
<text text-anchor="middle" x="435.2734" y="-161" font-family="Times,serif" font-size="14.00" fill="#ff0000">node instanceof TaskGraph.BinaryOp</text>
<text text-anchor="middle" x="435.2734" y="-144.2" font-family="Times,serif" font-size="14.00" fill="#ff0000">node instanceof TaskGraph.UnaryOp</text>
</g>
<!-- task == null || isVisited(task)\nm.getName().equals(methodName)\nresult != null\n -->
<g id="node12" class="node">
<title>task == null || isVisited(task)\nm.getName().equals(methodName)\nresult != null\n</title>
<polygon fill="none" stroke="#ff0000" points="806.5247,-253.4014 592.0221,-253.4014 592.0221,-194.5986 806.5247,-194.5986 806.5247,-253.4014"/>
<text text-anchor="middle" x="699.2734" y="-236.6" font-family="Times,serif" font-size="14.00" fill="#ff0000">task == null || isVisited(task)</text>
<text text-anchor="middle" x="699.2734" y="-219.8" font-family="Times,serif" font-size="14.00" fill="#ff0000">m.getName().equals(methodName)</text>
<text text-anchor="middle" x="699.2734" y="-203" font-family="Times,serif" font-size="14.00" fill="#ff0000">result != null</text>
</g>
<!-- Class: [TaskGraphVisualizer] -->
<g id="node13" class="node">
<title>Class: [TaskGraphVisualizer]</title>
<ellipse fill="none" stroke="#000000" cx="1608.2734" cy="-416.4" rx="126.1343" ry="18"/>
<text text-anchor="middle" x="1608.2734" y="-412.2" font-family="Times,serif" font-size="14.00" fill="#000000">Class: [TaskGraphVisualizer]</text>
</g>
<!-- Class: [TaskGraphVisualizer]&#45;&gt;label != null\n -->
<g id="edge20" class="edge">
<title>Class: [TaskGraphVisualizer]&#45;&gt;label != null\n</title>
<path fill="none" stroke="#ff0000" d="M1482.7238,-414.5609C1154.7065,-409.5618 293.1874,-395.1099 233.1906,-380.4 165.9633,-363.9173 143.9139,-359.1883 93.2734,-312 75.2316,-295.1882 61.6967,-270.5298 53.1207,-251.5894"/>
<polygon fill="#ff0000" stroke="#ff0000" points="56.2747,-250.0647 49.0904,-242.2777 49.8506,-252.8453 56.2747,-250.0647"/>
<text text-anchor="middle" x="273.3148" y="-351" font-family="Times,serif" font-size="14.00" fill="#ff0000">constructEdge</text>
</g>
<!-- Class: [TaskGraphVisualizer]&#45;&gt;visitedNodes.contains(node)\n -->
<g id="edge21" class="edge">
<title>Class: [TaskGraphVisualizer]&#45;&gt;visitedNodes.contains(node)\n</title>
<path fill="none" stroke="#ff0000" d="M1482.2144,-415.3108C1200.7165,-412.4764 537.8388,-403.4253 438.5006,-380.4 366.6384,-363.7433 348.9457,-352.4742 287.2734,-312 260.0399,-294.1273 232.9095,-268.6993 214.2955,-249.7694"/>
<polygon fill="#ff0000" stroke="#ff0000" points="216.5809,-247.0983 207.1088,-242.3518 211.5536,-251.9692 216.5809,-247.0983"/>
<text text-anchor="middle" x="464.1598" y="-351" font-family="Times,serif" font-size="14.00" fill="#ff0000">isVisited</text>
</g>
<!-- Class: [TaskGraphVisualizer]&#45;&gt;node instanceof TaskGraph.PUSH\nnode instanceof TaskGraph.ALLOC\ncastedNode.getInstanceName() != null\nnode instanceof TaskGraph.CALL\nnode instanceof TaskGraph.Expression\nnode instanceof TaskGraph.MemoryOperation\nnode instanceof TaskGraph.DECL\nnode instanceof TaskGraph.Store\nnode instanceof TaskGraph.BinaryOp\nnode instanceof TaskGraph.UnaryOp\n -->
<g id="edge22" class="edge">
<title>Class: [TaskGraphVisualizer]&#45;&gt;node instanceof TaskGraph.PUSH\nnode instanceof TaskGraph.ALLOC\ncastedNode.getInstanceName() != null\nnode instanceof TaskGraph.CALL\nnode instanceof TaskGraph.Expression\nnode instanceof TaskGraph.MemoryOperation\nnode instanceof TaskGraph.DECL\nnode instanceof TaskGraph.Store\nnode instanceof TaskGraph.BinaryOp\nnode instanceof TaskGraph.UnaryOp\n</title>
<path fill="none" stroke="#ff0000" d="M1482.4862,-415.1231C1209.9049,-411.9495 585.8605,-402.3244 545.3196,-380.4 519.9797,-366.6963 499.175,-344.3145 482.7422,-320.7116"/>
<polygon fill="#ff0000" stroke="#ff0000" points="485.5914,-318.6763 477.1118,-312.3244 479.7795,-322.5779 485.5914,-318.6763"/>
<text text-anchor="middle" x="595.2503" y="-351" font-family="Times,serif" font-size="14.00" fill="#ff0000">prepareAttributes</text>
</g>
<!-- Class: [TaskGraphVisualizer]&#45;&gt;task == null || isVisited(task)\nm.getName().equals(methodName)\nresult != null\n -->
<g id="edge23" class="edge">
<title>Class: [TaskGraphVisualizer]&#45;&gt;task == null || isVisited(task)\nm.getName().equals(methodName)\nresult != null\n</title>
<path fill="none" stroke="#ff0000" d="M1483.4141,-413.8782C1229.6536,-408.4552 676.3388,-394.9876 662.2958,-380.4 631.8808,-348.8055 652.754,-297.049 673.401,-261.7992"/>
<polygon fill="#ff0000" stroke="#ff0000" points="676.4147,-263.5794 678.614,-253.2153 670.4316,-259.9458 676.4147,-263.5794"/>
<text text-anchor="middle" x="694.7622" y="-351" font-family="Times,serif" font-size="14.00" fill="#ff0000">exportTask</text>
</g>
<!-- Class: [GMLExporter] -->
<g id="node14" class="node">
<title>Class: [GMLExporter]</title>
<ellipse fill="none" stroke="#000000" cx="923.2734" cy="-224" rx="98.9514" ry="18"/>
<text text-anchor="middle" x="923.2734" y="-219.8" font-family="Times,serif" font-size="14.00" fill="#000000">Class: [GMLExporter]</text>
</g>
<!-- Class: [TaskGraphVisualizer]&#45;&gt;Class: [GMLExporter] -->
<g id="edge1" class="edge">
<title>Class: [TaskGraphVisualizer]&#45;&gt;Class: [GMLExporter]</title>
<path fill="none" stroke="#000000" d="M1481.8883,-415.7119C1247.143,-413.8074 765.2077,-406.6995 739.976,-380.4 724.4683,-364.2361 726.0998,-347.5844 739.976,-330 761.2912,-302.9888 784.4291,-327.2502 815.2734,-312 847.379,-296.1262 878.4786,-269.1719 898.9936,-249.2674"/>
<polygon fill="#000000" stroke="#000000" points="901.6702,-251.5428 906.3179,-242.0218 896.7472,-246.5664 901.6702,-251.5428"/>
<text text-anchor="middle" x="783.4221" y="-367.8" font-family="Times,serif" font-size="14.00" fill="#000000">[constructNode</text>
<text text-anchor="middle" x="783.4221" y="-351" font-family="Times,serif" font-size="14.00" fill="#000000">&#45;&#45;&gt;</text>
<text text-anchor="middle" x="783.4221" y="-334.2" font-family="Times,serif" font-size="14.00" fill="#000000">getID]</text>
</g>
<!-- Class: [TaskGraphVisualizer]&#45;&gt;Class: [GMLExporter] -->
<g id="edge3" class="edge">
<title>Class: [TaskGraphVisualizer]&#45;&gt;Class: [GMLExporter]</title>
<path fill="none" stroke="#000000" d="M1482.314,-414.9013C1272.2149,-411.7765 870.9776,-402.8864 849.5328,-380.4 813.0329,-342.1273 861.6941,-282.4609 895.5893,-248.9726"/>
<polygon fill="#000000" stroke="#000000" points="898.2133,-251.3045 902.9832,-241.8442 893.3548,-246.2651 898.2133,-251.3045"/>
<text text-anchor="middle" x="889.1437" y="-367.8" font-family="Times,serif" font-size="14.00" fill="#000000">[exportGML</text>
<text text-anchor="middle" x="889.1437" y="-351" font-family="Times,serif" font-size="14.00" fill="#000000">&#45;&#45;&gt;</text>
<text text-anchor="middle" x="889.1437" y="-334.2" font-family="Times,serif" font-size="14.00" fill="#000000">startExporter]</text>
</g>
<!-- Class: [TaskGraphVisualizer]&#45;&gt;Class: [GMLExporter] -->
<g id="edge4" class="edge">
<title>Class: [TaskGraphVisualizer]&#45;&gt;Class: [GMLExporter]</title>
<path fill="none" stroke="#000000" d="M1483.4275,-413.5412C1298.1224,-408.7324 969.8621,-397.8084 950.2986,-380.4 931.6854,-363.8372 925.8833,-292.6295 924.0808,-252.2448"/>
<polygon fill="#000000" stroke="#000000" points="927.5769,-252.0727 923.6871,-242.2177 920.5823,-252.3474 927.5769,-252.0727"/>
<text text-anchor="middle" x="989.7608" y="-367.8" font-family="Times,serif" font-size="14.00" fill="#000000">[exportGML</text>
<text text-anchor="middle" x="989.7608" y="-351" font-family="Times,serif" font-size="14.00" fill="#000000">&#45;&#45;&gt;</text>
<text text-anchor="middle" x="989.7608" y="-334.2" font-family="Times,serif" font-size="14.00" fill="#000000">stopExporter]</text>
</g>
<!-- Class: [TaskGraphVisualizer]&#45;&gt;Class: [GMLExporter] -->
<g id="edge5" class="edge">
<title>Class: [TaskGraphVisualizer]&#45;&gt;Class: [GMLExporter]</title>
<path fill="none" stroke="#000000" d="M1482.3439,-414.9969C1328.7957,-412.2517 1085.3256,-404.164 1050.6352,-380.4 1030.2666,-366.4469 1041.315,-350.3076 1027.2734,-330 1005.7631,-298.8907 974.7529,-268.6263 952.1947,-248.4546"/>
<polygon fill="#000000" stroke="#000000" points="954.4129,-245.7443 944.5975,-241.7557 949.7833,-250.9947 954.4129,-245.7443"/>
<text text-anchor="middle" x="1085.0925" y="-367.8" font-family="Times,serif" font-size="14.00" fill="#000000">[exportTask</text>
<text text-anchor="middle" x="1085.0925" y="-351" font-family="Times,serif" font-size="14.00" fill="#000000">&#45;&#45;&gt;</text>
<text text-anchor="middle" x="1085.0925" y="-334.2" font-family="Times,serif" font-size="14.00" fill="#000000">getID]</text>
</g>
<!-- Class: [GMLHelper] -->
<g id="node15" class="node">
<title>Class: [GMLHelper]</title>
<ellipse fill="none" stroke="#000000" cx="1147.2734" cy="-224" rx="91.4251" ry="18"/>
<text text-anchor="middle" x="1147.2734" y="-219.8" font-family="Times,serif" font-size="14.00" fill="#000000">Class: [GMLHelper]</text>
</g>
<!-- Class: [TaskGraphVisualizer]&#45;&gt;Class: [GMLHelper] -->
<g id="edge2" class="edge">
<title>Class: [TaskGraphVisualizer]&#45;&gt;Class: [GMLHelper]</title>
<path fill="none" stroke="#000000" d="M1487.3939,-411.1369C1352.8667,-404.6787 1152.6739,-393.0217 1140.9872,-380.4 1108.9757,-345.8275 1123.2096,-286.343 1135.7304,-251.5503"/>
<polygon fill="#000000" stroke="#000000" points="1139.0724,-252.6079 1139.342,-242.0164 1132.5264,-250.128 1139.0724,-252.6079"/>
<text text-anchor="middle" x="1212.4165" y="-367.8" font-family="Times,serif" font-size="14.00" fill="#000000">[constructNode</text>
<text text-anchor="middle" x="1212.4165" y="-351" font-family="Times,serif" font-size="14.00" fill="#000000">&#45;&#45;&gt;</text>
<text text-anchor="middle" x="1212.4165" y="-334.2" font-family="Times,serif" font-size="14.00" fill="#000000">composeLabelAttributes]</text>
</g>
<!-- Class: [TaskGraph] -->
<g id="node16" class="node">
<title>Class: [TaskGraph]</title>
<ellipse fill="none" stroke="#000000" cx="2290.2734" cy="-224" rx="86.2717" ry="18"/>
<text text-anchor="middle" x="2290.2734" y="-219.8" font-family="Times,serif" font-size="14.00" fill="#000000">Class: [TaskGraph]</text>
</g>
<!-- Class: [TaskGraphVisualizer]&#45;&gt;Class: [TaskGraph] -->
<g id="edge6" class="edge">
<title>Class: [TaskGraphVisualizer]&#45;&gt;Class: [TaskGraph]</title>
<path fill="none" stroke="#000000" d="M1490.6089,-409.7702C1411.2543,-404.0605 1318.7971,-394.4904 1306.2866,-380.4 1291.4144,-363.6496 1291.3197,-346.6659 1306.2866,-330 1365.0042,-264.6173 1958.2944,-236.0397 2194.2449,-227.1978"/>
<polygon fill="#000000" stroke="#000000" points="2194.6647,-230.6847 2204.5281,-226.8165 2194.4052,-223.6895 2194.6647,-230.6847"/>
<text text-anchor="middle" x="1383.2668" y="-367.8" font-family="Times,serif" font-size="14.00" fill="#000000">[prepareAttributes</text>
<text text-anchor="middle" x="1383.2668" y="-351" font-family="Times,serif" font-size="14.00" fill="#000000">&#45;&#45;&gt;</text>
<text text-anchor="middle" x="1383.2668" y="-334.2" font-family="Times,serif" font-size="14.00" fill="#000000">ALLOC.getInstanceName]</text>
</g>
<!-- Class: [TaskGraphVisualizer]&#45;&gt;Class: [TaskGraph] -->
<g id="edge7" class="edge">
<title>Class: [TaskGraphVisualizer]&#45;&gt;Class: [TaskGraph]</title>
<path fill="none" stroke="#000000" d="M1529.7006,-402.273C1507.5603,-396.6074 1487.6489,-389.2866 1480.9262,-380.4 1467.412,-362.5359 1466.1512,-346.8363 1480.9262,-330 1527.5761,-276.842 1993.6301,-242.1316 2196.6145,-229.4229"/>
<polygon fill="#000000" stroke="#000000" points="2196.9029,-232.9118 2206.6665,-228.7981 2196.4686,-225.9253 2196.9029,-232.9118"/>
<text text-anchor="middle" x="1533.947" y="-367.8" font-family="Times,serif" font-size="14.00" fill="#000000">[prepareAttributes</text>
<text text-anchor="middle" x="1533.947" y="-351" font-family="Times,serif" font-size="14.00" fill="#000000">&#45;&#45;&gt;</text>
<text text-anchor="middle" x="1533.947" y="-334.2" font-family="Times,serif" font-size="14.00" fill="#000000">ALLOC.getName]</text>
</g>
<!-- Class: [TaskGraphVisualizer]&#45;&gt;Class: [TaskGraph] -->
<g id="edge8" class="edge">
<title>Class: [TaskGraphVisualizer]&#45;&gt;Class: [TaskGraph]</title>
<path fill="none" stroke="#000000" d="M1602.406,-398.1375C1597.4456,-378.8022 1593.4452,-348.565 1609.5896,-330 1647.8902,-285.9569 2023.5754,-247.4474 2199.8356,-231.6421"/>
<polygon fill="#000000" stroke="#000000" points="2200.2216,-235.1216 2209.8713,-230.7474 2199.5999,-228.1493 2200.2216,-235.1216"/>
<text text-anchor="middle" x="1678.1153" y="-367.8" font-family="Times,serif" font-size="14.00" fill="#000000">[prepareAttributes</text>
<text text-anchor="middle" x="1678.1153" y="-351" font-family="Times,serif" font-size="14.00" fill="#000000">&#45;&#45;&gt;</text>
<text text-anchor="middle" x="1678.1153" y="-334.2" font-family="Times,serif" font-size="14.00" fill="#000000">BinaryOp.getBinaryOp]</text>
</g>
<!-- Class: [TaskGraphVisualizer]&#45;&gt;Class: [TaskGraph] -->
<g id="edge9" class="edge">
<title>Class: [TaskGraphVisualizer]&#45;&gt;Class: [TaskGraph]</title>
<path fill="none" stroke="#000000" d="M1685.483,-402.1264C1711.0642,-396.143 1735.506,-388.654 1745.2734,-380.4 1764.0493,-364.5334 1748.8371,-345.3279 1768.0552,-330 1833.8739,-277.5045 2070.0723,-246.0738 2201.1108,-232.2903"/>
<polygon fill="#000000" stroke="#000000" points="2201.5486,-235.7637 2211.1333,-231.2489 2200.8251,-228.8012 2201.5486,-235.7637"/>
<text text-anchor="middle" x="1843.8825" y="-367.8" font-family="Times,serif" font-size="14.00" fill="#000000">[prepareAttributes</text>
<text text-anchor="middle" x="1843.8825" y="-351" font-family="Times,serif" font-size="14.00" fill="#000000">&#45;&#45;&gt;</text>
<text text-anchor="middle" x="1843.8825" y="-334.2" font-family="Times,serif" font-size="14.00" fill="#000000">CALL.getOperationName]</text>
</g>
<!-- Class: [TaskGraphVisualizer]&#45;&gt;Class: [TaskGraph] -->
<g id="edge10" class="edge">
<title>Class: [TaskGraphVisualizer]&#45;&gt;Class: [TaskGraph]</title>
<path fill="none" stroke="#000000" d="M1722.3145,-408.6525C1804.35,-402.164 1903.2517,-392.1002 1919.2734,-380.4 1939.1255,-365.9026 1923.5885,-346.2253 1942.0552,-330 1983.2367,-293.8169 2128.537,-257.9916 2217.9146,-238.6582"/>
<polygon fill="#000000" stroke="#000000" points="2218.6786,-242.074 2227.722,-236.5543 2217.2103,-235.2297 2218.6786,-242.074"/>
<text text-anchor="middle" x="2010.8825" y="-367.8" font-family="Times,serif" font-size="14.00" fill="#000000">[prepareAttributes</text>
<text text-anchor="middle" x="2010.8825" y="-351" font-family="Times,serif" font-size="14.00" fill="#000000">&#45;&#45;&gt;</text>
<text text-anchor="middle" x="2010.8825" y="-334.2" font-family="Times,serif" font-size="14.00" fill="#000000">CALL.getServiceName]</text>
</g>
<!-- Class: [TaskGraphVisualizer]&#45;&gt;Class: [TaskGraph] -->
<g id="edge11" class="edge">
<title>Class: [TaskGraphVisualizer]&#45;&gt;Class: [TaskGraph]</title>
<path fill="none" stroke="#000000" d="M1732.7892,-413.3332C1862.7085,-409.1169 2051.3903,-399.7358 2079.2734,-380.4 2099.5656,-366.3282 2085.9086,-348.1442 2102.659,-330 2139.8568,-289.707 2195.967,-260.8038 2237.1362,-243.4574"/>
<polygon fill="#000000" stroke="#000000" points="2238.5549,-246.6584 2246.4688,-239.6142 2235.8894,-240.1857 2238.5549,-246.6584"/>
<text text-anchor="middle" x="2154.5806" y="-367.8" font-family="Times,serif" font-size="14.00" fill="#000000">[prepareAttributes</text>
<text text-anchor="middle" x="2154.5806" y="-351" font-family="Times,serif" font-size="14.00" fill="#000000">&#45;&#45;&gt;</text>
<text text-anchor="middle" x="2154.5806" y="-334.2" font-family="Times,serif" font-size="14.00" fill="#000000">DECL.getType]</text>
</g>
<!-- Class: [TaskGraphVisualizer]&#45;&gt;Class: [TaskGraph] -->
<g id="edge12" class="edge">
<title>Class: [TaskGraphVisualizer]&#45;&gt;Class: [TaskGraph]</title>
<path fill="none" stroke="#000000" d="M1731.1877,-412.1924C1900.2577,-405.9416 2186.0225,-393.5221 2205.2734,-380.4 2225.6779,-366.4916 2217.2453,-351.8978 2228.659,-330 2242.9713,-302.5411 2260.9136,-272.0608 2273.7387,-250.8597"/>
<polygon fill="#000000" stroke="#000000" points="2276.8621,-252.4597 2279.0679,-242.0971 2270.8813,-248.8224 2276.8621,-252.4597"/>
<text text-anchor="middle" x="2280.5806" y="-367.8" font-family="Times,serif" font-size="14.00" fill="#000000">[prepareAttributes</text>
<text text-anchor="middle" x="2280.5806" y="-351" font-family="Times,serif" font-size="14.00" fill="#000000">&#45;&#45;&gt;</text>
<text text-anchor="middle" x="2280.5806" y="-334.2" font-family="Times,serif" font-size="14.00" fill="#000000">DECL.isArray]</text>
</g>
<!-- Class: [TaskGraphVisualizer]&#45;&gt;Class: [TaskGraph] -->
<g id="edge13" class="edge">
<title>Class: [TaskGraphVisualizer]&#45;&gt;Class: [TaskGraph]</title>
<path fill="none" stroke="#000000" d="M1733.927,-414.5882C1935.5819,-411.0567 2311.051,-401.6544 2331.2734,-380.4 2365.1093,-344.8374 2333.5872,-284.8805 2310.2103,-250.451"/>
<polygon fill="#000000" stroke="#000000" points="2312.7984,-248.0457 2304.1909,-241.8681 2307.0674,-252.065 2312.7984,-248.0457"/>
<text text-anchor="middle" x="2400.6609" y="-367.8" font-family="Times,serif" font-size="14.00" fill="#000000">[prepareAttributes</text>
<text text-anchor="middle" x="2400.6609" y="-351" font-family="Times,serif" font-size="14.00" fill="#000000">&#45;&#45;&gt;</text>
<text text-anchor="middle" x="2400.6609" y="-334.2" font-family="Times,serif" font-size="14.00" fill="#000000">DECL.isReference]</text>
</g>
<!-- Class: [TaskGraphVisualizer]&#45;&gt;Class: [TaskGraph] -->
<g id="edge14" class="edge">
<title>Class: [TaskGraphVisualizer]&#45;&gt;Class: [TaskGraph]</title>
<path fill="none" stroke="#000000" d="M1734.5305,-415.6047C1965.6843,-413.5229 2435.6047,-406.133 2460.2734,-380.4 2509.8708,-328.6626 2407.3754,-272.9416 2340.9658,-244.012"/>
<polygon fill="#000000" stroke="#000000" points="2342.0225,-240.6573 2331.4518,-239.9417 2339.2691,-247.093 2342.0225,-240.6573"/>
<text text-anchor="middle" x="2533.7233" y="-367.8" font-family="Times,serif" font-size="14.00" fill="#000000">[prepareAttributes</text>
<text text-anchor="middle" x="2533.7233" y="-351" font-family="Times,serif" font-size="14.00" fill="#000000">&#45;&#45;&gt;</text>
<text text-anchor="middle" x="2533.7233" y="-334.2" font-family="Times,serif" font-size="14.00" fill="#000000">Expression.getValue]</text>
</g>
<!-- Class: [TaskGraphVisualizer]&#45;&gt;Class: [TaskGraph] -->
<g id="edge15" class="edge">
<title>Class: [TaskGraphVisualizer]&#45;&gt;Class: [TaskGraph]</title>
<path fill="none" stroke="#000000" d="M1733.4302,-414.092C1996.4017,-408.9441 2583.4623,-395.7595 2598.2734,-380.4 2673.939,-301.9329 2486.8871,-256.0468 2372.0403,-236.0327"/>
<polygon fill="#000000" stroke="#000000" points="2372.2949,-232.5255 2361.8482,-234.291 2371.1158,-239.4255 2372.2949,-232.5255"/>
<text text-anchor="middle" x="2707.2044" y="-367.8" font-family="Times,serif" font-size="14.00" fill="#000000">[prepareAttributes</text>
<text text-anchor="middle" x="2707.2044" y="-351" font-family="Times,serif" font-size="14.00" fill="#000000">&#45;&#45;&gt;</text>
<text text-anchor="middle" x="2707.2044" y="-334.2" font-family="Times,serif" font-size="14.00" fill="#000000">MemoryOperation.getVarName]</text>
</g>
<!-- Class: [TaskGraphVisualizer]&#45;&gt;Class: [TaskGraph] -->
<g id="edge16" class="edge">
<title>Class: [TaskGraphVisualizer]&#45;&gt;Class: [TaskGraph]</title>
<path fill="none" stroke="#000000" d="M1734.1569,-414.8946C2037.4082,-410.9689 2784.8502,-399.3866 2803.2734,-380.4 2818.8723,-364.3241 2817.4196,-347.368 2803.2734,-330 2751.3915,-266.3019 2517.2335,-239.7172 2383.9171,-229.587"/>
<polygon fill="#000000" stroke="#000000" points="2383.9398,-226.0792 2373.7079,-228.8284 2383.421,-233.0599 2383.9398,-226.0792"/>
<text text-anchor="middle" x="2891.0515" y="-367.8" font-family="Times,serif" font-size="14.00" fill="#000000">[prepareAttributes</text>
<text text-anchor="middle" x="2891.0515" y="-351" font-family="Times,serif" font-size="14.00" fill="#000000">&#45;&#45;&gt;</text>
<text text-anchor="middle" x="2891.0515" y="-334.2" font-family="Times,serif" font-size="14.00" fill="#000000">MemoryOperation.isLocal]</text>
</g>
<!-- Class: [TaskGraphVisualizer]&#45;&gt;Class: [TaskGraph] -->
<g id="edge17" class="edge">
<title>Class: [TaskGraphVisualizer]&#45;&gt;Class: [TaskGraph]</title>
<path fill="none" stroke="#000000" d="M1734.2872,-415.383C2068.0224,-412.3905 2950.8386,-402.408 2972.2734,-380.4 2987.9022,-364.3532 2986.8456,-347.0121 2972.2734,-330 2934.2073,-285.5604 2557.1717,-247.2243 2380.6095,-231.5502"/>
<polygon fill="#000000" stroke="#000000" points="2380.8265,-228.0558 2370.5575,-230.6631 2380.2111,-235.0287 2380.8265,-228.0558"/>
<text text-anchor="middle" x="3034.5806" y="-367.8" font-family="Times,serif" font-size="14.00" fill="#000000">[prepareAttributes</text>
<text text-anchor="middle" x="3034.5806" y="-351" font-family="Times,serif" font-size="14.00" fill="#000000">&#45;&#45;&gt;</text>
<text text-anchor="middle" x="3034.5806" y="-334.2" font-family="Times,serif" font-size="14.00" fill="#000000">PUSH.getName]</text>
</g>
<!-- Class: [TaskGraphVisualizer]&#45;&gt;Class: [TaskGraph] -->
<g id="edge18" class="edge">
<title>Class: [TaskGraphVisualizer]&#45;&gt;Class: [TaskGraph]</title>
<path fill="none" stroke="#000000" d="M1734.2353,-415.6595C2088.0425,-413.2811 3066.7216,-404.5308 3090.2734,-380.4 3105.9191,-364.3696 3105.0357,-346.8474 3090.2734,-330 3044.2723,-277.5017 2585.0945,-242.5032 2383.8972,-229.5726"/>
<polygon fill="#000000" stroke="#000000" points="2383.8427,-226.0621 2373.6401,-228.9181 2383.3969,-233.0479 2383.8427,-226.0621"/>
<text text-anchor="middle" x="3156.677" y="-367.8" font-family="Times,serif" font-size="14.00" fill="#000000">[prepareAttributes</text>
<text text-anchor="middle" x="3156.677" y="-351" font-family="Times,serif" font-size="14.00" fill="#000000">&#45;&#45;&gt;</text>
<text text-anchor="middle" x="3156.677" y="-334.2" font-family="Times,serif" font-size="14.00" fill="#000000">Store.getAssignOp]</text>
</g>
<!-- Class: [TaskGraphVisualizer]&#45;&gt;Class: [TaskGraph] -->
<g id="edge19" class="edge">
<title>Class: [TaskGraphVisualizer]&#45;&gt;Class: [TaskGraph]</title>
<path fill="none" stroke="#000000" d="M1734.4731,-415.9087C2109.1063,-414.1515 3190.4591,-406.7987 3216.2734,-380.4 3335.0174,-258.9678 2647.1712,-231.5991 2386.9492,-225.6175"/>
<polygon fill="#000000" stroke="#000000" points="2386.8276,-222.114 2376.7517,-225.389 2386.6707,-229.1122 2386.8276,-222.114"/>
<text text-anchor="middle" x="3293.9947" y="-367.8" font-family="Times,serif" font-size="14.00" fill="#000000">[prepareAttributes</text>
<text text-anchor="middle" x="3293.9947" y="-351" font-family="Times,serif" font-size="14.00" fill="#000000">&#45;&#45;&gt;</text>
<text text-anchor="middle" x="3293.9947" y="-334.2" font-family="Times,serif" font-size="14.00" fill="#000000">UnaryOp.getUnaryOp]</text>
</g>
<!-- Class: [GMLExporter]&#45;&gt;object == null\ngraphID.containsKey(object)\n -->
<g id="edge24" class="edge">
<title>Class: [GMLExporter]&#45;&gt;object == null\ngraphID.containsKey(object)\n</title>
<path fill="none" stroke="#ff0000" d="M921.8822,-205.807C919.674,-176.9306 915.3407,-120.265 912.6383,-84.9251"/>
<polygon fill="#ff0000" stroke="#ff0000" points="916.1085,-84.4006 911.8561,-74.6966 909.1288,-84.9344 916.1085,-84.4006"/>
<text text-anchor="middle" x="931.2096" y="-105.4" font-family="Times,serif" font-size="14.00" fill="#ff0000">getID</text>
</g>
<!-- Class: [GMLHelper]&#45;&gt;string == null\n -->
<g id="edge25" class="edge">
<title>Class: [GMLHelper]&#45;&gt;string == null\n</title>
<path fill="none" stroke="#ff0000" d="M1127.6077,-206.374C1107.5735,-186.9911 1077.7233,-153.8091 1065.192,-118 1061.2701,-106.7928 1060.462,-93.7915 1060.8518,-82.4461"/>
<polygon fill="#ff0000" stroke="#ff0000" points="1064.3625,-82.3978 1061.5299,-72.1887 1057.3777,-81.936 1064.3625,-82.3978"/>
<text text-anchor="middle" x="1098.3141" y="-105.4" font-family="Times,serif" font-size="14.00" fill="#ff0000">escapeHtml</text>
</g>
<!-- Class: [GMLHelper]&#45;&gt;attributes != null &amp;&amp; attributes.size() &gt; 0\n -->
<g id="edge26" class="edge">
<title>Class: [GMLHelper]&#45;&gt;attributes != null &amp;&amp; attributes.size() &gt; 0\n</title>
<path fill="none" stroke="#ff0000" d="M1142.8457,-205.8187C1137.6782,-179.9989 1132.4127,-132.3874 1154.5202,-101.2 1161.7345,-91.0227 1171.5809,-83.0306 1182.4704,-76.7567"/>
<polygon fill="#ff0000" stroke="#ff0000" points="1184.16,-79.8229 1191.3967,-72.0847 1180.9139,-73.621 1184.16,-79.8229"/>
<text text-anchor="middle" x="1208.15" y="-105.4" font-family="Times,serif" font-size="14.00" fill="#ff0000">composeAttributes</text>
</g>
<!-- Class: [GMLHelper]&#45;&gt;attributes != null &amp;&amp; attributes.size() &gt; 0\n -->
<g id="edge27" class="edge">
<title>Class: [GMLHelper]&#45;&gt;attributes != null &amp;&amp; attributes.size() &gt; 0\n</title>
<path fill="none" stroke="#ff0000" d="M1174.9156,-206.7047C1201.712,-188.284 1241.0457,-156.5037 1260.2734,-118 1265.7407,-107.0517 1267.8119,-93.7621 1268.3918,-82.1364"/>
<polygon fill="#ff0000" stroke="#ff0000" points="1271.8928,-82.0992 1268.5598,-72.0423 1264.8938,-81.9826 1271.8928,-82.0992"/>
<text text-anchor="middle" x="1360.7524" y="-105.4" font-family="Times,serif" font-size="14.00" fill="#ff0000">composeLabelComplexAttributes</text>
</g>
<!-- Class: [TaskGraph]&#45;&gt;next == null || next == stopGraph\nthis instanceof IF\nifTask.False != ifTask.next\n -->
<g id="edge28" class="edge">
<title>Class: [TaskGraph]&#45;&gt;next == null || next == stopGraph\nthis instanceof IF\nifTask.False != ifTask.next\n</title>
<path fill="none" stroke="#ff0000" d="M2260.3119,-207.0782C2211.457,-179.4858 2113.6963,-124.272 2049.9118,-88.2476"/>
<polygon fill="#ff0000" stroke="#ff0000" points="2051.5741,-85.1668 2041.1456,-83.2966 2048.1316,-91.2619 2051.5741,-85.1668"/>
<text text-anchor="middle" x="2136.4754" y="-105.4" font-family="Times,serif" font-size="14.00" fill="#ff0000">printHierarchy</text>
</g>
<!-- Class: [TaskGraph]&#45;&gt;next != null\nnext.prev != null\n -->
<g id="edge29" class="edge">
<title>Class: [TaskGraph]&#45;&gt;next != null\nnext.prev != null\n</title>
<path fill="none" stroke="#ff0000" d="M2276.9222,-206.1283C2255.0822,-176.8937 2211.5126,-118.5722 2185.1205,-83.2441"/>
<polygon fill="#ff0000" stroke="#ff0000" points="2187.5933,-80.7061 2178.8044,-74.7895 2181.9854,-84.8956 2187.5933,-80.7061"/>
<text text-anchor="middle" x="2241.6991" y="-105.4" font-family="Times,serif" font-size="14.00" fill="#ff0000">createClone</text>
</g>
<!-- Class: [TaskGraph]&#45;&gt;this.next == null\n -->
<g id="edge30" class="edge">
<title>Class: [TaskGraph]&#45;&gt;this.next == null\n</title>
<path fill="none" stroke="#ff0000" d="M2290.2734,-205.807C2290.2734,-176.1543 2290.2734,-117.1984 2290.2734,-82.1223"/>
<polygon fill="#ff0000" stroke="#ff0000" points="2293.7735,-82.0621 2290.2734,-72.0622 2286.7735,-82.0622 2293.7735,-82.0621"/>
<text text-anchor="middle" x="2310.8772" y="-105.4" font-family="Times,serif" font-size="14.00" fill="#ff0000">getLast</text>
</g>
<!-- Class: [TaskGraph]&#45;&gt;name != null\n -->
<g id="edge31" class="edge">
<title>Class: [TaskGraph]&#45;&gt;name != null\n</title>
<path fill="none" stroke="#ff0000" d="M2302.4682,-206.1283C2322.9528,-176.1078 2364.3663,-115.4156 2388.2279,-80.4459"/>
<polygon fill="#ff0000" stroke="#ff0000" points="2391.1475,-82.3769 2393.8929,-72.1439 2385.3654,-78.4314 2391.1475,-82.3769"/>
<text text-anchor="middle" x="2386.4333" y="-105.4" font-family="Times,serif" font-size="14.00" fill="#ff0000">clone</text>
</g>
<!-- Class: [TaskGraph]&#45;&gt;q != null\n -->
<g id="edge32" class="edge">
<title>Class: [TaskGraph]&#45;&gt;q != null\n</title>
<path fill="none" stroke="#ff0000" d="M2311.9561,-206.4473C2349.5637,-176.0031 2426.9697,-113.3411 2469.9069,-78.5824"/>
<polygon fill="#ff0000" stroke="#ff0000" points="2472.189,-81.2381 2477.7593,-72.2257 2467.7846,-75.7974 2472.189,-81.2381"/>
<text text-anchor="middle" x="2459.8309" y="-105.4" font-family="Times,serif" font-size="14.00" fill="#ff0000">toString</text>
</g>
</g>
</svg>
