<svg width="297pt" height="191pt"
 viewBox="0.00 0.00 296.54 191.20" xmlns="http://www.w3.org/2000/svg" xmlns:xlink="http://www.w3.org/1999/xlink">
<g id="graph0" class="graph" transform="scale(1 1) rotate(0) translate(4 187.2)">
<title>project</title>
<polygon fill="#ffffff" stroke="transparent" points="-4,4 -4,-187.2 292.5366,-187.2 292.5366,4 -4,4"/>
<text text-anchor="middle" x="144.2683" y="-8.2" font-family="Times,serif" font-size="14.00" fill="#000000">Method Calls for :service.auxiliary.XMLBuilder</text>
<!-- Class: [XMLBuilder] -->
<g id="node1" class="node">
<title>Class: [XMLBuilder]</title>
<ellipse fill="none" stroke="#000000" cx="144.2683" cy="-165.2" rx="93.8133" ry="18"/>
<text text-anchor="middle" x="144.2683" y="-161" font-family="Times,serif" font-size="14.00" fill="#000000">Class: [XMLBuilder]</text>
</g>
<!-- Class: [XStream] -->
<g id="node2" class="node">
<title>Class: [XStream]</title>
<ellipse fill="none" stroke="#000000" cx="144.2683" cy="-42.8" rx="77.6194" ry="18"/>
<text text-anchor="middle" x="144.2683" y="-38.6" font-family="Times,serif" font-size="14.00" fill="#000000">Class: [XStream]</text>
</g>
<!-- Class: [XMLBuilder]&#45;&gt;Class: [XStream] -->
<g id="edge1" class="edge">
<title>Class: [XMLBuilder]&#45;&gt;Class: [XStream]</title>
<path fill="none" stroke="#000000" d="M117.0111,-147.8277C111.0692,-142.6168 105.5807,-136.3527 102.2921,-129.2 92.935,-108.848 92.935,-99.152 102.2921,-78.8 104.2397,-74.564 106.9589,-70.6396 110.0868,-67.0611"/>
<polygon fill="#000000" stroke="#000000" points="112.7907,-69.3099 117.4466,-59.7929 107.8721,-64.3293 112.7907,-69.3099"/>
<text text-anchor="middle" x="134.7564" y="-116.6" font-family="Times,serif" font-size="14.00" fill="#000000">[fromXML</text>
<text text-anchor="middle" x="134.7564" y="-99.8" font-family="Times,serif" font-size="14.00" fill="#000000">&#45;&#45;&gt;</text>
<text text-anchor="middle" x="134.7564" y="-83" font-family="Times,serif" font-size="14.00" fill="#000000">fromXML]</text>
</g>
<!-- Class: [XMLBuilder]&#45;&gt;Class: [XStream] -->
<g id="edge2" class="edge">
<title>Class: [XMLBuilder]&#45;&gt;Class: [XStream]</title>
<path fill="none" stroke="#000000" d="M157.1629,-147.3496C160.4687,-141.8021 163.5688,-135.4864 165.2683,-129.2 171.1143,-107.5763 171.1143,-100.4237 165.2683,-78.8 164.4451,-75.755 163.2933,-72.7032 161.9487,-69.7351"/>
<polygon fill="#000000" stroke="#000000" points="164.9204,-67.8665 157.1629,-60.6504 158.7271,-71.1291 164.9204,-67.8665"/>
<text text-anchor="middle" x="192.5958" y="-116.6" font-family="Times,serif" font-size="14.00" fill="#000000">[toXML</text>
<text text-anchor="middle" x="192.5958" y="-99.8" font-family="Times,serif" font-size="14.00" fill="#000000">&#45;&#45;&gt;</text>
<text text-anchor="middle" x="192.5958" y="-83" font-family="Times,serif" font-size="14.00" fill="#000000">toXML]</text>
</g>
</g>
</svg>
